<?xml version="1.0" encoding="UTF-8" standalone="no"?>
<!-- Generator: Adobe Illustrator 16.0.0, SVG Export Plug-In . SVG Version: 6.00 Build 0)  -->

<svg
   xmlns:dc="http://purl.org/dc/elements/1.1/"
   xmlns:cc="http://creativecommons.org/ns#"
   xmlns:rdf="http://www.w3.org/1999/02/22-rdf-syntax-ns#"
   xmlns:svg="http://www.w3.org/2000/svg"
   xmlns="http://www.w3.org/2000/svg"
   xmlns:sodipodi="http://sodipodi.sourceforge.net/DTD/sodipodi-0.dtd"
   xmlns:inkscape="http://www.inkscape.org/namespaces/inkscape"
   version="1.1"
   id="레이어_1"
   x="0px"
   y="0px"
   width="860px"
   height="885px"
   viewBox="0 0 860 885"
   enable-background="new 0 0 860 885"
   xml:space="preserve"
   sodipodi:docname="2.svg"
   inkscape:version="0.92.3 (2405546, 2018-03-11)"><metadata
   id="metadata83"><rdf:RDF><cc:Work
       rdf:about=""><dc:format>image/svg+xml</dc:format><dc:type
         rdf:resource="http://purl.org/dc/dcmitype/StillImage" /></cc:Work></rdf:RDF></metadata><defs
   id="defs81" /><sodipodi:namedview
   pagecolor="#ffffff"
   bordercolor="#666666"
   borderopacity="1"
   objecttolerance="10"
   gridtolerance="10"
   guidetolerance="10"
   inkscape:pageopacity="0"
   inkscape:pageshadow="2"
   inkscape:window-width="1920"
   inkscape:window-height="1027"
   id="namedview79"
   showgrid="false"
   inkscape:zoom="0.70710678"
   inkscape:cx="275.49834"
   inkscape:cy="517.26555"
   inkscape:window-x="-8"
   inkscape:window-y="-2"
   inkscape:window-maximized="1"
   inkscape:current-layer="레이어_1" />
<g
   id="남서울"
   transform="translate(-3.8000014e-8,-87.681241)">
	<polygon
   points="437.166,496.361 436.408,494.204 436.415,494.1 436.887,487.715 427.173,487.308 422.565,486.057 416.658,481.945 411.644,477.986 406.828,472.494 388.024,461.731 375.743,455.669 368.631,458.538 362.463,460.72 351.354,463.906 346.619,465.033 342.57,465.669 336.767,465.645 335.181,465.39 332.603,470.191 331.577,471.91 330.563,473.381 329.812,476.089 326.967,485.044 325.407,489.495 321.083,503.092 320.957,507.469 319.805,508.827 318.283,509.538 310.069,511.567 309.138,511.724 306.273,512.128 305.37,512.479 304.696,513.216 302.448,517.77 300.028,521.323 295.829,527.676 294.102,530.423 288.416,539.088 291.382,539.269 293.529,539.09 304.002,534.943 306.857,533.194 313.393,528.051 316.168,527.398 316.785,527.354 321.505,527.071 327.83,526.991 329.908,520.608 332.187,518.428 332.315,517.011 333.27,516.119 333.934,514.551 335.988,514.672 339.248,517.032 342.045,518.919 343.911,519.666 346.087,519.437 348.462,519.494 350.128,520.482 351.493,521.391 352.389,522.104 353.197,522.257 353.816,521.784 354.597,521.482 355.609,521 356.596,521 357.34,520.796 358.141,519.844 359.728,519.74 360.854,520.098 361.126,521.102 361.646,521.275 362.589,521.488 363.507,520.941 364.344,520.713 365.44,520.614 366.599,520.294 367.101,519.782 368.046,518.99 369.068,518.65 370.729,517.979 372.226,516.77 373.221,517.489 374.11,517.795 374.69,517.853 376.002,517.564 377.475,519.188 377.977,519.869 378.949,520.36 380.324,520.744 381.763,521.344 382.658,522.248 383.552,522.91 385.591,524.256 386.438,524.16 387.738,523.627 389.462,523.423 391.706,522.201 391.956,521.766 394.214,520.7 394.193,520.072 394.843,517.846 395.1,517.443 396.878,517.406 397.855,517.694 399.815,518.619 399.745,519.793 400.106,520.148 400.27,522.108 400.087,523.727 399,525.11 399,526.144 398.486,527.112 399.077,527.844 400.263,529.015 401.038,530.07 401.247,530.909 401.223,534.093 401.461,537.088 401.435,537.091 401.749,538.396 401.654,538.759 401.191,539.894 400.991,540.532 401.173,540.979 400.854,541.869 399.853,542.845 401.328,544.337 401.495,545.068 401.899,545.644 402.934,546.387 403.718,547.855 404.074,548.129 405.184,548.871 405.573,549.435 406.13,551.369 406.37,552.026 407.162,552.573 408.719,553.252 410.352,554.276 411.502,555.808 412.861,556.147 413.255,556.898 414.655,559.328 417.731,559.958 418.503,562.124 424.84,560.27 426.065,560.008 430.337,559.415 431.747,559.303 434.572,559.242 435.852,559.27 438.772,559.491 440.026,531.766 440.6,527.813 440.979,510.274 445.32,503.6 443.557,501.893 438.708,498.337 "
   id="polygon2"
   style="fill:#33394b" />
	<polygon
   points="328.853,475.804 329.692,472.882 330.737,471.37 331.733,469.699 334.638,464.289 336.85,464.651 342.501,464.674 346.423,464.054 351.1,462.939 362.159,459.768 368.278,457.603 375.303,454.768 377.326,438.305 377.205,434.943 375.987,431.865 374.686,429.675 371.913,427.235 367.324,423.435 362.731,419.338 358.909,415.105 354.714,409.195 337.815,401.854 335.542,402 324.36,402 328.02,406.226 323.763,408.62 311.66,405.792 305.553,403.426 298.751,401.233 293.888,400.629 289.487,399.922 284.007,395.292 263.59,377.644 251.949,371.131 243.922,366.818 242,370.037 242,374.56 240,374.59 240,376.95 242.499,381.429 242.656,381.465 244.082,384.71 244.828,385.501 247.518,389.279 253.412,396.352 255.587,401.279 260.241,411.612 262.418,418.596 261.528,423.899 260.874,425.419 259.084,429.436 257.391,432.584 255.389,435.149 250.168,437.571 246.219,439.641 244.411,441.706 243.69,444.376 243.179,448.86 243.146,454.084 242.996,458.573 242.698,462.652 245.135,463.494 247.583,465.156 253.232,468.536 257.184,470.616 261.06,472.73 262.606,474.077 265.56,478.093 268.552,483.384 269.482,486.063 269.511,487.553 269.247,491.379 268.413,497.841 268.949,504.546 270.312,511.705 271.492,516.881 274.295,525.907 275.763,530.741 277.859,533.669 282.528,537.364 285.393,538.688 287.283,538.992 293.261,529.882 294.988,527.134 299.198,520.766 301.586,517.267 303.909,512.594 304.791,511.63 306.224,511.112 306.47,511.086 309.867,510.589 317.994,508.579 319.272,507.973 319.97,507.102 320.043,505.691 320.108,502.856 321.244,499.335 324.459,489.18 326.019,484.728 "
   id="polygon4"
   style="fill:#33394b" />
	<polygon
   points="827.657,389.199 827.737,385.342 827.709,378.778 827.509,377.897 827.279,377.225 825.981,376.339 824.733,375.175 824.35,374.108 824.482,372.599 824.648,372.539 824.603,372.151 824.395,368.867 824.459,368.14 824.725,366.408 824.662,365.042 824.426,362.94 824.422,362.387 824.458,361.851 825.05,358.722 825.047,356.633 824.79,353.545 823.913,351.152 822.045,346.981 821.384,345.801 820.741,344.932 820.398,343.857 820.065,340.323 820.063,338.274 819.516,335.458 818.366,332.865 818.133,331.514 816.917,327.223 813.071,319.663 812.593,312.001 813.198,307.9 810.789,308.041 808.338,307.185 805.247,306.48 797.786,311.362 781.858,324.819 776.271,326.126 772.441,331.114 762.604,333.266 757.563,336.947 742.912,336.617 724.266,342.71 711.788,348.633 704.553,354.98 701.194,360.678 700.057,365.311 698.183,376.732 695.568,385.189 692.095,394.578 690.598,397.947 703.079,402.56 705.674,403.817 708.179,405.804 710.335,407.312 711.291,407.882 713.307,408.683 709.487,422.161 709.445,422.594 707.661,429.017 704.976,434.896 710.063,437.422 713.596,439.594 752.075,460.984 753.952,461.277 753.83,460.92 753.511,459.58 753.353,455.944 754.063,453.545 755.561,448.805 759.584,448.437 761.485,444.3 761.792,442.59 762.488,441.456 762.452,440.231 764.252,437.708 765.571,436.154 767.504,434.26 769.529,431.684 769.794,429.493 770.358,428.389 770.082,426.724 770.877,425.539 772.983,425.222 775.019,424.677 775.833,423.753 774.523,421.715 774.952,419.663 776.01,417.813 775.933,415.881 775.222,413.172 774.439,411.467 776.444,409.015 777.219,407.235 778.912,404.966 780.282,403.973 782.772,401.934 784.078,400.542 785.928,396.768 787.231,396.005 788.96,393.069 790.994,393.135 794.981,394.625 796.001,394.029 797.137,392.389 798.864,392.765 800.299,392.507 801.667,393.368 802.606,393.17 804.212,392.859 806.65,392 808.771,392 812.704,392.516 811.406,390.326 813.314,390.356 813.998,389.35 818.615,388.436 825.747,387.604 827.012,389.627 "
   id="polygon6"
   style="fill:#33394b" />
	<polygon
   points="710.858,581.522 710.311,579.45 708.551,575.598 705.304,569.438 701.148,561.35 698.892,557.259 698.056,556.153 695.761,552.26 691.592,545.847 690.573,543.576 687.998,539.124 683.302,532.415 678.818,525.778 674.74,521.614 668.509,517.583 661.339,513.562 653.737,510.209 645.426,506.851 638.473,504.262 631.925,501.676 625.921,500.112 617.275,497.999 616.51,497.729 613.706,496.771 610.447,494.162 608.276,490.437 607.354,486.716 602.563,442.729 600.078,441.392 595.56,438.57 584.604,430.075 581.619,428.124 574.683,424.193 563.295,419.318 552.596,415.238 537.644,409.745 530.823,407.494 524.54,406.162 520.796,406.711 515.568,410.104 513.892,412.084 508.656,418.178 491.323,439.919 499.803,447.122 503.63,441.942 509.112,449.7 509.869,451.188 510.977,455.448 512.798,463.942 513.746,467.734 513.913,469.243 514.592,472.011 515.976,475.907 519.83,485.531 522.04,491.942 528.096,507.846 535.716,528.222 540.427,540.355 554.901,537.866 559.737,552.474 561.904,558.357 573.523,572.505 569.999,575.857 571.699,575.712 573.527,577.317 573.729,579.459 573.46,582.157 573.37,582.498 575.84,580.998 581.599,578.882 585.099,579.396 589.255,577.476 592.636,578.048 595.419,577.595 597.372,577.935 600.335,576.536 603.692,576.293 606.713,573.568 609.62,573.109 612.925,570.914 614.657,570.729 616.75,568.669 617.318,568.427 619.391,567.354 621.495,565.153 622.569,563.195 623.747,563.298 625.126,563.796 626.259,563.662 628.429,563.492 633.251,562.715 635.07,562.134 638.087,562.391 638.404,568.293 639.597,572.517 640.741,574.609 644.248,576.031 645.508,579.598 646.926,580.354 647.797,581.886 650.796,582.848 651.809,585.247 652.746,588.69 652.012,592.947 653.631,595.846 654.492,596.921 656.684,597.447 660.649,597.619 659.967,600.649 660.203,603.209 661.098,605.892 661.149,608.313 664.066,608.161 667.907,605.969 668.127,605.701 670.33,603.846 670.8,601.623 672.543,600.193 674.277,599.944 675.048,598.731 675.918,596.713 675.255,594.887 677.469,594.462 678.852,594.012 691.8,596.844 693.082,597.645 694.371,598.019 696.712,601.787 698.663,603.169 700.613,603.888 705.033,591.628 707.595,587.567 710.809,583.184 "
   id="polygon8"
   style="fill:#33394b" />
	<polygon
   points="241.857,382.352 239,377.229 239,373.603 241,373.572 241,369.75 243.053,366.323 217.164,350.641 209.485,345.49 196.131,334.441 191.412,328.563 186.695,323.98 183.257,321.11 179.919,317.846 168.766,309.519 163.669,306.474 156.515,303.104 152.934,301.086 150.82,299.7 148.101,296.803 147.408,296.256 144.481,293.578 143.836,289.814 141.941,288.592 138.903,285.271 135.968,282.996 134.165,280.575 118.338,268.515 107.563,255.681 103.875,249.232 101.461,245.426 100.563,244.112 97.818,244.348 95.096,245.792 93.396,246.994 89.081,250.552 88.922,251.112 88.48,251.761 88.438,252.142 88.464,252.69 88.785,253.446 89.017,254.224 89.218,255.408 89.151,255.98 89,256.369 88.648,256.591 87.972,256.862 86.886,257.171 85.404,260.215 84.749,259.742 83.921,262.419 83.708,266.223 83.174,266.005 83.241,266.636 83.72,268.354 83.782,271.545 84.494,272.82 85.723,274.566 87.582,276.386 89.385,277.96 88.842,279.616 87.239,278.624 86.646,278.645 86.392,280.458 87.29,280.908 88.565,282.715 89.388,282.76 90.286,284.473 90.948,285.558 90.587,287.321 90.329,287.248 90.452,288.467 90.029,289.642 88.924,289.972 88.189,289.318 86.199,288.955 84.918,290.849 84.118,292.641 83.112,296 82.768,296 81.96,296.872 83.274,298.111 81.901,299.231 81.183,299.763 79,302.155 79,300.139 79.023,299.299 78.928,296.385 78.827,296.346 78.867,298.53 78.776,300.101 78.333,302.624 76.874,302.402 76.883,302.924 76.604,304.352 75.99,306.151 75.532,308.371 74.896,308.358 74.772,308.781 75,310.134 75,311.45 75.627,311.735 75.335,312.85 75.468,313.604 75.566,316.344 73.421,316.583 73.631,314.614 73.2,312.358 73.101,309.812 72.761,308.333 72.377,307.896 71.719,306.428 71.136,307.166 70.793,307.076 70.747,307.121 70.947,309.551 70.737,310.381 71.058,310.481 70.519,314.034 68.499,315.858 68.352,314.539 67.813,314.504 66.515,316.24 68.282,319.958 65.957,319.102 65.372,318.37 65.238,318.33 64.623,319.584 61.818,320.707 59,321.99 57.724,322.828 54.492,324.439 54.316,326.592 53.669,328.718 53.163,329.07 55.32,331.389 54.548,332.46 51.839,332.56 51.273,332.195 51.585,332.545 52.248,333.479 52.416,333.508 53.405,334.584 52.947,335.618 52.113,335.829 50.797,337.125 51.036,337.951 50.059,339.531 48.905,338.049 48.072,337.356 48.095,339.778 45.415,340.406 45.163,340.63 44.017,342.581 42.603,342.721 42.224,340.207 40.211,339.592 40.507,340.215 40.719,342.493 41.235,342.674 41.448,343.495 41.697,343.48 42.406,344.523 42.512,345.32 43.319,346.107 44.914,348.417 44.27,348.558 44,349.556 44,350.61 43.718,350.893 45.298,351.125 45.541,353.882 46.039,355.16 46.23,356.646 45.771,358.47 44.824,357.259 43.941,356.586 43.759,355.62 41.93,353.319 41.542,353.53 41.496,353.457 41.418,354.158 40.373,354.229 40.296,354.309 40.357,355.235 39.905,355.545 40.405,356.598 39.152,356.544 38.98,356.745 39.099,356.95 38.775,358.809 37.563,357.776 36.773,359.517 35.929,359.174 35.796,359.457 35.886,359.808 35.379,360.733 35.013,360.881 37.308,363.313 35.963,364.242 35.162,365.053 34.194,364.974 32.637,364.482 30.172,364.362 28.685,364.702 28.192,365.355 27.303,365.607 25.954,365.649 25.147,365.858 25.024,365.781 25.162,365.906 23.713,366.765 23.215,366.854 21.16,368.152 20.679,368.254 20.349,368.516 21.033,368.823 23.119,368.808 23.955,369.717 23.616,371.229 23.636,371.283 23.793,371.091 24.38,371.07 25.147,370.607 26,370.978 26,371.874 25.907,372 26.104,372 26.269,373.088 25.994,373.552 26.654,374.146 26.04,376.629 27.831,377.285 27.94,377.116 29.654,377.171 29.603,377.919 30.076,378.235 30.518,377.891 31.59,378.725 30.612,379.934 30.561,380.125 30.651,380.442 31.61,381.098 31.475,381.726 32.813,383.454 32.956,384.247 33.399,384.371 33.623,384.946 34.099,384.899 35.103,384.015 40.467,383.232 41.394,383.652 43.912,385.592 44.232,386.771 45.113,388.083 45.387,388.937 47.213,388.826 48.297,389.497 49.646,389.642 52.979,390.486 53.424,389.76 55.063,390.402 56.184,390.651 58.635,390.288 61.647,390.547 63.013,390.403 63.825,390.494 65.099,391.468 65.659,392.178 66.279,393.196 68.252,394.585 70.901,396.2 71.913,396.064 73,396.248 73,397.307 72.844,398.096 72.532,398.375 72.508,399.717 72.771,400.071 73.032,400.836 75.378,401.32 77.232,401.57 79.612,402.047 78.82,403.896 77.985,404.864 78.047,405.438 77.432,406 77.026,406 76.474,406.373 77.189,406.534 77.232,407.936 78,409.085 78,410.254 77.483,410.611 77.218,412.236 77.798,414.24 77.977,415.221 78.675,414.64 80.773,413.189 81.529,413.201 81.813,412.769 82.52,412.454 83.889,412.466 84.502,411.88 84.364,410.852 86.44,411.088 86.664,410.759 86.747,410.747 86.176,408.01 86.614,407.956 86.483,407.738 85.467,407.486 85.725,404.533 86.705,404.602 86.509,403.778 89,403.358 89,402.943 88.896,402.73 88.979,402.625 85.88,403.083 91.249,399.094 92.394,398.534 94.13,397.956 96.257,397.391 102.414,396.507 104.92,397.786 105.899,398.55 106.887,399.546 108.083,400.346 109.719,400.973 109.65,401.442 112.395,403.316 113.099,403.478 115.886,403.652 120.734,403.765 122.276,403.554 127.497,403.283 130.92,403.392 134.134,402.177 135.439,401.638 136.811,401.461 136.718,400.625 138.171,398.541 138.315,397.84 137.408,396.426 137.705,394.56 138.415,392.923 139.232,392.251 139.619,391.292 139.998,390.875 140.027,389.516 140.756,388.849 140.705,387.909 141.528,386.041 142.345,386.884 143.067,386.766 144.015,386.837 146,386.271 146,387.681 146.409,389.152 146.705,389.967 147.04,390.379 147.509,391.381 147.638,392.137 146.314,395.604 146.387,396.474 147.648,399.801 146.928,399.839 146.981,401.032 147.198,400.808 152.711,400.511 154.2,405.949 156.702,411.201 156.845,413.646 155.326,413.884 166.87,437.924 182.727,434.555 201.148,431.612 211.359,429.932 210.364,414.912 211,405.337 211,403.894 210.66,402.767 208.509,397.778 207.79,395.793 207.919,394.328 211.462,379.913 212.571,377.604 216.378,380.023 223.537,385.364 225.31,386.414 227.57,387.841 231.997,388.526 238.982,387.822 242.562,386.738 241.737,385.723 243.169,385.249 241.859,382.383 "
   id="polygon10"
   style="fill:#33394b" />
	<polygon
   points="320.341,642.371 321.325,640.299 322.161,638.222 323.775,636.895 325.081,635.267 325.61,633.176 326.743,632.361 328.223,631.707 329.141,630.431 329.896,630.473 330.556,629.685 331.454,628 332.422,628 333.383,626.755 334.207,626.289 335.261,625.402 335.881,624.643 336.863,623.88 336.233,622.831 335.593,622.513 334.003,622.637 333.121,621.534 331.973,619.6 331.036,618.358 330.529,617.995 329.07,618.329 328.115,617.042 327.579,615.726 325.86,614.486 324.883,611.477 324.832,610.003 324.073,609.069 323.229,608.905 321.646,608.666 320.428,608.672 318.729,608.497 317.06,608.1 315.011,607.778 314.21,607.08 312.96,607.257 311.847,607.103 310.119,607.452 309.051,606.728 308.072,605.523 308.12,603.672 308.512,602.84 308.042,601.627 308.375,600.591 308.428,599.585 308.333,598.127 308.838,597.355 308.87,596.593 308,595.823 308,594.732 307.541,593.624 306.897,593.095 306.054,591.776 305.896,590.096 306.472,589.094 306.936,588.146 307.404,587.49 306.306,586.987 304.958,586.459 304.892,585.454 303.554,584.164 303.286,583.162 302.439,581.997 302.384,581.029 302.012,580.652 300.514,579.499 300.393,578.7 300.594,577.8 300.118,576.36 299.593,575.561 299.622,574.575 298.993,573.638 298.228,571.974 297.572,570.905 297.063,570.427 296.836,569.115 299.034,567.674 300.088,567.592 300.689,567.166 301.616,566.926 302.518,566.439 302.913,565.243 302.939,564.063 303.368,562.798 303.228,561.635 304,559.297 304,558.609 303.793,558.253 303.618,557.521 301.222,556.825 301.097,556.32 300.852,556.434 299.768,556.75 298.871,555.927 297.491,553.785 297.778,553.398 297.715,552.921 298.286,552 298.395,552 298.174,550.872 300.012,550.508 299.874,549.919 284.743,553.443 279.489,554.755 275.449,555.63 273.388,555.824 271.848,555.827 261.744,553.695 258.414,551.774 256.747,549.81 255.122,547.263 253.269,545.198 248.173,540.77 245.2,538.529 241.005,536.819 239.897,536.857 238.136,537.68 233.462,539.317 232.595,539.454 228.885,539.693 229.22,542.024 229.693,543.949 234.632,559.045 236.755,561.007 239.204,565.599 245.78,576.06 246.672,579.119 248.868,580.005 252.728,586.172 250.29,587.511 249.391,587.859 248.923,588.158 248.738,588.738 248.821,589.385 249.519,590.493 251.693,593.499 252.656,593.777 253.575,593.651 256.611,591.648 259.437,595.966 253.266,599.832 253.693,601.234 255.473,601.612 255.707,603.947 254.548,605.448 255.528,607.1 255.846,609.109 256.568,610.355 257.205,610.744 258.596,610.574 259.329,611.917 260.026,612.618 260.148,612.659 260.819,612.7 261.276,613.622 260.82,614.446 260.866,614.593 261.003,614.68 261.719,615.037 262.103,615.885 261.643,617.903 261.812,618.338 262.663,617.741 263.607,618.182 264.164,618.536 264.977,618.63 265.951,618.478 266.595,618.69 267.102,619.347 268.369,618.104 269.218,617.822 269.649,617.841 270.462,618.067 279.545,642.526 281.369,648.509 279.211,648.45 279.075,649.107 279.094,649.881 279.27,650.602 279.504,650.927 279.912,651.808 281.806,653.922 284.25,656.568 287.151,658.623 287.251,661.881 287.377,662.764 287.502,662.728 289.326,662.803 291.605,663.002 292.033,663 293.542,663.137 294.434,663.364 294.859,663.319 296.835,663.904 298.149,663.799 298.677,663.3 298.915,661.938 300.137,659.737 301.123,658.639 302.052,658.097 302.386,655.679 303.066,654.132 304.201,652.585 305.579,651.094 307.268,649.635 308.395,648.465 310.084,647.878 311.625,648.137 312.814,647.798 314.146,648.004 317.033,647.741 318.561,646.464 319.517,645.336 319.729,644.065 "
   id="polygon12"
   style="fill:#33394b" />
	<polygon
   points="255.917,546.661 257.55,549.218 259.118,551.06 262.169,552.874 271.952,555 273.342,555 275.297,554.732 278.931,553.903 279.147,552.646 280.523,549.285 286.679,539.916 285.036,539.627 281.955,538.187 277.087,534.31 274.83,531.11 272.231,522.563 270.528,517.143 269.333,511.91 267.959,504.68 267.408,497.815 268.251,491.279 268.512,487.527 268.484,486.163 267.645,483.796 264.722,478.635 261.834,474.715 260.448,473.523 256.712,471.498 252.742,469.407 247.045,465.999 244.63,464.36 242.431,463.617 240.499,467.659 239.954,468.487 237.052,472.711 233.811,477.771 230.504,482.224 229.453,483.255 228.867,484.84 227.421,490.156 224.235,489.44 222.321,491.519 219.653,491.409 216.939,490.426 215.701,490.029 214.228,489.913 213.873,490.339 213.664,491.427 212.317,491.208 210.722,491.247 209.427,489.509 208.724,486.511 208.968,486.153 210.105,484.343 204.103,487.325 200.307,479.45 197.134,480.926 195.995,481.871 195.007,479.941 193.68,478.887 191.688,478.318 188.644,477.648 186.854,479.1 184.693,478.473 183.898,478.185 183.463,478.195 182.894,478.685 181.84,479.663 180.691,479.987 179.717,479.521 179.451,479.704 178.577,481.199 177.89,482.913 177.106,483.425 176.128,484.195 175.164,486.113 174.87,487.401 173.998,487.668 172.748,487.606 171.811,487.74 171.136,488.269 170.406,488.925 169.124,488.999 167.78,488.833 167.276,488.503 167.179,488.615 166.658,489.42 166,490.067 166,490.863 164.588,492.401 163.055,492.559 162.35,493.326 162.004,494.263 161.094,495.232 159.652,496.214 158.452,495.88 157.138,495.239 156.214,494.936 154.957,494.969 153.455,493.119 153.276,492.544 152.034,491.929 150.915,491.102 149.774,490.378 149.103,489.188 149.031,488.479 147.829,487.455 147.751,486.504 147,485.786 147,484.457 147.857,483.112 148.142,482.408 148.089,482.144 147.313,481.857 146.025,481.83 144.552,481.612 143.161,481.089 141.534,481.175 140.445,481.389 139.508,481 138.887,481 138.162,481.691 137.639,482.391 136.515,483.628 135.583,483.53 134.814,483.585 133.903,484.096 132.908,484.561 132,484.754 132,485.574 131.932,486.343 132.145,487.781 132.496,487.897 132.456,489.21 132.493,489.522 132.21,490.412 131.395,491.02 131.053,492.104 131.373,492.921 131.407,493.697 130.691,495.246 130.63,498.179 128.796,499.126 128.27,499.565 127.706,499.884 127.228,500.599 127,501.376 127,503.01 126.899,503.888 126.451,504.407 126.316,504.998 125.333,505.866 124.521,506.161 123.717,506.362 123.271,506.414 123,506.869 123,507.407 122.081,507.971 121.562,508.072 121.1,508.329 120.79,508.655 120.108,508.927 119.245,509.105 118.656,509.08 117.579,508.194 116.438,508.223 116.181,507.934 116.115,508.415 116.093,509.506 114.44,511.065 114.119,511.681 115.716,515.062 116.407,516.199 116.557,516.938 116.566,517.635 116.499,518.251 116.851,518.811 116.898,519.011 118.594,518.73 119.578,520.391 121.844,521.949 122.909,522.897 124.316,522.852 125.594,523.432 126.337,523.71 127.259,524.119 128.992,525.106 129.713,525.707 130.691,526.134 132.735,526.93 133.104,527.924 133.538,529.277 133.723,530.233 133.731,530.854 133.159,531.621 130.995,532.016 131.204,532.586 130.967,532.697 131.34,533.599 131.644,533.49 132.278,535.096 131.415,535.816 130.476,536.175 129.938,536.591 128.718,537.122 125.785,538.12 126,538.276 126,538.795 125.95,539.64 125.723,540.494 126,542.449 126,543.113 126.591,545.845 127.551,547.105 127.401,547.959 127.176,548.688 126.831,549.378 126.678,550.148 126.409,550.492 125.823,553.115 123.946,556.501 121.917,556.561 120.482,557.952 120,558.83 120,559.924 118.429,560.87 117.768,561.787 117.543,563.094 117.192,564.583 118.529,565.736 120.673,565.777 121.7,566.814 121.851,567.683 122.181,567.775 122.511,566.724 123.456,566.158 123.817,565.847 123.129,562.455 124.51,562.736 124.704,562.548 124.811,560.654 126.043,559.937 127.024,560.364 127.275,560.185 127.764,560.239 128.663,560.236 129.359,560.048 129.692,560.404 130.866,560.238 130.724,561.694 130.939,561.396 131.808,561.364 132.205,561 132.742,560.948 132.821,560.562 133.849,560.529 134.497,559.25 135.207,560.192 135.249,560.158 138.905,560.323 142.116,560.906 144.61,560.289 145.13,559.672 145.472,558.753 146.377,557.968 147.612,557.274 148.822,556.932 151.47,557.432 152.318,557.79 152.868,557.767 154.262,559.16 154.708,560.186 156.229,561.75 155.972,563.184 155.749,564.134 155.778,564.722 157.187,564.795 158.094,563.751 158.994,563.636 159.957,563.712 162.253,562.297 163.751,562.581 164.241,562.95 165.327,562.767 165.696,563.737 166.754,563.892 167.487,564.066 169.21,563.502 170.462,563.489 172.052,563.812 172.637,564.491 174.223,564.973 175.543,565.125 175.832,562.722 176.364,556.704 176.489,553.884 176.695,550.766 177.083,548.648 178.59,546.921 180.18,546.196 182.065,546.076 184.045,546.794 186.097,547.413 187.921,547.349 189.39,546.85 191.611,544.993 192.015,544.278 194.243,538.951 195.667,537.78 198.245,537.302 199.472,536.971 200.505,535.666 202.262,533.274 205.601,528.359 207.451,526.278 209.076,525.159 211.618,524.487 212.825,523.946 213.877,523.117 215.264,521.711 216.253,520.478 217.223,519.483 217.9,518.858 218.023,518.62 218.111,517.106 218.461,515.718 220.14,514.275 223.604,512.819 223.905,514.263 224.718,519.803 224.809,522.613 225.515,527.577 225.915,527.518 225.609,524.414 226.835,524.305 228.202,524.418 232.088,524.928 233.359,526.407 229.223,528.678 229.351,530.154 229.5,530.718 230.645,529.835 231.522,529.79 232.554,530.416 234.679,529.714 235.333,529.684 235.843,529.778 236.854,530.115 237.283,530.685 237.133,531.729 236.992,532.086 235.853,534.698 233.615,536.14 232.858,537.987 232.799,538.36 232.822,538.41 233.225,538.351 237.76,536.754 239.761,535.861 241.177,535.813 245.751,537.692 248.803,539.993 253.97,544.488 "
   id="polygon14"
   style="fill:#33394b" />
	<polygon
   points="445.669,607.167 447.83,606.807 449.524,606.156 451.665,605.091 450.645,603.357 449.674,600.682 449.688,598.883 450.518,595.434 451.408,590.356 451.082,586.805 449.661,583.63 447.609,580.656 444.77,577.778 442.759,574.952 441.12,571.249 439.674,567.288 439.215,565.72 438.711,563.171 438.743,560.491 435.8,560.268 434.573,560.242 431.572,560.332 429.424,560.485 425.075,561.241 423.274,561.726 417.881,563.356 416.982,560.835 416.341,560.716 414.009,560.211 412.184,557.009 410.916,556.692 409.61,554.954 408.258,554.137 406.675,553.441 405.54,552.669 404.97,551.059 404.633,549.79 404.449,549.555 402.937,548.516 402.162,547.063 401.13,546.288 400.542,545.387 400.49,544.839 399,543.265 399,542.344 400.07,541.299 400.14,541.002 399.948,540.576 400.261,539.553 400.725,538.392 400.68,538.214 400.241,538.278 399.988,536.247 400.393,536.201 400.23,534.127 400.258,531.021 400.112,530.403 399.551,529.663 398.396,528.473 397.266,527.095 398,525.821 398,524.808 399,523.438 399,522.15 399.005,520.602 398.652,520.188 398.743,519.232 397.482,518.625 396.738,518.409 395.69,518.431 395.196,520.194 395.234,521.323 392.667,522.535 392.432,522.943 389.672,524.404 387.927,524.611 386.625,525.146 385.343,525.291 382.978,523.728 382.003,523 381.128,522.124 380.007,521.691 378.586,521.287 377.313,520.653 376.702,519.818 375.651,518.665 374.75,518.862 373.84,518.76 372.695,518.343 372.259,518.027 371.173,518.878 369.413,519.589 368.46,519.906 367.792,520.505 367.124,521.188 365.394,521.624 364.515,521.693 363.844,521.886 362.771,522.555 361.378,522.239 360.303,521.887 360.033,520.898 359.612,520.768 358.645,520.84 357.939,521.644 356.682,522 355.719,522 354.953,522.414 354.209,522.678 353.481,523.313 351.958,523.032 350.904,522.193 349.596,521.326 348.176,520.485 346.126,520.434 343.769,520.686 341.53,519.777 338.394,517.663 335.635,515.652 334.58,515.59 334.03,516.777 333.272,517.485 333.16,518.881 330.781,521.157 328.559,527.981 321.542,528.07 316.312,528.384 313.731,528.998 307.428,534.013 304.447,535.835 293.685,540.08 291.392,540.266 287.784,540.052 281.403,549.74 280.094,552.951 279.985,553.609 284.509,552.487 300.611,548.754 301.204,551.322 299.322,551.761 299.585,553.258 298.774,553.29 298.838,553.648 298.701,553.832 299.67,555.326 300.019,555.637 300.491,555.502 301.804,554.93 302.042,556.034 304.447,556.741 304.74,558.511 304.75,559.434 304.134,561.658 304.406,562.851 303.913,564.305 303.888,565.481 303.342,567.131 301.926,567.879 301.043,568.107 300.473,568.564 299.372,568.65 297.934,569.596 297.992,569.929 298.454,570.388 298.631,570.728 299.339,571.905 299.869,573.163 300.63,574.284 300.602,575.275 301.046,575.983 301.63,577.747 301.419,578.694 301.465,578.971 302.674,579.905 303.362,580.596 303.42,581.647 304.228,582.814 304.448,583.637 305.865,585.003 305.914,585.76 306.697,586.067 308.925,587.089 307.785,588.661 307.346,589.567 306.905,590.325 307.001,591.454 307.65,592.502 308.408,593.048 309,594.656 309,595.337 309.82,596.067 309.926,597.605 309.38,598.396 309.441,599.58 309.354,600.835 309.106,601.596 309.565,602.879 309,603.997 309,605.168 309.742,606.036 310.304,606.392 311.807,606.089 312.954,606.247 314.52,606.025 315.451,606.835 317.254,607.119 318.897,607.514 320.48,607.675 321.72,607.672 324.62,608.157 325.82,609.633 325.88,611.37 326.708,613.865 328.396,615.083 329.016,616.604 329.476,617.21 330.745,616.919 331.788,617.695 332.803,619.045 333.941,620.967 334.451,621.596 335.788,621.491 336.937,622.056 337.998,623.809 340.486,626.451 341,627.791 341,629.014 341.064,630.238 341.278,631.974 341.505,632.836 342.138,634.081 342.922,635.383 344.319,636.136 347.024,638.083 348.182,638.71 349.124,639.918 350.864,641.284 352.208,642.596 353.31,643.226 355.085,646.255 355.866,647.431 355.778,649.084 355,650.374 355,652.73 355.746,654.502 355.955,656.303 356.426,658.631 356.689,659.313 357.997,657.948 358.825,657.989 360.573,658.192 360.806,658.123 361.26,656.907 362.585,654.645 363.56,654.292 364.323,654.146 365.139,654.101 366.402,653.772 367.467,654.379 367.922,654.49 369.205,654.077 370.087,653.406 370.797,652.753 371.802,651.557 373.298,651.057 374.46,650.812 376.741,651.378 378.409,650.698 379.688,651.165 380.583,650.775 381.27,650.344 382.059,649.548 383.124,649.514 384.77,649.543 386.743,650.268 388.215,650.905 389.102,650.866 390.467,650.204 391.993,649.878 393.973,649.675 394.467,649.137 394.87,648.07 395.931,646.399 397.591,646.83 398.633,646.888 402.123,646.525 402.675,646.281 403.267,645.552 404.093,644.265 404.556,643.907 405.187,642.896 404.888,641.227 404.429,640.088 404.525,637.833 404.413,636.806 405.752,635.167 405.882,634.363 407.244,633.541 408.377,632.653 409.375,633.199 410.387,633.373 411.112,633.214 411.627,632.814 412.396,631.756 413.601,631.166 414.387,631.576 415.497,631.664 416.014,630.726 417.308,630.974 417.946,630.015 419.402,630.185 420.559,629.99 421.964,628.921 423.505,629.371 424.711,630.045 425,629.967 425,628.585 425.832,626.894 426.621,625.27 427.709,624.303 428.052,622.589 430.011,621.989 431.042,622.112 431.153,621.418 432.777,620.66 433.314,618.988 434.8,618.734 435.396,617.931 436.475,617.271 437.322,616.646 437.682,615.586 438.661,614.246 439.829,612.48 440.078,612.245 440.224,611.688 439.892,610.319 439.512,609.042 440.083,608.021 441.581,608.012 443.589,607.585 444.742,607.612 "
   id="polygon16"
   style="fill:#33394b" />
	<polygon
   points="658.957,600.585 659.411,598.564 656.544,598.433 653.925,597.813 652.803,596.4 650.967,593.127 651.723,588.739 650.865,585.572 650.054,583.66 647.12,582.72 646.199,581.1 644.695,580.297 643.455,576.789 640.034,575.402 638.649,572.843 637.409,568.401 637.136,563.313 635.184,563.147 633.48,563.686 628.547,564.484 625.009,564.817 623.473,564.262 623.138,564.238 622.264,565.797 619.924,568.204 617.232,569.55 615.118,571.686 613.274,571.883 609.884,574.08 607.162,574.51 604.106,577.266 600.503,577.527 597.519,578.976 595.413,578.608 592.632,579.062 589.394,578.513 585.247,580.429 581.704,579.907 576.271,581.896 571.767,584.643 572.479,581.977 572.734,579.454 572.57,577.809 571.359,576.745 567.805,577.049 568.558,575.849 572.16,572.421 560.995,558.782 558.794,552.804 554.222,538.997 539.79,541.48 534.781,528.577 527.16,508.198 521.101,492.283 518.894,485.88 515.04,476.26 513.635,472.296 512.931,469.415 512.764,467.909 511.825,464.174 511.255,461.647 510.003,455.677 508.915,451.494 508.259,450.217 503.612,443.648 499.971,448.577 490.681,440.685 488.62,443.028 485.928,445.813 482.934,450.555 477.199,456.558 469.903,463.726 461.69,470.651 456.397,475.537 451.919,479.851 446.558,487.618 441.977,487.707 437.889,487.733 437.421,494.069 438.081,495.949 439.447,497.661 444.199,501.129 446.607,503.455 441.974,510.581 441.595,527.896 441.021,531.861 440.699,538.627 439.747,560.065 439.713,563.075 440.188,565.49 440.624,566.978 442.047,570.876 443.652,574.501 445.533,577.138 448.378,580.022 450.529,583.143 452.07,586.63 452.416,590.397 451.659,595.638 451,599.06 451,600.592 451.707,602.929 452.611,604.593 453.281,604.179 453.706,603.087 454.313,601.406 455.325,600 457.049,597.902 459.144,598.515 459.825,598.177 461.004,596.233 462.613,595.656 464.158,595.729 467.456,594.524 468.396,592.642 468.454,590.57 467.23,588.414 466.99,585.877 467.407,583.356 468.634,581.892 470.097,581.001 471.076,581.454 474.994,582.538 476.615,581.954 477.6,583 479.252,583 480.612,581.936 481.887,583.769 482.966,585.535 483.409,587.254 483.32,589.346 483.908,590.364 484.872,593.163 484.808,595.244 485.661,597.289 486.622,599.326 488.062,600.598 488.376,601.709 489.628,602.529 491.588,603.938 492.127,605.45 492.948,606.586 494.181,607.719 495.646,609.899 496.006,610.955 499.937,610.907 500.755,611.281 501.947,612.111 502.681,612.367 503.647,612.41 504.481,612.126 505.534,611.566 507.089,609.717 508.592,609.029 510.46,609.25 511.959,609.937 512.43,609.899 513.441,609.326 514.269,608.714 515.862,608.912 517.023,608.293 517.557,607.742 518.395,606.276 519.854,606.148 520.831,605.981 523.154,605.975 524.097,605.485 524.772,604.89 525,603.797 525,601.494 525.531,600.661 527.423,600.231 528.852,600.131 528.9,600 528.305,598.769 528.067,597.172 528.626,595.538 531.358,590.696 531.456,589.673 531.01,586.671 532.396,586.891 532.509,586.864 532.83,586.579 534.589,585.77 535.826,586.1 536.793,586.865 539.965,588.467 541.498,589.771 542.028,589.96 541.897,591.064 541.705,591.997 540.469,595.599 540.263,597.029 540.601,598.739 540.677,599.508 540.855,599.611 541.915,599.367 542.523,600.976 542.813,603.664 542.495,603.724 542.473,604.022 542.646,604.881 544.048,605.585 546.851,610.011 547.106,611.998 546.629,613.762 544.03,615.265 543.795,616.75 545.682,620.533 546,623.073 547.084,624.778 547.633,627.038 546.653,628.877 546.424,630.354 546.344,631.644 546.563,634.002 547.973,635.068 548.166,637.458 547.881,640.208 546.71,642.53 545.429,644.546 543.469,646.623 543.076,647.588 543.832,649.489 544.275,650.836 545.865,651.474 547.52,652 549.309,652 550.142,652.477 551.23,652.325 553.379,652.332 554.684,653.494 556.116,655.701 557.004,656.805 558.7,658.074 559.491,658.979 559.609,659.743 560.15,660.541 560.504,661.678 561.672,663.056 562.432,663.365 564.163,664.347 564.777,666.633 565.78,667.612 566.228,670.04 566.611,671.361 567.757,671.639 569.559,671.957 572.548,673.938 574.362,675.903 575.771,676.234 579.324,674.528 582.278,674.032 586.276,672.833 588.89,673.573 591.773,672.188 595.413,673.043 598.961,674.111 601.453,674.75 603.739,672.14 605.508,671.691 607.329,671.332 608.708,671.77 610.632,672.227 611.128,671.375 610.843,670.059 611.311,668.675 610.014,666.788 611.146,665.057 611.89,662.717 610.905,661.23 611.776,658.348 614.868,656.84 616.851,655.439 617.011,653.507 616.561,651.238 612.893,649.412 612.687,646.889 612.151,643.973 614.387,642.476 616.055,643.182 619.271,642.329 620.575,643.434 622.413,643.27 623.368,643.724 626.271,644.256 627.2,644.797 628.755,644.958 631.143,646.452 632.99,645.651 633.253,644.858 634.202,643.039 636.757,639 637.878,639 638.752,638.166 640.234,637.449 642.017,637.738 643.451,636.438 644.696,636.007 644.411,634.01 645.07,629.35 644.085,626.914 645.402,625.758 645.343,624.105 646.695,623.386 646.537,622.38 648.213,620.981 649.104,617.507 651.378,615.48 653.201,614.831 653.618,613.188 653.417,611.105 656.838,608.07 660.149,608.303 660.1,605.991 659.213,603.36 "
   id="polygon18"
   style="fill:#33394b" />
	<polygon
   points="781.804,499.132 781.18,497.216 780.779,495.386 780.063,494.697 779.45,495.007 778.247,497.239 776.964,498.84 775.363,497.651 774.563,495.782 773.009,494.631 772.026,493.199 771.079,492.362 770.537,491.215 769.69,490.858 768.89,489.698 768.348,488.819 768.073,488.757 766,491.108 763.856,492.634 761.853,494.333 759.955,495.677 758.563,495.285 757.218,495.638 756.23,495.063 754.704,494.439 753.913,493.481 752.569,492.65 751.978,492.471 746.488,490.036 745.629,488.571 745.887,486.508 746.451,486.035 745.005,484.338 744.918,482.969 744.283,482.191 744.727,478.459 745.005,476.747 746.141,474.091 746.701,472.336 748.238,470.881 749.768,470.293 750.128,469.758 749.966,469.021 749.229,468.392 745.609,465.518 745.955,464.629 751.411,464.445 753.66,464.46 754.708,463.486 754.647,462.942 754.314,462.346 751.667,461.901 713.091,440.457 709.58,438.296 703.663,435.361 706.726,428.675 708.467,422.402 708.509,421.969 712.1,409.276 710.85,408.775 709.792,408.151 707.581,406.605 705.097,404.636 702.689,403.48 690.117,398.835 679.465,414.429 670.077,426.899 664.897,432.063 658.362,438.482 645.563,446.706 627.909,448.054 612.934,446.429 603.611,443.147 603.914,446.098 608.337,486.542 609.229,490.125 611.261,493.573 614.256,495.932 617.563,497.043 628.595,499.778 632.235,500.728 638.831,503.328 645.788,505.918 654.127,509.288 661.786,512.668 669.027,516.728 675.416,520.875 679.59,525.148 684.126,531.849 688.842,538.588 691.462,543.121 692.468,545.371 696.61,551.733 698.887,555.6 699.729,556.718 702.03,560.88 706.19,568.977 709.448,575.157 711.249,579.115 711.862,581.407 711.821,582.771 714.93,582.328 716,582.105 716,581.281 715.59,579.829 714.498,575.938 716.199,576.518 717.292,577.482 718.348,578.617 719.949,579.286 722.961,580.224 724.3,580.984 726.057,581.428 727.563,581.092 728.997,580.366 730.706,579.828 730.325,578.848 729.493,577.648 728.624,576.531 729.594,575.215 729.864,574.752 730.244,573.71 730.393,572.883 730.384,571.797 730.285,571.238 730.001,570.441 729.973,570.059 730.301,563.788 734.46,564.683 735.866,564.818 739.82,565.108 751.153,565.518 751.203,563.55 751.332,562.767 752.263,560.311 752.347,559.804 752.458,557.521 758.24,557.727 758.567,547.606 759.046,545.785 760.842,542.285 762.563,539.221 763.94,537.75 765.26,536.582 773.293,530.547 775.964,528.441 778.2,526.864 779.596,525.609 780.611,524.055 782.293,521.327 782.363,517.893 782.774,516.378 782.829,514.874 782.593,513.039 782.432,510.954 782.936,509.83 784.128,508.309 783.986,506.618 784.465,505.371 786.178,502.854 782.787,500.632 "
   id="polygon20"
   style="fill:#33394b" />
	<polygon
   points="245.672,438.798 249.726,436.675 254.75,434.344 256.557,432.039 258.185,429 258.664,427.889 260.584,423.56 261.392,418.667 259.305,411.966 252.519,396.822 246.713,389.89 244.149,386.303 243.537,386.181 243.427,386.217 244.278,387.265 239.177,388.798 231.97,389.534 227.124,388.742 224.788,387.267 222.983,386.195 215.804,380.842 212.99,379.047 212.389,380.298 208.908,394.49 208.815,395.655 209.458,397.406 211.591,402.405 212,403.811 212,405.371 211.362,414.919 212.393,430.772 197.505,433.239 182.904,435.538 166.305,439.065 153.841,413.105 155.787,412.799 155.707,411.346 153.268,406.299 151.97,401.547 147.646,401.785 146.687,402.779 145.993,401.291 145.884,398.893 146.229,398.875 145.397,396.625 145.304,395.459 146.616,392.03 146.549,391.609 146.191,390.856 145.833,390.331 145.564,389.379 145.261,387.572 144.242,387.846 143.115,387.771 141.991,387.955 141.844,387.804 141.717,388.094 141.779,389.267 141.018,389.965 140.99,391.271 140.426,391.892 140.079,392.85 139.236,393.542 138.649,394.897 138.453,396.203 139.377,397.643 139.051,399.028 137.753,400.889 137.914,402.327 135.636,402.621 134.507,403.104 131.513,404.237 131.536,405.03 130.702,406.189 131.012,407.546 131.788,407.946 131.582,409.228 131.56,411.084 132.143,414.062 131.068,417.349 131.037,417.644 131.353,418.085 132.506,419.318 132.588,421.725 132.764,422.039 133.528,422.246 134.129,422.922 134.828,424.953 135.439,425.844 136.359,426.793 136.619,427.991 137.87,429.571 138.323,429.734 139.515,429.783 140.69,430.103 143.542,431.949 143.294,432.665 143.107,433.65 143.081,434.803 143.435,436.901 143.441,437.68 143.82,438.269 144.937,439.207 142.589,440.784 141.908,441.104 141.118,442.022 140.004,442.749 139.523,443.308 138.839,443.784 138.689,443.991 138.865,445.769 137.946,446.575 137.646,446.989 137.749,447.479 138.37,448.67 138.175,450.608 138.276,451.536 138,452.303 138,454.211 136.737,457.757 136.332,459.173 136.187,460.105 135.614,460.977 135.059,461.612 134.425,462.672 133.864,463.296 133.61,463.693 133.725,464.462 134.161,465.696 134.136,466.264 134.353,466.617 134.782,467.119 135.536,467.375 136,468.467 136,470.598 135.766,471.663 135.754,472.013 135.575,472.506 135.043,476.394 135.365,477.123 135.591,477.969 135.83,478.508 135.915,479.303 135.747,481.118 136.375,482.275 136.864,481.733 137.4,480.994 138.464,479.893 139.833,479.94 140.6,480.302 141.437,480.181 143.319,480.079 144.856,480.657 146.115,480.835 147.591,480.889 148.92,481.368 149.261,482.398 148.775,483.498 148,484.706 148,485.417 148.774,486.164 148.789,487.018 149.952,487.979 150.069,488.975 150.497,489.657 151.478,490.279 152.553,491.08 154.102,491.839 154.38,492.73 155.405,493.957 156.363,493.932 157.519,494.316 158.81,494.95 159.477,495.128 160.498,494.437 161.224,493.658 161.603,492.707 162.689,491.598 164.158,491.438 165,490.449 165,489.741 165.812,488.882 166.275,488.023 167.047,487.188 168.113,487.87 169.148,488.004 169.991,487.948 170.491,487.503 171.405,486.786 172.705,486.612 173.87,486.661 174.023,486.614 174.243,485.719 175.423,483.478 176.524,482.612 177.081,482.248 177.682,480.76 178.792,478.943 179.627,478.369 180.783,478.923 181.336,478.767 183.093,477.195 184.145,477.21 185.004,477.522 186.63,477.994 188.375,476.578 189.562,476.806 191.937,477.351 194.224,478.042 195.848,479.39 196.317,480.305 196.654,480.047 200.779,478.128 204.564,485.979 213.561,481.509 211.059,484.699 209.798,486.711 210.375,489.174 211.204,490.237 212.388,490.215 212.864,490.288 212.939,489.896 213.791,488.876 215.951,489.059 217.794,489.639 219.929,490.444 221.896,490.505 223.903,488.325 224.702,488.527 226.707,488.973 227.916,484.534 228.674,482.618 229.754,481.567 232.988,477.204 236.219,472.158 239.631,467.167 241.679,462.872 241.924,458.521 242,454.067 242,451.904 242.109,448.797 242.71,444.188 243.506,441.221 "
   id="polygon22"
   style="fill:#33394b" />
	<polygon
   points="563.613,667.2 563.049,665.037 561.771,664.321 560.825,663.92 559.329,662.121 558.99,660.966 558.414,660.188 558.317,659.477 557.715,658.82 556.047,657.552 555.089,656.362 553.672,653.963 552.797,653 551.126,653 549.8,653.463 548.885,653.082 547.066,653.109 545.335,652.515 543.305,651.677 542.729,649.918 541.829,647.728 542.487,646.144 544.474,644.059 545.663,642.151 546.747,639.976 546.995,637.595 546.842,635.775 545.43,634.717 545.185,631.831 545.246,630.439 545.554,628.678 546.393,627.114 545.947,625.313 544.851,623.646 544.536,620.969 542.599,617.14 542.952,614.908 545.583,613.377 545.883,612.198 545.688,610.532 543.173,606.645 541.6,605.879 541.294,604.393 541.406,603.232 541.553,603.194 541.365,601.47 541.143,600.861 540.548,601.013 539.563,600.421 539.375,598.781 539.104,597.39 539.359,595.629 540.574,592.096 540.796,590.972 539.207,589.664 536.168,588.101 535.175,587.351 534.572,587.196 533.216,587.832 532.912,588.136 532.298,588.295 532.08,588.256 532.357,590.02 532.167,591.46 529.452,596.244 529.007,597.609 529.19,598.859 529.927,600.271 529.523,601.228 528.725,601.487 527.468,601.544 526.102,601.831 525.944,602.097 525.957,604.2 525.616,605.731 524.525,606.641 523.315,607.273 520.858,607.281 519.898,607.425 518.934,607.51 518.266,608.672 517.526,609.417 515.996,610.252 514.489,610.044 513.939,610.432 512.719,611.146 511.752,611.222 510.104,610.479 508.743,610.33 507.607,610.853 507.262,611.262 506.119,612.664 504.87,613.303 503.789,613.685 502.412,613.611 501.445,613.237 500.266,612.407 499.756,612.166 495.33,612.226 494.75,610.563 493.45,608.616 492.236,607.517 491.258,606.149 490.82,604.885 489.13,603.663 487.578,602.677 487.255,601.476 485.83,600.172 483.878,595.771 483.971,593.678 483.107,591.14 482.417,589.946 482.482,587.711 482.105,586.217 481.157,584.632 480.459,583.516 479.672,584 477.358,584 476.541,583.315 475.198,583.95 473.355,583.434 472.063,583.13 470.872,582.777 470.33,582.537 469.39,583.099 468.52,584.165 468.149,586.289 468.386,588.573 469.64,590.679 469.504,593.332 468.329,595.669 464.5,597.078 462.945,597.006 461.876,597.404 460.743,599.269 459.46,599.917 457.6,599.387 456.317,600.943 455.391,602.244 454.287,605.182 452.198,606.373 449.331,607.695 448.304,608.083 446.194,608.439 445.23,608.926 443.917,608.879 442.03,609.258 440.971,609.28 440.882,609.438 441.148,610.33 441.537,611.991 441.256,613.064 440.839,613.44 439.781,615.074 438.82,616.354 438.472,617.488 437.365,618.331 436.327,618.978 435.691,619.888 434.394,620.108 433.915,621.612 432.376,622.318 432.176,623.453 430.419,623.221 429.218,623.596 428.93,625.064 427.637,626.178 426.881,627.566 426,629.045 426,630.763 424.868,631.395 423.381,630.441 422.549,630.209 421.222,631.138 419.814,631.409 418.807,631.271 418.138,632.258 416.935,632.029 416.457,632.891 414.452,632.69 413.994,632.475 413.456,632.721 412.692,633.76 411.84,634.342 410.83,634.562 409.379,634.293 408.888,634.026 408.244,634.532 407.238,635.155 407.127,635.768 405.89,637.266 405.956,637.984 405.877,640.07 406.318,641.178 406.695,643.231 405.686,644.751 405.219,645.126 404.512,646.249 404.205,646.635 407.052,648.123 408.136,652.385 402.388,659.072 401.445,662.39 402.403,663.815 401.457,681.33 399.652,684.259 402.711,688.718 403.145,695.701 404.949,698.766 409.123,701.471 411.54,703.55 418.42,703.655 418.695,705.762 423.139,706.895 424.853,709.373 425.799,712.978 427.445,714.1 427.532,716.89 428.824,718.543 427.794,720.027 428.799,721.892 428.744,723.495 428.012,723.968 428.401,726.25 429.438,727.802 428.585,728.968 428.357,729.884 428.652,730.973 428.876,730.688 431.544,730.997 433.652,732.554 432.56,735.91 433.075,737.252 434.083,738 437.06,738 438.479,739.079 438.719,740.765 440.49,740.853 440.792,743.422 441.086,742.834 442.621,740.414 444.6,738.995 445.171,734.231 445.562,730.464 451.391,726.172 452.756,726.523 454.87,725.593 459.511,726.741 461.98,730.828 463.728,733.219 473.673,734.233 478.095,728.764 482.965,727.171 487.773,724.501 488.22,720.932 492.034,715.991 497.424,716.474 500.118,714.191 499.537,711.981 508.224,713.281 515.44,715.521 519.813,715.05 519.897,715.071 527.413,716.918 531.726,714.473 537.072,714.246 541.574,711.747 548.106,712.082 551.656,710.243 555.161,707.736 556.796,698.215 556.984,693.347 555.113,688.786 555.735,677.771 563.12,675.132 565.415,671.714 564.988,670.29 564.586,668.122 "
   id="polygon24"
   style="fill:#33394b" />
</g>
<g
   id="남서울_1_"
   display="none">
	<polygon
   display="inline"
   fill="#2E7AB0"
   points="443.557,501.893 438.708,498.337 437.166,496.361 436.408,494.204 436.415,494.1    436.887,487.715 427.173,487.308 422.565,486.057 416.658,481.945 411.644,477.986 406.828,472.494 388.024,461.731    375.743,455.669 368.631,458.538 362.463,460.72 351.354,463.906 346.619,465.033 342.57,465.669 336.767,465.645 335.181,465.39    332.603,470.191 331.577,471.91 330.563,473.381 329.812,476.089 326.967,485.044 325.407,489.495 321.083,503.092    320.957,507.469 319.805,508.827 318.283,509.538 310.069,511.567 309.138,511.724 306.273,512.128 305.37,512.479    304.696,513.216 302.448,517.77 300.028,521.323 295.829,527.676 294.102,530.423 288.416,539.088 291.382,539.269 293.529,539.09    304.002,534.943 306.857,533.194 313.393,528.051 316.168,527.398 316.785,527.354 321.505,527.071 327.83,526.991    329.908,520.608 332.187,518.428 332.315,517.011 333.27,516.119 333.934,514.551 335.988,514.672 339.248,517.032    342.045,518.919 343.911,519.666 346.087,519.437 348.462,519.494 350.128,520.482 351.493,521.391 352.389,522.104    353.197,522.257 353.816,521.784 354.597,521.482 355.609,521 356.596,521 357.34,520.796 358.141,519.844 359.728,519.74    360.854,520.098 361.126,521.102 361.646,521.275 362.589,521.488 363.507,520.941 364.344,520.713 365.44,520.614    366.599,520.294 367.101,519.782 368.046,518.99 369.068,518.65 370.729,517.979 372.226,516.77 373.221,517.489 374.11,517.795    374.69,517.853 376.002,517.564 377.475,519.188 377.977,519.869 378.949,520.36 380.324,520.744 381.763,521.344 382.658,522.248    383.552,522.91 385.591,524.256 386.438,524.16 387.738,523.627 389.462,523.423 391.706,522.201 391.956,521.766 394.214,520.7    394.193,520.072 394.843,517.846 395.1,517.443 396.878,517.406 397.855,517.694 399.815,518.619 399.745,519.793 400.106,520.148    400.27,522.108 400.087,523.727 399,525.11 399,526.144 398.486,527.112 399.077,527.844 400.263,529.015 401.038,530.07    401.247,530.909 401.223,534.093 401.461,537.088 401.435,537.091 401.749,538.396 401.654,538.759 401.191,539.894    400.991,540.532 401.173,540.979 400.854,541.869 399.853,542.845 401.328,544.337 401.495,545.068 401.899,545.644    402.934,546.387 403.718,547.855 404.074,548.129 405.184,548.871 405.573,549.435 406.13,551.369 406.37,552.026 407.162,552.573    408.719,553.252 410.352,554.276 411.502,555.808 412.861,556.147 413.255,556.898 414.655,559.328 417.731,559.958    418.503,562.124 424.84,560.27 426.065,560.008 430.337,559.415 431.747,559.303 434.572,559.242 435.852,559.27 438.772,559.491    440.026,531.766 440.6,527.813 440.979,510.274 445.32,503.6  "
   id="polygon27" />
	<polygon
   display="inline"
   fill="#2E7AB0"
   points="324.459,489.18 326.019,484.728 328.853,475.804 329.692,472.882 330.737,471.37    331.733,469.699 334.638,464.289 336.85,464.651 342.501,464.674 346.423,464.054 351.1,462.939 362.159,459.768 368.278,457.603    375.303,454.768 377.326,438.305 377.205,434.943 375.987,431.865 374.686,429.675 371.913,427.235 367.324,423.435    362.731,419.338 358.909,415.105 354.714,409.195 337.815,401.854 335.542,402 324.36,402 328.02,406.226 323.763,408.62    311.66,405.792 305.553,403.426 298.751,401.233 293.888,400.629 289.487,399.922 284.007,395.292 263.59,377.644 251.949,371.131    243.922,366.818 242,370.037 242,374.56 240,374.59 240,376.95 242.499,381.429 242.656,381.465 244.082,384.71 244.828,385.501    247.518,389.279 253.412,396.352 255.587,401.279 260.241,411.612 262.418,418.596 261.528,423.899 260.874,425.419    259.084,429.436 257.391,432.584 255.389,435.149 250.168,437.571 246.219,439.641 244.411,441.706 243.69,444.376 243.179,448.86    243.146,454.084 242.996,458.573 242.698,462.652 245.135,463.494 247.583,465.156 253.232,468.536 257.184,470.616 261.06,472.73    262.606,474.077 265.56,478.093 268.552,483.384 269.482,486.063 269.511,487.553 269.247,491.379 268.413,497.841    268.949,504.546 270.312,511.705 271.492,516.881 274.295,525.907 275.763,530.741 277.859,533.669 282.528,537.364    285.393,538.688 287.283,538.992 293.261,529.882 294.988,527.134 299.198,520.766 301.586,517.267 303.909,512.594    304.791,511.63 306.224,511.112 306.47,511.086 309.867,510.589 317.994,508.579 319.272,507.973 319.97,507.102 320.043,505.691    320.108,502.856 321.244,499.335  "
   id="polygon29" />
	<polygon
   display="inline"
   fill="#2E7AB0"
   points="825.747,387.604 827.012,389.627 827.657,389.199 827.737,385.342    827.709,378.778 827.509,377.897 827.279,377.225 825.981,376.339 824.733,375.175 824.35,374.108 824.482,372.599    824.648,372.539 824.603,372.151 824.395,368.867 824.459,368.14 824.725,366.408 824.662,365.042 824.426,362.94 824.422,362.387    824.458,361.851 825.05,358.722 825.047,356.633 824.79,353.545 823.913,351.152 822.045,346.981 821.384,345.801 820.741,344.932    820.398,343.857 820.065,340.323 820.063,338.274 819.516,335.458 818.366,332.865 818.133,331.514 816.917,327.223    813.071,319.663 812.593,312.001 813.198,307.9 810.789,308.041 808.338,307.185 805.247,306.48 797.786,311.362 781.858,324.819    776.271,326.126 772.441,331.114 762.604,333.266 757.563,336.947 742.912,336.617 724.266,342.71 711.788,348.633 704.553,354.98    701.194,360.678 700.057,365.311 698.183,376.732 695.568,385.189 692.095,394.578 690.598,397.947 703.079,402.56    705.674,403.817 708.179,405.804 710.335,407.312 711.291,407.882 713.307,408.683 709.487,422.161 709.445,422.594    707.661,429.017 704.976,434.896 710.063,437.422 713.596,439.594 752.075,460.984 753.952,461.277 753.83,460.92 753.511,459.58    753.353,455.944 754.063,453.545 755.561,448.805 759.584,448.437 761.485,444.3 761.792,442.59 762.488,441.456 762.452,440.231    764.252,437.708 765.571,436.154 767.504,434.26 769.529,431.684 769.794,429.493 770.358,428.389 770.082,426.724    770.877,425.539 772.983,425.222 775.019,424.677 775.833,423.753 774.523,421.715 774.952,419.663 776.01,417.813    775.933,415.881 775.222,413.172 774.439,411.467 776.444,409.015 777.219,407.235 778.912,404.966 780.282,403.973    782.772,401.934 784.078,400.542 785.928,396.768 787.231,396.005 788.96,393.069 790.994,393.135 794.981,394.625    796.001,394.029 797.137,392.389 798.864,392.765 800.299,392.507 801.667,393.368 802.606,393.17 804.212,392.859 806.65,392    808.771,392 812.704,392.516 811.406,390.326 813.314,390.356 813.998,389.35 818.615,388.436  "
   id="polygon31" />
	<polygon
   display="inline"
   fill="#2E7AB0"
   points="707.595,587.567 710.809,583.184 710.858,581.522 710.311,579.45    708.551,575.598 705.304,569.438 701.148,561.35 698.892,557.259 698.056,556.153 695.761,552.26 691.592,545.847 690.573,543.576    687.998,539.124 683.302,532.415 678.818,525.778 674.74,521.614 668.509,517.583 661.339,513.562 653.737,510.209    645.426,506.851 638.473,504.262 631.925,501.676 625.921,500.112 617.275,497.999 616.51,497.729 613.706,496.771    610.447,494.162 608.276,490.437 607.354,486.716 602.563,442.729 600.078,441.392 595.56,438.57 584.604,430.075 581.619,428.124    574.683,424.193 563.295,419.318 552.596,415.238 537.644,409.745 530.823,407.494 524.54,406.162 520.796,406.711    515.568,410.104 513.892,412.084 508.656,418.178 491.323,439.919 499.803,447.122 503.63,441.942 509.112,449.7 509.869,451.188    510.977,455.448 512.798,463.942 513.746,467.734 513.913,469.243 514.592,472.011 515.976,475.907 519.83,485.531 522.04,491.942    528.096,507.846 535.716,528.222 540.427,540.355 554.901,537.866 559.737,552.474 561.904,558.357 573.523,572.505    569.999,575.857 571.699,575.712 573.527,577.317 573.729,579.459 573.46,582.157 573.37,582.498 575.84,580.998 581.599,578.882    585.099,579.396 589.255,577.476 592.636,578.048 595.419,577.595 597.372,577.935 600.335,576.536 603.692,576.293    606.713,573.568 609.62,573.109 612.925,570.914 614.657,570.729 616.75,568.669 617.318,568.427 619.391,567.354 621.495,565.153    622.569,563.195 623.747,563.298 625.126,563.796 626.259,563.662 628.429,563.492 633.251,562.715 635.07,562.134    638.087,562.391 638.404,568.293 639.597,572.517 640.741,574.609 644.248,576.031 645.508,579.598 646.926,580.354    647.797,581.886 650.796,582.848 651.809,585.247 652.746,588.69 652.012,592.947 653.631,595.846 654.492,596.921    656.684,597.447 660.649,597.619 659.967,600.649 660.203,603.209 661.098,605.892 661.149,608.313 664.066,608.161    667.907,605.969 668.127,605.701 670.33,603.846 670.8,601.623 672.543,600.193 674.277,599.944 675.048,598.731 675.918,596.713    675.255,594.887 677.469,594.462 678.852,594.012 691.8,596.844 693.082,597.645 694.371,598.019 696.712,601.787 698.663,603.169    700.613,603.888 705.033,591.628  "
   id="polygon33" />
	<polygon
   display="inline"
   fill="#2E7AB0"
   points="243.169,385.249 241.859,382.383 241.857,382.352 239,377.229 239,373.603    241,373.572 241,369.75 243.053,366.323 217.164,350.641 209.485,345.49 196.131,334.441 191.412,328.563 186.695,323.98    183.257,321.11 179.919,317.846 168.766,309.519 163.669,306.474 156.515,303.104 152.934,301.086 150.82,299.7 148.101,296.803    147.408,296.256 144.481,293.578 143.836,289.814 141.941,288.592 138.903,285.271 135.968,282.996 134.165,280.575    118.338,268.515 107.563,255.681 103.875,249.232 101.461,245.426 100.563,244.112 97.818,244.348 95.096,245.792 93.396,246.994    89.081,250.552 88.922,251.112 88.48,251.761 88.438,252.142 88.464,252.69 88.785,253.446 89.017,254.224 89.218,255.408    89.151,255.98 89,256.369 88.648,256.591 87.972,256.862 86.886,257.171 85.404,260.215 84.749,259.742 83.921,262.419    83.708,266.223 83.174,266.005 83.241,266.636 83.72,268.354 83.782,271.545 84.494,272.82 85.723,274.566 87.582,276.386    89.385,277.96 88.842,279.616 87.239,278.624 86.646,278.645 86.392,280.458 87.29,280.908 88.565,282.715 89.388,282.76    90.286,284.473 90.948,285.558 90.587,287.321 90.329,287.248 90.452,288.467 90.029,289.642 88.924,289.972 88.189,289.318    86.199,288.955 84.918,290.849 84.118,292.641 83.112,296 82.768,296 81.96,296.872 83.274,298.111 81.901,299.231 81.183,299.763    79,302.155 79,300.139 79.023,299.299 78.928,296.385 78.827,296.346 78.867,298.53 78.776,300.101 78.333,302.624 76.874,302.402    76.883,302.924 76.604,304.352 75.99,306.151 75.532,308.371 74.896,308.358 74.772,308.781 75,310.134 75,311.45 75.627,311.735    75.335,312.85 75.468,313.604 75.566,316.344 73.421,316.583 73.631,314.614 73.2,312.358 73.101,309.812 72.761,308.333    72.377,307.896 71.719,306.428 71.136,307.166 70.793,307.076 70.747,307.121 70.947,309.551 70.737,310.381 71.058,310.481    70.519,314.034 68.499,315.858 68.352,314.539 67.813,314.504 66.515,316.24 68.282,319.958 65.957,319.102 65.372,318.37    65.238,318.33 64.623,319.584 61.818,320.707 59,321.99 57.724,322.828 54.492,324.439 54.316,326.592 53.669,328.718    53.163,329.07 55.32,331.389 54.548,332.46 51.839,332.56 51.273,332.195 51.585,332.545 52.248,333.479 52.416,333.508    53.405,334.584 52.947,335.618 52.113,335.829 50.797,337.125 51.036,337.951 50.059,339.531 48.905,338.049 48.072,337.356    48.095,339.778 45.415,340.406 45.163,340.63 44.017,342.581 42.603,342.721 42.224,340.207 40.211,339.592 40.507,340.215    40.719,342.493 41.235,342.674 41.448,343.495 41.697,343.48 42.406,344.523 42.512,345.32 43.319,346.107 44.914,348.417    44.27,348.558 44,349.556 44,350.61 43.718,350.893 45.298,351.125 45.541,353.882 46.039,355.16 46.23,356.646 45.771,358.47    44.824,357.259 43.941,356.586 43.759,355.62 41.93,353.319 41.542,353.53 41.496,353.457 41.418,354.158 40.373,354.229    40.296,354.309 40.357,355.235 39.905,355.545 40.405,356.598 39.152,356.544 38.98,356.745 39.099,356.95 38.775,358.809    37.563,357.776 36.773,359.517 35.929,359.174 35.796,359.457 35.886,359.808 35.379,360.733 35.013,360.881 37.308,363.313    35.963,364.242 35.162,365.053 34.194,364.974 32.637,364.482 30.172,364.362 28.685,364.702 28.192,365.355 27.303,365.607    25.954,365.649 25.147,365.858 25.024,365.781 25.162,365.906 23.713,366.765 23.215,366.854 21.16,368.152 20.679,368.254    20.349,368.516 21.033,368.823 23.119,368.808 23.955,369.717 23.616,371.229 23.636,371.283 23.793,371.091 24.38,371.07    25.147,370.607 26,370.978 26,371.874 25.907,372 26.104,372 26.269,373.088 25.994,373.552 26.654,374.146 26.04,376.629    27.831,377.285 27.94,377.116 29.654,377.171 29.603,377.919 30.076,378.235 30.518,377.891 31.59,378.725 30.612,379.934    30.561,380.125 30.651,380.442 31.61,381.098 31.475,381.726 32.813,383.454 32.956,384.247 33.399,384.371 33.623,384.946    34.099,384.899 35.103,384.015 40.467,383.232 41.394,383.652 43.912,385.592 44.232,386.771 45.113,388.083 45.387,388.937    47.213,388.826 48.297,389.497 49.646,389.642 52.979,390.486 53.424,389.76 55.063,390.402 56.184,390.651 58.635,390.288    61.647,390.547 63.013,390.403 63.825,390.494 65.099,391.468 65.659,392.178 66.279,393.196 68.252,394.585 70.901,396.2    71.913,396.064 73,396.248 73,397.307 72.844,398.096 72.532,398.375 72.508,399.717 72.771,400.071 73.032,400.836 75.378,401.32    77.232,401.57 79.612,402.047 78.82,403.896 77.985,404.864 78.047,405.438 77.432,406 77.026,406 76.474,406.373 77.189,406.534    77.232,407.936 78,409.085 78,410.254 77.483,410.611 77.218,412.236 77.798,414.24 77.977,415.221 78.675,414.64 80.773,413.189    81.529,413.201 81.813,412.769 82.52,412.454 83.889,412.466 84.502,411.88 84.364,410.852 86.44,411.088 86.664,410.759    86.747,410.747 86.176,408.01 86.614,407.956 86.483,407.738 85.467,407.486 85.725,404.533 86.705,404.602 86.509,403.778    89,403.358 89,402.943 88.896,402.73 88.979,402.625 85.88,403.083 91.249,399.094 92.394,398.534 94.13,397.956 96.257,397.391    102.414,396.507 104.92,397.786 105.899,398.55 106.887,399.546 108.083,400.346 109.719,400.973 109.65,401.442 112.395,403.316    113.099,403.478 115.886,403.652 120.734,403.765 122.276,403.554 127.497,403.283 130.92,403.392 134.134,402.177    135.439,401.638 136.811,401.461 136.718,400.625 138.171,398.541 138.315,397.84 137.408,396.426 137.705,394.56 138.415,392.923    139.232,392.251 139.619,391.292 139.998,390.875 140.027,389.516 140.756,388.849 140.705,387.909 141.528,386.041    142.345,386.884 143.067,386.766 144.015,386.837 146,386.271 146,387.681 146.409,389.152 146.705,389.967 147.04,390.379    147.509,391.381 147.638,392.137 146.314,395.604 146.387,396.474 147.648,399.801 146.928,399.839 146.981,401.032    147.198,400.808 152.711,400.511 154.2,405.949 156.702,411.201 156.845,413.646 155.326,413.884 166.87,437.924 182.727,434.555    201.148,431.612 211.359,429.932 210.364,414.912 211,405.337 211,403.894 210.66,402.767 208.509,397.778 207.79,395.793    207.919,394.328 211.462,379.913 212.571,377.604 216.378,380.023 223.537,385.364 225.31,386.414 227.57,387.841 231.997,388.526    238.982,387.822 242.562,386.738 241.737,385.723  "
   id="polygon35" />
	<polygon
   display="inline"
   fill="#2E7AB0"
   points="319.517,645.336 319.729,644.065 320.341,642.371 321.325,640.299    322.161,638.222 323.775,636.895 325.081,635.267 325.61,633.176 326.743,632.361 328.223,631.707 329.141,630.431    329.896,630.473 330.556,629.685 331.454,628 332.422,628 333.383,626.755 334.207,626.289 335.261,625.402 335.881,624.643    336.863,623.88 336.233,622.831 335.593,622.513 334.003,622.637 333.121,621.534 331.973,619.6 331.036,618.358 330.529,617.995    329.07,618.329 328.115,617.042 327.579,615.726 325.86,614.486 324.883,611.477 324.832,610.003 324.073,609.069 323.229,608.905    321.646,608.666 320.428,608.672 318.729,608.497 317.06,608.1 315.011,607.778 314.21,607.08 312.96,607.257 311.847,607.103    310.119,607.452 309.051,606.728 308.072,605.523 308.12,603.672 308.512,602.84 308.042,601.627 308.375,600.591 308.428,599.585    308.333,598.127 308.838,597.355 308.87,596.593 308,595.823 308,594.732 307.541,593.624 306.897,593.095 306.054,591.776    305.896,590.096 306.472,589.094 306.936,588.146 307.404,587.49 306.306,586.987 304.958,586.459 304.892,585.454    303.554,584.164 303.286,583.162 302.439,581.997 302.384,581.029 302.012,580.652 300.514,579.499 300.393,578.7 300.594,577.8    300.118,576.36 299.593,575.561 299.622,574.575 298.993,573.638 298.228,571.974 297.572,570.905 297.063,570.427    296.836,569.115 299.034,567.674 300.088,567.592 300.689,567.166 301.616,566.926 302.518,566.439 302.913,565.243    302.939,564.063 303.368,562.798 303.228,561.635 304,559.297 304,558.609 303.793,558.253 303.618,557.521 301.222,556.825    301.097,556.32 300.852,556.434 299.768,556.75 298.871,555.927 297.491,553.785 297.778,553.398 297.715,552.921 298.286,552    298.395,552 298.174,550.872 300.012,550.508 299.874,549.919 284.743,553.443 279.489,554.755 275.449,555.63 273.388,555.824    271.848,555.827 261.744,553.695 258.414,551.774 256.747,549.81 255.122,547.263 253.269,545.198 248.173,540.77 245.2,538.529    241.005,536.819 239.897,536.857 238.136,537.68 233.462,539.317 232.595,539.454 228.885,539.693 229.22,542.024 229.693,543.949    234.632,559.045 236.755,561.007 239.204,565.599 245.78,576.06 246.672,579.119 248.868,580.005 252.728,586.172 250.29,587.511    249.391,587.859 248.923,588.158 248.738,588.738 248.821,589.385 249.519,590.493 251.693,593.499 252.656,593.777    253.575,593.651 256.611,591.648 259.437,595.966 253.266,599.832 253.693,601.234 255.473,601.612 255.707,603.947    254.548,605.448 255.528,607.1 255.846,609.109 256.568,610.355 257.205,610.744 258.596,610.574 259.329,611.917 260.026,612.618    260.148,612.659 260.819,612.7 261.276,613.622 260.82,614.446 260.866,614.593 261.003,614.68 261.719,615.037 262.103,615.885    261.643,617.903 261.812,618.338 262.663,617.741 263.607,618.182 264.164,618.536 264.977,618.63 265.951,618.478 266.595,618.69    267.102,619.347 268.369,618.104 269.218,617.822 269.649,617.841 270.462,618.067 279.545,642.526 281.369,648.509    279.211,648.45 279.075,649.107 279.094,649.881 279.27,650.602 279.504,650.927 279.912,651.808 281.806,653.922 284.25,656.568    287.151,658.623 287.251,661.881 287.377,662.764 287.502,662.728 289.326,662.803 291.605,663.002 292.033,663 293.542,663.137    294.434,663.364 294.859,663.319 296.835,663.904 298.149,663.799 298.677,663.3 298.915,661.938 300.137,659.737 301.123,658.639    302.052,658.097 302.386,655.679 303.066,654.132 304.201,652.585 305.579,651.094 307.268,649.635 308.395,648.465    310.084,647.878 311.625,648.137 312.814,647.798 314.146,648.004 317.033,647.741 318.561,646.464  "
   id="polygon37" />
	<polygon
   display="inline"
   fill="#2E7AB0"
   points="248.803,539.993 253.97,544.488 255.917,546.661 257.55,549.218 259.118,551.06    262.169,552.874 271.952,555 273.342,555 275.297,554.732 278.931,553.903 279.147,552.646 280.523,549.285 286.679,539.916    285.036,539.627 281.955,538.187 277.087,534.31 274.83,531.11 272.231,522.563 270.528,517.143 269.333,511.91 267.959,504.68    267.408,497.815 268.251,491.279 268.512,487.527 268.484,486.163 267.645,483.796 264.722,478.635 261.834,474.715    260.448,473.523 256.712,471.498 252.742,469.407 247.045,465.999 244.63,464.36 242.431,463.617 240.499,467.659 239.954,468.487    237.052,472.711 233.811,477.771 230.504,482.224 229.453,483.255 228.867,484.84 227.421,490.156 224.235,489.44 222.321,491.519    219.653,491.409 216.939,490.426 215.701,490.029 214.228,489.913 213.873,490.339 213.664,491.427 212.317,491.208    210.722,491.247 209.427,489.509 208.724,486.511 208.968,486.153 210.105,484.343 204.103,487.325 200.307,479.45    197.134,480.926 195.995,481.871 195.007,479.941 193.68,478.887 191.688,478.318 188.644,477.648 186.854,479.1 184.693,478.473    183.898,478.185 183.463,478.195 182.894,478.685 181.84,479.663 180.691,479.987 179.717,479.521 179.451,479.704    178.577,481.199 177.89,482.913 177.106,483.425 176.128,484.195 175.164,486.113 174.87,487.401 173.998,487.668 172.748,487.606    171.811,487.74 171.136,488.269 170.406,488.925 169.124,488.999 167.78,488.833 167.276,488.503 167.179,488.615 166.658,489.42    166,490.067 166,490.863 164.588,492.401 163.055,492.559 162.35,493.326 162.004,494.263 161.094,495.232 159.652,496.214    158.452,495.88 157.138,495.239 156.214,494.936 154.957,494.969 153.455,493.119 153.276,492.544 152.034,491.929    150.915,491.102 149.774,490.378 149.103,489.188 149.031,488.479 147.829,487.455 147.751,486.504 147,485.786 147,484.457    147.857,483.112 148.142,482.408 148.089,482.144 147.313,481.857 146.025,481.83 144.552,481.612 143.161,481.089    141.534,481.175 140.445,481.389 139.508,481 138.887,481 138.162,481.691 137.639,482.391 136.515,483.628 135.583,483.53    134.814,483.585 133.903,484.096 132.908,484.561 132,484.754 132,485.574 131.932,486.343 132.145,487.781 132.496,487.897    132.456,489.21 132.493,489.522 132.21,490.412 131.395,491.02 131.053,492.104 131.373,492.921 131.407,493.697 130.691,495.246    130.63,498.179 128.796,499.126 128.27,499.565 127.706,499.884 127.228,500.599 127,501.376 127,503.01 126.899,503.888    126.451,504.407 126.316,504.998 125.333,505.866 124.521,506.161 123.717,506.362 123.271,506.414 123,506.869 123,507.407    122.081,507.971 121.562,508.072 121.1,508.329 120.79,508.655 120.108,508.927 119.245,509.105 118.656,509.08 117.579,508.194    116.438,508.223 116.181,507.934 116.115,508.415 116.093,509.506 114.44,511.065 114.119,511.681 115.716,515.062    116.407,516.199 116.557,516.938 116.566,517.635 116.499,518.251 116.851,518.811 116.898,519.011 118.594,518.73    119.578,520.391 121.844,521.949 122.909,522.897 124.316,522.852 125.594,523.432 126.337,523.71 127.259,524.119    128.992,525.106 129.713,525.707 130.691,526.134 132.735,526.93 133.104,527.924 133.538,529.277 133.723,530.233    133.731,530.854 133.159,531.621 130.995,532.016 131.204,532.586 130.967,532.697 131.34,533.599 131.644,533.49 132.278,535.096    131.415,535.816 130.476,536.175 129.938,536.591 128.718,537.122 125.785,538.12 126,538.276 126,538.795 125.95,539.64    125.723,540.494 126,542.449 126,543.113 126.591,545.845 127.551,547.105 127.401,547.959 127.176,548.688 126.831,549.378    126.678,550.148 126.409,550.492 125.823,553.115 123.946,556.501 121.917,556.561 120.482,557.952 120,558.83 120,559.924    118.429,560.87 117.768,561.787 117.543,563.094 117.192,564.583 118.529,565.736 120.673,565.777 121.7,566.814 121.851,567.683    122.181,567.775 122.511,566.724 123.456,566.158 123.817,565.847 123.129,562.455 124.51,562.736 124.704,562.548    124.811,560.654 126.043,559.937 127.024,560.364 127.275,560.185 127.764,560.239 128.663,560.236 129.359,560.048    129.692,560.404 130.866,560.238 130.724,561.694 130.939,561.396 131.808,561.364 132.205,561 132.742,560.948 132.821,560.562    133.849,560.529 134.497,559.25 135.207,560.192 135.249,560.158 138.905,560.323 142.116,560.906 144.61,560.289 145.13,559.672    145.472,558.753 146.377,557.968 147.612,557.274 148.822,556.932 151.47,557.432 152.318,557.79 152.868,557.767 154.262,559.16    154.708,560.186 156.229,561.75 155.972,563.184 155.749,564.134 155.778,564.722 157.187,564.795 158.094,563.751    158.994,563.636 159.957,563.712 162.253,562.297 163.751,562.581 164.241,562.95 165.327,562.767 165.696,563.737    166.754,563.892 167.487,564.066 169.21,563.502 170.462,563.489 172.052,563.812 172.637,564.491 174.223,564.973    175.543,565.125 175.832,562.722 176.364,556.704 176.489,553.884 176.695,550.766 177.083,548.648 178.59,546.921 180.18,546.196    182.065,546.076 184.045,546.794 186.097,547.413 187.921,547.349 189.39,546.85 191.611,544.993 192.015,544.278 194.243,538.951    195.667,537.78 198.245,537.302 199.472,536.971 200.505,535.666 202.262,533.274 205.601,528.359 207.451,526.278    209.076,525.159 211.618,524.487 212.825,523.946 213.877,523.117 215.264,521.711 216.253,520.478 217.223,519.483 217.9,518.858    218.023,518.62 218.111,517.106 218.461,515.718 220.14,514.275 223.604,512.819 223.905,514.263 224.718,519.803 224.809,522.613    225.515,527.577 225.915,527.518 225.609,524.414 226.835,524.305 228.202,524.418 232.088,524.928 233.359,526.407    229.223,528.678 229.351,530.154 229.5,530.718 230.645,529.835 231.522,529.79 232.554,530.416 234.679,529.714 235.333,529.684    235.843,529.778 236.854,530.115 237.283,530.685 237.133,531.729 236.992,532.086 235.853,534.698 233.615,536.14    232.858,537.987 232.799,538.36 232.822,538.41 233.225,538.351 237.76,536.754 239.761,535.861 241.177,535.813 245.751,537.692     "
   id="polygon39" />
	<polygon
   display="inline"
   fill="#2E7AB0"
   points="443.589,607.585 444.742,607.612 445.669,607.167 447.83,606.807    449.524,606.156 451.665,605.091 450.645,603.357 449.674,600.682 449.688,598.883 450.518,595.434 451.408,590.356    451.082,586.805 449.661,583.63 447.609,580.656 444.77,577.778 442.759,574.952 441.12,571.249 439.674,567.288 439.215,565.72    438.711,563.171 438.743,560.491 435.8,560.268 434.573,560.242 431.572,560.332 429.424,560.485 425.075,561.241 423.274,561.726    417.881,563.356 416.982,560.835 416.341,560.716 414.009,560.211 412.184,557.009 410.916,556.692 409.61,554.954    408.258,554.137 406.675,553.441 405.54,552.669 404.97,551.059 404.633,549.79 404.449,549.555 402.937,548.516 402.162,547.063    401.13,546.288 400.542,545.387 400.49,544.839 399,543.265 399,542.344 400.07,541.299 400.14,541.002 399.948,540.576    400.261,539.553 400.725,538.392 400.68,538.214 400.241,538.278 399.988,536.247 400.393,536.201 400.23,534.127 400.258,531.021    400.112,530.403 399.551,529.663 398.396,528.473 397.266,527.095 398,525.821 398,524.808 399,523.438 399,522.15    399.005,520.602 398.652,520.188 398.743,519.232 397.482,518.625 396.738,518.409 395.69,518.431 395.196,520.194    395.234,521.323 392.667,522.535 392.432,522.943 389.672,524.404 387.927,524.611 386.625,525.146 385.343,525.291    382.978,523.728 382.003,523 381.128,522.124 380.007,521.691 378.586,521.287 377.313,520.653 376.702,519.818 375.651,518.665    374.75,518.862 373.84,518.76 372.695,518.343 372.259,518.027 371.173,518.878 369.413,519.589 368.46,519.906 367.792,520.505    367.124,521.188 365.394,521.624 364.515,521.693 363.844,521.886 362.771,522.555 361.378,522.239 360.303,521.887    360.033,520.898 359.612,520.768 358.645,520.84 357.939,521.644 356.682,522 355.719,522 354.953,522.414 354.209,522.678    353.481,523.313 351.958,523.032 350.904,522.193 349.596,521.326 348.176,520.485 346.126,520.434 343.769,520.686    341.53,519.777 338.394,517.663 335.635,515.652 334.58,515.59 334.03,516.777 333.272,517.485 333.16,518.881 330.781,521.157    328.559,527.981 321.542,528.07 316.312,528.384 313.731,528.998 307.428,534.013 304.447,535.835 293.685,540.08 291.392,540.266    287.784,540.052 281.403,549.74 280.094,552.951 279.985,553.609 284.509,552.487 300.611,548.754 301.204,551.322    299.322,551.761 299.585,553.258 298.774,553.29 298.838,553.648 298.701,553.832 299.67,555.326 300.019,555.637 300.491,555.502    301.804,554.93 302.042,556.034 304.447,556.741 304.74,558.511 304.75,559.434 304.134,561.658 304.406,562.851 303.913,564.305    303.888,565.481 303.342,567.131 301.926,567.879 301.043,568.107 300.473,568.564 299.372,568.65 297.934,569.596    297.992,569.929 298.454,570.388 298.631,570.728 299.339,571.905 299.869,573.163 300.63,574.284 300.602,575.275    301.046,575.983 301.63,577.747 301.419,578.694 301.465,578.971 302.674,579.905 303.362,580.596 303.42,581.647 304.228,582.814    304.448,583.637 305.865,585.003 305.914,585.76 306.697,586.067 308.925,587.089 307.785,588.661 307.346,589.567    306.905,590.325 307.001,591.454 307.65,592.502 308.408,593.048 309,594.656 309,595.337 309.82,596.067 309.926,597.605    309.38,598.396 309.441,599.58 309.354,600.835 309.106,601.596 309.565,602.879 309,603.997 309,605.168 309.742,606.036    310.304,606.392 311.807,606.089 312.954,606.247 314.52,606.025 315.451,606.835 317.254,607.119 318.897,607.514 320.48,607.675    321.72,607.672 324.62,608.157 325.82,609.633 325.88,611.37 326.708,613.865 328.396,615.083 329.016,616.604 329.476,617.21    330.745,616.919 331.788,617.695 332.803,619.045 333.941,620.967 334.451,621.596 335.788,621.491 336.937,622.056    337.998,623.809 340.486,626.451 341,627.791 341,629.014 341.064,630.238 341.278,631.974 341.505,632.836 342.138,634.081    342.922,635.383 344.319,636.136 347.024,638.083 348.182,638.71 349.124,639.918 350.864,641.284 352.208,642.596 353.31,643.226    355.085,646.255 355.866,647.431 355.778,649.084 355,650.374 355,652.73 355.746,654.502 355.955,656.303 356.426,658.631    356.689,659.313 357.997,657.948 358.825,657.989 360.573,658.192 360.806,658.123 361.26,656.907 362.585,654.645 363.56,654.292    364.323,654.146 365.139,654.101 366.402,653.772 367.467,654.379 367.922,654.49 369.205,654.077 370.087,653.406    370.797,652.753 371.802,651.557 373.298,651.057 374.46,650.812 376.741,651.378 378.409,650.698 379.688,651.165    380.583,650.775 381.27,650.344 382.059,649.548 383.124,649.514 384.77,649.543 386.743,650.268 388.215,650.905 389.102,650.866    390.467,650.204 391.993,649.878 393.973,649.675 394.467,649.137 394.87,648.07 395.931,646.399 397.591,646.83 398.633,646.888    402.123,646.525 402.675,646.281 403.267,645.552 404.093,644.265 404.556,643.907 405.187,642.896 404.888,641.227    404.429,640.088 404.525,637.833 404.413,636.806 405.752,635.167 405.882,634.363 407.244,633.541 408.377,632.653    409.375,633.199 410.387,633.373 411.112,633.214 411.627,632.814 412.396,631.756 413.601,631.166 414.387,631.576    415.497,631.664 416.014,630.726 417.308,630.974 417.946,630.015 419.402,630.185 420.559,629.99 421.964,628.921    423.505,629.371 424.711,630.045 425,629.967 425,628.585 425.832,626.894 426.621,625.27 427.709,624.303 428.052,622.589    430.011,621.989 431.042,622.112 431.153,621.418 432.777,620.66 433.314,618.988 434.8,618.734 435.396,617.931 436.475,617.271    437.322,616.646 437.682,615.586 438.661,614.246 439.829,612.48 440.078,612.245 440.224,611.688 439.892,610.319    439.512,609.042 440.083,608.021 441.581,608.012  "
   id="polygon41" />
	<polygon
   display="inline"
   fill="#2E7AB0"
   points="660.1,605.991 659.213,603.36 658.957,600.585 659.411,598.564 656.544,598.433    653.925,597.813 652.803,596.4 650.967,593.127 651.723,588.739 650.865,585.572 650.054,583.66 647.12,582.72 646.199,581.1    644.695,580.297 643.455,576.789 640.034,575.402 638.649,572.843 637.409,568.401 637.136,563.313 635.184,563.147    633.48,563.686 628.547,564.484 625.009,564.817 623.473,564.262 623.138,564.238 622.264,565.797 619.924,568.204 617.232,569.55    615.118,571.686 613.274,571.883 609.884,574.08 607.162,574.51 604.106,577.266 600.503,577.527 597.519,578.976 595.413,578.608    592.632,579.062 589.394,578.513 585.247,580.429 581.704,579.907 576.271,581.896 571.767,584.643 572.479,581.977    572.734,579.454 572.57,577.809 571.359,576.745 567.805,577.049 568.558,575.849 572.16,572.421 560.995,558.782 558.794,552.804    554.222,538.997 539.79,541.48 534.781,528.577 527.16,508.198 521.101,492.283 518.894,485.88 515.04,476.26 513.635,472.296    512.931,469.415 512.764,467.909 511.825,464.174 511.255,461.647 510.003,455.677 508.915,451.494 508.259,450.217    503.612,443.648 499.971,448.577 490.681,440.685 488.62,443.028 485.928,445.813 482.934,450.555 477.199,456.558    469.903,463.726 461.69,470.651 456.397,475.537 451.919,479.851 446.558,487.618 441.977,487.707 437.889,487.733    437.421,494.069 438.081,495.949 439.447,497.661 444.199,501.129 446.607,503.455 441.974,510.581 441.595,527.896    441.021,531.861 440.699,538.627 439.747,560.065 439.713,563.075 440.188,565.49 440.624,566.978 442.047,570.876    443.652,574.501 445.533,577.138 448.378,580.022 450.529,583.143 452.07,586.63 452.416,590.397 451.659,595.638 451,599.06    451,600.592 451.707,602.929 452.611,604.593 453.281,604.179 453.706,603.087 454.313,601.406 455.325,600 457.049,597.902    459.144,598.515 459.825,598.177 461.004,596.233 462.613,595.656 464.158,595.729 467.456,594.524 468.396,592.642    468.454,590.57 467.23,588.414 466.99,585.877 467.407,583.356 468.634,581.892 470.097,581.001 471.076,581.454 474.994,582.538    476.615,581.954 477.6,583 479.252,583 480.612,581.936 481.887,583.769 482.966,585.535 483.409,587.254 483.32,589.346    483.908,590.364 484.872,593.163 484.808,595.244 485.661,597.289 486.622,599.326 488.062,600.598 488.376,601.709    489.628,602.529 491.588,603.938 492.127,605.45 492.948,606.586 494.181,607.719 495.646,609.899 496.006,610.955    499.937,610.907 500.755,611.281 501.947,612.111 502.681,612.367 503.647,612.41 504.481,612.126 505.534,611.566    507.089,609.717 508.592,609.029 510.46,609.25 511.959,609.937 512.43,609.899 513.441,609.326 514.269,608.714 515.862,608.912    517.023,608.293 517.557,607.742 518.395,606.276 519.854,606.148 520.831,605.981 523.154,605.975 524.097,605.485    524.772,604.89 525,603.797 525,601.494 525.531,600.661 527.423,600.231 528.852,600.131 528.9,600 528.305,598.769    528.067,597.172 528.626,595.538 531.358,590.696 531.456,589.673 531.01,586.671 532.396,586.891 532.509,586.864 532.83,586.579    534.589,585.77 535.826,586.1 536.793,586.865 539.965,588.467 541.498,589.771 542.028,589.96 541.897,591.064 541.705,591.997    540.469,595.599 540.263,597.029 540.601,598.739 540.677,599.508 540.855,599.611 541.915,599.367 542.523,600.976    542.813,603.664 542.495,603.724 542.473,604.022 542.646,604.881 544.048,605.585 546.851,610.011 547.106,611.998    546.629,613.762 544.03,615.265 543.795,616.75 545.682,620.533 546,623.073 547.084,624.778 547.633,627.038 546.653,628.877    546.424,630.354 546.344,631.644 546.563,634.002 547.973,635.068 548.166,637.458 547.881,640.208 546.71,642.53 545.429,644.546    543.469,646.623 543.076,647.588 543.832,649.489 544.275,650.836 545.865,651.474 547.52,652 549.309,652 550.142,652.477    551.23,652.325 553.379,652.332 554.684,653.494 556.116,655.701 557.004,656.805 558.7,658.074 559.491,658.979 559.609,659.743    560.15,660.541 560.504,661.678 561.672,663.056 562.432,663.365 564.163,664.347 564.777,666.633 565.78,667.612 566.228,670.04    566.611,671.361 567.757,671.639 569.559,671.957 572.548,673.938 574.362,675.903 575.771,676.234 579.324,674.528    582.278,674.032 586.276,672.833 588.89,673.573 591.773,672.188 595.413,673.043 598.961,674.111 601.453,674.75 603.739,672.14    605.508,671.691 607.329,671.332 608.708,671.77 610.632,672.227 611.128,671.375 610.843,670.059 611.311,668.675    610.014,666.788 611.146,665.057 611.89,662.717 610.905,661.23 611.776,658.348 614.868,656.84 616.851,655.439 617.011,653.507    616.561,651.238 612.893,649.412 612.687,646.889 612.151,643.973 614.387,642.476 616.055,643.182 619.271,642.329    620.575,643.434 622.413,643.27 623.368,643.724 626.271,644.256 627.2,644.797 628.755,644.958 631.143,646.452 632.99,645.651    633.253,644.858 634.202,643.039 636.757,639 637.878,639 638.752,638.166 640.234,637.449 642.017,637.738 643.451,636.438    644.696,636.007 644.411,634.01 645.07,629.35 644.085,626.914 645.402,625.758 645.343,624.105 646.695,623.386 646.537,622.38    648.213,620.981 649.104,617.507 651.378,615.48 653.201,614.831 653.618,613.188 653.417,611.105 656.838,608.07 660.149,608.303     "
   id="polygon43" />
	<polygon
   display="inline"
   fill="#2E7AB0"
   points="786.178,502.854 782.787,500.632 781.804,499.132 781.18,497.216    780.779,495.386 780.063,494.697 779.45,495.007 778.247,497.239 776.964,498.84 775.363,497.651 774.563,495.782 773.009,494.631    772.026,493.199 771.079,492.362 770.537,491.215 769.69,490.858 768.89,489.698 768.348,488.819 768.073,488.757 766,491.108    763.856,492.634 761.853,494.333 759.955,495.677 758.563,495.285 757.218,495.638 756.23,495.063 754.704,494.439    753.913,493.481 752.569,492.65 751.978,492.471 746.488,490.036 745.629,488.571 745.887,486.508 746.451,486.035    745.005,484.338 744.918,482.969 744.283,482.191 744.727,478.459 745.005,476.747 746.141,474.091 746.701,472.336    748.238,470.881 749.768,470.293 750.128,469.758 749.966,469.021 749.229,468.392 745.609,465.518 745.955,464.629    751.411,464.445 753.66,464.46 754.708,463.486 754.647,462.942 754.314,462.346 751.667,461.901 713.091,440.457 709.58,438.296    703.663,435.361 706.726,428.675 708.467,422.402 708.509,421.969 712.1,409.276 710.85,408.775 709.792,408.151 707.581,406.605    705.097,404.636 702.689,403.48 690.117,398.835 679.465,414.429 670.077,426.899 664.897,432.063 658.362,438.482    645.563,446.706 627.909,448.054 612.934,446.429 603.611,443.147 603.914,446.098 608.337,486.542 609.229,490.125    611.261,493.573 614.256,495.932 617.563,497.043 628.595,499.778 632.235,500.728 638.831,503.328 645.788,505.918    654.127,509.288 661.786,512.668 669.027,516.728 675.416,520.875 679.59,525.148 684.126,531.849 688.842,538.588    691.462,543.121 692.468,545.371 696.61,551.733 698.887,555.6 699.729,556.718 702.03,560.88 706.19,568.977 709.448,575.157    711.249,579.115 711.862,581.407 711.821,582.771 714.93,582.328 716,582.105 716,581.281 715.59,579.829 714.498,575.938    716.199,576.518 717.292,577.482 718.348,578.617 719.949,579.286 722.961,580.224 724.3,580.984 726.057,581.428 727.563,581.092    728.997,580.366 730.706,579.828 730.325,578.848 729.493,577.648 728.624,576.531 729.594,575.215 729.864,574.752    730.244,573.71 730.393,572.883 730.384,571.797 730.285,571.238 730.001,570.441 729.973,570.059 730.301,563.788 734.46,564.683    735.866,564.818 739.82,565.108 751.153,565.518 751.203,563.55 751.332,562.767 752.263,560.311 752.347,559.804 752.458,557.521    758.24,557.727 758.567,547.606 759.046,545.785 760.842,542.285 762.563,539.221 763.94,537.75 765.26,536.582 773.293,530.547    775.964,528.441 778.2,526.864 779.596,525.609 780.611,524.055 782.293,521.327 782.363,517.893 782.774,516.378 782.829,514.874    782.593,513.039 782.432,510.954 782.936,509.83 784.128,508.309 783.986,506.618 784.465,505.371  "
   id="polygon45" />
	<polygon
   display="inline"
   fill="#2E7AB0"
   points="242.71,444.188 243.506,441.221 245.672,438.798 249.726,436.675 254.75,434.344    256.557,432.039 258.185,429 258.664,427.889 260.584,423.56 261.392,418.667 259.305,411.966 252.519,396.822 246.713,389.89    244.149,386.303 243.537,386.181 243.427,386.217 244.278,387.265 239.177,388.798 231.97,389.534 227.124,388.742    224.788,387.267 222.983,386.195 215.804,380.842 212.99,379.047 212.389,380.298 208.908,394.49 208.815,395.655 209.458,397.406    211.591,402.405 212,403.811 212,405.371 211.362,414.919 212.393,430.772 197.505,433.239 182.904,435.538 166.305,439.065    153.841,413.105 155.787,412.799 155.707,411.346 153.268,406.299 151.97,401.547 147.646,401.785 146.687,402.779    145.993,401.291 145.884,398.893 146.229,398.875 145.397,396.625 145.304,395.459 146.616,392.03 146.549,391.609    146.191,390.856 145.833,390.331 145.564,389.379 145.261,387.572 144.242,387.846 143.115,387.771 141.991,387.955    141.844,387.804 141.717,388.094 141.779,389.267 141.018,389.965 140.99,391.271 140.426,391.892 140.079,392.85 139.236,393.542    138.649,394.897 138.453,396.203 139.377,397.643 139.051,399.028 137.753,400.889 137.914,402.327 135.636,402.621    134.507,403.104 131.513,404.237 131.536,405.03 130.702,406.189 131.012,407.546 131.788,407.946 131.582,409.228 131.56,411.084    132.143,414.062 131.068,417.349 131.037,417.644 131.353,418.085 132.506,419.318 132.588,421.725 132.764,422.039    133.528,422.246 134.129,422.922 134.828,424.953 135.439,425.844 136.359,426.793 136.619,427.991 137.87,429.571    138.323,429.734 139.515,429.783 140.69,430.103 143.542,431.949 143.294,432.665 143.107,433.65 143.081,434.803 143.435,436.901    143.441,437.68 143.82,438.269 144.937,439.207 142.589,440.784 141.908,441.104 141.118,442.022 140.004,442.749 139.523,443.308    138.839,443.784 138.689,443.991 138.865,445.769 137.946,446.575 137.646,446.989 137.749,447.479 138.37,448.67 138.175,450.608    138.276,451.536 138,452.303 138,454.211 136.737,457.757 136.332,459.173 136.187,460.105 135.614,460.977 135.059,461.612    134.425,462.672 133.864,463.296 133.61,463.693 133.725,464.462 134.161,465.696 134.136,466.264 134.353,466.617    134.782,467.119 135.536,467.375 136,468.467 136,470.598 135.766,471.663 135.754,472.013 135.575,472.506 135.043,476.394    135.365,477.123 135.591,477.969 135.83,478.508 135.915,479.303 135.747,481.118 136.375,482.275 136.864,481.733 137.4,480.994    138.464,479.893 139.833,479.94 140.6,480.302 141.437,480.181 143.319,480.079 144.856,480.657 146.115,480.835 147.591,480.889    148.92,481.368 149.261,482.398 148.775,483.498 148,484.706 148,485.417 148.774,486.164 148.789,487.018 149.952,487.979    150.069,488.975 150.497,489.657 151.478,490.279 152.553,491.08 154.102,491.839 154.38,492.73 155.405,493.957 156.363,493.932    157.519,494.316 158.81,494.95 159.477,495.128 160.498,494.437 161.224,493.658 161.603,492.707 162.689,491.598 164.158,491.438    165,490.449 165,489.741 165.812,488.882 166.275,488.023 167.047,487.188 168.113,487.87 169.148,488.004 169.991,487.948    170.491,487.503 171.405,486.786 172.705,486.612 173.87,486.661 174.023,486.614 174.243,485.719 175.423,483.478    176.524,482.612 177.081,482.248 177.682,480.76 178.792,478.943 179.627,478.369 180.783,478.923 181.336,478.767    183.093,477.195 184.145,477.21 185.004,477.522 186.63,477.994 188.375,476.578 189.562,476.806 191.937,477.351 194.224,478.042    195.848,479.39 196.317,480.305 196.654,480.047 200.779,478.128 204.564,485.979 213.561,481.509 211.059,484.699    209.798,486.711 210.375,489.174 211.204,490.237 212.388,490.215 212.864,490.288 212.939,489.896 213.791,488.876    215.951,489.059 217.794,489.639 219.929,490.444 221.896,490.505 223.903,488.325 224.702,488.527 226.707,488.973    227.916,484.534 228.674,482.618 229.754,481.567 232.988,477.204 236.219,472.158 239.631,467.167 241.679,462.872    241.924,458.521 242,454.067 242,451.904 242.109,448.797  "
   id="polygon47" />
	<polygon
   display="inline"
   fill="#2E7AB0"
   points="564.988,670.29 564.586,668.122 563.613,667.2 563.049,665.037 561.771,664.321    560.825,663.92 559.329,662.121 558.99,660.966 558.414,660.188 558.317,659.477 557.715,658.82 556.047,657.552 555.089,656.362    553.672,653.963 552.797,653 551.126,653 549.8,653.463 548.885,653.082 547.066,653.109 545.335,652.515 543.305,651.677    542.729,649.918 541.829,647.728 542.487,646.144 544.474,644.059 545.663,642.151 546.747,639.976 546.995,637.595    546.842,635.775 545.43,634.717 545.185,631.831 545.246,630.439 545.554,628.678 546.393,627.114 545.947,625.313    544.851,623.646 544.536,620.969 542.599,617.14 542.952,614.908 545.583,613.377 545.883,612.198 545.688,610.532    543.173,606.645 541.6,605.879 541.294,604.393 541.406,603.232 541.553,603.194 541.365,601.47 541.143,600.861 540.548,601.013    539.563,600.421 539.375,598.781 539.104,597.39 539.359,595.629 540.574,592.096 540.796,590.972 539.207,589.664    536.168,588.101 535.175,587.351 534.572,587.196 533.216,587.832 532.912,588.136 532.298,588.295 532.08,588.256 532.357,590.02    532.167,591.46 529.452,596.244 529.007,597.609 529.19,598.859 529.927,600.271 529.523,601.228 528.725,601.487 527.468,601.544    526.102,601.831 525.944,602.097 525.957,604.2 525.616,605.731 524.525,606.641 523.315,607.273 520.858,607.281 519.898,607.425    518.934,607.51 518.266,608.672 517.526,609.417 515.996,610.252 514.489,610.044 513.939,610.432 512.719,611.146    511.752,611.222 510.104,610.479 508.743,610.33 507.607,610.853 507.262,611.262 506.119,612.664 504.87,613.303 503.789,613.685    502.412,613.611 501.445,613.237 500.266,612.407 499.756,612.166 495.33,612.226 494.75,610.563 493.45,608.616 492.236,607.517    491.258,606.149 490.82,604.885 489.13,603.663 487.578,602.677 487.255,601.476 485.83,600.172 483.878,595.771 483.971,593.678    483.107,591.14 482.417,589.946 482.482,587.711 482.105,586.217 481.157,584.632 480.459,583.516 479.672,584 477.358,584    476.541,583.315 475.198,583.95 473.355,583.434 472.063,583.13 470.872,582.777 470.33,582.537 469.39,583.099 468.52,584.165    468.149,586.289 468.386,588.573 469.64,590.679 469.504,593.332 468.329,595.669 464.5,597.078 462.945,597.006 461.876,597.404    460.743,599.269 459.46,599.917 457.6,599.387 456.317,600.943 455.391,602.244 454.287,605.182 452.198,606.373 449.331,607.695    448.304,608.083 446.194,608.439 445.23,608.926 443.917,608.879 442.03,609.258 440.971,609.28 440.882,609.438 441.148,610.33    441.537,611.991 441.256,613.064 440.839,613.44 439.781,615.074 438.82,616.354 438.472,617.488 437.365,618.331 436.327,618.978    435.691,619.888 434.394,620.108 433.915,621.612 432.376,622.318 432.176,623.453 430.419,623.221 429.218,623.596    428.93,625.064 427.637,626.178 426.881,627.566 426,629.045 426,630.763 424.868,631.395 423.381,630.441 422.549,630.209    421.222,631.138 419.814,631.409 418.807,631.271 418.138,632.258 416.935,632.029 416.457,632.891 414.452,632.69    413.994,632.475 413.456,632.721 412.692,633.76 411.84,634.342 410.83,634.562 409.379,634.293 408.888,634.026 408.244,634.532    407.238,635.155 407.127,635.768 405.89,637.266 405.956,637.984 405.877,640.07 406.318,641.178 406.695,643.231 405.686,644.751    405.219,645.126 404.512,646.249 404.205,646.635 407.052,648.123 408.136,652.385 402.388,659.072 401.445,662.39    402.403,663.815 401.457,681.33 399.652,684.259 402.711,688.718 403.145,695.701 404.949,698.766 409.123,701.471 411.54,703.55    418.42,703.655 418.695,705.762 423.139,706.895 424.853,709.373 425.799,712.978 427.445,714.1 427.532,716.89 428.824,718.543    427.794,720.027 428.799,721.892 428.744,723.495 428.012,723.968 428.401,726.25 429.438,727.802 428.585,728.968    428.357,729.884 428.652,730.973 428.876,730.688 431.544,730.997 433.652,732.554 432.56,735.91 433.075,737.252 434.083,738    437.06,738 438.479,739.079 438.719,740.765 440.49,740.853 440.792,743.422 441.086,742.834 442.621,740.414 444.6,738.995    445.171,734.231 445.562,730.464 451.391,726.172 452.756,726.523 454.87,725.593 459.511,726.741 461.98,730.828 463.728,733.219    473.673,734.233 478.095,728.764 482.965,727.171 487.773,724.501 488.22,720.932 492.034,715.991 497.424,716.474    500.118,714.191 499.537,711.981 508.224,713.281 515.44,715.521 519.813,715.05 519.897,715.071 527.413,716.918 531.726,714.473    537.072,714.246 541.574,711.747 548.106,712.082 551.656,710.243 555.161,707.736 556.796,698.215 556.984,693.347    555.113,688.786 555.735,677.771 563.12,675.132 565.415,671.714  "
   id="polygon49" />
</g>
<g
   id="g76"
   transform="translate(-3.8000014e-8,-87.681241)">
	<text
   transform="matrix(0.96,0,0,1,108.7192,353.8086)"
   font-size="16"
   id="text52"
   style="font-size:16px;font-family:MalgunGothic;fill:#d6ddea">강서구</text>

	<text
   transform="matrix(0.96,0,0,1,359.2861,495.8086)"
   font-size="16"
   id="text54"
   style="font-size:16px;font-family:MalgunGothic;fill:#d6ddea">동작구</text>

	<text
   transform="matrix(0.96,0,0,1,569.7188,522.8086)"
   font-size="16"
   id="text56"
   style="font-size:16px;font-family:MalgunGothic;fill:#d6ddea">강남구</text>

	<text
   transform="matrix(0.96,0,0,1,455.7188,676.2344)"
   font-size="16"
   id="text58"
   style="font-size:16px;font-family:MalgunGothic;fill:#d6ddea">과천시</text>

	<text
   transform="matrix(0.96,0,0,1,483.2832,567.7754)"
   font-size="16"
   id="text60"
   style="font-size:16px;font-family:MalgunGothic;fill:#d6ddea">서초구</text>

	<text
   transform="matrix(0.96,0,0,1,343.8281,587.4512)"
   font-size="16"
   id="text62"
   style="font-size:16px;font-family:MalgunGothic;fill:#d6ddea">관악구</text>

	<text
   transform="matrix(0.96,0,0,1,259.8252,608.3135)"
   font-size="14"
   id="text64"
   style="font-size:14px;font-family:MalgunGothic;fill:#d6ddea">금천구</text>

	<text
   transform="matrix(0.96,0,0,1,150.7192,522.8086)"
   font-size="16"
   id="text66"
   style="font-size:16px;font-family:MalgunGothic;fill:#d6ddea">구로구</text>

	<text
   transform="matrix(0.96,0,0,1,271.0391,459.6689)"
   font-size="16"
   id="text68"
   style="font-size:16px;font-family:MalgunGothic;fill:#d6ddea">영등포구</text>

	<text
   transform="matrix(0.96,0,0,1,173.0073,461.2773)"
   font-size="16"
   id="text70"
   style="font-size:16px;font-family:MalgunGothic;fill:#d6ddea">양천구</text>

	<text
   transform="matrix(0.96,0,0,1,667.5566,495.1279)"
   font-size="16"
   id="text72"
   style="font-size:16px;font-family:MalgunGothic;fill:#d6ddea">송파구</text>

	<text
   transform="matrix(0.96,0,0,1,725.0195,383.8789)"
   font-size="16"
   id="text74"
   style="font-size:16px;font-family:MalgunGothic;fill:#d6ddea">강동구 </text>

</g>
</svg>