<svg width="1096" height="705" xmlns="http://www.w3.org/2000/svg" preserveAspectRatio="xMidYMid meet">
 <style>
  <![CDATA[
.map {
         stroke:            black;
         stroke-width:      2;
         fill:              #E1DDD7;
}
.boundary {
         stroke-linejoin:   round;
         stroke-linecap:    round;
         stroke:            black;
         stroke-width:      1;
         fill:              #F1fffe;
}
#Map{
	transform:scaleX(.75);
}
]]>
 </style>

 <g>
  <title>background</title>
  <rect height="707" width="1098" y="-1" x="-1" fill="none" id="canvas_background"/>
 </g>
 <g>
  <title>Layer 1</title>
  <g stroke="null" id="Map">
   <g stroke="null" id="svg_1"> 
    <g stroke="null" id="1132000000" class="boundary Dobong-gu_2419940_AL6">
     <path d="m639.460938,90.368362l1.066833,-3.805153l1.77832,-1.775932l-2.845154,-5.327477l1.422791,-2.156372l-0.570496,-3.325943l2.027466,-0.843468l-0.168884,-2.108871l0.760193,-6.086105l-1.331421,-4.166416l-1.94281,-1.265446l0.422424,-6.447266l1.182617,-2.651279l-1.267273,-2.22971l3.378967,-6.50787l-0.675598,-2.349751l1.858215,-3.133709l3.548279,-2.470455l-1.267273,-1.687195l2.111694,-2.349823l3.547852,-0.90395l2.788086,-1.988543l4.054504,0.12031l3.210083,-1.68689l2.365234,0.12031l2.601868,-4.648666l2.031738,-2.461714l0.679871,-1.632998l3.095947,-0.560425l2.699097,0.37977l1.533386,-1.163091l7.989746,0.828748l7.433899,3.856575l11.826233,1.204947l5.237488,-1.446285l5.068665,-2.651262l6.250854,3.494898l3.041199,5.182108l1.182678,8.074799l4.730408,8.79747l3.886047,1.566826l2.365234,4.82037l3.962036,0.620693l4.00415,2.446522l9.5625,-4.663815l1.900696,0.059978l5.575317,-1.717274l10.816772,-7.447701l4.80249,-1.193157l6.601685,7.789486l1.289246,2.97604l5.601746,-0.415203l7.267761,-5.653679l1.879822,0.117107l1.105835,3.104206l3.451782,6.584095l-0.103882,6.512249l0.074768,2.611801l0.378723,1.223923l0.38855,1.442165l0.87207,1.704735l1.670715,2.412674l3.466797,4.332024l1.074707,1.667068l0.622864,1.389938l-0.041382,0.796623l-1.264465,4.318764l-1.041321,4.095505l-1.278687,4.663162l-1.414917,7.320305l-2.845093,7.864738l-3.943848,9.714401l-0.484253,3.244194l-0.448853,2.887962l-0.196411,1.880714l-0.079163,0.954697l-0.089722,2.501556l-0.02124,4.919647l0.238159,2.213394l1.192871,3.261002l2.054199,2.671005l3.876587,5.123032l1.113708,1.811707l0.823181,2.397736l0.768127,7.932724l0.450684,3.937195l0.034668,0.524994l1.55072,3.469955l2.010559,3.274094l2.845154,4.786911l2.934509,5.334488l0.541687,1.930313l0.226379,2.743637l0.177124,1.377655l-0.084229,2.769836l0.123596,4.483658l0.125549,4.330368l0.583862,3.240005l0.933838,2.521774l1.365662,2.404694l2.486084,4.49614l0.941345,3.15863l0.676697,1.411911l-0.062622,2.089294l-1.476257,3.109619l-1.361328,3.023758l-0.981506,3.189331l-0.66571,3.222641l0.340576,2.298065l1.185364,1.725296l-2.234985,0.32663l-1.244812,0.142914l-1.089294,-0.475906l-2.556213,-1.902634l-2.978577,-3.171188l-1.822754,-3.440765l-1.68927,-3.059906l-2.359314,1.888504l-1.346008,-0.932007l-1.190125,-0.390823l-2.676208,1.310074l-0.978271,2.15625l-1.155823,2.219711l-2.901062,2.38887l-3.269165,0.896866l-4.526917,1.076324l-0.12561,3.991409l0.565735,2.780655l-1.568481,1.487305l-0.514893,2.947983l-3.197876,1.26033l-0.188599,3.049698l-1.760132,4.036209l-1.760559,6.099228l-2.777039,2.19603l-2.578552,1.66449l-1.848389,1.500275l-2.769531,2.711578l-0.294434,1.186462l-5.601746,-2.854095l-3.378967,-2.981079l-3.556458,-3.995636l-1.155884,-2.536835l-0.533447,-2.98085l-1.511292,-2.219864l-1.066956,-1.395416l-2.400635,-1.078018l-1.284973,-0.310638l-4.227783,-1.021301l-2.045166,-0.824493l-1.333801,-1.205002l-1.955811,-4.566498l-2.578552,-4.693542l-2.134155,-3.551666l-1.600342,-1.775696l-3.289551,-1.776031l-2.983765,-1.751602l-2.667603,-1.566467l-4.356445,-2.220108l-2.223083,-1.204742l-1.866882,-1.649139l-2.400696,-0.888046l-4.53479,-1.90274l-2.667175,-1.45871l-1.600708,-2.346451l-1.600342,-2.283325l-1.68927,-0.697632l-4.001404,-0.634491l-2.578186,-0.570663l-2.134155,-1.20517l-1.600342,-1.838974l-1.511719,-0.824615l-3.289612,-0.57103l-2.222717,0.444046l-3.645508,0.888107l-3.289978,0.380554l-4.178955,-0.317062l-4.906799,-1.314789l-1.834167,-0.515335l-1.600342,-0.832413l-1.31134,-1.181442l-0.677856,-1.054108l-0.333496,-1.070419l-1.789673,-0.150742l-1.007446,-0.267792l-0.214966,-0.057083l-1.767212,0.174484l-1.446045,-2.825409l-0.943237,-2.69101l-0.25116,-1.12117l0.502747,-3.811874l1.508972,-5.606033l2.074707,-9.014221l1.69751,-6.637512l0.974792,-2.175171l1.099976,-1.300446l0.377502,-3.722183l-0.817688,-1.838943l0.974792,-0.179153l1.389343,1.280945l4.000916,0.824768l2.071533,-0.984741l-0.862915,-2.461868l-0.381897,-1.089767l-3.556519,-3.298035l1.422791,-3.29808l-1.066895,-5.708313l1.955811,-2.663528l3.912415,-3.805542l4.801331,-2.917603l1.600342,-2.917282l-2.234192,-3.187294l-5.412292,-7.721848l-4.623413,-4.185814l-6.046143,-3.80555l-0.177979,-3.678574l-2.489624,-2.409836l-0.35553,-3.298302l-3.200989,-2.409874l-1.778259,-3.932442l-5.15686,-0.380379l-7.112976,-0.380714l-2.667603,-2.283287l0,0.000008z" stroke="null" id="2419940"/>
    </g>
    <g stroke="null" id="1123000000" class="boundary Dongdaemun-gu_2419941_AL6">
     <path d="m698.813904,452.659912l0.5,-0.640625l0,-0.693085l4.44104,-2.762451l5.067505,-3.087402l0.059082,-0.027649l14.963379,-9.193665l2.582153,-2.569458l1.252747,-1.245941l0.851929,-0.862518l1.276306,-1.291992l2.335754,-2.304474l4.998535,-5.179871l5.838257,-5.50351l1.00116,-0.94339l2.960876,-2.563599l3.485291,-3.017639l-0.463013,-4.754242l5.260803,-0.178955l0.168823,0.105255l4.308105,-0.112701l0.52124,-0.620209l1.366455,-3.028717l3.10498,-6.431091l1.300659,-2.581543l1.378357,-2.067688l0.538574,0.357605l1.245911,-0.96225l0.109497,0.101013l0.053955,0.055298l0.242859,0.07547l0.674805,0.004974l1.202698,-2.05423l0.614929,-1.296478l3.402161,-0.934265l1.349915,-0.83609l0.798828,0.549377l0.870422,0.860168l1.097961,1.050873l1.606201,-0.507172l2.5979,0.110931l3.032593,3.714691l3.3974,-1.666138l1.410217,-0.867249l2.129395,-0.39801l0.466553,-1.242279l1.541626,-0.926819l0.394897,-0.842468l0.026733,-0.958374l1.368469,-0.548309l1.075928,-0.737915l0.528259,-0.557526l0.616943,-0.291687l0.808228,-0.973633l0.321655,-0.858063l-0.048462,-1.315674l1.502319,-0.937103l0.889282,-2.156403l2.330261,-1.495758l0.337402,-0.216553l0.355469,-1.712677l1.867249,-1.268188l0.711365,-0.63446l0.844482,-0.475647l0.390869,0.633362l0.587402,0.952423l1.022339,1.61731l0.844421,0.887878l3.556946,-0.142853l0.561035,-0.154877l2.195129,-0.60611l5.725342,-3.11734l0.459412,0.320435l0.618896,0.431335l0.294067,0.205597l1.637695,-0.542999l1.206299,-0.399811l5.721313,-0.979004l-0.316467,1.496826l1.56012,0.077637l4.783997,0.216919l0.657837,-0.86557l1.111389,-0.555054l1.842407,-0.374664l2.005066,-1.514557l-2.205811,-0.723083l-0.074829,-1.012299l0.61731,-1.490112l0.316101,-0.762787l1.056213,-1.098816l1.384644,-0.451935l1.405823,-1.572388l0.88501,-0.484558l1.272766,-1.930756l1.964844,-1.744293l4.979309,-0.253815l5.868225,-1.775879l2.311707,0.887939l2.667175,0l1.600647,-2.029327l5.067871,-1.427094l0.08905,-1.363647l14.759888,0l1.253845,9.577667l1.886108,7.175629l-0.754272,5.022858l-6.035522,6.368225l-2.011719,2.271912l-2.515259,2.840759l-1.257385,5.471252l0.712219,2.169769l2.431274,7.337799l0.737427,2.695953l1.274719,4.658966l1.886169,9.148987l4.40094,5.650635l5.641479,5.943573l2.531738,2.667328l10.688049,12.018799l0.94165,1.375244l1.699158,2.481842l1.074768,8.652985l0.685425,5.518707l1.257385,11.390991l-0.371643,3.580658l-0.131042,1.263092l-1.257507,3.677307l-4.904053,8.162262l-2.614014,4.011932l-5.685181,8.724792l-6.035522,10.225159l-3.900208,6.102356l-5.733154,-2.067383l-13.26355,-1.911926l-24.394043,-3.376068l-7.012268,-0.970306l-0.972412,-0.048553l-3.835266,-1.775909l-0.14093,-0.086792l-0.236145,-0.110535l-1.025146,-0.686218l-4.49585,-2.980438l-1.123962,-0.770538l-2.59436,-1.707581l-11.300232,-7.788788l-3.479431,-2.319489l-13.704041,-8.996185l-23.167358,-9.591034l-2.562012,-1.018646l-11.812866,-0.137451l-2.888062,-0.014191l-0.171997,2.579041l-5.014343,0.052094l-4.080139,0.781219l-3.395508,1.126709l-2.982117,1.208557l-2.551819,1.739624l-3.753784,2.310364l-1.626282,0.600189l-3.221924,0.981049l-4.140686,-0.004578l-10.322754,-2.214722l-1.541687,-1.672302l-4.441833,-1.24646l-1.735352,1.208893l-0.907898,0.248718l-1.077087,-0.015228l-2.428589,-0.730591l-1.636902,-1.333221l-3.219971,-1.72937l-0.196472,-1.411224l-0.010193,-2.449005l-0.440552,-9.232452l-0.253479,-6.01297l0.02356,-1.023315l-0.066895,-1.596283z" stroke="null" id="2419941"/>
    </g>
    <g stroke="null" id="1138000000" class="boundary Eunpyeong-gu_2419942_AL6">
     <path d="m143.998199,406.895538l2.219971,-1.72168l2.470352,-1.075592l2.36525,-1.867706l3.045517,-3.44696l1.182602,-1.98822l4.219482,-0.530579l1.8629,0.530579l0.253143,1.686981l-0.715698,1.957062l-0.889343,2.080322l-1.942795,1.687317l-1.436172,2.47052l1.17868,1.036255l0.257492,2.157227l0.422409,1.084778l1.013733,1.506165l1.097961,1.265533l0.215729,0.985199l1.076736,0.494019l1.153107,-0.20166l1.098358,-0.723297l3.378983,0.542572l0.426727,-0.313293l2.78334,-0.048553l0.844818,-0.542206l1.862518,0.168701l1.09404,-0.168701l1.186966,0.228943l3.716721,1.446259l5.321793,-1.0242l1.009796,-0.711243l1.608994,-0.795258l2.445526,0.072296l1.013733,0.722961l1.35585,0.289185l1.854248,-0.048187l0.426743,-0.313293l1.600723,0.433777l1.440079,0.410034l1.943207,-0.241333l1.351501,0.602783l0.8405,0.132568l1.351517,-0.542236l1.182632,-0.964294l0.422409,-0.963928l0.760193,-0.301575l0.760193,-0.542236l2.116455,-0.614502l2.618744,-0.120483l1.938507,-0.530548l0.760193,0l-0.840515,-1.096466l-0.675552,-1.084808l0,-0.903717l0.675552,-1.627045l-0.342087,-1.433899l-1.938507,-2.00061l-0.511383,-2.157288l0.760574,-0.602478l0.42244,-0.783569l1.858154,-0.783264l0.507095,-1.024231l1.35582,-0.97641l1.013733,-1.265259l2.192017,-1.253204l1.608978,-0.434174l1.516449,-1.132721l0.004333,-1.217072l-0.342117,-1.494598l-1.854218,-1.036316l-0.084641,-1.205048l0.084641,-0.723022l-0.679886,-2.217651l1.01767,-2.000397l-0.1689,-1.205414l0.422409,-0.602539l-0.004318,-1.735321l0.50705,-0.723053l-0.6716,-1.096619l-0.760208,-0.662811l0,-0.964081l-0.342102,-1.434418l-1.432205,-2.181244l-1.097992,-1.265381l0.164551,-1.072571l-1.516052,-1.578705l0.422409,-0.903839l0.249191,-0.530273l0.679901,-0.855652l-0.764542,-0.952057l-0.333847,-0.915894l4.219879,-0.229004l1.862518,-0.433838l1.094025,-1.373901l0.003952,-2.121063l-1.013336,-1.325714l-0.004349,-1.735443l-0.25351,-1.265472l0.422424,-0.723083l-0.25354,-1.68692l0.422409,-1.265472l0.844849,-1.084686l0.173218,-1.157013l-0.510986,-2.217255l0.088577,-1.880157l-1.267273,-1.928375l0.840515,-2.217316l-0.422409,-1.687378l-0.755875,-1.156677l-0.675964,-1.084747l-1.351501,-0.964233l0.333847,-1.735229l0.003922,-1.880249l-0.088577,-1.012085l-0.924744,-1.337891l0.418091,-1.253174l0.422424,-0.723175l1.097961,-2.048706l1.098373,-0.602661l0.506683,-1.506287l-0.333847,-1.639282l1.098373,-1.747375l2.023117,-1.373749l-0.591309,-1.506348l-0.586975,-0.855804l1.266861,-1.084473l1.182632,-1.687531l0.507065,-0.903687l0,-1.446106l0,-1.385834l1.178284,-1.193359l5.326111,-1.45816l1.009415,-0.83139l-0.037415,-1.634064l-0.046844,-2.041748l1.862488,-0.614777l0.840515,-2.518646l1.186951,-0.795227l2.196365,-0.241089l3.125427,-1.50647l0.249207,-1.795776l0.004318,-1.217163l-2.027451,-1.205109l-0.173218,-1.976654l-0.337769,-1.024292l-1.097992,-0.542114l1.266861,-0.964386l1.351913,-1.024323l0.422043,-1.084595l0.50705,-0.722961l1.436157,-1.024323l3.636414,-1.156921l1.351517,-1.024353l-0.1689,-1.144897l-0.679886,-1.253387l0.084656,-1.265442l0.506668,-1.506592l1.182602,-2.4104l-0.253525,-1.265106l-1.266846,-1.144928l0,-1.084656l-0.507095,-0.783264l-1.013702,-0.78363l-1.773941,-0.843567l-2.36525,-1.747375l-0.422409,-0.66272l-0.671616,-0.855621l0.080292,-1.01236l-0.586975,-1.578979l-0.929474,-0.783295l-0.760208,-0.66275l0,-0.903839l-0.003937,-1.253479l-0.084625,-2.199219l1.313705,-0.012054l1.220428,0.042175l1.271591,-1.096771l1.516052,-1.13295l1.858566,-0.66275l2.196365,-1.626923l0.929077,-1.325516l1.858566,-0.723038l1.693619,-1.157089l2.112106,0.301422l0.586975,-1.253555l1.013748,-1.385818l-1.09404,-4.7724l0.25351,-1.385864l-1.94281,-1.807861l0.714523,-1.833755l0.677139,-1.73732l0.362198,-0.928772l0.38855,-0.997925l0.822418,-2.110062l0.254303,-0.652176l0.300781,-0.772385l0.486603,-1.247971l0.570831,-1.464661l0.423981,-1.088028l0.865723,-2.221832l0.998352,-2.561234l1.502289,-3.855057l-5.662323,-2.346741l-3.61084,-1.475006l-3.111649,-1.380676l-2.29361,-0.979584l-3.162811,-1.351608l-2.606583,-3.262909l-2.073914,-1.705246l-1.94281,-1.566925l-2.422318,-2.492996l1.721558,0.914352l4.842285,2.272369l3.14238,1.877975l1.649521,0.874252l1.329453,-0.566757l3.857697,1.623657l3.057327,2.207428l5.128098,2.934097l2.118408,1.066467l3.825012,0.481964l1.779419,1.189163l6.262299,-1.650574l10.212494,-1.090225l6.531158,-0.705048l5.80838,-0.51532l4.39035,-0.358215l2.445557,-0.469925l3.548218,-1.687485l9.123169,-4.880539l3.125458,-1.627228l6.166595,-4.338379l3.548279,-1.8078l5.575348,-1.56662l4.899323,-0.180908l5.744232,0.24118l3.886047,-0.301468l3.970245,-0.903732l4.308044,-2.229538l2.44989,-2.530716l2.365234,-3.133347l1.689697,-3.19368l7.011475,-8.616837l4.054504,-2.349976l3.463623,-1.687363l15.796844,-3.856491l3.125458,-0.722931l3.713593,-1.148239l0.741669,1.21669l0.523254,0.462555l0.28302,0.667938l-0.362183,1.267792l0.464966,0.862671l-0.169708,0.691681l-0.633026,1.183334l0.50705,0.399414l4.054535,1.446167l1.520782,0.783554l1.605042,2.048462l3.801392,1.506424l1.013733,1.145004l0.929077,0.421722l1.436157,0.783554l5.321777,0.301132l2.027466,-0.361435l1.055847,0.692734l1.605042,1.054535l1.42749,0.719681l1.266876,0.707977l1.351898,0.693085l1.224731,0.497284l3.463623,1.415955l1.646759,1.431183l1.901093,0.496918l1.04364,3.829971l0.590942,2.741364l0.422791,1.838318l0.189758,1.265137l0.042114,0.587708l0.02124,0.602249l-0.274353,0.708282l-0.12677,0.542313l-0.25351,0.542297l-0.168915,0.662888l-0.01062,0.316376l0.623199,0.933853l0.443634,1.039536l0.464569,0.662888l0.636597,1.264053l1.982178,2.23085l1.140076,0.72316l-0.265717,0.931l0.593292,0.974625l-0.496429,1.176407l0.971588,1.587463l-0.485779,1.551971l-0.190155,3.148285l0.549194,1.988525l0.012573,0.906128l0.679108,0.528076l-0.058258,1.277435l-0.084259,2.048782l-0.296051,0.843689l1.157471,1.251892l0.701111,0.585861l0.38028,0.692978l0.991302,0.548264l0.444458,3.308044l0.333862,0.730194l0.806641,0.776291l0.270447,0.799332l0.363373,1.430573l1.53183,2.59552l2.565216,2.49585l0.126801,3.193695l1.156219,1.7323l2.349121,2.6362l3.421478,9.641357l-2.95697,1.506348l-0.870819,0.952454l-1.451904,0.915558l-2.099091,1.960175l-3.813995,3.764313l-0.88736,1.355591l-2.069611,1.626831l-5.131622,1.310883l-4.121826,0.935394l-0.90155,0.866943l-1.42276,0.633636l-1.162537,0.940674l-0.954681,0.849243l-3.436035,-0.271271l-4.085632,2.508972l-1.360535,2.102966l-4.201416,-0.197174l-5.331238,3.227997l-2.356567,0.164886l-5.707581,1.54306l-1.267273,1.200531l-1.40152,0.082611l0.429535,4.246552l0.165344,4.224854l2.012115,4.126221l1.629822,3.534058l-0.50116,6.141968l1.103912,4.736877l1.084564,4.18335l1.294037,3.695831l-0.565338,1.319855l0.91098,4.682007l-3.699402,7.225098l0.754272,1.793732l0.75235,2.688812l-3.154175,1.055328l-1.80072,2.480011l-0.89325,1.774872l-1.304657,0.435333l-0.835419,0.699036l-3.947845,1.466858l-1.575897,1.12262l-2.939606,1.734802l-3.266785,1.597626l-4.300171,1.50827l-0.058258,0.538452l-1.701904,0.441315l-0.059021,3.940613l-6.246155,0.280396l-3.33017,6.461792l-0.837738,0.102814l-1.128296,0.056366l-1.619232,0.056l-1.488098,0.192108l-0.846802,1.045288l0.180298,3.159576l1.259003,0.496246l3.672241,2.11853l1.187744,1.613434l-0.547577,1.151581l-1.362946,5.750427l-2.645935,1.578278l-3.958069,1.869293l-2.425079,0.920441l-1.950714,-0.686523l-2.267181,-0.540863l-3.065216,0.619537l-2.606171,1.205048l-2.635315,0.997742l-2.219177,0.942047l-2.164886,0.580902l-3.108093,0.272888l-4.890289,2.283203l-2.554626,1.614746l-1.098358,1.536743l-4.245056,1.542084l0.546814,0.796356l-1.625946,0.594025l-2.334503,2.75412l-2.013672,1.785156l-1.299164,2.058044l-2.919128,2.516968l0.729858,1.848877l-1.386139,2.018311l1.26059,1.995575l-1.006256,1.659637l-0.062592,2.017883l1.187744,1.834656l-0.918884,1.14859l-2.029419,0.89621l-1.445984,0.807312l-2.891998,1.165894l-1.368439,0.725433l-1.233795,0.237762l-0.661774,-0.738525l-3.656494,0.261536l-2.100708,-0.126862l-0.733429,2.766998l-0.310974,1.022369l-2.656616,1.633301l-0.312134,0.619446l-1.436981,0.520203l-0.721619,0.992249l-1.773499,1.270416l0.821594,2.015991l-1.199524,1.321075l0.132233,1.204468l-1.869965,0.260101l-1.609375,1.466339l-0.339325,0.206238l-1.566101,-0.373138l-0.860565,0.135376l-0.229126,0.036133l-1.236542,-0.238831l-0.469299,-0.604187l-1.767212,-0.626526l-1.611328,0.626526l-1.956238,-0.507446l-2.133728,0.253723l-4.267914,0l-3.483673,0.521973l-0.209442,-2.290253l-0.396851,-1.656647l0.177948,-1.395508l0.710968,-1.775726l0.844879,-1.966064l-2.978607,0.951141l1.111359,-2.187897l-8.319275,-3.253174l-2.43927,-1.048584l-2.294739,3.586639l-1.382996,1.149597l-18.131012,15.345001l-5.048187,4.440338l-7.354752,6.319366l-0.075974,-0.796204l-8.844452,7.818024l2.89946,0.523712l-2.178238,1.308868l-4.797409,-1.60083l-11.30455,-6.956299l-0.401947,-2.490662l-7.701599,-5.247131l-8.927536,-4.962341l-16.472,-9.395538l-15.789001,-12.522583l-12.876144,-9.71814l0.000015,0z" stroke="null" id="2419942"/>
    </g>
    <g stroke="null" id="1130500000" class="boundary Gangbuk-gu_2419943_AL6">
     <path d="m527.368408,176.927933l0.316895,-1.307449l2.631348,0.301498l2.647949,-1.223389l7.264954,-0.120605l0.338196,-1.747665l4.13916,-6.145828l3.716736,-1.808014l1.858521,-1.62677l1.436218,-1.867996l2.19635,-2.108871l2.787659,-4.459351l0,-1.445908l0.422424,-0.542404l2.956482,-0.602707l2.365295,-1.325668l0.50708,-1.747467l0.844421,-0.24086l3.210083,0.482086l1.773926,-1.385986l2.618774,-1.446289l7.518494,-1.807465l1.858215,-1.024521l1.013733,-1.626892l2.956543,-2.289948l-1.098022,-3.434418l-0.084595,-1.626938l0.338196,-0.843643l-0.169312,-2.711838l1.267273,-1.506348l0,-1.626984l-1.605103,-0.963921l1.09845,-3.434952l-1.351929,-3.434624l1.182617,-3.253746l-2.196411,-4.218102l2.737305,-2.621231l-0.583008,-1.452187l-1.461426,-0.548172l-2.044312,-2.488579l-0.675537,-2.772095l0.168823,-2.952362l-1.013672,-2.711823l-1.858582,-1.8078l-1.773926,-2.229309l0.675964,-0.904091l3.040771,-0.421516l1.436157,-0.301262l0.844849,-0.904083l2.027405,-0.361557l0.760254,-1.445923l2.515198,-1.838715l4.73053,-2.530998l1.689575,-3.253815l-1.858521,-3.253868l-3.378967,-1.747604l0.591309,-2.591064l2.44989,-1.686951l4.984009,2.892349l2.871887,-1.145088l6.251282,3.434891l6.335449,-1.446335l1.605103,0.301254l2.872314,1.807922l1.858154,-0.904137l2.19635,-0.301254l1.605042,-2.892342l2.281006,-0.783134l5.913086,0l5.963867,1.433929l4.426575,-0.349525l0.570496,3.325943l-1.422791,2.156372l2.845154,5.327484l-1.77832,1.775925l-1.066833,3.805153l2.667603,2.283287l7.112976,0.380714l5.156799,0.380379l1.77832,3.932442l3.200989,2.409874l0.35553,3.298302l2.489624,2.409836l0.177917,3.678574l6.046143,3.80555l4.623474,4.185814l5.412292,7.721848l2.234131,3.187294l-1.600281,2.917282l-4.801331,2.917603l-3.912415,3.805542l-1.955872,2.663528l1.066956,5.708313l-1.422791,3.298096l3.556519,3.298019l0.381836,1.089767l0.862976,2.461884l-2.071533,0.984726l-4.000977,-0.824768l-1.389343,-1.280945l-0.974731,0.179153l0.817688,1.838943l-0.377563,3.722183l-1.099915,1.300446l-0.974792,2.175171l-1.69751,6.637512l-2.074768,9.014221l-1.508911,5.606033l-0.502747,3.811874l0.25116,1.12117l0.943237,2.69101l1.445984,2.825409l1.767212,-0.174484l0.214966,0.057098l1.007507,0.267776l1.789612,0.150742l0.333435,1.070419l0.677979,1.054108l1.311279,1.181442l1.600342,0.832413l1.834229,0.515335l4.906799,1.314789l4.178894,0.317062l3.290039,-0.380554l3.645508,-0.888107l2.222717,-0.444046l3.289612,0.57103l1.511719,0.824615l1.600342,1.838974l2.134094,1.20517l2.578247,0.570663l4.001343,0.634491l1.68927,0.697632l1.600342,2.283325l1.600769,2.346451l2.667175,1.45871l4.53479,1.90274l2.400635,0.888046l1.866882,1.649139l2.223083,1.204742l4.356445,2.220108l2.667603,1.566467l2.983765,1.751602l3.289612,1.776031l1.600281,1.775696l2.134155,3.551666l2.578613,4.693542l1.955811,4.566498l1.33374,1.205002l2.045227,0.824493l4.227783,1.021301l1.284973,0.310638l2.400635,1.078033l1.066895,1.395401l1.511292,2.219864l0.533508,2.98085l1.155762,2.536835l3.55658,3.995636l3.378967,2.981079l5.601685,2.854095l5.512329,2.981018l4.090332,3.678467l3.55658,2.219666l5.245728,2.346924l3.023132,1.45871l1.867249,1.331787l5.067871,5.200775l4.174561,4.872375l-12.762817,6.861664l-2.165161,2.020203l-2.05896,2.653748l-2.314453,3.667725l-1.634583,2.511505l-2.200684,2.15274l-5.909973,3.946228l-7.733032,5.023224l-3.658569,2.507141l-2.993896,2.686493l-2.297546,2.403595l-2.342773,2.336182l-2.242432,2.153259l-1.697937,1.03656l-7.124451,3.350372l-9.140869,4.828552l-8.047668,3.722473l-1.158569,0.340302l-0.516113,-0.597321l0.0401,-1.177948l-0.139282,-4.144348l-0.478333,-5.508148l-1.017273,-0.079407l-3.332153,-0.179382l-2.514893,-0.538116l-3.897766,0.044647l-3.269592,-0.493469l-1.068787,0.628204l-0.565735,1.120911l-1.383362,0.403778l-3.332153,0.134369l-1.823181,-0.269073l-5.029663,1.704407l-1.716003,0.533875l-1.742065,0.63208l-0.589355,-2.149658l-0.126343,-0.57074l-0.112976,-0.655487l-1.576721,-0.609009l-2.446716,-0.047882l-2.394409,-0.490265l-0.102722,-0.896881l-1.842834,-1.13443l-1.211731,-0.422211l-1.636169,-1.979553l-2.247925,0.037933l-1.886108,-1.255646l-2.031006,-1.207489l-0.986938,-0.586334l-4.401001,-1.255707l-3.215942,-0.143219l-2.119629,-0.68457l-3.336426,-1.264557l-2.617188,-0.222626l-0.937012,-0.513672l-1.542847,-0.848724l-3.40918,-1.101837l-1.572021,-0.134369l-2.577393,0.403442l-1.964111,-1.50351l-0.613708,-0.918213l-0.817322,-2.242371l-0.7547,-1.121002l-2.450684,-1.660248l-2.672302,-0.973541l-0.472412,-1.447571l-1.174744,-1.067474l-1.096375,-0.996246l0.133423,-1.613495l-0.377136,-2.466888l-0.503113,-2.645935l0.218872,-2.018768l0.377197,-2.601349l1.415649,-4.227325l-5.814636,-0.675079l-7.809875,0.803802l-5.311584,-4.391571l-6.916199,-1.434906l-6.161072,-0.62793l-12.951782,-10.763367l-1.892456,-1.717926l-2.256958,-2.049133l-4.526855,-2.421844l-4.275085,-2.78067l-1.760498,-3.766846l-4.526489,1.255615l-1.006287,-1.435028l-4.652527,-0.358856l-3.520752,-4.933197l-3.39502,0.807068l-1.634583,-2.870163l-6.915833,-3.049622l-4.652527,-1.704269l-2.826233,-2.094345l1.013733,-0.391479l0.718079,-0.813492l0.168884,-1.295425l0.633362,-1.265625l-0.077148,-1.334091l0.33075,-0.624146l0.042114,-1.145081l1.182617,-2.078812l-0.12677,-1.235168l1.478638,-2.681351l0.253174,-1.898361l-1.520447,-1.686996l-0.718018,-1.928177l-1.562927,0.662827l-2.618774,-0.632675l-1.984924,-1.898392l0,-1.747345l-1.672791,-3.181534l0.616943,-1.126724l1.224731,-0.723114l1.436096,-1.144821l0.33783,-0.934174l1.225098,-1.747391l1.152344,-3.658646l-0.937744,-3.007553l0.232239,-0.828491l-0.211365,-1.099487l-1.013367,-0.316345l-1.351868,-0.662888l-1.119263,-1.491379l0.50354,-0.835968l0.211426,-1.175034l0.084229,-2.199692l-2.618835,-2.078781l-3.125366,-2.350128l-2.479431,-2.217117l-0.139343,-2.301926l-5.237549,-4.097397l-3.256531,-7.764389l-0.312561,-1.455353z" stroke="null" id="2419943"/>
    </g>
    <g stroke="null" id="1121500000" class="boundary Gwangjin-gu_2419945_AL6">
     <path d="m832.763184,622.455322l15.467407,-25.239929l6.575195,-10.438904l4.535278,-7.200134l13.409546,-21.288696l24.708679,-39.375916l-5.709656,-2.058533l3.900208,-6.102356l6.035583,-10.225159l5.685181,-8.724792l2.614014,-4.011932l4.904053,-8.162262l1.257446,-3.677307l0.131104,-1.263092l7.387024,0.538177l12.197021,1.188354l10.723083,1.84201l3.099121,0.032593l5.068237,0l1.03418,2.252289l8.741699,1.82962l4.298645,0.406708l3.13208,-2.471558l3.029419,-0.21933l5.927673,-0.80957l3.754578,-1.049438l1.372314,-0.95343l2.148376,-1.492676l3.750183,-1.324402l3.944275,-2.288849l3.990723,-0.694061l5.138367,-2.432037l2.281006,1.747498l2.297485,1.563568l4.037964,0.545288l2.719971,1.563904l0.574402,2.593872l-2.19635,6.02594l-0.337769,3.976929l-3.041199,7.893799l-0.337769,4.760071l-3.953369,9.397278l-0.945984,4.281219l1.35144,2.65155l3.897888,2.935669l0.874756,0.658569l1.199585,2.548767l0.253479,4.46521l5.178467,5.416931l3.564819,-0.060242l3.716736,-3.735718l7.585815,-2.71167l1.867676,-2.570007l1.652588,-2.274231l2.490845,-3.427368l5.997437,-1.384766l7.162964,-0.107666l2.536133,5.051208l-2.024658,5.077332l13.215454,2.696106l-3.850586,16.686401l-1.836548,4.242004l-3.444702,7.95636l-7.041382,13.633362l-3.521118,5.561218l-19.23999,20.118958l-2.890381,3.022217l-8.623657,8.174438l-10.489563,9.943726l-10.481018,7.411194l-13.158447,9.272034l-14.832703,6.779724l-11.070313,5.060181l-35.711243,1.973206l-26.409729,-2.040833l-3.768311,-0.291077l-20.541504,-5.133789l-5.501709,-2.125916l-4.322998,-1.927307l-4.84668,-2.160706l-22.288269,-12.319824z" stroke="null" id="2419945"/>
    </g>
    <g stroke="null" id="1111000000" class="boundary Jongno-gu_2419946_AL6">
     <path d="m406.407349,285.322205l1.40152,-0.082611l1.267273,-1.200531l5.707581,-1.54306l2.356567,-0.164886l5.331238,-3.227997l4.201385,0.197144l1.360565,-2.102966l4.085632,-2.508942l3.436035,0.27124l0.954681,-0.849213l1.162537,-0.940674l1.42276,-0.633636l0.90155,-0.866943l4.121826,-0.935394l11.643524,-1.927155l9.123566,0.331543l5.237183,-3.223877l9.545563,0.361298l7.180359,-1.506287l12.088745,-3.4711l2.117249,-1.12439l1.160187,0.812714l1.606201,0.542877l2.125519,0.139374l1.232208,0.297485l1.668427,0.090454l1.319611,0.660583l-2.384918,4.284851l-0.502747,2.356934l1.516449,3.47702l5.490265,-0.452087l7.614197,-1.322968l2.151917,0.666962l3.269104,1.435333l1.486145,2.120026l0.525574,0.749939l-1.005859,3.049652l-0.502747,2.870239l4.52655,3.049591l2.514832,3.587799l4.778137,5.561157l2.514832,3.767059l1.257813,3.408569l-2.263672,3.22876l1.257446,4.843628l3.269531,5.740479l2.766357,4.843414l6.071777,5.297089l-1.306274,2.079559l-0.552307,0.690918l0.270081,0.832001l-2.269958,5.331329l1.307373,2.542053l-0.509827,2.501648l0.069275,1.76358l2.223145,1.294922l1.781433,0.897919l-0.505859,2.048187l-1.990479,2.075134l0.950745,2.996735l-0.344482,1.387054l1.764465,1.493378l-0.241333,3.676544l0.426392,1.849243l-0.509033,1.857361l-1.679443,0.686951l-1.93103,1.290222l-4.047791,0.320435l-1.462524,0.951721l-1.518494,-0.320801l-4.348938,3.600189l-1.356262,-0.31723l-7.263428,2.139465l-0.823975,0.698273l-1.161743,-0.04538l-1.224731,0.67807l-1.394043,0.135406l-1.107849,0.825134l-2.958496,-0.002472l-2.038452,2.507324l-1.094482,0.215851l-1.920776,5.531372l-1.247559,1.767914l-0.572021,0.87616l0.76062,0.782227l4.175354,0.06308l1.923157,1.238373l0.744019,0.927917l-0.391663,1.165344l4.048584,1.943298l2.679016,0.900238l2.412109,0.320404l2.436462,1.899323l3.542786,0.371094l0.41449,0.043579l0.335083,0.860168l1.16449,0.721588l2.154175,0.210876l1.590881,0.938477l3.98291,0.007111l2.113281,-0.131836l1.065674,1.124207l1.886169,1.972992l0.502686,1.704346l1.634583,1.883667l1.414856,0l1.881836,1.252838l1.513306,0.426697l2.451843,0.870056l1.330261,0.942352l0.754272,0.912933l1.860596,0.135742l1.05304,-0.392334l2.118042,0.019501l1.591614,-0.322144l1.331848,0.299835l1.68573,0.249481l0.474365,-0.22644l0.559448,-0.677979l0.253906,-0.644287l1.212585,-0.532318l1.125916,0.009216l1.904236,0.580475l1.636902,0.235687l0.826721,0.078339l0.338928,0.453278l0.107544,0.316833l0.642517,0.228943l1.860535,0.012756l0.610962,-0.281036l1.136963,-0.522736l1.763306,-1.584534l0.139771,-0.272186l0.535767,-0.290253l2.645142,0.402222l0.834229,0.148529l0.823975,0.072266l1.116821,-0.455048l2.767212,0.046783l1.15625,-0.352264l1.232605,-0.242767l1.65741,-0.326782l1.136169,0.087555l2.805786,0.84668l0.797607,-0.11554l0.912964,0.138214l2.299438,-0.374603l0.988159,-0.011353l0.786133,0.053894l0.682678,0.730072l1.032288,0.704193l1.347534,1.900299l0.136169,0.679382l0.172852,0.540802l-0.619629,0.530884l-0.646851,1.110321l0.03186,1.42395l1.354309,0.911865l1.238953,1.438843l0.284607,1.018158l0.469238,0.539734l2.006592,1.01709l1.812561,0.349426l0.660583,0.800537l-0.042175,0.39801l0.184631,0.517029l0.687439,0.465668l0.983765,0.007446l0.205933,0.271088l-0.08429,0.489746l-0.172852,0.258362l0.37207,-0.158783l0.249573,0.194214l-0.179504,0.120483l0.485779,0.354034l0.404358,1.539429l3.558105,0.684662l2.860901,0.016998l1.210144,1.2453l1.738464,1.934875l-0.267639,1.901581l0.507019,0.498962l0.864075,0.402191l-0.020813,2.138275l0.945618,1.941223l0.242859,2.306549l0.35199,0.495758l-0.095642,0.879517l-0.539368,0.85791l-0.607422,0.788422l-0.857849,1.04007l0.729126,0.407501l0.40155,0.783844l1.140076,0.466309l0.633423,0.783112l1.270081,0.466339l0.832947,1.045715l1.154663,0.526184l1.234253,1.50882l0.174011,0.681427l0.733765,0.266113l0.54248,0.121552l1.41217,0.049957l2.393188,0.426971l1.550354,-0.09494l0.591309,-0.170807l1.223877,-1.480469l0.894897,-1.137817l1.027893,-0.953186l1.289734,-0.824951l1.735291,-0.159454l2.179871,0.665131l1.179077,0.058807l0.829529,-0.230347l1.945496,-0.87381l1.879883,-1.119049l1.484924,-0.821045l0.76416,-0.175049l1.492798,0.688873l1.547546,0.768585l1.709412,-0.027649l1.539307,-0.043915l0.745667,0.137817l0.5578,0.22644l0.466492,0.345856l0.322449,0.323517l0.221985,0.455322l0.096069,1.679993l0.121277,0.554565l0.12677,0.396515l0.674744,0.867096l0.633484,0.630371l0.116882,0.147766l0.289368,0.470947l0.90741,1.48114l1.195251,0.380585l0.596375,0.448212l0.75592,1.210449l0.220459,1.725647l-0.977112,1.501678l0.062988,0.448242l0.505493,0.675018l1.196777,0.151642l0.673218,0.006744l0.553162,0.256531l0.734558,-0.836243l-0.922424,-0.44397l1.049927,-0.18924l1.144104,0.217224l1.650269,-0.583954l3.659668,-1.341156l2.950623,-0.692047l1.583801,-0.069061l1.778259,0.951385l1.976685,0.753326l1.497986,1.204376l0.066895,1.596283l-0.02356,1.023315l0.253479,6.01297l0.440552,9.232483l0.010193,2.448975l0.196472,1.411224l-2.192017,0.272827l-5.061157,-0.358917l-4.904114,0.78476l-4.180908,1.88385l-1.19873,0.543854l-6.079224,3.191895l-1.484192,0.435089l-2.658142,0.523651l-4.175354,0.501678l-0.198853,-0.166504l-8.827148,0.16687l-3.844666,-0.188477l-8.552307,-0.00177l-7.844543,0.172882l-3.74823,0.237732l-6.081177,0.149872l-7.407898,-0.110199l-4.822632,0.085022l-3.092346,0.429413l-8.193726,1.366882l-4.624146,0.79538l-6.69574,0.768829l-0.681458,0.038605l-6.820496,0.551636l-5.498962,0.370239l-2.927856,0.208679l-0.472351,0.026215l-0.163391,0.036835l-5.528931,0.462006l-3.952087,0.197693l-3.806152,0.064484l-1.112549,0.039337l-1.708191,-0.103821l-6.45282,-0.392578l-0.458252,-0.069061l-12.662354,-2.312103l-1.326355,-0.258636l-1.071594,-0.208679l-2.214417,-0.034027l-5.200562,0.192047l-3.293884,-0.233826l-4.10022,-0.29126l-3.587646,-0.316376l-1.208984,-0.34259l-0.134277,0.180695l-2.219543,0.033997l-2.128601,0.035431l-0.095276,-0.474396l-0.2323,-0.452087l-0.553528,0.104858l-0.052734,-0.976776l-0.00116,-0.025146l-1.362976,0.037537l0.065002,1.198944l-0.259094,0.127533l-0.14801,-0.203369l-0.594055,0.30365l-3.568726,0.474396l-1.636536,-0.165802l-0.13739,-0.331268l-4.239929,0.097443l-0.240173,0.768097l-1.19873,-0.084686l-0.379913,0.617889l-0.897614,-0.158356l-0.651917,0.804596l0.556641,1.194305l-1.944,0.267151l-1.597931,0.076172l-0.511414,-1.05899l-1.078278,-0.17572l-0.135834,-0.213623l-0.592468,0.043915l-1.070007,0.694763l-1.786133,0.220367l-1.921967,0.892822l-0.427948,-0.015228l-0.914124,0.48996l-0.199585,-0.2565l-0.084656,-0.233124l-0.585815,0.267151l-0.068878,0.316376l-0.677155,-0.446045l-9.435333,8.604828l-0.737762,-0.645142l-0.159851,-0.139587l-3.097076,-2.737518l-1.381042,-1.295624l-0.543671,-0.477936l-3.247864,-3.17865l-5.131653,-4.720245l-0.171631,-0.157654l-0.268127,-0.177155l-0.13974,-0.167206l-1.846771,-1.627319l-7.424011,-6.437683l-4.534027,-4.129822l-0.314575,-0.285217l-5.598938,-4.337524l-6.401672,-4.883636l-2.546295,-3.025269l-0.959015,0.200195l-7.120148,-7.988464l0.777924,-0.466309l5.252502,-1.341522l2.407379,-1.52829l5.997314,-0.49469l0.078766,-0.480469l0.216492,-0.621887l0.001221,-0.919189l2.111694,-0.580048l1.436127,-1.642059l-1.682983,-2.721436l-0.613739,-1.492554l0.299988,-1.334503l-0.474396,-0.974487l0.796021,-1.978394l0.851563,-2.48056l-0.021271,-1.137146l-0.735809,-1.601044l0.214569,-0.395477l-1.224762,-2.58017l-0.344818,-2.179779l-0.493286,-2.072723l0.359009,-3.366638l-0.623596,-2.433929l0.415741,-2.539886l0.296814,-2.827362l1.248383,-4.626617l-0.02243,-4.015045l-1.202332,-1.748657l0.194489,-1.478577l1.939301,-1.524323l2.018402,-0.972168l0.410187,-1.001221l0.781494,-0.346588l0.675537,-0.617767l0.044067,-0.985992l-1.560516,-2.924652l0.231445,-1.820313l-0.556671,-1.237305l-0.960175,-3.093811l-1.020416,-2.064545l-1.113708,-0.598999l-1.779846,-0.666351l-2.149872,-0.141754l0.104309,-0.575592l-0.781464,-0.42392l-0.303558,0.077271l-0.688934,-0.393433l-1.597137,-0.674133l-2.164856,-0.534821l-1.94281,-0.113068l-3.09671,0.836456l-1.063721,1.325256l-2.257355,0.481659l-0.683044,-0.783325l-0.290955,-0.903442l1.502289,-1.658752l-0.305481,-0.554016l0.281464,-1.704132l-0.675537,-1.099487l-1.288147,-0.858795l-1.773529,-3.259155l0.358246,-1.199799l-0.613739,-1.777924l1.212158,-0.921234l-0.059845,-0.48703l2.430176,-2.783539l0.380707,-1.824738l0.76886,-1.34201l1.617615,-0.84256l0.379913,-1.071564l-5.257996,-2.446869l-0.088989,-2.536926l-1.68927,-0.88797l-2.756165,-3.424927l-0.27243,-1.330383l-3.230927,-0.838684l-0.357849,-2.056335l-0.935791,-0.843323l-0.431885,-4.457001l-0.752319,-2.688812l-0.754272,-1.793732l3.699402,-7.225098l-0.91098,-4.682007l0.565308,-1.319855l-1.294037,-3.695831l-1.084564,-4.18335l-1.103912,-4.736877l0.50119,-6.141968l-1.629852,-3.534058l-2.012115,-4.126221l-0.165314,-4.224854l-0.429535,-4.246552z" stroke="null" id="2419946"/>
    </g>
    <g stroke="null" id="1114000000" class="boundary Jung-gu_2419947_AL6">
     <path d="m456.22699,521.495972l0.797211,-0.640442l-0.513367,-0.877869l0.132233,-0.10199l0.12207,0.253296l2.252625,-0.371277l4.146667,-0.29187l4.033661,-1.579285l4.419464,-2.288757l2.793579,-1.853821l2.882538,-1.758911l1.905426,-0.642944l2.095551,-0.459137l0.353516,-0.071564l0.23465,-0.041443l0.088989,-0.015961l0.157074,0.008514l0.131866,0.135681l5.116272,-1.261871l-1.362152,-2.315796l-1.214478,-1.740143l-0.586212,-0.839966l-4.643463,-5.655914l-0.655884,-0.64621l-1.30661,-1.296997l-0.082275,-0.07901l-1.0271,-0.985962l9.435364,-8.604828l0.677124,0.446045l0.068909,-0.316376l0.585785,-0.267151l0.084656,0.233154l0.199585,0.2565l0.914124,-0.48999l0.427917,0.015228l1.921967,-0.892792l1.786133,-0.220398l1.070007,-0.694763l0.592529,-0.043915l0.135773,0.213623l1.078308,0.175751l0.511414,1.05896l1.597931,-0.076172l1.944,-0.26712l-0.556641,-1.194336l0.651917,-0.804596l0.897583,0.158386l0.379913,-0.617889l1.198761,0.084656l0.240143,-0.768097l4.23996,-0.097443l0.13739,0.331268l1.636536,0.165802l3.568726,-0.474396l0.594025,-0.303619l0.148071,0.203369l0.259033,-0.127563l0.02124,0.39328l1.362549,-0.037567l-0.03186,-0.59024l0.553467,-0.104889l0.2323,0.452087l0.095276,0.474396l2.128601,-0.035431l2.219604,-0.033997l0.134216,-0.180695l1.209045,0.34259l3.587585,0.316406l4.10022,0.291229l3.293884,0.233826l5.200562,-0.192047l2.214478,0.034027l1.071533,0.208679l1.326355,0.258636l12.662415,2.312103l0.458191,0.069092l6.452881,0.392548l1.70813,0.103821l1.112549,-0.039337l3.806152,-0.064484l3.952148,-0.197693l5.52887,-0.462006l0.163391,-0.036835l0.472351,-0.026215l2.927856,-0.208679l5.498962,-0.370239l6.820496,-0.551636l0.681458,-0.038605l6.69574,-0.768829l4.624146,-0.79538l8.193726,-1.366882l3.092407,-0.429382l4.822571,-0.085052l7.407898,0.110199l6.081177,-0.149872l3.74823,-0.237732l7.844543,-0.172882l8.552368,0.00177l3.844666,0.188477l8.827087,-0.16687l0.198853,0.166504l4.175354,-0.501678l2.658142,-0.523651l1.484192,-0.435089l6.079224,-3.191895l1.19873,-0.543854l4.180908,-1.88382l4.904114,-0.78479l5.061218,0.358917l2.191956,-0.272827l0.661743,23.710236l8.4646,0.32309l4.035217,0.197693l-0.421204,0.825104l0.293274,0.076508l-0.320862,1.011444l0.378296,0.262177l-0.000732,0.33017l0.149597,0.430084l-0.404297,0.200531l-0.014587,0.408112l0.281921,0.550903l-0.415344,0.453796l-0.141724,0.663208l-0.506714,1.018158l-0.362183,0.136047l-0.574341,1.136841l-0.963806,0.910095l-0.855835,0.556549l-1.472351,0.872528l-1.182251,0.465149l-1.257385,0.50235l-1.116089,0.458771l-1.146057,1.146729l-1.249573,0.864044l-1.657349,1.647644l-0.481873,0.550842l-0.510925,2.371399l-0.592957,0.902954l-0.456238,0.731873l-1.414917,1.390442l-0.567261,0.321655l1.631775,0.24408l0.261414,4.009644l-1.353882,0.720886l-2.57782,0.807312l-4.084412,-1.482849l-6.05835,1.636597l-1.048401,0.743225l-0.942871,0.134583l-0.745667,0.577026l-2.908142,1.233459l-0.563721,0.567871l-0.296021,0.866821l-1.077515,0.749146l-0.577942,1.477844l-0.2323,1.177856l-0.25824,1.576294l-0.670471,0.665955l-0.027527,2.182678l-0.768066,1.887329l-0.795593,0.955688l-0.933899,0.824585l-0.844421,1.363403l-2.756531,2.219849l-3.156128,2.600281l-2.400635,1.744446l-1.422791,1.395264l-0.369324,0.185913l-0.543274,0.273438l-0.301575,0.382935l-0.729431,0.566345l-0.529541,0.595764l-2.118774,1.467102l-2.222717,1.458923l-0.355835,1.839355l-0.977966,0.760803l-0.370056,0.088257l-1.763672,0.419312l-0.346069,0.051025l-0.515381,0.11969l-0.608582,0.050293l-0.563782,0.012451l-1.863281,0.258545l-1.349121,0.839783l-1.753479,1.86731l-0.38031,2.318848l0.854736,1.558411l-2.514893,1.076355l-1.760132,2.33197l0.162598,0.558899l0.069275,0.238342l0.459839,1.579651l2.200317,0.403748l-0.12561,1.34552l-7.041748,0.448364l-9.430664,-9.148804l3.159302,-4.202454l1.493164,-1.986694l-2.514832,-0.179199l-2.766357,-1.704041l-0.12561,-3.677673l-0.440125,-1.704041l-1.383423,0.538025l-1.253052,0.337219l-1.866882,0.12677l-1.956177,1.522034l-2.489624,-0.380432l-1.778259,-1.204956l-2.578613,0.570618l-2.845154,-0.190247l-4.801331,0.507202l-5.046631,1.056641l-2.044739,1.115356l-1.977844,2.077698l-1.822754,2.536743l-0.697998,1.259155l-3.485291,0.898254l-3.458862,-0.652832l-2.093994,-3.660889l-2.400696,-1.522339l-0.710938,-1.519531l-2.312134,-2.029541l-1.320374,-0.803711l-2.43927,-0.783508l-2.821167,-1.702332l-0.879822,-1.201416l-1.985352,-0.656738l-1.540833,0.081116l-1.531067,-0.32373l-0.35907,0.210754l-0.823547,-0.459412l-1.861694,-0.533447l-2.414856,0.345337l-0.166931,-0.200134l-1.212524,0.209351l-0.732239,-0.1073l-0.50708,-0.647522l-0.12677,-0.610291l-0.791687,-0.835938l-0.443726,-0.685425l-1.897522,-1.097717l-0.629089,-0.99884l-0.566528,-0.746704l-0.610535,-0.929504l-2.013367,-1.027954l-0.723145,-0.244385l-0.89917,0.600769l-0.66925,0.332642l-0.682251,0.464355l-0.800354,0.60321l-2.243591,0.353882l-1.305847,-0.164734l-1.172791,-0.487732l-0.569641,-0.445984l-3.36322,-0.463989l-0.976685,-0.492737l-0.630737,-0.588013l-1.269958,-0.263184l-2.006226,0.195862l-0.917297,-0.120789l-0.384216,-0.050293l-0.799988,0.796326l-1.323181,0.918823l-5.470947,0.414429l-0.803894,0.225281l-0.088989,-1.897522l0.38739,-1.153381l-3.776978,-1.821777l-2.345947,-1.570984l-2.648743,-0.637573l-0.237732,2.080017l-0.049622,1.066895l-0.314941,3.767151l-0.023621,0.548706l-0.553894,-0.224609l-1.421204,-0.571716l-0.692474,-0.285156l-1.885345,-0.122925l-2.305786,-0.257507l-1.263733,-0.133545l-4.061218,-2.08313l-1.472748,-0.755554l-2.092438,-1.072998l-0.005524,-0.808655l-12.680084,0.00708l0.030334,-2.681885l-1.766449,0.710632l-1.40033,0.650696l-5.38678,2.514282l-1.522736,0.45166l-3.60257,0.899719l-1.40033,1.143799l-0.520416,0.252197l-2.634155,1.539795l-4.424194,3.603088l-4.048615,2.551392l-0.560211,-0.786743l0.27832,-0.546509l-0.183411,-0.347168l0.047241,-2.814575l-0.334656,-0.772217l0.081909,-0.150146l-0.89801,-3.227661l0.164948,-0.093201l-0.603119,-1.684631l-0.479095,-0.902222l-0.028717,-0.646118l0.892029,-0.505859l0.647644,-1.456543l0.965302,-0.725464l0.345245,-0.584534l1.135376,-0.333313l-0.02478,-0.26532l0.51767,-0.487427l0.505463,-0.496948l0.534637,-0.48175l0.896057,-0.693604l0.259796,-0.578125l-0.092896,-0.42865l-0.601959,-1.012024l-0.847168,-0.754517l0.035797,-0.524292l0.050812,-0.74176l0.072021,-1.268921l-0.855072,0.180664l-0.068878,0.233459l-0.190155,0.037903l-0.844055,-0.517578l-2.011719,-0.907898l-1.954651,0.17218l0.064209,-0.324829l-0.131897,-0.425476z" stroke="null" id="2419947"/>
    </g>
    <g stroke="null" id="1126000000" class="boundary Jungnang-gu_2419948_AL6">
     <path d="m880.686462,389.394104l1.257385,-5.471252l2.515259,-2.840759l2.011719,-2.271942l6.035522,-6.368195l0.754272,-5.022888l-1.886108,-7.175598l-1.253845,-9.577698l-0.157532,-2.19809l-0.647949,-9.049561l-0.25116,-10.942932l-0.523254,-7.617706l8.072449,-3.614624l7.646912,-2.47348l1.812866,-0.577881l6.544922,-2.086029l7.21582,-2.188843l2.134155,-0.221924l2.711731,-0.317322l2.178589,-1.33197l0.994446,-0.49527l1.806213,-0.899811l5.690308,-1.585815l5.646179,-1.300079l4.979248,-0.856232l2.558105,0.079071l3.423096,0.380432l2.578613,0.919647l0.888977,0.095032l1.645142,-1.109711l1.511353,1.141632l1.867249,0.919647l0.892456,0.418701l0.796814,0.374054l3.337585,1.157532l1.50824,0.523285l3.289978,1.648926l3.512024,1.553894l3.467529,0.919647l2.667664,0.348846l1.141296,0.11026l1.481384,0.143219l2.168823,0.591705l8.236572,-0.201019l2.642761,-2.592987l2.765991,0.583191l2.137695,-0.179413l2.514893,-2.242371l4.652527,-3.767273l6.727173,-1.748932l9.426392,-2.083618l3.681641,0.910461l8.305908,0.457001l7.859009,-2.092499l4.958862,2.50058l7.078735,2.229309l5.575317,0.482178l3.066406,0.783508l0.819702,3.07309l3.040771,2.771667l-0.286987,4.968628l-0.38855,6.721252l2.298706,6.869598l-0.157471,4.697083l-2.182983,6.848022l0.041748,1.952515l4.747437,1.988281l1.250244,1.931549l-0.084595,3.072937l-1.605103,3.977142l0.422485,1.807434l0,2.530853l0.675903,2.169312l-0.574341,1.142059l-2.720337,0.906708l-6.909912,4.395935l-2.703491,3.193573l-3.226563,3.31723l-0.675903,2.771698l3.564819,4.455963l2.112061,0.903809l2.78772,1.0849l-0.507202,1.988342l0.912598,4.703186l-0.50708,4.278168l-3.547729,2.169373l-4.629395,1.021423l-3.88562,2.470551l-2.657715,3.465027l-4.691895,6.115845l-3.379028,4.33844l-0.603882,3.348969l-1.102295,6.111603l-1.520752,4.579559l-2.348389,4.157776l-1.706177,1.988312l-2.872314,0.36145l-3.210083,2.530823l-10.643555,4.097778l-6.251282,6.748535l0.844788,2.16925l-3.210022,3.253876l0,2.892426l-2.872314,3.495117l-0.844788,2.048706l0.338135,3.13324l-0.675964,3.859589l-5.138306,2.432007l-3.990723,0.694092l-3.944336,2.288818l-3.750183,1.324402l-2.148376,1.492676l-1.372314,0.95343l-3.754578,1.049469l-5.927612,0.80957l-3.029419,0.219299l-3.132141,2.471558l-4.298584,-0.406708l-8.74176,-1.82959l-1.034119,-2.252289l-5.068237,0l-3.09906,-0.032593l-10.723145,-1.842041l-12.197083,-1.188324l-7.387024,-0.538177l0.371643,-3.580658l-1.257385,-11.391022l-0.685425,-5.518707l-1.074768,-8.652985l-1.699097,-2.481842l-0.941711,-1.375214l-10.688049,-12.018799l-2.531738,-2.667328l-5.641479,-5.943604l-4.40094,-5.650604l-1.886108,-9.148987l-1.27478,-4.658966l-0.737427,-2.695984l-2.431274,-7.337769l-0.712219,-2.169769z" stroke="null" id="2419948"/>
    </g>
    <g stroke="null" id="1144000000" class="boundary Mapo-gu_2419949_AL6">
     <path d="m21.38493,468.1521l9.292459,-0.602692l5.23715,-1.084564l13.854034,-2.77182l10.136902,-2.241455l4.223827,-1.325897l10.812843,-2.289673l6.58905,-1.253265l11.826576,-2.048737l5.913101,-0.843689l8.109444,-2.16922l4.392708,-1.687378l7.433891,-1.325592l0.844826,-1.446075l2.36525,-6.580231l1.351494,-2.94043l-0.844826,-3.205902l1.689667,-0.963837l-1.689667,-1.446167l0.338158,-2.651367l2.365242,-4.941376l0.675568,-0.843384l3.717133,-0.168701l1.351501,-1.157013l2.196365,-5.54361l1.182602,-1.807709l1.541275,-3.178528l2.642395,-1.949158l3.604156,-1.762756l1.460144,-1.026337l12.876144,9.718109l15.789001,12.522614l16.472015,9.395538l8.927521,4.962341l7.701599,5.247131l0.401947,2.490662l11.30455,6.956268l4.797409,1.600861l25.144043,15.56192l5.185165,2.347626l7.481934,2.878693l9.938477,4.149139l10.053833,4.29187l7.761017,2.916504l6.078094,1.156036l0.250763,-0.503448l1.605042,0.195923l1.161346,-0.316376l1.795197,0.858765l1.615662,-0.098114l2.249115,0.248688l-2.586884,0.097778l1.129852,0.060242l-0.095276,0.18103l-0.918457,0.233459l8.432281,1.881927l3.737213,1.069214l3.289612,1.363617l4.045471,2.457947l5.540253,4.012085l-0.462555,0.716705l0.496033,0.248688l-3.490784,4.477509l-0.766479,0.024811l-1.748749,2.40329l-0.503143,6.031799l-1.292053,2.046875l0.622406,0.872131l2.44516,-0.142761l2.538483,0.838135l1.253082,0.413391l3.109314,1.026611l4.737946,1.565369l0.295258,0.097412l3.539185,1.169739l5.8013,1.859375l10.371155,3.213928l0.331451,0.109802l0.707855,0.234131l0.534241,0.176819l1.68454,0.55719l2.026306,0.670532l1.784515,0.597961l1.881836,-0.52887l0.236176,-0.071228l1.708618,-0.510071l4.034821,-1.188782l8.401947,-2.641541l3.713989,-0.375488l8.228729,-0.315613l1.684967,-0.064819l5.324127,-0.368042l2.510529,-0.147339l9.525909,-0.486023l1.632996,-0.094238l3.546295,-0.204407l19.694305,-1.046753l11.603363,0.03186l3.836426,0.415527l1.358612,-0.472168l0.988464,-0.745361l1.507446,-0.432495l3.017181,-2.969604l-0.311401,-0.195923l1.393646,-0.828552l1.815247,-0.825378l0.513367,0.877808l-0.797211,0.640442l0.131897,0.425476l-0.064209,0.324829l1.954651,-0.17218l2.011719,0.907959l0.844055,0.517517l0.190155,-0.037903l0.068878,-0.233459l0.855072,-0.180664l-0.072021,1.268921l-0.050812,0.74176l-0.035797,0.524292l0.847168,0.754517l0.601959,1.012085l0.092896,0.428589l-0.259796,0.578125l-0.896057,0.693604l-0.534637,0.48175l-0.505463,0.496948l-0.51767,0.487427l0.02478,0.265381l-1.135376,0.333313l-0.345245,0.584473l-0.965302,0.725464l-0.647644,1.456604l-0.892029,0.505798l0.028748,0.646118l0.479065,0.902222l0.603119,1.684692l-0.164948,0.09314l0.89801,3.227661l-0.081909,0.150208l0.334656,0.772156l-0.047241,2.814575l0.183411,0.347168l-0.27829,0.546509l0.560181,0.786743l0.057098,0.904663l1.987305,1.338867l0.904694,1.037842l0.352722,0.711243l0.722015,0.523865l0.689331,1.117859l-0.122833,1.587219l-0.25116,3.16156l-6.004456,0.011353l-0.015717,1.121033l-0.91806,0.253235l0.172821,0.571655l0.911774,0.852173l0.006256,0.329773l-3.426208,0.549683l-0.383789,0.25293l-1.644043,0.576599l-0.414948,0.578369l-0.155518,1.847473l-1.325897,0.196899l0.322418,1.308411l-4.053345,1.569397l-4.176941,2.183838l-1.606598,3.605896l-0.438171,1.715271l-0.300415,0.261719l0.200409,0.261414l-0.946442,1.388367l3.933685,1.482544l-0.642487,0.704773l-1.111359,0.816345l-0.962524,1.128052l-1.977509,0.919739l-0.549957,0.884338l-0.14447,0.872314l-0.64444,1.038391l-1.566071,1.32312l0.199188,0.833374l-0.608643,0.605591l-2.889221,2.875l-3.387238,0.873352l-2.379028,0.87439l-1.830231,2.361511l-2.418365,-0.863098l0.042145,2.641235l0.01767,1.12793l-2.395538,1.339722l-2.452637,1.392883l-3.418335,1.623352l-2.016449,0.232971l-2.5849,0.379333l-3.800995,1.227051l-3.169525,0.21991l-1.801849,-0.897339l-0.726746,2.009338l-1.243652,-0.394165l-2.691193,-1.192383l-1.525543,0.66687l0.113373,-0.268433l-2.169952,1.448059l-1.344818,0.990845l-0.667694,2.900696l-1.088531,4.455933l-9.347534,-5.950745l-7.696503,-6.11377l-8.666931,-8.675415l-11.312805,-3.508606l-23.659851,-7.33783l-4.861206,0.211487l-24.932983,-0.001099l8.10434,6.691467l-7.298492,2.910461l-18.847473,-3.151611l-5.405273,-0.903809l-12.341919,-3.404541l-13.896179,-3.211548l-10.153809,-0.89209l-8.633072,-1.005493l-10.941559,-6.603577l-25.327515,-15.612183l-16.385406,-10.100098l-23.826782,-9.524231l-17.434586,-6.580811l-53.573349,-23.206085l-15.575218,-7.465149l-13.941051,-8.24408l-13.073761,-7.687378l-9.630232,-8.556366l-9.637333,-6.734741l-0.000013,0z" stroke="null" id="2419949"/>
    </g>
    <g stroke="null" id="1135000000" class="boundary Nowon-gu_2419950_AL6">
     <path d="m771.819763,264.259003l0.294495,-1.186462l2.769531,-2.711578l1.848328,-1.500275l2.578613,-1.66449l2.776978,-2.196045l1.76062,-6.099228l1.760071,-4.036209l0.188599,-3.049698l3.197876,-1.260315l0.514954,-2.947998l1.56842,-1.487305l-0.565735,-2.78064l0.12561,-3.991409l4.526978,-1.076324l3.269104,-0.896881l2.901001,-2.38887l1.155884,-2.219711l0.978333,-2.15625l2.676208,-1.310074l1.190063,0.390823l1.346008,0.932007l2.359375,-1.888504l1.68927,3.059906l1.822754,3.440765l2.978577,3.171188l2.556152,1.902634l1.089355,0.475922l1.244812,-0.142929l2.234924,-0.326614l-1.185425,-1.725311l-0.340515,-2.298065l0.665771,-3.222641l0.981445,-3.189331l1.361328,-3.023758l1.476318,-3.109604l0.062561,-2.089294l-0.676758,-1.411926l-0.941223,-3.15863l-2.486145,-4.49614l-1.365662,-2.404694l-0.933838,-2.521774l-0.583862,-3.240005l-0.125488,-4.330368l-0.123657,-4.483658l0.08429,-2.769836l-0.177185,-1.377655l-0.226379,-2.743622l-0.541687,-1.930328l-2.934509,-5.334473l-2.845154,-4.786926l-2.010498,-3.274094l-1.55072,-3.469955l-0.034668,-0.524994l-0.450806,-3.937195l-0.768005,-7.932709l-0.823181,-2.397751l-1.11377,-1.811707l-3.876526,-5.123032l-2.05426,-2.671005l-1.192871,-3.261002l-0.238159,-2.213394l0.02124,-4.91964l0.089722,-2.501556l0.079163,-0.954704l0.196472,-1.880707l0.448853,-2.88797l0.484131,-3.244194l3.94397,-9.714401l2.845093,-7.864731l1.414856,-7.320313l1.278748,-4.663155l1.04126,-4.095505l1.264526,-4.318764l0.041321,-0.796623l-0.622864,-1.389938l-1.074707,-1.667076l-3.466797,-4.332016l1.175232,-0.69091l0.739685,-0.442863l3.267151,-2.11956l7.435852,-3.814415l4.252991,-2.255157l13.480774,-2.985527l5.406433,-5.362858l4.47699,-1.928059l4.375793,-3.251091l0.582947,-5.715134l13.271057,1.31345l7.940552,-1.566841l9.140076,2.229774l9.275574,0.059978l6.267761,-4.639515l10.120361,-2.109158l5.423401,-1.74754l7.416565,-1.867851l6.420166,-0.722944l10.491943,11.508974l4.392761,6.5079l1.334534,5.603855l6.082031,1.687061l6.775269,0.421947l6.08197,2.65123l11.150635,-1.687042l5.744202,3.37442l6.741394,-0.421932l0.337769,8.677021l-1.689636,5.78476l-9.123169,7.712814l-6.082031,9.641411l-1.672729,4.760254l7.433838,5.784866l4.730469,6.507805l2.686523,12.111519l-0.321289,7.170769l0.659119,5.603951l-3.04126,4.338394l0,6.507996l-0.909424,3.900101l-0.42511,1.824097l-4.747437,5.362961l-5.406433,5.302551l-1.689697,9.400146l5.406494,8.677292l5.761108,5.724518l-3.378967,5.543503l-4.409668,8.737289l-1.182617,11.449097l3.041199,3.012848l8.447632,0.361389l16.725891,1.325714l6.082031,-2.289673l5.744202,1.205124l8.295654,0.542282l10.981812,1.325699l10.626953,3.916779l5.098633,4.507919l3.010864,7.784317l-1.50354,5.845001l1.672363,9.822235l2.027466,3.012772l-2.534058,6.869385l-0.321289,5.00119l-8.126343,6.809174l-6.588989,3.976959l-10.407043,5.844788l-0.36145,6.728943l-6.49884,7.43576l0.895996,4.033325l7.633057,3.768066l-9.42627,2.083649l-6.727173,1.748901l-4.652588,3.767273l-2.514832,2.242401l-2.137695,0.179382l-2.765991,-0.583191l-2.642761,2.592987l-8.236633,0.201019l-2.168823,-0.591675l-1.481384,-0.14325l-1.141296,-0.11026l-2.667603,-0.348846l-3.467529,-0.919647l-3.512024,-1.553894l-3.289978,-1.648926l-1.50824,-0.523285l-3.337646,-1.157532l-0.796753,-0.374054l-0.892456,-0.418671l-1.867249,-0.919678l-1.511353,-1.141602l-1.645203,1.10968l-0.888916,-0.095001l-2.578613,-0.919678l-3.423096,-0.380432l-2.558105,-0.079041l-4.979309,0.856201l-5.646118,1.300079l-5.690308,1.585846l-1.806213,0.89978l-0.994446,0.4953l-2.17865,1.33194l-2.71167,0.317322l-2.134155,0.221924l-7.21582,2.188843l-6.544922,2.086029l-1.812866,0.577881l-7.646912,2.47348l-8.072449,3.614655l-0.206665,-3.008087l-13.255676,2.224609l-8.473572,1.799133l-1.589294,0.256317l-5.710754,1.150391l-3.059265,0.420807l-2.58374,0.427551l-1.30542,-0.229004l-0.657104,-0.109558l-1.664124,-0.784546l-1.856567,-0.86145l-1.030273,-0.680328l-0.734558,-2.496826l-5.468262,-2.536926l-7.379944,-3.995819l-2.934082,-3.044312l-3.734131,-2.505127l-4.756836,-2.790527l-4.668274,-3.456757l-4.623413,-4.090729l-5.156799,-4.85199l-3.334473,-3.345581l-4.174622,-4.872375l-5.067871,-5.200775l-1.867188,-1.331787l-3.023132,-1.45871l-5.245789,-2.346954l-3.556519,-2.219635l-4.090332,-3.678467l-5.512329,-2.981018z" stroke="null" id="2419950"/>
    </g>
    <g stroke="null" id="1141000000" class="boundary Seodaemun-gu_2419951_AL6">
     <path d="m221.547165,457.956482l8.844437,-7.818054l0.075989,0.796204l7.354752,-6.319336l5.048187,-4.440369l18.130997,-15.345001l1.382996,-1.149567l2.294769,-3.58667l2.43924,1.048615l8.319275,3.253174l-1.111359,2.187897l2.978607,-0.951141l-0.844849,1.966064l-0.710999,1.775726l-0.177917,1.395508l0.39682,1.656647l0.209442,2.290253l3.483704,-0.521973l4.267883,0l2.133759,-0.253723l1.956207,0.507446l1.611328,-0.626526l1.767242,0.626526l0.469269,0.604156l1.236572,0.238861l0.229095,-0.036163l0.860596,-0.135345l1.566071,0.373138l0.339355,-0.206238l1.609375,-1.46637l1.869995,-0.260071l-0.132294,-1.204498l1.199554,-1.321075l-0.821625,-2.015991l1.773499,-1.270416l0.721649,-0.992218l1.436951,-0.520203l0.312195,-0.619446l2.656555,-1.633331l0.310974,-1.022369l0.733429,-2.766968l2.100739,0.126862l3.656464,-0.261536l0.661774,0.738525l1.233826,-0.237793l1.368439,-0.725403l2.891968,-1.165924l1.446014,-0.807281l2.029419,-0.89624l0.918854,-1.14856l-1.187744,-1.834656l0.062592,-2.017883l1.006287,-1.659637l-1.26062,-1.995605l1.386169,-2.01828l-0.729858,-1.848907l2.919128,-2.516968l1.299133,-2.058044l2.013672,-1.785156l2.334564,-2.75412l1.625916,-0.593994l-0.546844,-0.796356l4.245056,-1.542084l1.098389,-1.536774l2.554596,-1.614716l4.890289,-2.283203l3.108154,-0.272888l2.164825,-0.580933l2.219177,-0.942047l2.635315,-0.997711l2.606171,-1.205048l3.065216,-0.619568l2.267212,0.540863l1.950684,0.686554l2.425079,-0.920471l3.958099,-1.869263l2.645935,-1.578308l1.362915,-5.750397l0.547607,-1.151611l-1.187744,-1.613434l-3.672272,-2.11853l-1.259003,-0.496216l-0.180298,-3.159576l0.846802,-1.045319l1.488098,-0.192108l1.619232,-0.056l1.128326,-0.056366l0.837738,-0.102783l3.330139,-6.461792l6.246185,-0.280396l0.059021,-3.940613l1.701874,-0.441315l0.058258,-0.538452l4.300232,-1.50827l3.266724,-1.597626l2.939636,-1.734802l1.575928,-1.12265l3.947784,-1.466858l0.835419,-0.699036l1.304657,-0.435303l0.89328,-1.774902l1.80069,-2.47998l3.154175,-1.055328l0.431885,4.45697l0.93576,0.843323l0.357849,2.056366l3.230957,0.838684l0.27243,1.330353l2.756134,3.424957l1.689301,0.887939l0.088989,2.536957l5.257996,2.446869l-0.379913,1.071533l-1.617615,0.84259l-0.76886,1.34198l-0.380707,1.824768l-2.430206,2.783539l0.059875,0.487l-1.212158,0.921234l0.613739,1.777924l-0.358246,1.199829l1.773529,3.259125l1.288147,0.858826l0.675537,1.099487l-0.281464,1.704132l0.305481,0.553986l-1.502289,1.658783l0.290924,0.903442l0.683044,0.783295l2.257385,-0.481659l1.063721,-1.325226l3.09671,-0.836487l1.94281,0.113068l2.164856,0.534851l1.597168,0.674133l0.688934,0.393402l0.303558,-0.07724l0.781433,0.423889l-0.10434,0.575592l2.149872,0.141785l1.779877,0.666351l1.113678,0.598999l1.020447,2.064545l0.960175,3.093811l0.556702,1.237274l-0.231476,1.820313l1.560516,2.924683l-0.044067,0.985992l-0.675568,0.617737l-0.781464,0.346619l-0.410217,1.001221l-2.018402,0.972137l-1.93927,1.524323l-0.194489,1.478607l1.202301,1.748627l0.022461,4.015045l-1.248383,4.626648l-0.296814,2.827332l-0.415741,2.539917l0.623596,2.433929l-0.359039,3.366608l0.493317,2.072754l0.344818,2.179779l1.224762,2.580139l-0.214569,0.395508l0.735809,1.601013l0.02124,1.137177l-0.851532,2.48056l-0.796021,1.978394l0.474396,0.974487l-0.299988,1.334503l0.613739,1.492554l1.683014,2.721405l-1.436157,1.642059l-2.111725,0.580078l-0.00116,0.919189l-0.216522,0.621857l-0.078766,0.480499l-5.997314,0.494659l-2.407379,1.52829l-5.252502,1.341553l-0.777924,0.466309l7.120148,7.988464l0.959015,-0.200195l2.546326,3.025238l6.401642,4.883636l5.598938,4.337524l0.314575,0.285217l4.534027,4.129852l7.424011,6.437683l1.846771,1.627289l0.139771,0.167236l0.268097,0.177124l0.171631,0.157684l5.131653,4.720245l3.247864,3.17865l0.543671,0.477936l1.381042,1.295624l3.097076,2.737518l0.159851,0.139587l0.737762,0.645142l1.0271,0.985962l0.082275,0.078979l1.306641,1.297028l0.655853,0.646179l4.643463,5.655914l0.586212,0.839966l1.214539,1.740143l1.362091,2.315826l-5.116272,1.261841l-0.131866,-0.135651l-0.157074,-0.008514l-0.088989,0.015961l-0.23465,0.041443l-0.353485,0.071564l-2.095581,0.459106l-1.905426,0.642975l-2.882538,1.758881l-2.793549,1.853821l-4.419495,2.288818l-4.033661,1.579224l-4.146637,0.29187l-2.252655,0.371277l-0.122009,-0.253296l-0.132294,0.102051l-1.815247,0.825378l-1.393646,0.828552l0.311401,0.195923l-3.017181,2.969604l-1.507385,0.432495l-0.988525,0.745361l-1.358612,0.472168l-3.836426,-0.415527l-11.603363,-0.03186l-19.694305,1.046753l-3.546295,0.204407l-1.632996,0.094238l-9.525909,0.485962l-2.510529,0.1474l-5.324127,0.368042l-1.684967,0.064819l-8.228729,0.315613l-3.713989,0.375488l-8.401947,2.641541l-4.034821,1.188782l-1.708618,0.510071l-0.236176,0.071228l-1.881836,0.52887l-1.784515,-0.597961l-2.026306,-0.670532l-1.68454,-0.55719l-0.534241,-0.176819l-0.707855,-0.234131l-0.331451,-0.109802l-10.371124,-3.213928l-5.801331,-1.859375l-3.539185,-1.169739l-0.295258,-0.097412l-4.737946,-1.565369l-3.109314,-1.026611l-1.253082,-0.413391l-2.538483,-0.838135l-2.44516,0.142761l-0.622406,-0.872131l1.292053,-2.046875l0.503143,-6.031799l1.748749,-2.40329l0.766479,-0.024811l3.490784,-4.477509l-0.496033,-0.248688l0.462555,-0.716705l-5.540253,-4.012085l-4.045471,-2.457947l-3.289612,-1.363617l-3.737213,-1.069214l-8.432251,-1.881927l0.918427,-0.233459l0.095276,-0.18103l-1.129852,-0.060242l2.586884,-0.097778l-2.249115,-0.248688l-1.615662,0.098114l-1.795197,-0.858765l-1.161346,0.316376l-1.605042,-0.195923l-0.250763,0.503448l-6.078094,-1.156036l-7.761017,-2.916504l-10.053833,-4.29187l-9.938477,-4.149139l-7.481934,-2.878693l-5.185165,-2.347626l-25.144043,-15.56192l2.178238,-1.308899l-2.89946,-0.523682z" stroke="null" id="2419951"/>
    </g>
    <g stroke="null" id="1129000000" class="boundary Seongbuk-gu_2419952_AL6">
     <path d="m507.279205,269.359039l0.502716,-2.356903l2.384949,-4.284882l0.79248,0.514526l0.675537,-1.024414l1.879822,-0.858826l1.076721,-1.204895l0.971619,-0.376587l0.527893,-1.114868l1.351563,-1.626892l1.499512,-1.491455l0.633423,0.030151l2.57666,-0.903885l3.463623,0.301407l0.929016,-0.813461l1.562927,-0.542526l3.801392,-1.777634l0.931091,-0.165604l2.183777,0.046799l1.869141,-1.357422l0.802368,-1.385818l5.195435,-3.163513l0.591248,-0.090424l0.844482,0.271286l1.225159,0.120575l1.055847,-0.783707l2.826233,2.094345l4.652527,1.704269l6.915833,3.049622l1.634521,2.870163l3.395081,-0.807068l3.520752,4.933182l4.652527,0.358856l1.006165,1.435059l4.526611,-1.255646l1.760498,3.766846l4.275085,2.780701l4.526855,2.421814l2.256958,2.049133l1.892456,1.717926l12.951782,10.763367l6.161072,0.62793l6.916199,1.434906l5.311584,4.391571l7.809875,-0.803772l5.814636,0.675079l-1.415649,4.227325l-0.377197,2.601318l-0.218872,2.018768l0.503113,2.645966l0.377136,2.466858l-0.133423,1.613495l1.096375,0.996246l1.174744,1.067505l0.472412,1.44754l2.672302,0.973541l2.450684,1.660248l0.7547,1.121002l0.817322,2.242371l0.613708,0.918213l1.96405,1.50351l2.577454,-0.403442l1.572021,0.134369l3.40918,1.101837l1.542847,0.848724l0.937012,0.513672l2.617188,0.222656l3.336426,1.264557l2.119629,0.68457l3.215942,0.143219l4.401001,1.255676l0.986938,0.586365l2.031006,1.207458l1.886108,1.255646l2.247925,-0.037903l1.636169,1.979553l1.211731,0.422211l1.842834,1.134399l0.102722,0.896881l2.394409,0.490265l2.446716,0.047882l1.576721,0.609009l0.112976,0.655487l0.126343,0.57074l0.589355,2.149658l1.742004,-0.63205l1.716064,-0.533875l5.029663,-1.704437l1.823181,0.269073l3.332153,-0.134369l1.383362,-0.403748l0.565674,-1.120941l1.068848,-0.628174l3.269592,0.493469l3.897766,-0.044678l2.514893,0.538147l3.332153,0.179352l1.017273,0.079437l0.478333,5.508148l0.139282,4.144318l-0.0401,1.177979l0.516113,0.59729l1.158569,-0.340302l8.047668,-3.722473l9.140869,-4.828552l7.124451,-3.350342l1.697937,-1.03656l2.242432,-2.153259l2.342773,-2.336212l2.297546,-2.403564l2.993896,-2.686523l3.658569,-2.507141l7.733032,-5.023193l5.909973,-3.946259l2.200684,-2.15271l1.634583,-2.511536l2.314392,-3.667694l2.059021,-2.653778l2.165161,-2.020203l12.762817,-6.861664l3.334473,3.345612l5.156799,4.85199l4.623474,4.090729l4.668213,3.456726l4.756897,2.790558l3.73407,2.505127l2.934082,3.044312l7.379944,3.995819l5.468262,2.536896l0.734558,2.496857l1.030273,0.680298l1.856567,0.861481l1.664124,0.784515l0.657104,0.109558l1.30542,0.229004l2.58374,-0.427521l3.059265,-0.420807l5.710754,-1.150391l1.589294,-0.256317l8.473572,-1.799133l13.255676,-2.224609l0.206665,3.008057l0.523254,7.617706l0.25116,10.942932l0.647949,9.049561l0.157532,2.19809l-14.759888,0l-0.08905,1.363647l-5.067871,1.427124l-1.600647,2.029327l-2.667175,0l-2.311707,-0.887939l-5.868225,1.775879l-4.979309,0.253784l-1.964844,1.744324l-1.272766,1.930756l-0.88501,0.484558l-1.405823,1.572357l-1.384644,0.451935l-1.056213,1.098816l-0.316101,0.762787l-0.61731,1.490143l0.074829,1.012299l2.205811,0.723083l-2.005066,1.514557l-1.842407,0.374664l-1.111389,0.555054l-0.657837,0.86554l-4.783997,-0.216919l-1.560181,-0.077606l0.316528,-1.496826l-5.721313,0.978973l-1.206299,0.399811l-1.637695,0.542999l-0.294067,-0.205566l-0.618896,-0.431366l-0.459412,-0.320404l-5.725342,3.11734l-2.195129,0.606079l-0.561035,0.154907l-3.556946,0.142853l-0.844421,-0.887878l-1.022339,-1.61734l-0.587402,-0.952393l-0.390869,-0.633392l-0.844543,0.475647l-0.711304,0.63446l-1.867249,1.268219l-0.355469,1.712677l-0.337402,0.216553l-2.330261,1.495728l-0.889282,2.156403l-1.502319,0.937134l0.048462,1.315643l-0.321655,0.858093l-0.808228,0.973633l-0.616943,0.291687l-0.528259,0.557526l-1.075928,0.737915l-1.368469,0.548279l-0.026733,0.958405l-0.394897,0.842468l-1.541626,0.926819l-0.466553,1.242249l-2.129395,0.39801l-1.410217,0.867279l-3.3974,1.666107l-3.032593,-3.714691l-2.5979,-0.110931l-1.606201,0.507172l-1.097961,-1.050842l-0.870422,-0.860199l-0.798828,-0.549347l-1.349915,0.83609l-3.402161,0.934265l-0.614929,1.296478l-1.202698,2.054199l-0.674805,-0.004944l-0.242859,-0.0755l-0.053955,-0.055267l-0.109497,-0.101013l-1.245911,0.96225l-0.538574,-0.357635l-1.378357,2.067688l-1.300659,2.581543l-3.10498,6.431122l-1.366455,3.028687l-0.52124,0.620209l-4.308105,0.112701l-0.168823,-0.105255l-5.260803,0.178986l0.463013,4.754211l-3.485291,3.017639l-2.960876,2.563629l-1.00116,0.943359l-5.838257,5.50354l-4.998535,5.179871l-2.335754,2.304443l-1.276306,1.292023l-0.851929,0.862518l-1.252747,1.245941l-2.582153,2.569458l-14.963379,9.193665l-0.059082,0.027649l-5.067505,3.087402l-4.44104,2.762421l0,0.693085l-0.5,0.640656l-1.497986,-1.204407l-1.976685,-0.753326l-1.778198,-0.951385l-1.583862,0.069092l-2.950623,0.692017l-3.659668,1.341156l-1.650269,0.583954l-1.144043,-0.217194l-1.049988,0.189209l0.922424,0.444l-0.734558,0.836212l-0.553162,-0.256531l-0.673218,-0.006714l-1.196777,-0.151672l-0.505493,-0.675018l-0.062988,-0.448242l0.977112,-1.501678l-0.220459,-1.725616l-0.755859,-1.210449l-0.596436,-0.448242l-1.19519,-0.380585l-0.907471,-1.48114l-0.289368,-0.470917l-0.116882,-0.147797l-0.633484,-0.630371l-0.674744,-0.867065l-0.12677,-0.396545l-0.121277,-0.554565l-0.096008,-1.679962l-0.222046,-0.455353l-0.322449,-0.323517l-0.466492,-0.345856l-0.5578,-0.22641l-0.745667,-0.137848l-1.539307,0.043915l-1.709412,0.027649l-1.547485,-0.768585l-1.492859,-0.688873l-0.76416,0.175049l-1.484924,0.821045l-1.879883,1.119049l-1.945496,0.87384l-0.829529,0.230316l-1.179077,-0.058807l-2.179871,-0.665131l-1.735291,0.159485l-1.289734,0.824921l-1.027893,0.953186l-0.894775,1.137848l-1.223999,1.480438l-0.591309,0.170807l-1.550293,0.09494l-2.39325,-0.426971l-1.412109,-0.049957l-0.54248,-0.121552l-0.733826,-0.266113l-0.174011,-0.681396l-1.234192,-1.50882l-1.154663,-0.526215l-0.833008,-1.045685l-1.270081,-0.466339l-0.633362,-0.783142l-1.140137,-0.466309l-0.40155,-0.783844l-0.729126,-0.407501l0.857849,-1.040039l0.607422,-0.788452l0.539368,-0.85791l0.095642,-0.879517l-0.351929,-0.495758l-0.24292,-2.306549l-0.945557,-1.941223l0.020752,-2.138245l-0.864075,-0.402222l-0.507019,-0.498962l0.2677,-1.90155l-1.738525,-1.934906l-1.210144,-1.24527l-2.860901,-0.017029l-3.558105,-0.684631l-0.404358,-1.539459l-0.485779,-0.354004l0.179504,-0.120514l-0.249573,-0.194183l-0.372009,0.158752l0.172852,-0.258331l0.084229,-0.489746l-0.205872,-0.271118l-0.983826,-0.007446l-0.687378,-0.465668l-0.184692,-0.517029l0.042175,-0.39798l-0.660583,-0.800568l-1.812561,-0.349426l-2.006592,-1.01709l-0.469238,-0.539734l-0.284607,-1.018158l-1.238953,-1.438843l-1.354248,-0.911835l-0.031921,-1.42395l0.646851,-1.110352l0.619629,-0.530884l-0.172852,-0.540802l-0.136169,-0.679382l-1.347534,-1.900299l-1.032288,-0.704193l-0.682617,-0.730072l-0.786194,-0.053864l-0.988159,0.011353l-2.299438,0.374573l-0.912964,-0.138214l-0.797607,0.11554l-2.805786,-0.84668l-1.136108,-0.087524l-1.657471,0.326752l-1.232605,0.242767l-1.15625,0.352295l-2.767151,-0.046783l-1.116882,0.455048l-0.823975,-0.072296l-0.834167,-0.148499l-2.645203,-0.402252l-0.535767,0.290253l-0.139771,0.272186l-1.763306,1.584534l-1.136963,0.522736l-0.610962,0.281036l-1.860535,-0.012756l-0.642517,-0.228943l-0.107422,-0.316833l-0.33905,-0.453278l-0.826721,-0.078308l-1.636902,-0.235687l-1.904236,-0.580505l-1.125916,-0.009216l-1.212585,0.532318l-0.253906,0.644287l-0.559448,0.677979l-0.474365,0.22644l-1.68573,-0.249481l-1.331848,-0.299805l-1.591614,0.322113l-2.118042,-0.01947l-1.05304,0.392303l-1.860596,-0.135712l-0.754272,-0.912933l-1.330261,-0.942352l-2.451843,-0.870087l-1.513306,-0.426697l-1.881775,-1.252808l-1.414917,0l-1.634583,-1.883667l-0.502686,-1.704376l-1.886169,-1.972992l-1.065674,-1.124207l-2.113281,0.131836l-3.98291,-0.00708l-1.590881,-0.938507l-2.154175,-0.210846l-1.16449,-0.721619l-0.335022,-0.860168l-0.414551,-0.043579l-3.542786,-0.371063l-2.436462,-1.899353l-2.412109,-0.320404l-2.679016,-0.900238l-4.048584,-1.943298l0.391663,-1.165344l-0.744019,-0.927887l-1.923157,-1.238373l-4.175354,-0.06311l-0.76062,-0.782227l0.572021,-0.87616l1.247559,-1.767914l1.920776,-5.531342l1.094482,-0.215881l2.038513,-2.507324l2.958435,0.002472l1.107849,-0.825134l1.394043,-0.135406l1.224731,-0.67807l1.161743,0.04538l0.823975,-0.698273l7.263428,-2.139435l1.356262,0.31723l4.348938,-3.600189l1.518494,0.32077l1.462524,-0.951721l4.047852,-0.320404l1.930969,-1.290253l1.679443,-0.686951l0.509033,-1.857361l-0.426392,-1.849243l0.241333,-3.676514l-1.764465,-1.493408l0.344482,-1.387054l-0.950745,-2.996735l1.990479,-2.075104l0.505859,-2.048218l-1.781433,-0.897888l-2.223145,-1.294952l-0.069214,-1.76355l0.509766,-2.501648l-1.307373,-2.542084l2.269958,-5.331299l-0.270081,-0.832031l0.552368,-0.690918l1.306213,-2.079529l-6.071777,-5.297119l-2.766357,-4.843414l-3.269531,-5.740479l-1.257446,-4.843597l2.263672,-3.22879l-1.257813,-3.408569l-2.514832,-3.767059l-4.778076,-5.561157l-2.514893,-3.587769l-4.52655,-3.049622l0.502747,-2.870239l1.005859,-3.049652l-0.525513,-0.749908l-1.486145,-2.120026l-3.269165,-1.435333l-2.151855,-0.666962l-7.614197,1.322937l-5.490295,0.452087l-1.516449,-3.47702z" stroke="null" id="2419952"/>
    </g>
    <g stroke="null" id="1120000000" class="boundary Seongdong-gu_2419953_AL6">
     <path d="m640.245117,569.214355l1.760193,-2.331909l2.514832,-1.076416l-0.854736,-1.558411l0.38031,-2.318848l1.753479,-1.86731l1.349121,-0.839783l1.863342,-0.258545l0.563721,-0.01239l0.608643,-0.050293l0.51532,-0.119751l0.346069,-0.051025l1.763733,-0.419312l0.370056,-0.088196l0.977905,-0.760864l0.355835,-1.839294l2.222717,-1.458984l2.118835,-1.467102l0.52948,-0.595764l0.729492,-0.566345l0.301575,-0.382935l0.543274,-0.273438l0.369263,-0.185913l1.422791,-1.395264l2.400635,-1.744446l3.156128,-2.600281l2.756592,-2.219849l0.844482,-1.363342l0.933777,-0.824646l0.795593,-0.955688l0.768066,-1.887268l0.027588,-2.182739l0.67041,-0.665955l0.25824,-1.576294l0.2323,-1.177795l0.577942,-1.477844l1.077515,-0.749207l0.296082,-0.866821l0.563721,-0.56781l2.908142,-1.233459l0.745605,-0.577087l0.942871,-0.134583l1.048401,-0.743225l6.05835,-1.636597l4.084412,1.482849l2.57782,-0.807312l1.353882,-0.720825l-0.261353,-4.009705l-1.631836,-0.24408l0.567322,-0.321655l1.414856,-1.390381l0.456238,-0.731934l0.592957,-0.902954l0.510925,-2.371399l0.481873,-0.550842l1.657471,-1.647644l1.249512,-0.864014l1.145996,-1.146759l1.116089,-0.458771l1.257385,-0.502319l1.182251,-0.465149l1.472351,-0.872559l0.855896,-0.556549l0.963745,-0.910095l0.574402,-1.136841l0.362183,-0.136017l0.506653,-1.018188l0.141724,-0.663177l0.415344,-0.453827l-0.281921,-0.550903l0.014587,-0.408112l0.404297,-0.2005l-0.149597,-0.430084l0.000732,-0.3302l-0.378296,-0.262146l0.320862,-1.011444l-0.293274,-0.076508l0.421204,-0.825134l-4.035217,-0.197662l-8.464478,-0.32312l-0.661865,-23.710205l3.219971,1.72937l1.636902,1.333221l2.42865,0.73056l1.077087,0.015259l0.907837,-0.248718l1.735352,-1.208893l4.441956,1.246429l1.541626,1.672333l10.322693,2.214691l4.140747,0.004608l3.221863,-0.981049l1.626343,-0.600189l3.753784,-2.310394l2.551758,-1.739624l2.982239,-1.208527l3.395447,-1.126709l4.080139,-0.78125l5.014282,-0.052063l0.171997,-2.579041l2.888062,0.01416l11.812866,0.137482l2.562073,1.018646l23.167358,9.591034l13.704041,8.996155l3.47937,2.319519l11.300232,7.788788l2.59436,1.707581l1.123962,0.770538l4.49585,2.980438l1.025146,0.686218l0.236145,0.110535l0.140991,0.086792l3.835266,1.775909l0.972351,0.048553l7.012268,0.970306l24.394043,3.376068l13.263611,1.911926l5.733093,2.067383l5.709595,2.058533l-24.708618,39.375916l-13.409607,21.288696l-4.535156,7.200134l-6.575256,10.438904l-15.467407,25.239929l-6.137085,-2.887451l-14.212708,-5.723206l-10.867126,-3.328735l-12.398621,-3.797668l-21.894226,-5.955139l-30.489075,-8.012451l-13.983521,-3.270203l-13.066284,-1.962402l-8.023621,0.817749l-11.003418,5.06897l-3.525024,2.947937l-10.629395,8.889526l-1.441284,-8.733704l-4.229736,-2.217712l-0.988525,-0.518066l-0.188599,-0.493347l-0.628662,-0.358765l-0.817322,0.044983l-1.383362,0.134583l-0.942871,-1.749146l-2.137695,-0.044617l-1.629822,-0.663696l-2.310486,-1.300781l-1.791687,-0.044617l-1.615295,0.070129l-1.198364,0.411865l0.172852,0.683838l-2.523438,0.574097l-3.159302,-1.008972l-1.917236,-0.807495l-2.40509,-0.100891l-1.17865,-1.928406l-0.377502,-2.19751l0,-1.793823l-1.257507,-1.076294l-0.94281,-1.569641l1.13147,-2.735596l0.016907,-0.31665l0.116882,-2.190918l0.041382,-0.769226l0.064148,-1.201355l0.12561,-1.34552l-2.200256,-0.403748l-0.4599,-1.579651l-0.069275,-0.238342l-0.162598,-0.558899z" stroke="null" id="2419953"/>
    </g>
    <g stroke="null" id="1117000000" class="boundary Yongsan-gu_2419955_AL6">
     <path d="m389.681427,612.809937l1.088531,-4.455933l0.667694,-2.900696l1.344818,-0.990845l2.169952,-1.448059l-0.113403,0.268433l1.525513,-0.666809l2.691223,1.192322l1.243652,0.394165l0.726746,-2.009338l1.80188,0.897339l3.169525,-0.21991l3.800995,-1.227051l2.5849,-0.379272l2.016418,-0.233032l3.418365,-1.623352l2.452637,-1.392883l2.395538,-1.339722l-0.0177,-1.12793l-0.042114,-2.641235l2.418365,0.863098l1.830231,-2.36145l2.378998,-0.874451l3.387268,-0.873291l2.889221,-2.875061l0.608643,-0.605591l-0.199219,-0.833313l1.56604,-1.323181l0.64447,-1.038391l0.144501,-0.872314l0.549957,-0.884338l1.977448,-0.919739l0.962555,-1.128052l1.111389,-0.816345l0.642487,-0.704773l-3.933685,-1.482544l0.946442,-1.388367l-0.200409,-0.261353l0.300354,-0.26178l0.438202,-1.715271l1.606598,-3.605835l4.176971,-2.183899l4.053345,-1.569397l-0.322449,-1.30835l1.325928,-0.19696l0.155518,-1.847412l0.414917,-0.57843l1.644012,-0.576599l0.38385,-0.252869l3.426208,-0.549744l-0.006287,-0.329773l-0.911774,-0.852173l-0.172821,-0.571655l0.918091,-0.253235l0.015717,-1.121033l6.004456,-0.011353l0.25116,-3.16156l0.122833,-1.587158l-0.689331,-1.11792l-0.722015,-0.523865l-0.352783,-0.711243l-0.904633,-1.037842l-1.987305,-1.338867l-0.057098,-0.904663l4.048615,-2.551392l4.424194,-3.603088l2.634155,-1.539795l0.520416,-0.252197l1.40033,-1.143799l3.60257,-0.899719l1.522736,-0.45166l5.38678,-2.514282l1.400299,-0.650696l1.766479,-0.710571l-0.030334,2.681824l12.680084,-0.00708l0.005493,0.808716l2.092468,1.072937l1.472748,0.755554l4.061218,2.083191l1.263733,0.133545l2.305786,0.257507l1.885315,0.122925l0.692505,0.285156l1.421204,0.571716l0.553894,0.224548l0.023621,-0.548706l0.314941,-3.76709l0.049561,-1.066956l0.237793,-2.080017l2.648743,0.637634l2.345947,1.570984l3.776978,1.821716l-0.38739,1.153381l0.088989,1.897583l0.803833,-0.225342l5.471008,-0.414429l1.323181,-0.918823l0.799927,-0.796265l0.384277,0.050293l0.917236,0.120789l2.006226,-0.195923l1.27002,0.263184l0.630676,0.588013l0.976746,0.492737l3.36322,0.46405l0.569641,0.445923l1.172791,0.487793l1.305847,0.164673l2.243591,-0.353821l0.800354,-0.603271l0.682251,-0.464355l0.66925,-0.332642l0.89917,-0.600769l0.723145,0.244446l2.013306,1.027954l0.610596,0.929443l0.566528,0.746704l0.629089,0.998901l1.897522,1.097717l0.443726,0.685364l0.791687,0.835938l0.12677,0.610352l0.50708,0.647461l0.732239,0.107361l1.212463,-0.209351l0.166992,0.200134l2.414856,-0.345398l1.861633,0.533447l0.823608,0.459412l0.35907,-0.210754l1.531067,0.323792l1.540833,-0.081116l1.985352,0.656677l0.879822,1.201477l2.821167,1.702332l2.43927,0.783447l1.320374,0.803711l2.312134,2.029602l0.710938,1.51947l2.400696,1.522339l2.093994,3.66095l3.458862,0.652771l3.485291,-0.898254l0.697998,-1.259155l1.822754,-2.536682l1.977844,-2.077759l2.044739,-1.115356l5.046631,-1.05658l4.801331,-0.507202l2.845154,0.190186l2.578613,-0.570618l1.778259,1.205017l2.489624,0.380371l1.956177,-1.521973l1.866882,-0.126831l1.253052,-0.337219l1.383423,-0.538025l0.440125,1.704102l0.12561,3.677612l2.766357,1.704041l2.514832,0.17926l-1.493164,1.986633l-3.159302,4.202454l9.430664,9.148865l7.041748,-0.448425l-0.064209,1.201355l-0.041321,0.769287l-0.116943,2.190857l-0.016907,0.31665l-1.131409,2.735596l0.94281,1.569641l1.257446,1.076294l0,1.793823l0.377563,2.197571l1.17865,1.928345l2.405029,0.100952l1.917175,0.807434l3.159302,1.008972l2.523499,-0.574036l-0.172791,-0.683899l1.198303,-0.411865l1.615356,-0.070129l1.791626,0.044617l2.310547,1.300781l1.629822,0.663696l2.137695,0.044617l0.942871,1.749146l1.383362,-0.134583l0.817261,-0.044983l0.628723,0.358765l0.188538,0.493347l0.988586,0.518127l4.229736,2.217651l1.441223,8.733704l-21.088379,18.862854l-14.907471,13.334595l-4.902954,3.954773l-5.535889,4.050354l-5.991089,6.874329l-5.542236,4.129089l-6.178833,4.603516l-14.846497,10.404419l-16.670044,10.033081l-10.847473,7.125427l-9.123596,6.296875l-10.819946,11.098694l-8.830261,0.121094l-9.255432,0.054504l-20.642731,-0.598938l-9.036163,-1.728577l-12.099426,-5.979858l-10.145538,-5.739563l-9.79599,-7.985657l-13.390686,-5.470459l-15.50354,-6.33374l-9.588501,-3.91748l-25.53894,-8.98407l4.195068,-24.38269l-0.24762,-5.117371l-1.837708,-3.295288l-0.739319,-1.326111l-2.798676,-3.368958l-5.772552,-3.618286l-9.369232,-5.52887z" stroke="null" id="2419955"/>
    </g>
   </g>
   <text xml:space="preserve" y="173.5" x="115.5" transform="matrix(3.92272, 0, 0, 1, -337.574, 0)" text-anchor="start" stroke-width="0" stroke-opacity="null" stroke="null" fill-opacity="null" fill="#000000" font-size="24px" font-family="Helvetica,Arial,sans-serif" id="svg_1"/>
  <text xml:space="preserve" y="306.5" x="273.1" transform="matrix(0.833333, 0, 0, 0.8125, 46.9167, 68.5938)" text-anchor="start" stroke-width="0" stroke-opacity="null" stroke="null" fill-opacity="null" fill="#000000" font-weight="bold" font-size="24px" font-family="Oswald,sans-serif" id="svg_3"></text>
  <text xml:space="preserve" y="584.6539" x="166.3" transform="matrix(0.833333, 0, 0, 0.8125, 42.9167, 49.5938)" text-anchor="start" stroke-width="0" stroke-opacity="null" stroke="null" fill-opacity="null" fill="#000000" font-weight="bold" font-size="24px" font-family="Oswald,sans-serif" id="svg_4"></text>
  <text xml:space="preserve" y="509.577" x="306.7" transform="matrix(0.833333, 0, 0, 0.8125, 63.9167, 49.5938)" text-anchor="start" stroke-width="0" stroke-opacity="null" stroke="null" fill-opacity="null" fill="#000000" font-weight="bold" font-size="24px" font-family="Oswald,sans-serif" id="svg_5"></text>
  <text xml:space="preserve" y="708.9616" x="478.3" transform="matrix(0.833333, 0, 0, 0.8125, 89.9167, 44.5938)" text-anchor="start" stroke-width="0" stroke-opacity="null" stroke="null" fill-opacity="null" fill="#000000" font-weight="bold" font-size="24px" font-family="Oswald,sans-serif" id="svg_6"></text>
  <text xml:space="preserve" y="579.7308" x="563.5" transform="matrix(0.833333, 0, 0, 0.8125, 97.9167, 56.5938)" text-anchor="start" stroke-width="0" stroke-opacity="null" stroke="null" fill-opacity="null" fill="#000000" font-weight="bold" font-size="24px" font-family="Oswald,sans-serif" id="svg_7"></text>
  <text xml:space="preserve" y="472.6539" x="466.3" transform="matrix(0.833333, 0, 0, 0.8125, 78.9167, 38.5938)" text-anchor="start" stroke-width="0" stroke-opacity="null" stroke="null" fill-opacity="null" fill="#000000" font-weight="bold" font-size="24px" font-family="Oswald,sans-serif" id="svg_8"></text>
  <text xml:space="preserve" y="392.6539" x="622.3" transform="matrix(0.833333, 0, 0, 0.8125, 123.917, 54.5938)" text-anchor="start" stroke-width="0" stroke-opacity="null" stroke="null" fill-opacity="null" fill="#000000" font-weight="bold" font-size="24px" font-family="Oswald,sans-serif" id="svg_9"></text>
  <text xml:space="preserve" y="483.7308" x="817.9" transform="matrix(0.833333, 0, 0, 0.8125, 88.9167, 56.5938)" text-anchor="start" stroke-width="0" stroke-opacity="null" stroke="null" fill-opacity="null" fill="#000000" font-weight="bold" font-size="24px" font-family="Oswald,sans-serif" id="svg_10"></text>
  <text xml:space="preserve" y="619.1154" x="744.7" transform="matrix(0.833333, 0, 0, 0.8125, 119.917, 45.5938)" text-anchor="start" stroke-width="0" stroke-opacity="null" stroke="null" fill-opacity="null" fill="#000000" font-weight="bold" font-size="24px" font-family="Oswald,sans-serif" id="svg_11"></text>
  <text xml:space="preserve" y="641.2693" x="954.7" transform="matrix(0.833333, 0, 0, 0.8125, 115.917, 53.5938)" text-anchor="start" stroke-width="0" stroke-opacity="null" stroke="null" fill-opacity="null" fill="#000000" font-weight="bold" font-size="24px" font-family="Oswald,sans-serif" id="svg_12"></text>
  <text xml:space="preserve" y="419.7308" x="978.7" transform="matrix(0.833333, 0, 0, 0.8125, 112.917, 46.5938)" text-anchor="start" stroke-width="0" stroke-opacity="null" stroke="null" fill-opacity="null" fill="#000000" font-weight="bold" font-size="24px" font-family="Oswald,sans-serif" id="svg_13"></text>
  <text xml:space="preserve" y="183.4231" x="898.3" transform="matrix(0.833333, 0, 0, 0.8125, 122.917, 50.5938)" text-anchor="start" stroke-width="0" stroke-opacity="null" stroke="null" fill-opacity="null" fill="#000000" font-weight="bold" font-size="24px" font-family="Oswald,sans-serif" id="svg_14"></text>
  <text xml:space="preserve" y="100.9615" x="725.5" transform="matrix(0.833333, 0, 0, 0.8125, 103.917, 74.5938)" text-anchor="start" stroke-width="0" stroke-opacity="null" stroke="null" fill-opacity="null" fill="#000000" font-weight="bold" font-size="24px" font-family="Oswald,sans-serif" id="svg_15"></text>
  <text xml:space="preserve" y="222.8077" x="592.3" transform="matrix(0.833333, 0, 0, 0.8125, 131.917, 64.5938)" text-anchor="start" stroke-width="0" stroke-opacity="null" stroke="null" fill-opacity="null" fill="#000000" font-weight="bold" font-size="24px" font-family="Oswald,sans-serif" id="svg_16"></text>
  </g>
  
 </g>
</svg>