<svg width="1096" height="705" xmlns="http://www.w3.org/2000/svg" preserveAspectRatio="xMidYMid meet">
 <style>
  <![CDATA[
.map {
         stroke:            black;
         stroke-width:      2;
         fill:              #E1DDD7;
}
.boundary {
         stroke-linejoin:   round;
         stroke-linecap:    round;
         stroke:            black;
         stroke-width:      1;
         fill:              #F1fffe;
}
#Map{
	transform:scaleX(.75);
}
]]>

 </style>

 <g>
  <title>background</title>
  <rect height="707" width="1098" y="-1" x="-1" fill="none" id="canvas_background"/>
 </g>
 <g>
  <title>Layer 1</title>
  <g stroke="null" id="Map">   
	  <g stroke="null" id="1159000000" class="boundary Dongjak-gu_2414774_AL6">
	   <path d="m392.611847,429.672791l6.430237,-8.770081l6.22876,-8.495117l2.477753,-3.270844l0.631134,-1.139832l0.921417,-1.664307l0.823975,-1.500946l0.855469,-0.821472l1.108978,-0.396545l0.18576,-0.023865l0.182129,-0.023407l2.654083,-0.341522l0.938934,-0.120911l8.587097,-1.897766l1.489258,-0.623077l0.918945,-1.047882l0.035278,-0.536743l0.059723,-0.907654l0.031677,-2.520935l1.17453,-3.29776l3.383057,-9.498138l1.616089,-4.13504l2.946747,-8.355194l0.835876,-2.605682l1.075531,-1.401947l1.07547,-1.60199l2.867889,-4.766479l1.92691,0.280273l6.004852,0.040009l1.136414,-0.16391l3.031067,-0.43689l4.929352,-1.041473l5.70993,-1.463867l5.851532,-1.5l6.453033,-2.042847l7.635437,-2.753693l13.085205,5.768036l4.912811,2.515167l7.94342,4.066437l6.860931,3.512177l5.019043,5.127014l5.198242,3.684967l6.19928,3.839203l4.629822,1.109802l10.576538,0.384552l-0.516602,6.451111l0.736877,1.905365l1.532166,1.725403l5.031006,3.262756l2.155396,1.864197l-4.705811,6.443939l-0.327759,13.755127l-0.06073,2.552429l-0.607544,3.649414l-0.323914,6.352753l-1.018433,20.024292l-0.204346,-0.015686l-1.953735,-0.138092l-0.533142,-0.041809l-0.858093,-0.038177l-1.296326,-0.02771l-1.247131,0.011566l-1.670166,0.035889l-0.311646,0.029541l-1.192261,0.068176l-0.583191,0.034271l-0.422302,0.037048l-1.045471,0.138153l-1.259949,0.187622l-1.060913,0.151093l-0.490173,0.090424l-0.770569,0.159241l-0.960083,0.212646l-0.940552,0.233093l-5.168335,1.405121l-0.1297,-0.288269l-0.77356,-1.89859l-0.952271,-0.178802l-2.197571,-0.412323l-1.566101,-2.463165l-0.335022,-0.526855l-1.355713,-0.296021l-1.330872,-1.557831l-1.483704,-0.807434l-1.703064,-0.681122l-0.985779,-0.600708l-0.295288,-0.757019l-0.242432,-0.604797l-0.358459,-1.241852l-0.313782,-0.360352l-1.075317,-0.600922l-0.448242,-0.320374l-0.806641,-1.361816l-1.07547,-0.680939l-0.53775,-0.680908l-0.134338,-0.640961l-0.845367,-0.755676l-0.185394,-0.165619l-0.58252,-0.520782l0,-0.440552l1.1203,-0.921082l0.224091,-0.560974l-0.179321,-0.40033l0.26889,-0.801147l0.492981,-1.001312l0.037292,-0.225403l-0.180542,-0.680969l-0.39978,0.051117l-0.114136,-0.957245l0.39978,-0.038391l-0.228546,-2.373718l0.03772,-2.94519l-0.179321,-0.720978l-0.672089,-0.7612l-1.248779,-1.16748l-0.719879,-0.942993l0.855438,-1.047974l0,-0.962982l0.633789,-0.821442l0.285187,-0.453094l0,-1.331329l-0.126678,-1.671082l-0.411896,-0.339722l0.063324,-1.019592l-1.679413,-0.679901l-0.918945,-0.25473l-1.489227,0.028168l-0.136139,0.156799l-0.593842,1.88266l0.045013,0.820984l-2.529419,1.060486l-0.250732,0.401764l-2.226074,1.085236l-0.338257,0.164978l-1.916809,0.20224l-1.26532,0.485352l-1.172333,0.113159l-2.306732,-1.366333l-0.977661,-0.651245l-0.958527,-0.843933l-1.259644,-0.457642l-1.547119,-0.377655l-1.096893,-0.50354l-0.561157,-0.698059l-1.344391,-1.321838l-1.165039,0.240387l-0.761841,-0.0802l-1.053131,-0.320435l-0.761871,-0.50058l-1.321777,0.941223l-1.837341,0.68103l-1.052307,0.297455l-0.799805,0.614868l-0.628113,0.598999l-1.414978,0.31723l-0.175262,0.039307l-0.888123,0.058624l-0.896179,0.200409l-0.985962,0.560608l-1.243103,-0.246796l-0.818146,-0.233795l-0.26889,-0.921204l-0.80661,-0.240417l-1.344391,0.100189l-0.806641,0.861206l-0.985931,0.320404l-1.1203,0l-0.89621,0.360413l-0.80661,0.240387l-0.672089,0.480621l-1.203186,-0.197479l-0.998047,-0.722137l-1.410156,-0.835541l-1.641296,-0.854187l-2.277649,-0.048615l-2.375092,0.222687l-2.142578,-0.764191l-2.950592,-1.791534l-0.307983,-0.187012l-1.490601,-0.957336l-1.529602,-0.982361l-1.324188,-0.07547l-0.294495,-0.013641l-0.59201,1.251434l-0.940582,0.787811l-0.065338,0.768768l-0.047821,0.534668l-2.444275,2.086243l-2.223206,6.166351l-6.959564,0.077026l-4.930939,0.26947l-0.556274,0.030457l-2.903412,0.609863l-3.385651,2.395172l-2.875977,2.034485l-0.430603,0.304718l-3.046204,1.677521l-11.034241,3.90921l-2.386597,0.170868l-4.006927,-0.224945z" stroke="null" id="2414774"/>
	  </g>
	  <g stroke="null" id="1174000000" class="boundary Gangdong-gu_2419944_AL6">
	   <path d="m813.091064,297.698456l1.804077,-3.570465l3.607727,-8.752991l1.764954,-5.108246l0.940979,-2.72348l1.9729,-10.713135l1.224792,-4.402405l3.591431,-5.437805l7.681641,-6.013428l13.157532,-5.570801l8.049194,-2.355789l11.514282,-3.370087l13.182373,0.26796l2.052795,0.041611l5.193787,-3.40448l7.168335,-1.411697l3.046143,-0.600052l3.981934,-4.642319l5.886414,-1.23793l7.774048,-5.863159l8.84613,-6.671432l7.977112,-4.664658l3.511108,0.720947l2.462463,0.760101l3.059082,-0.14357l-0.73584,4.332916l0.51947,7.118408l1.619629,2.832413l2.362244,4.131256l1.289856,4.06221l0.246521,1.253113l1.182434,2.358643l0.573853,2.771622l0.006287,1.85611l0.348511,3.314484l0.359009,0.904144l0.614014,0.727386l0.702209,1.140686l1.96759,3.938736l0.93335,2.277863l0.290649,2.98172l0.00238,2.005798l-0.059692,0.481232l-0.275146,1.17334l-0.083862,0.292297l-0.092224,0.450287l-0.100037,0.52243l-0.03064,0.46463l0.002441,0.45578l0.024597,0.271545l0.062378,0.362061l0.151184,1.361877l0.047424,1.377289l-0.269653,1.586731l-0.053528,0.60202l0.085144,1.520081l0.119629,1.513702l0.092773,0.747772l-0.241028,0.083221l-0.025208,0.411865l-0.075073,0.589905l0.315552,0.785522l0.333984,0.278809l0.821594,0.685211l1.486511,0.920776l0.322388,0.821198l0.214417,0.885986l-0.003662,0.534668l0.027039,1.449951l0.017212,4.209961l-0.095215,3.824219l-1.335144,0.814301l-1.447815,-2.054321l-7.076599,0.742676l-4.633362,0.804749l-0.748779,0.965332l-1.307068,-0.042542l1.198914,1.744812l-0.560486,0.24173l-2.875366,-0.425232l-1.461548,-0.230591l-2.207275,0l-2.415344,0.926636l-1.731201,0.425476l-1.177185,0.234192l-1.428223,-0.812469l-1.419678,0.230133l-1.558167,-0.309509l-1.038757,1.354126l-1.384949,0.734924l-4.395447,-1.471893l-1.664063,-0.036835l-1.696655,2.632751l-1.341675,0.696259l-1.904541,3.443085l-1.472229,1.402496l-2.63092,1.922729l-1.428345,0.928375l-1.653137,2.013641l-0.770569,1.622986l-1.480103,1.626862l-0.467529,0.500916l0.727112,1.394684l0.73584,2.59198l0.086548,1.973053l-1.168701,1.857086l-0.337402,1.584229l1.462769,2.052338l-1.211914,1.237976l-2.337158,0.541534l-1.990906,0.270782l-0.597473,0.771851l0.294556,1.549377l-0.649292,1.160645l-0.259827,2.01178l-2.25061,2.553284l-1.982178,1.738922l-1.341797,1.431549l-1.783264,2.207001l0.043396,1.121857l-0.813782,1.197388l-0.26825,1.472168l-2.129578,4.174164l-4.164307,0.344177l-0.205322,0.6315l-0.029053,0.084778l-0.243042,0.743134l-0.501099,1.364136l-0.485474,1.322083l-0.181152,0.4935l-0.082642,0.225281l-0.45752,1.433014l0.15033,3.216003l0.30896,1.207031l0.419312,1.080627l-2.920044,-0.406891l-19.516724,-9.721558l-6.192993,-3.05069l-4.797607,-2.351227l-2.945923,-1.49173l-6.85199,-3.424072l-3.646118,-1.991943l-0.823181,-0.366913l-4.944458,-2.203156l3.001221,-5.836609l1.298401,-4.234894l0.523865,-1.693085l0.066711,-0.480652l3.882324,-12.179504l-1.751831,-0.616425l-1.025146,-0.567047l-2.300659,-1.404755l-2.596558,-1.873138l-2.574036,-1.099365l-13.581787,-4.475616z" stroke="null" id="2419944"/>
	  </g>
	  <g stroke="null" id="1168000000" class="boundary Gangnam-gu_2410520_AL6">
	   <path d="m604.865479,336.695618l7.638062,-8.561188l10.804932,-12.110474l5.446106,-5.707367l1.806091,-1.892639l5.637756,-3.254425l4.110962,-0.524994l6.694702,1.259888l7.164673,2.099579l15.621399,5.144257l11.217834,3.823334l6.3526,2.438202l5.567871,2.137146l7.282104,3.6745l3.144409,1.85379l11.419678,7.909698l2.483215,1.387207l2.215027,1.237366l2.818848,1.364929l0.426575,3.485168l3.652283,29.836548l0.97168,7.937134l0.939575,3.464355l2.231689,3.359497l3.288635,2.309692l2.764404,0.823822l0.759216,0.226135l9.043762,1.994659l2.520813,0.584076l3.821716,0.88562l2.888855,1.024017l3.923401,1.390594l7.282227,2.414795l6.45166,2.337921l2.239746,0.811523l7.986816,3.149628l7.51709,3.779236l2.442627,1.403656l4.134827,2.375946l4.345825,3.989258l4.697998,6.194122l4.933105,6.299072l1.616272,2.528412l1.08197,1.692444l1.023132,2.04303l4.382874,6.019379l2.377686,3.586243l0.902466,1.096863l2.357544,3.820587l4.345825,7.558899l3.40625,5.773956l1.879089,3.674591l0.587402,1.99469l-0.075256,1.762268l-3.419373,4.197571l-2.68335,3.772003l-4.759888,11.817017l-2.591492,-0.86673l-2.17926,-1.37323l-2.402161,-3.462677l-1.211853,-0.309326l-1.419617,-0.775696l-8.578613,-1.661743l-0.602356,-0.126526l-4.028687,-0.765228l-1.385071,0.387054l-1.698853,0.285034l0.558777,1.386932l-1.024048,2.119202l-0.952087,1.315338l-1.904541,0.232117l-1.557983,1.160645l-0.510742,2.050537l-2.423889,1.857025l-0.220886,0.250061l-4.193909,2.148376l-3.726563,0.158539l-0.058655,-2.729614l-0.939819,-2.414825l-0.234741,-2.519562l0.587097,-2.362l-3.64093,-0.157623l-2.466553,-0.524902l-1.057129,-1.207275l-1.761719,-2.834717l0.763489,-4.04184l-0.939758,-3.044495l-0.939575,-2.047119l-3.112549,-0.892487l-0.939575,-1.469696l-1.526917,-0.734894l-1.291931,-3.307007l-3.641052,-1.312317l-1.292114,-2.152191l-1.291931,-4.04184l-0.293701,-5.144226l-2.583923,-0.210144l-1.879272,0.525024l-5.109253,0.734924l-2.231445,0.15744l-1.312561,0.143585l-1.556335,-0.498657l-0.763489,-0.05249l-0.998291,1.627289l-2.290344,2.152039l-2.290405,1.049988l-0.582764,0.229462l-2.159302,1.930054l-1.86853,0.185608l-3.446777,2.041534l-2.987,0.44162l-3.180481,2.543365l-3.692688,0.231476l-3.058655,1.348877l-2.104858,-0.344147l-2.898315,0.427521l-3.454468,-0.522919l-4.344727,1.785492l-3.698975,-0.489105l-5.798279,1.902466l-3.679565,2.007172l0.401001,-1.374969l0.283386,-2.416779l-0.170166,-1.827271l-1.608276,-1.24939l-2.906799,0.222626l0.172852,-0.233307l4.125732,-3.491089l-11.887024,-12.9487l-2.324463,-5.582031l-4.904541,-13.259796l-15.10791,2.313232l-5.088074,-11.689148l-7.946899,-19.035858l-6.316467,-14.873688l-2.338013,-5.950928l-4.014404,-9.007263l-1.464966,-3.694397l-0.699768,-2.642975l-0.17688,-1.337006l-0.986755,-3.570007l-0.598267,-2.336914l-1.305847,-5.567322l-1.160645,-3.986237l-0.700867,-1.228912l-5.310608,-6.720703l-3.895813,4.727966l-9.680359,-7.350922z" stroke="null" id="2410520"/>
	  </g>
	  <g stroke="null" id="1150000000" class="boundary Gangseo-gu_2414775_AL6">
	   <path d="m112.81266,269.771454l0.379219,-0.241516l0.367897,-0.251526l0.605949,-0.154663l0.612366,-0.358887l1.460983,-0.821899l0.610161,-0.095978l0.74614,-0.416229l-1.265541,-1.02478l0.476036,-0.406189l1.741554,0.947479l0.664818,-0.151459l1.466835,-0.032288l0.627716,-0.183777l0.53714,-0.619507l1.821617,-0.376648l2.701469,0.134644l1.692123,0.456482l0.648712,0.066376l0.757401,-0.676819l0.894363,-0.561737l-2.737373,-2.601624l0.706993,0.058685l0.454468,-0.154877l0.324524,-0.560852l-0.075851,-0.299774l0.432877,-0.831726l0.868362,0.3125l0.906265,-1.782654l1.099701,0.840607l0.144623,-0.753754l-0.22731,-0.347961l0.59523,-0.589966l0.706177,0.018646l-0.349152,-0.647308l0.573456,-0.348206l-0.032471,-0.52243l-0.465134,-0.609314l0.692444,0.096893l0.151489,-0.154907l0.838089,-0.047058l0.124878,-1.016693l0.313843,-0.203094l0.34613,0.464203l0.400406,-0.203094l0.398773,0.550659l1.815781,2.036713l0.209763,0.82196l0.819336,0.56723l0.344925,0.419434l0.18779,-0.701447l-0.18335,-1.275269l-0.520004,-1.161987l-0.259598,-2.263275l-1.763336,-0.230865l0.010284,-0.533142l0.238235,-0.290222l0,-0.918671l0.486923,-1.237991l0.273117,-0.076187l-1.135239,-1.479813l-0.982712,-0.842484l-0.107925,-0.802902l-0.508698,-0.667358l-0.761841,0.046417l0.279968,-0.384857l-0.178513,-0.527252l-0.568008,-0.19812l-0.259796,-2.427658l-0.573471,-0.889816l0.03389,-0.881866l1.536407,-1.286316l0.052856,1.181686l-0.324554,0.918716l2.044922,0.551376l0.380219,2.203369l0.723526,-0.065964l0.800766,-1.238052l-0.140793,-0.096664l0.845581,-0.678741l2.53183,-0.522476l-0.03389,-2.232315l0.507889,-0.293884l1.266739,0.951706l0.804199,0.884155l0.48349,-0.719711l-0.227295,-0.764023l0.216415,-0.338699l1.439194,-1.24765l0.77594,-0.16037l0.248932,-0.483582l-0.700348,-0.661713l-0.238022,-0.028885l-0.757401,-0.986526l-0.834045,-0.849152l0.266251,-0.468124l0.730179,0.19516l0.641632,0.354172l2.411011,-0.079391l0.398163,-0.516342l-2.376099,-2.266998l0.87561,-0.53273l0.618835,-1.853271l0.201294,-2.173996l3.592407,-1.586227l1.400055,-0.824173l2.956238,-1.199295l2.74646,-0.989563l0.763672,-1.35878l0.713623,0.192215l0.627533,0.696579l1.082169,0.357834l-1.439194,-2.688904l1.71875,-2.056976l1.289307,0.074387l0.075836,0.705917l1.212494,-0.975494l0.475418,-2.748138l-0.371552,-0.122391l0.328354,-1.105865l-0.215805,-2.417648l0.161758,-0.164688l0,-0.2612l0.562592,0.116043l0.508484,-0.570587l0.046204,-0.929123l0.375778,0.116699l0.129898,0.599701l0.913727,1.807968l0.395538,0.368088l0.432877,1.595917l0.087753,2.295898l0.453232,2.172546l-0.138168,1.339706l1.120483,-0.114426l-0.085938,-2.069504l-0.095596,-0.809647l0.260208,-0.793961l-0.404831,-0.212708l-0.006851,-1.488739l-0.367935,-1.208923l-0.034088,-0.946381l0.786682,0.037292l0.415909,-1.750626l0.606323,-1.616852l0.291901,-1.294296l-0.032501,-1.663528l-0.400375,-0.183838l-0.032486,-1.557297l-0.454041,-1.721375l0.60553,0l0.638397,0.570618l0.973846,1.547302l-0.281387,2.156784l0.595062,0.077347l0.373337,-1.84874l0.095016,-1.456512l-0.035477,-2.642792l0.487091,0.106476l0.216049,-0.387009l0.454636,0.328751l0.231567,3.260513l0.118805,0.861801l-0.005859,0.602676l1.262085,-1.309769l0.604324,-0.540588l1.00209,-0.738953l-1.64917,-1.456085l0.341492,-0.352646l0.366913,0.253448l0.946609,-1.012894l0.232773,-0.012283l0.945816,-2.761169l0.893753,-1.626312l1.525726,-2.015167l2.564484,0.415909l0.638428,0.531937l0.627502,-0.174042l0.312637,-0.783585l-0.192825,-1.707581l0.475433,0.131271l0.230347,-0.988388l-0.607346,-0.889862l-0.799576,-1.369507l-0.825165,-0.021393l-1.397247,-1.790665l-1.142059,-0.514465l0.364075,-2.40506l1.222961,-0.0289l1.233444,0.657593l0.238205,-0.67691l-1.645111,-1.302429l-0.519226,-0.493332l-1.450043,-1.212311l-1.319992,-1.702271l-0.833267,-1.295853l-0.064911,-3.094864l-0.476044,-1.56694l-0.162384,-1.373276l0.681778,0.251434l0.184158,-2.950012l1.092651,-3.181976l0.768295,0.512466l1.385132,-2.553024l1.309082,-0.325638l0.627518,-0.206406l0.205734,-0.125854l0.108109,-0.232117l0.021606,-0.319031l-0.17308,-1.015625l-0.238007,-0.657242l-0.346344,-0.79306l-0.054047,-0.664505l0.064957,-0.476746l0.530075,-0.696381l0.129898,-0.522278l4.69252,-3.453918l1.81781,-1.160645l2.943314,-1.392548l3.289246,-0.232132l1.12532,1.469925l2.510483,3.559311l3.808823,5.957779l11.253296,11.992996l6.539139,4.43718l9.994431,6.782043l1.904343,2.321304l3.029846,2.088943l3.202713,3.095047l2.060242,1.179947l0.666641,3.562973l2.902573,2.361404l0.797974,0.559448l2.834793,2.704453l2.094925,1.20285l3.704987,1.891953l7.53096,3.172333l5.367035,2.862869l1.244934,0.832642l10.441223,6.981995l3.462494,3.017593l3.63559,2.708191l4.937805,4.323883l4.934174,5.493439l6.698517,4.935501l7.142883,5.292938l7.980164,4.792847l27.449005,14.898956l-2.414063,3.48642l-0.014923,3.902985l-2.412994,0.005219l0.021973,2.803589l3.024384,4.496124l0.286652,0.020691l1.460785,2.882141l0.880249,0.787476l-0.977692,-0.187836l-0.973846,0.299744l0.887299,0.957581l-4.612854,1.222504l-4.295349,0.397278l-3.055878,0.282623l-4.816406,-0.679901l-2.407349,-1.353485l-1.90213,-1.025574l-7.478119,-4.984741l-1.340332,-0.765686l-1.016205,-0.580597l-1.084991,-0.619934l-0.918976,1.699249l-1.932953,7.05249l-1.711121,6.259308l-0.126648,1.246338l0.697083,1.727692l2.281555,4.70163l0.443542,1.132813l0,1.444519l-0.161743,1.973206l-0.567047,6.920258l0.103912,1.374847l0.054443,0.721008l0.887329,12.348785l-11.154053,1.656891l-3.941162,0.585419l-9.180939,1.287445l-6.100067,0.855469l-16.970459,3.217316l-12.523834,-23.338409l1.811523,-0.272614l-0.089554,-1.205505l-0.048401,-0.653473l-2.582474,-4.800751l-0.697083,-2.237427l-0.330215,-1.201691l-0.41452,-1.27655l-0.629532,0.029572l-4.503708,0.210999l-0.633774,0.58075l-0.342087,-0.604401l-0.084534,-1.784271l0.54483,-0.005676l-1.074707,-2.57312l-0.109741,-0.993713l1.376053,-3.216675l-0.099625,-0.588745l-0.434692,-0.804291l-0.310623,-0.377716l-0.273529,-0.888672l-0.32312,-1.444427l-0.007675,-0.71814l-1.602554,0.392059l-1.148132,-0.058685l-0.984116,0.131897l-0.506516,-0.465942l-0.234573,0.49231l-0.244873,0.51416l0.04277,0.987823l-0.77861,0.646729l-0.028625,1.237488l-0.528488,0.513245l-0.335449,0.865479l-0.875,0.650787l-0.688629,1.42392l-0.259598,1.440979l0.973846,1.334747l-0.22229,0.92276l-1.460144,1.89798l0.123642,1.061218l-1.929138,0.21463l-1.255447,0.486816l-3.458069,1.171478l-2.467056,-0.077301l-1.168518,-0.038666l-1.471664,0.077301l-1.904327,0.077545l-2.034225,0.096649l-1.688095,0.193481l-5.085648,-0.11618l-2.986496,-0.154633l-0.843323,-0.180756l-3.209976,-1.960724l0.064941,-0.345154l-1.375244,-0.469086l-1.3591,-0.826111l-1.017426,-0.92453l-0.953461,-0.65033l-2.454575,-1.134674l-4.035172,0.529114l-2.178436,0.261536l-2.172821,0.532288l-1.748779,0.50412l-1.111237,0.483887l-3.910294,2.622864l1.720352,-0.222382l0.075867,0.338562l0.421951,0.24173l-0.021759,0.831757l-0.151505,0.222382l-2.661743,0.377197l-0.054031,0.86087l-1.057785,-0.076172l-0.170822,1.907257l0.817307,0.19986l0.476227,0.696442l0,0.309479l-0.486923,0.057953l0.543625,2.67392l-0.629944,0.289429l-1.829483,-0.186432l0.165192,1.081116l-0.148453,-0.032715l-0.159149,-0.231476l-0.745926,0.619568l-1.551529,-0.005432l-0.491974,0.183472l-0.367706,0.522278l-0.916763,-0.024567l-2.007187,1.253235l-1.252808,0.918365l-0.3302,-0.135773l-0.196259,-1.387604l-0.690262,-1.942169l0.197678,-1.789185l0.369751,-0.306702l-0.002838,-0.801056l-0.624908,-1.094818l0.069824,-1.065918l-1.370605,-0.30014l1.593674,-1.073914l0.421371,0.002747l0.270493,-0.212616l-0.054657,-0.445435l1.024857,-1.057068l0.501678,-1.083496l-1.841614,-0.333557l-1.975906,-0.226013l-2.751114,-0.509338l-0.345917,-0.977966l-0.336273,-0.298798l0.042374,-0.900452l0.004227,-0.736298l0.333023,-0.279205l0.111954,-0.510712l-0.015945,-0.587585l-0.581512,-0.105499l-1.145096,0.138489l-1.394409,-0.738129l-1.562225,-0.855194l-2.134064,-1.380066l-0.682373,-0.96048l-0.589417,-0.683105l-1.10495,-0.75882l-0.653717,-0.060059l-1.47934,0.138275l-3.073013,-0.231934l-2.597595,0.346771l-1.352432,-0.280365l-1.297806,-0.453461l-0.447998,0.626709l-3.782822,-0.858643l-1.50473,-0.136871l-1.114441,-0.609222l-0.703339,0.058014l-1.44989,0.048401l-0.400375,-1.131531l-0.898224,-1.17041l-0.313644,-1.034912l-2.488281,-1.71051l-0.735825,-0.270874l-1.211868,0.154877l-1.947693,0.231934l-2.121338,0.298615l-1.08197,0.822052l-1.038803,0.096893l-0.3078,-0.634705l-0.525436,-0.13916l-0.183754,-0.918732l-1.455536,-1.695099l0.102867,-0.490723l-0.849388,-0.541687l-0.194847,-0.561005l0.129898,-0.41095l0.746719,-0.826874l-0.367912,-0.275848l-0.43248,0.306091l-1.070251,-0.626282l0.036514,-0.48233l-0.957695,-0.043671l-0.177917,0.252655l-2.713989,-0.84848l0.410294,-1.395416l0.274902,-1.036102l-0.797333,-0.620392l0.412682,-0.56424l-0.054245,-0.304718l-0.443558,0.014526l-0.146034,-0.261078l0.632156,-0.746613l0.000793,-0.35614l-0.454437,-0.159424l-0.789879,0.38208l-0.519417,0.004761l-0.595245,0.647919l-0.384041,-0.974274l0.225716,-0.590149l0.094589,-0.69635l-0.520393,-0.505341l-2.07032,0.022736l-1.036591,-0.419128l-0.182549,-0.512634z" stroke="null" id="2414775"/>
	  </g>
	  <g stroke="null" id="1154500000" class="boundary Geumcheon-gu_2414776_AL6">
	   <path d="m330.732544,429.383575l2.183258,-0.119995l2.229065,-0.122467l0.808655,-0.106781l2.875549,-0.904297l1.964233,-0.617767l1.92691,-0.801178l1.38916,-0.039978l2.083649,0.720947l1.383728,0.528503l1.080933,0.412842l3.181732,2.142822l5.37735,4.165588l1.971863,2.002808l1.658051,2.32309l1.74762,1.84259l3.36084,1.682343l10.351654,1.922516l1.478729,0l2.098724,-0.15564l4.206604,-0.81311l5.490143,-1.220734l4.570465,-0.947845l11.750305,-2.442352l0.057678,0.213348l0.339874,1.288666l-1.960388,0.409393l0.270874,1.276825l-0.476654,-0.002716l-0.296906,0.385773l0.057098,0.337158l-0.220276,0.267395l0.24411,0.364197l0.981476,1.35498l0.634583,0.503662l0.793304,-0.190613l0.65799,-0.287842l0.172058,-0.058838l0.196869,0.747681l2.503174,0.660889l0.158752,0.971893l0.067169,0.411011l0.000183,0.711975l-0.629944,2.120087l0.270538,1.114563l-0.517395,1.293335l0,1.041382l-0.492981,1.361938l-1.16507,0.560669l-1.030731,0.240356l-0.58252,0.400513l-1.1203,0.08017l-0.985931,0.600891l-0.896179,0.52066l0.134521,0.761047l0.388702,0.315979l0.104065,0.084534l0.211182,0.323456l0.47525,0.728088l0.25473,0.390533l0.288666,0.601746l0.249084,0.519775l0.761871,1.001343l-0.044983,0.921173l0.492981,0.68103l0.58255,1.522003l-0.224121,0.881165l0.039337,0.211029l0.050446,0.269623l1.433929,1.001343l0.53775,0.480652l0.044769,0.921356l0.85141,1.061279l0.26889,0.901367l1.456329,1.241608l0.044952,0.821167l1.1203,0.400452l1.725189,0.700989l-0.806641,1.001495l-0.49292,0.921112l-0.537781,0.801147l0.134552,1.321747l0.761841,1.121674l0.627319,0.480621l0.447968,1.24176l0,0.841125l0.985992,0.720947l0.134491,1.08139l-0.53772,0.721161l0.089569,1.241516l-0.044769,1.001434l-0.31369,0.881287l0.492767,1.16156l-0.492767,0.961212l0,1.361877l0.89621,1.001373l0.80661,0.480621l1.70282,-0.320496l1.165039,0.16037l1.478943,-0.200317l0.896179,0.720886l2.016479,0.280487l1.70282,0.360474l1.703003,0.160339l1.344177,0l1.676422,0.23233l1.077332,0.169891l1.013947,1.132904l0.063354,1.529419l0.950653,2.549194l1.774414,1.132843l0.633759,1.359528l0.697144,0.849609l1.45752,-0.283203l0.76062,0.509857l1.077332,1.246185l1.140686,1.756012l0.760406,0.849609l1.521057,-0.113098l0.950684,0.396515l1.035583,1.568146l-0.649109,0.2323l-0.73584,0.541443l-0.735809,0.735168l-1.125336,0.812317l-0.952271,0.348389l-0.952057,0.96698l-0.908905,0l-0.865723,1.586304l-0.822388,1.19928l-0.822357,-0.038574l-0.865509,1.083008l-1.68808,0.657898l-0.952087,0.618835l-0.519379,1.895752l-1.471649,1.624817l-1.601379,1.199219l-0.36734,0.788025l-0.498383,1.069092l-0.995453,1.895447l-0.605896,1.508972l-0.259827,1.315247l-1.168488,1.199402l-1.68808,1.276611l-3.246124,0.270874l-1.363312,-0.19342l-1.233643,0.328796l-1.601349,-0.232056l-1.514832,0.464111l-1.146942,1.044556l-1.709656,1.31543l-1.406708,1.354004l-1.190277,1.450745l-0.649109,1.354004l-0.346313,2.359863l-1.168701,0.619202l-0.908905,0.928406l-1.211853,1.972961l-0.216431,1.276733l-0.822357,0.69635l-1.644745,0.116028l-2.077972,-0.54425l-0.36087,0.036804l-0.062927,-0.012756l-0.937927,-0.201843l-1.538025,-0.121887l-0.493988,-0.003662l-0.902252,-0.073547l-1.477081,-0.120361l-0.081482,-0.006592l-1.718994,-0.041565l-0.140167,0.022278l-0.199493,0.024719l-0.275726,0.052246l-0.212402,-1.371643l-0.104889,-2.798035l-2.874329,-1.827393l-0.187805,-0.184875l-2.395874,-2.327637l-1.652374,-1.626465l-0.362701,-0.389648l-0.410889,-0.808411l-0.332611,-0.379883l-0.201904,-0.807678l-0.033478,-0.841064l0.244873,-1.037292l1.958374,0.057678l-1.691498,-4.939148l-2.683716,-6.528503l-1.125122,-2.737122l-5.556061,-13.372498l-0.597473,-0.143768l-0.330566,0.010895l-0.265228,0.069275l-0.405273,0.158752l-0.136139,0.115356l-1.016205,0.944122l-0.144226,0.095154l-0.216644,0.080627l-0.281799,-0.035889l-0.578278,-0.687012l-0.416931,-0.124695l-0.960114,0.142395l-1.037567,-0.116028l-0.626526,-0.373383l-0.703369,-0.282288l-0.822357,0.522095l-0.562775,-0.096741l-0.281158,-0.79306l0.476013,-1.856903l-0.253143,-0.504852l-0.612579,-0.288208l-0.305817,-0.151276l-0.13269,-0.351349l-0.030457,-0.184631l0.418121,-0.69043l-0.197662,-0.393829l-0.46051,-0.031799l-0.341309,-0.092438l-0.849152,-0.776978l-0.632996,-1.030884l-1.231201,0.131042l-0.280182,-0.088379l-0.717072,-0.420593l-0.865723,-1.334595l-0.324554,-1.973022l-1.183807,-1.64621l1.335327,-1.506775l-0.188202,-1.64624l-1.796234,-0.348175l-0.634155,-1.912964l6.325745,-3.541962l-2.369659,-3.239044l-2.845886,1.652924l-1.196716,0.156708l-1.255249,-0.328888l-0.223877,-0.27417l-2.19339,-2.687347l-0.430634,-0.606476l-0.298126,-0.419556l-0.121613,-0.171265l-0.064972,-0.754333l0.302979,-0.773682l0.742279,-0.42749l0.880859,-0.307556l2.04068,-1.007874l-3.635803,-5.203461l-2.380371,-0.858887l-0.995605,-3.087128l-6.838501,-9.671814l-2.557861,-4.290314l-2.207489,-1.783386l-5.21698,-14.262146l-0.508118,-1.828796l-0.438049,-2.689453l0,0z" stroke="null" id="2414776"/>
	  </g>
	  <g stroke="null" id="1153000000" class="boundary Guro-gu_2414777_AL6">
	   <path d="m210.121536,403.561859l0.082108,-0.534027l0.692657,-0.541534l0.999664,-0.588104l0.432861,-0.657684l-0.17305,-0.541504l-0.302963,-0.696289l0.043152,-0.425659l0.731598,0.278595l0.220657,0.533813l0.908905,0.425659l0.861298,-0.185913l0.735825,0.077515l1.038803,-0.11615l1.081955,0.077515l0.610367,-0.23999l0.255356,-0.262909l0.610168,-0.317261l0.558319,-0.108368l0.432877,-0.30954l0.00444,-0.43338l0.649078,-0.696289l0.731613,-0.069519l0.783432,-0.162506l0.822159,-0.270874l0.688248,-0.611328l0.086502,-0.502899l0.346359,-0.425415l-0.043411,-0.696533l0.004471,-0.742676l0,-0.889954l0.471786,-0.881989l0.783447,-0.781555l0.605911,-0.27066l0.601486,-0.456573l1.129776,-0.355896l0.649109,-0.232025l0.173248,-0.851105l0.216446,-0.425659l0.082092,-0.804749l-0.129715,-0.348145l0.519196,-0.88974l0.567017,-0.588196l-0.216232,-0.5802l0.216232,-0.69635l-0.047623,-0.340454l-0.428406,-0.665436l0.302963,-0.696381l0.346329,-0.541595l0.73584,-0.425446l0.428421,-0.417938l0.043182,-0.502991l-0.255386,-1.168182l0.125656,-0.456573l-0.043365,-0.348175l-0.601486,-0.278656l-0.173279,-0.735016l0.173279,-0.696381l0.644852,-0.611145l0.913147,-0.394562l1.038788,-0.541626l0.995422,-0.038849l0.731598,0.0466l0.95105,-0.96347l0.601898,-0.708191l0.918991,-0.849609l0.982315,0l0.950638,0.396637l1.013992,-0.141602l1.806091,-0.085022l1.584412,0.537994l1.364761,0.172485l1.433929,0.02002l1.142685,0.360474l0.224091,0.620941l-0.313644,0.881165l-0.694473,1.161591l0,0.941193l0.672073,0.680908l-0.067169,0.861145l1.209854,0.921387l0.089569,0.841156l0.582703,0.821106l1.097916,0.64093l1.097885,0.720886l1.501114,0.680908l0.246475,0.72113l0.604935,0.6409l0.717072,0.740875l1.14267,-0.019989l1.120316,0.340424l1.277191,0.560913l1.030487,0.240204l1.322021,-0.781097l0.87381,-0.841125l0.31366,-0.801117l1.008331,-0.921112l1.70282,-0.140228l0.649902,-0.540894l0.716858,-0.640686l0.0224,-0.701111l0.58252,-0.740936l0.313843,-0.720917l0.447998,-0.480682l0.829041,0.480682l1.187653,0.140015l1.14267,-0.059998l0.649719,-0.520691l0.824554,-0.557068l1.232269,-0.160217l1.187622,0.059998l0.53775,-0.160004l0.261017,-0.985474l1.08905,-1.932098l1.141235,-0.812531l0.712646,-0.395691l0.680359,-1.524597l0.955292,-1.479401l0.625885,-0.393219l1.125305,0.466187l0.870392,-0.213196l1.045441,-0.832794l0.721527,-0.585693l0.417511,-0.013184l0.324982,-0.010223l0.905853,0.297974l1.983215,0.520264l1.843567,-1.328735l0.985779,0.160217l2.487061,0.500732l2.17337,0.56073l1.568512,1.121399l0.761841,1.361908l0.761841,-0.56073l3.825378,-1.591888l3.984558,7.331635l7.794983,-3.455536l-1.203979,1.359589l-1.34259,1.909576l-0.104279,0.162292l0.686218,2.598877l1.088226,1.25296l1.483765,-0.010254l0.924408,0.123657l0.150879,-0.684326l0.609772,-0.675232l1.877289,0.134552l1.357513,0.370911l0.589966,0.161133l2.264587,0.780243l2.376526,0.05658l2.059631,-1.982483l0.536926,0.107727l2.568359,0.515442l1.425842,-4.560059l0.63382,-1.586182l1.127533,-0.987335l3.435486,-4.110657l3.42215,-4.758362l3.002655,-3.929932l0.546234,-0.715118l2.208466,-4.15213l2.823334,0.841248l2.55423,1.562042l5.91507,3.164459l4.167664,1.962738l3.94339,1.922455l1.523529,1.161682l3.092163,3.765045l1.901093,3.004486l1.190887,1.882324l0.896179,2.28302l0.044769,1.401855l-0.268829,3.524994l-0.89621,6.048248l0.58252,6.328461l1.433929,6.729309l1.254852,4.846619l1.760498,5.059814l1.152344,3.391632l1.568298,4.606293l2.285553,2.843872l2.77832,1.962677l2.19577,1.562103l3.136749,1.281921l1.51828,0.222443l0.835449,0.122253l-6.818115,9.287415l-1.433929,3.12439l-0.26889,1.361786l-4.206635,0.813141l-2.098724,0.155609l-1.478729,0l-10.351654,-1.922485l-3.36084,-1.682373l-1.74762,-1.84259l-1.658051,-2.32309l-1.971863,-2.002808l-5.37735,-4.165588l-3.181732,-2.142822l-1.080933,-0.412842l-1.383728,-0.528503l-2.083649,-0.720947l-1.38916,0.040009l-1.92691,0.801147l-1.964233,0.617767l-2.875549,0.904297l-0.808655,0.106812l-0.24649,-0.490082l0.095612,-0.558258l0.86734,-1.903168l2.338409,-1.356934l1.114624,-2.286713l0.154541,-0.3172l0.108673,-0.693024l-0.213593,-0.263123l-0.844757,-0.261322l-0.482269,-0.076538l-0.619629,0.036102l-2.291809,0.692596l-1.154785,-0.622833l-0.61319,0.043396l-1.68811,1.157684l-0.374329,-1.294006l-0.134155,-1.68689l4.042633,-1.973022l-0.776001,-0.818237l-3.846527,-0.43515l-1.32666,-0.113617l-0.757385,0.05954l0.309387,2.858948l-1.428284,0.19339l-0.828827,-5.143555l-0.088959,-2.58432l-0.835449,-5.135773l-0.194275,-0.792419l-3.029419,1.150299l-1.47467,1.160522l-0.335083,1.05484l-0.07605,1.524536l-0.213196,0.381744l-0.804993,0.647644l-0.216614,0.174042l-0.743927,0.692841l-1.054932,1.203888l-1.493256,1.334747l-1.162018,0.829834l-1.385132,0.541504l-2.668182,0.621002l-1.536621,0.98642l-1.839355,1.857086l-0.111176,0.145203l-1.576935,2.059998l-1.752838,2.359894l-1.839569,2.243744l-1.211853,1.334686l-1.471497,0.367615l-2.568939,0.423523l-1.276764,0.947937l-1.023499,2.22641l-1.298584,2.688751l-0.476044,0.735016l-2.438873,1.855103l-0.545166,0.1604l-0.643677,0.18924l-0.527283,0.155182l-2.056,0.07724l-2.265778,-0.601379l-1.954132,-0.655945l-1.882751,0.116119l-1.44989,0.61911l-1.32016,1.412048l-0.389526,1.79895l-0.2164,2.901489l-0.129913,2.66925l-0.540955,5.628967l-0.324341,2.376312l-0.316315,2.317413l-0.701935,-0.089722l0.324524,-1.973022l-1.341736,-0.135406l-1.796021,-0.50296l-0.60611,-0.61908l-1.428284,-0.270782l-1.233459,0.038605l-1.796234,0.522308l-0.865509,-0.174011l-1.406708,-0.174042l-0.605896,-1.876526l-0.389526,-0.541565l-0.757599,0.21286l-0.843964,0.348267l-1.211853,0.174011l-0.86554,0.406189l-1.085205,0.500275l-0.213379,0.079956l-0.628723,0.638367l-0.519226,-0.116089l-0.909058,0.967346l-1.03862,-0.038849l-0.77919,-1.044586l-0.129669,-1.044342l-0.822372,-0.696533l-0.129913,-1.044586l-0.995422,-0.77356l-0.863113,-0.746063l-1.603973,-0.64682l-1.168686,-0.309418l-0.73584,-0.61908l-0.911118,-0.144958l-1.166275,0.299896l-1.082153,0.541626l-0.86554,0.657684l-0.346313,0.812408l-0.69249,0.77356l-1.428299,0.309662l-1.471634,-0.038849l-2.207321,-0.231964l-1.166458,0.115875l-1.12532,-0.231934l-0.90889,0.309418l-0.865753,0.116058l-0.440308,-0.679047l-1.018219,0.383972l-0.575699,0.217621l-0.985718,0.013641l-0.485718,0.798767l-1.688095,-0.69632l-1.389374,-0.377136l-1.12088,-0.009766l-1.082169,0l-0.908875,0l-0.497849,0.290344l-0.800568,0.464142l-0.302963,0.270813l-0.090973,0.706085l0.437119,0.74469l0.054245,0.574524l-0.229538,0.647919l-0.54744,0.479797l-0.486923,0.53772l-0.595032,0.334656l-0.238235,0.50296l-0.190399,0.394623l-0.49762,0.694458l-0.538956,0.235809l-0.495605,-0.069519l-0.980286,-0.739014l-0.621048,-0.924591l-0.519409,-0.425507l-0.94783,-0.270782l-1.216309,0.08313l-0.683777,-0.754456l-0.82457,-0.524078l0.582123,-1.131592l0.564774,-1.476013l0.309616,-1.044586l0.984543,-0.535706l0.46312,-0.380981l0.032501,-0.855133l-0.218475,-0.998047l0.270081,-0.422089l0.201523,-0.314911l0.668854,-0.680878l1.58847,-0.520508l0.904449,-0.841248l0.999863,-0.783386l0.904648,-0.996246l0.649109,-1.121887l0.995621,-0.928558l0.263824,-0.319183l0.168839,-0.686615l0.36792,-0.61911l0.242462,-0.64798l0.173065,-0.599579l-0.346146,-0.444855l-0.519394,-0.638428l-0.173264,-1.005829l-0.151489,-1.083313l-0.086533,-0.618896l-0.047592,-0.628693l-0.194656,-0.541656l-0.363693,-1.247589l-0.086517,-0.754364l-0.19487,-0.851135l-0.004211,-0.551422l0.026016,-0.473724l1.017014,-0.251526l0.973846,-0.309479l0.973846,-0.270844l0.649277,-0.174042l1.255035,-0.483734l0.493591,-0.377167l1.060364,-0.367401l0.482071,-0.353577l-0.33522,-0.794342l-0.319305,0.110443l-0.568008,-1.209015l-0.197266,-0.449219l0.278564,-0.107269l-0.266678,-0.621674l0.477661,-0.116547l2.174194,-0.351501l0.369949,-0.454224l0.007446,-0.324707l-0.17749,-0.8414l-0.450027,-1.247681l-0.307404,-0.744629l-1.943237,-0.667358l-1.082169,-0.425598l-0.788254,-0.569641l-0.22876,-0.165436l-1.471649,-0.715515l-0.952072,-0.367676l-0.800766,-0.290192l-1.233673,-0.483551l-1.384903,0.038666l-0.042572,0.103821l-1.325211,-0.707825l-5.28476,-2.955841l-0.164368,-0.617401l-0.389496,-0.502869l0.082291,-0.70694l0,-0.561035l-0.151474,-0.696259l-0.341919,-0.434265l-0.844131,-0.211792l-0.220688,-0.650116l-0.428406,-0.433136l-0.216446,-0.580383l-0.562759,-0.541504l-0.389511,-0.696503l-0.17305,-0.851044l0,0z" stroke="null" id="2414777"/>
	  </g>
	  <g stroke="null" id="4129000000" class="boundary Gwacheon_2409169_AL6">
	   <path d="m508.655334,564.910828l2.023743,-2.909851l0.615784,-10.223877l0.35202,-5.937805l-1.055786,-1.376221l1.099762,-3.421082l5.939087,-6.173706l-1.01178,-3.539124l-3.344727,-1.574524l0.692505,-0.773621l0.779175,-1.122009l0.562561,-0.386719l0.822327,-1.160645l-0.346069,-1.741028l-0.476257,-1.044556l0.043396,-0.928345l0.043091,-1.083435l-0.086487,-0.851135l0.526428,-0.547241l0.815308,-0.922668l0.129883,-0.657715l1.211853,-0.657654l0.952332,-0.657837l0.822327,0.386963l1.255005,0.193481l0.952271,-0.193481l0.697083,-0.470337l0.774536,-0.96106l0.908936,-0.386963l0.692505,0.309509l1.601318,0.116089l0.519409,-0.851196l1.29834,0.232361l0.692749,-0.92865l1.29834,0.154663l1.38501,-0.232056l1.38501,-0.928406l1.211914,0.30957l1.385132,0.773682l0.692505,-0.309509l0,-1.470215l0.952026,-1.470032l0.779175,-1.392822l1.298401,-1.005859l0.346313,-1.470032l1.644714,-0.464203l1.471497,0.154663l0.173279,-0.850983l1.644531,-0.696533l0.519409,-1.470062l1.471619,-0.232117l0.605896,-0.773773l1.125366,-0.618896l1.038818,-0.69632l0.346313,-1.00589l1.038574,-1.238007l1.147156,-1.586182l0.389465,-0.30957l0.216431,-0.754272l-0.389526,-1.411987l-0.324707,-1.025238l0.321716,-0.539215l0.544006,-0.02179l0.778992,0l2.077576,-0.387024l1.298401,0.038849l0.938538,-0.432892l2.307556,-0.340912l0.94519,-0.335938l0.851013,-0.302307l0.927063,-0.397461l1.193909,-0.511719l0.665833,-0.345459l1.346619,-0.699097l0.519409,-1.160645l0.605835,-1.469971l1.038818,-1.315552l1.558228,-1.702179l2.077637,0.541718l1.038757,-0.464264l1.211853,-1.779633l1.384888,-0.464264l1.644775,0.077454l3.72229,-1.238129l1.125366,-2.011566l0.086548,-2.166534l-1.298645,-1.934387l-0.259583,-2.321259l0.432861,-2.166351l1.038818,-1.160767l1.29834,-0.696228l0.779053,0.309387l1.211792,0.309601l1.385132,0.309387l1.731323,0.464325l1.558167,-0.619019l0.952026,0.773682l2.077637,0l1.125305,-0.696228l1.038818,1.3927l1.038818,1.547363l0.4328,1.547607l-0.08667,2.011597l0.692627,1.083282l0.952087,2.476105l-0.086548,1.934326l0.952271,2.011566l1.038757,2.011749l1.471497,1.160645l0.346313,1.083191l1.47168,0.851074l1.904297,1.238098l0.519409,1.315277l0.952271,1.160645l1.241089,1.003876l1.463989,1.916931l0.490173,1.315491l4.371399,-0.056091l0.751953,0.30249l1.226196,0.779236l0.897034,0.288696l1.185181,0.04245l0.964783,-0.290924l1.301208,-0.605499l1.05011,-1.207153l0.449585,-0.454468l1.422241,-0.58075l1.657227,0.15332l1.669128,0.674988l0.767151,-0.044495l1.133362,-0.598694l0.749329,-0.482635l1.624146,0.193939l1.444031,-0.693848l0.652527,-0.615295l0.771545,-1.203979l1.25177,-0.099701l1.071289,-0.159454l2.460632,-0.001129l1.158203,-0.524658l0.900269,-0.705475l0.331177,-1.230804l-0.017334,-2.056671l0.337036,-0.508331l1.748596,-0.342285l1.31897,-0.047913l0.476196,-0.144012l0.222351,-0.511505l-0.692505,-1.189301l-0.210205,-1.375519l0.525879,-1.423035l2.856628,-4.526276l0.12439,-1.107574l-0.382996,-2.235138l0.840515,0.124939l0.403198,-0.085876l0.265686,-0.271454l1.693909,-0.695953l0.892334,0.204193l1.070923,0.733673l3.229126,1.476044l1.695129,1.26181l0.252747,0.064941l-0.09198,0.681915l-0.189636,0.814758l-1.279785,3.314697l-0.143066,0.945557l-0.118958,0.55603l0.296265,1.231995l0.077087,0.426819l0.059509,0.546478l0.03241,0.367493l0.617493,0.329376l0.855774,-0.189667l0.43396,1.006866l0.248291,2.079407l-0.233215,0.054718l-0.068176,0.689117l0.239624,1.09729l1.558044,0.69635l1.393799,1.895599l1.384888,1.934418l0.246704,1.775635l-0.398132,1.369507l-2.73114,1.408142l-0.324585,1.75647l1.9953,3.516602l0.346375,2.475922l1.125305,1.547516l0.519165,1.934448l-0.952087,1.624695l-0.259766,1.470215l-0.086548,1.237915l0.259827,2.475952l1.471436,1.005798l0.173279,2.01178l-0.259827,2.321289l-1.211853,2.166382l-1.29834,1.857056l-2.077637,1.934265l-0.519348,1.160583l0.865723,1.934448l0.534729,1.437378l1.888977,0.729126l1.817749,0.580383l1.861145,0l0.908936,0.425476l1.298401,-0.19342l1.947754,0l1.125244,0.851074l1.514832,2.050354l0.995605,1.121948l1.731262,1.160522l0.73584,0.735229l0.110352,0.692505l0.582153,0.700012l0.389465,1.160767l1.384949,1.431335l0.909119,0.348328l1.557983,0.77356l0.605896,2.089111l1.038818,0.889771l0.4328,2.12793l0.51947,1.547302l-2.631531,3.50647l-7.59021,2.446777l-0.622314,9.898743l1.953186,4.291382l-0.210999,4.71759l-0.993408,5.24054l-0.748779,3.8797l-3.914063,2.518982l-3.8573,1.779602l-6.84375,-0.333618l-4.728455,2.335754l-5.599426,0.222412l-4.603943,2.33551l-8.088074,-1.779358l-4.604004,0.444885l-7.590271,-2.113281l-8.336975,-1.112305l0.497803,1.668457l-3.235168,2.446716l-5.599426,-0.444946l-3.732971,4.337708l-0.497864,3.447876l-5.350464,2.669434l-4.977356,1.445862l-4.728271,5.227356l-10.950073,-1.000977l-1.990845,-2.446899l-1.308716,-1.930176l-1.179932,-1.73999l-1.71875,-0.384277l-2.760803,-0.616943l-2.239807,0.889954l-1.368713,-0.333618l-3.309631,2.186462l-2.414307,1.59491l-0.373169,3.33667l-0.622192,4.671387l-2.275085,1.459351l-1.435974,2.086182l-0.67572,1.216919l-0.600647,-0.674072l-0.3078,-2.162659l-1.847839,-0.078735l-0.263916,-1.769409l-1.187805,-0.786621l-3.123474,0l-1.319946,-0.904236l-0.65979,-1.533569l1.099731,-2.988708l-1.803711,-1.179565l-2.375488,-0.236023l-0.703979,0.786438l-0.615967,-2.0448l0.307983,-1.061523l0.747925,-0.90448l-0.967773,-1.258362l-0.483887,-2.55603l0.835815,-0.471863l0.044006,-1.140381l-1.14386,-1.887573l1.055664,-1.336914l-1.231567,-1.415527l-0.088135,-2.516663l-1.671753,-1.022339l-1.055786,-3.539124l-1.583801,-2.0448l-4.839172,-1.101196l-0.264038,-1.887268l-6.950806,-0.078796l-2.639587,-2.044861l-4.487366,-2.595154l-2.023743,-3.0672l-0.439941,-6.52771l-3.343506,-4.3255z" stroke="null" id="2409169"/>
	  </g>
	  <g stroke="null" id="1162000000" class="boundary Gwanak-gu_2414778_AL6">
	   <path d="m384.090881,443.446411l0.26889,-1.361786l1.43396,-3.12439l6.818115,-9.287445l4.006927,0.224945l2.386597,-0.170868l11.034241,-3.90918l3.046204,-1.677551l0.430603,-0.304688l2.875977,-2.034515l3.385651,-2.395172l2.903412,-0.609863l0.556274,-0.030457l4.930939,-0.26947l6.959564,-0.077026l2.223206,-6.166351l2.444275,-2.086212l0.047821,-0.534698l0.065338,-0.768738l0.940582,-0.787842l0.59201,-1.251434l0.294495,0.013641l1.324188,0.07547l1.529602,0.982361l1.490601,0.957336l0.307983,0.187012l2.950592,1.791534l2.142548,0.764191l2.375122,-0.222687l2.277649,0.048645l1.641296,0.854156l1.410156,0.835541l0.998047,0.722137l1.203186,0.197479l0.672089,-0.480591l0.80661,-0.240417l0.89621,-0.360413l1.1203,0l0.985931,-0.320374l0.806641,-0.861237l1.344391,-0.100189l0.80661,0.240417l0.26889,0.921204l0.818146,0.233826l1.243103,0.246765l0.985962,-0.560577l0.896149,-0.200439l0.888153,-0.058624l0.175262,-0.039307l1.414978,-0.31723l0.628113,-0.598969l0.799805,-0.614899l1.052307,-0.297455l1.837341,-0.68103l1.321777,-0.941223l0.761871,0.50061l1.053131,0.320404l0.761841,0.080231l1.165039,-0.240417l1.344391,1.321838l0.561157,0.698059l1.096863,0.50354l1.54715,0.377655l1.259644,0.457672l0.958527,0.843933l0.977661,0.651215l2.306732,1.366364l1.172333,-0.113159l1.26532,-0.485382l1.916809,-0.20224l0.338257,-0.164978l2.226074,-1.085236l0.250732,-0.401733l2.529419,-1.060516l-0.045013,-0.820984l0.593842,-1.882629l0.136139,-0.15683l1.489227,-0.028168l0.918945,0.25473l1.679413,0.679901l-0.063324,1.019592l0.411896,0.339722l0.126678,1.671082l0,1.331329l-0.285187,0.453094l-0.633789,0.821442l0,0.963013l-0.855438,1.047974l0.719879,0.942963l1.248779,1.16748l0.672089,0.7612l0.179321,0.720978l-0.03772,2.94519l0.228546,2.373718l-0.39978,0.038391l0.114136,0.957275l0.39978,-0.051117l0.180542,0.680939l-0.037292,0.225403l-0.492981,1.001312l-0.26889,0.801147l0.179321,0.40033l-0.224091,0.560974l-1.1203,0.921082l0,0.440582l0.58252,0.520752l0.185394,0.165649l0.845367,0.755646l0.134338,0.640961l0.53775,0.680908l1.07547,0.680939l0.806641,1.361847l0.448242,0.320343l1.075317,0.600922l0.313782,0.360352l0.358459,1.241852l0.242432,0.604797l0.295288,0.757019l0.985779,0.600708l1.703064,0.681122l1.483704,0.807434l1.330872,1.557861l1.355713,0.296021l0.335022,0.526825l1.566101,2.463165l2.197571,0.412323l0.952209,0.178802l0.773621,1.89859l0.1297,0.288269l5.168335,-1.405121l0.940552,-0.233093l0.960083,-0.212616l0.770569,-0.159271l0.490173,-0.090424l1.060913,-0.151062l1.259888,-0.187653l1.045532,-0.138123l0.422302,-0.037048l0.583191,-0.034302l1.192261,-0.068176l0.311646,-0.02951l1.670166,-0.035889l1.247131,-0.011597l1.296326,0.02771l0.858093,0.038177l0.533142,0.041809l1.953735,0.138123l0.204346,0.015686l-0.031921,2.869751l0.316895,1.396942l0.207947,0.916443l0.470215,1.442352l1.473877,3.656097l1.734863,3.45932l2.00177,2.504974l3.002869,2.743622l2.201782,2.862885l1.53479,3.041809l0.333618,3.459259l-0.934082,4.831085l-0.867554,3.220825l0,1.550659l0.934326,2.266541l1.3349,2.028503l-0.665833,0.345459l-1.193909,0.511719l-0.927063,0.397461l-0.851013,0.302307l-0.945129,0.335938l-2.307617,0.340912l-0.938477,0.432892l-1.298462,-0.038849l-2.077515,0.387024l-0.779053,0l-0.544006,0.02179l-0.321716,0.539215l0.324707,1.025208l0.389526,1.412018l-0.216431,0.754272l-0.389465,0.30957l-1.147156,1.586182l-1.038574,1.238007l-0.346313,1.00589l-1.038818,0.69632l-1.125305,0.618896l-0.605896,0.773773l-1.47168,0.232117l-0.519409,1.470062l-1.644531,0.696533l-0.173279,0.850983l-1.471497,-0.154663l-1.644714,0.464203l-0.346252,1.470032l-1.298462,1.005859l-0.779175,1.392822l-0.952026,1.470032l0,1.470215l-0.692505,0.309509l-1.385132,-0.773682l-1.211853,-0.30957l-1.385071,0.928406l-1.38501,0.232056l-1.29834,-0.154663l-0.692688,0.92865l-1.298401,-0.232361l-0.519409,0.851196l-1.601318,-0.116089l-0.692505,-0.309509l-0.908936,0.386963l-0.774475,0.96106l-0.697144,0.470337l-0.952209,0.193481l-1.255066,-0.193481l-0.822327,-0.386963l-0.952271,0.657837l-1.211914,0.657654l-0.129883,0.657715l-0.815308,0.922668l-0.526428,0.547241l0.086487,0.851135l-0.043091,1.083435l-0.043396,0.928345l0.476257,1.044556l0.346069,1.741028l-0.822327,1.160645l-0.562561,0.386719l-0.779175,1.122009l-0.692505,0.773621l-0.778992,0.309509l-1.817993,0.154846l-1.990845,0.193481l-1.168732,-0.077454l-1.384918,-0.309509l-0.908844,1.276611l-0.411316,0.986633l-0.71405,0.715515l-2.207458,0.193481l-1.601379,0.309509l-1.384918,0.618958l-1.168732,0.038879l-1.601318,-0.619019l-1.32019,-0.425537l-0.757416,-0.270874l-1.514832,0l-0.908875,0.038574l-0.735809,0.657837l-0.822388,0.464111l-1.125336,0.425537l-1.341766,-0.425537l-1.731262,0.619019l-2.423706,-0.541565l-1.038818,0.193481l-1.428284,0.425537l-0.995422,1.044495l-0.779205,0.657593l-0.995392,0.657837l-1.558228,0.464111l-0.692474,-0.154663l-0.995422,-0.50293l-1.211823,0.270874l-0.779236,0.038635l-0.73584,0.116028l-0.822357,0.270874l-0.692444,1.00592l-0.562561,0.889587l-0.562744,1.354187l-0.605957,0.154663l-1.168457,-0.116028l-0.73587,-0.077454l-0.605927,-0.038574l-0.692657,0.657532l-0.735626,0.657837l-0.389709,0.27063l-0.519379,-1.315125l-0.259644,-1.160706l-0.2164,-1.083374l-0.173065,-1.663452l-0.649292,-1.624878l0,-1.276611l0,-1.121948l0.692474,-1.199158l-0.043182,-1.276855l-0.73584,-1.005737l-0.95224,-1.508911l-0.822388,-1.237793l-1.08194,-0.541626l-1.428284,-1.238037l-1.861176,-1.315491l-1.038818,-1.1604l-1.08194,-0.502991l-1.558197,-0.967163l-1.211853,-0.812561l-1.601349,-0.773682l-0.908905,-1.354126l-0.692657,-1.19928l-0.259583,-0.928345l-0.259796,-1.624878l-0.086548,-1.19928l0,-1.121887l-0.476044,-1.083313l-1.385101,-1.315369l-1.125336,-1.044678l-1.035583,-1.568146l-0.950653,-0.396515l-1.521088,0.113098l-0.760406,-0.849609l-1.140686,-1.756012l-1.077301,-1.246185l-0.760651,-0.509857l-1.45752,0.283203l-0.697113,-0.849609l-0.633759,-1.359497l-1.774445,-1.132874l-0.950653,-2.549194l-0.063354,-1.529419l-1.013947,-1.132904l-1.077332,-0.169861l-1.676422,-0.232361l-1.344177,0l-1.703003,-0.160339l-1.702789,-0.360443l-2.01651,-0.280518l-0.896149,-0.720886l-1.478912,0.200317l-1.16507,-0.16037l-1.70285,0.320496l-0.80661,-0.480621l-0.89621,-1.001373l0,-1.361877l0.492767,-0.961212l-0.492767,-1.16156l0.31369,-0.881287l0.044769,-1.001434l-0.089569,-1.241516l0.537781,-0.721161l-0.134552,-1.08139l-0.985962,-0.720947l0,-0.841095l-0.447998,-1.241791l-0.627319,-0.480621l-0.761841,-1.121674l-0.134552,-1.321747l0.537781,-0.801147l0.49295,-0.921112l0.806641,-1.001495l-1.72522,-0.700989l-1.1203,-0.400452l-0.044952,-0.821167l-1.456329,-1.241608l-0.26889,-0.901367l-0.85141,-1.061279l-0.044769,-0.921326l-0.53775,-0.480682l-1.433929,-1.001343l-0.050446,-0.269623l-0.039337,-0.211029l0.224121,-0.881165l-0.58255,-1.522003l-0.49295,-0.68103l0.044983,-0.921173l-0.761902,-1.001343l-0.249054,-0.519775l-0.288666,-0.601746l-0.254761,-0.390533l-0.47522,-0.728088l-0.211182,-0.323456l-0.104095,-0.084534l-0.388672,-0.315979l-0.134552,-0.761047l0.896179,-0.52066l0.985931,-0.600891l1.1203,-0.08017l0.58255,-0.400513l1.030701,-0.240356l1.16507,-0.560669l0.492981,-1.361938l0,-1.041382l0.517395,-1.293335l-0.270508,-1.114563l0.629913,-2.120087l-0.000153,-0.711975l-0.0672,-0.411011l-0.158722,-0.971893l-2.503204,-0.660889l-0.196869,-0.747681l-0.172058,0.058838l-0.657959,0.287842l-0.793304,0.190643l-0.634613,-0.503693l-0.981476,-1.35498l-0.24408,-0.364166l0.220245,-0.267426l-0.057098,-0.337158l0.296936,-0.385773l0.476624,0.002747l-0.270874,-1.276855l1.960388,-0.409393l-0.339874,-1.288666l-0.057678,-0.213318l-11.750305,2.442352l-4.570465,0.947845l-5.490112,1.220703z" stroke="null" id="2414778"/>
	  </g>
	  <g stroke="null" id="1165000000" class="boundary Seocho-gu_2414779_AL6">
	   <path d="m548.734863,387.283722l0.516602,-6.451111l4.742126,-0.034973l4.524353,-0.077728l5.543701,-7.125702l4.674561,-4.042786l5.557861,-4.574738l8.541138,-6.441498l7.606812,-6.679932l3.165771,-2.955566l2.839661,-2.651031l3.06958,-4.413513l2.836426,-2.600433l2.512085,-2.539063l9.680359,7.350922l3.895752,-4.727966l5.310608,6.720673l0.700928,1.228912l1.160645,3.986267l1.305847,5.567291l0.598206,2.336945l0.986816,3.570007l0.17688,1.336975l0.699707,2.643005l1.465027,3.694397l4.014404,9.007233l2.337952,5.950928l6.316467,14.873718l7.94696,19.035858l5.088013,11.689148l15.10791,-2.313232l4.904541,13.259766l2.324524,5.582062l11.887024,12.948669l-4.125793,3.491119l-0.172791,0.233276l2.906799,-0.222626l1.608215,1.24942l0.170166,1.827271l-0.283325,2.416748l-0.401001,1.375l3.679565,-2.007172l5.798279,-1.902466l3.698914,0.489075l4.344727,-1.785492l3.454529,0.522949l2.898254,-0.427521l2.104919,0.344147l3.058655,-1.348907l3.692627,-0.231476l3.180603,-2.543335l2.986877,-0.44162l3.446777,-2.041565l1.868591,-0.185577l2.159302,-1.930054l0.582764,-0.229462l2.290344,-1.049988l2.290405,-2.152039l0.998291,-1.627289l0.763428,0.05246l1.556335,0.498657l1.312561,-0.143555l2.231506,-0.15744l5.109253,-0.734924l1.879333,-0.525024l2.583862,0.210144l0.29364,5.144196l1.291992,4.04184l1.292114,2.152191l3.640991,1.312317l1.291931,3.307037l1.526917,0.734863l0.939575,1.469696l3.112549,0.892517l0.939575,2.047119l0.939758,3.044495l-0.763489,4.04184l1.76178,2.834717l1.057068,1.207245l2.466553,0.524933l3.641052,0.157623l-0.587219,2.361969l0.234802,2.519562l0.939758,2.414825l0.058655,2.729614l-3.804382,-0.235992l-3.202881,2.553558l0.173218,1.77948l-0.519409,1.856903l-2.164063,0.696564l-2.077637,1.702209l-0.952026,3.249725l-1.644714,1.237976l0.173035,1.005829l-1.471619,0.69635l0.086731,1.469971l-1.298645,1.005859l0.952271,2.08905l-0.692505,4.410461l0.346191,2.166443l-1.731323,0.541626l-1.471436,1.238037l-1.991089,-0.309509l-1.384827,0.541626l-0.952332,0.696228l-1.038757,0l-2.510315,3.63678l-0.952209,1.779358l-0.346313,0.928528l-2.423706,0.928528l-2.596985,-1.470093l-1.644531,-0.154663l-1.038879,-0.541565l-2.943298,-0.464417l-0.952026,-0.386902l-1.547485,0.120361l-0.443604,0.034485l-1.298401,-1.005981l-3.289429,0.773926l-1.644714,-0.619019l-1.817749,1.08313l0.519348,2.476074l0.173096,2.089111l3.808838,1.702148l0.519348,2.398499l-0.173035,2.089233l-2.337402,1.470032l-3.029602,1.315369l-0.787659,2.282654l1.038757,1.392517l-0.865723,2.476013l-1.038818,1.392761l1.298645,1.702209l-0.519409,1.3927l0.302917,1.278748l-0.822327,1.237793l-2.415222,-0.5047l-1.298462,-0.386902l-1.774597,0.309509l-1.687866,0.386841l-2.467102,2.56488l-2.956238,-0.677002l-3.665833,-0.998047l-1.517639,-0.32312l-2.118164,-0.450684l-3.029663,1.315491l-2.77002,-0.696533l-4.068481,1.083435l-3.116333,0.46405l-3.722168,1.624939l-1.817749,-0.386841l-1.991089,-1.934448l-3.029663,-1.779541l-1.731262,-0.232056l-1.471619,-0.309692l-0.51947,-1.547302l-0.4328,-2.12793l-1.038818,-0.889771l-0.605896,-2.089111l-1.557983,-0.77356l-0.909119,-0.348328l-1.384888,-1.431335l-0.389526,-1.160767l-0.582092,-0.700012l-0.110413,-0.692505l-0.735779,-0.735229l-1.731262,-1.160522l-0.995667,-1.121948l-1.514771,-2.050354l-1.125305,-0.851074l-1.947754,0l-1.298401,0.19342l-0.908936,-0.425476l-1.861084,0l-1.81781,-0.580383l-1.888977,-0.729126l-0.534729,-1.437378l-0.865723,-1.934448l0.519348,-1.160583l2.077637,-1.934265l1.298401,-1.857056l1.211853,-2.166382l0.259766,-2.321289l-0.173218,-2.01178l-1.471497,-1.005798l-0.259827,-2.475952l0.086548,-1.237915l0.259827,-1.470215l0.952026,-1.624695l-0.519165,-1.934448l-1.125305,-1.547516l-0.346313,-2.475922l-1.995361,-3.516602l0.324585,-1.75647l2.73114,-1.408142l0.398132,-1.369507l-0.246643,-1.775635l-1.384949,-1.934418l-1.393799,-1.895599l-1.558044,-0.69635l-0.239563,-1.09729l0.068115,-0.689117l0.233215,-0.054718l-0.248291,-2.079407l-0.433838,-1.006866l-0.855896,0.189636l-0.617432,-0.329346l-0.03241,-0.367493l-0.05957,-0.546478l-0.077026,-0.426819l-0.296326,-1.231995l0.118958,-0.55603l0.143066,-0.945557l1.279785,-3.314697l0.189636,-0.814758l0.09198,-0.681915l-0.252747,-0.064941l-1.695129,-1.26181l-3.229126,-1.476044l-1.070923,-0.733673l-0.892334,-0.204224l-1.693909,0.695984l-0.265625,0.271454l-0.403198,0.085876l-0.840576,-0.124939l0.383057,2.235138l-0.124451,1.107574l-2.856628,4.526276l-0.525879,1.423035l0.210205,1.375519l0.692505,1.189301l-0.22229,0.511505l-0.476257,0.143982l-1.318909,0.047943l-1.748657,0.342285l-0.337036,0.508331l0.017334,2.056671l-0.331177,1.230804l-0.900208,0.705475l-1.158264,0.524658l-2.460632,0.001129l-1.071228,0.159454l-1.251831,0.099701l-0.771484,1.203979l-0.652588,0.615295l-1.44397,0.693848l-1.624207,-0.193939l-0.749329,0.482635l-1.133362,0.598694l-0.76709,0.044495l-1.669189,-0.675018l-1.657166,-0.15329l-1.422302,0.58075l-0.449585,0.454468l-1.05011,1.207153l-1.301208,0.605499l-0.964722,0.290924l-1.185242,-0.04245l-0.896973,-0.288696l-1.226257,-0.779236l-0.751953,-0.302521l-4.371399,0.056122l-0.490173,-1.315521l-1.463989,-1.916901l-1.241089,-1.003876l-0.952271,-1.160645l-0.519409,-1.315308l-1.904297,-1.238068l-1.47168,-0.851074l-0.346313,-1.083191l-1.471497,-1.160645l-1.038757,-2.011749l-0.952271,-2.011566l0.086548,-1.934326l-0.952087,-2.476105l-0.692627,-1.083282l0.086731,-2.011627l-0.432861,-1.547577l-1.038818,-1.547363l-1.038818,-1.3927l-1.125305,0.696228l-2.077576,0l-0.952087,-0.773682l-1.558167,0.619019l-1.731262,-0.464325l-1.385193,-0.309387l-1.211792,-0.309601l-0.778992,-0.309387l-1.298401,0.696228l-1.038818,1.160767l-0.432861,2.166351l0.259644,2.321259l1.298584,1.934387l-0.086548,2.166534l-1.125305,2.011566l-3.722351,1.238129l-1.644775,-0.077454l-1.384888,0.464264l-1.211853,1.779633l-1.038757,0.464264l-2.077637,-0.541718l-1.558167,1.702179l-1.038818,1.315552l-0.605896,1.469971l-0.519409,1.160645l-1.346619,0.699097l-1.3349,-2.028503l-0.934326,-2.266541l0,-1.550659l0.867554,-3.220825l0.934082,-4.831085l-0.333618,-3.459259l-1.53479,-3.041809l-2.201782,-2.862885l-3.002808,-2.743622l-2.001831,-2.504974l-1.734863,-3.45932l-1.473877,-3.656097l-0.470215,-1.442352l-0.207886,-0.916443l-0.316895,-1.396942l0.03186,-2.869751l1.018433,-20.024323l0.323914,-6.352753l0.607544,-3.649414l0.06073,-2.552429l0.327759,-13.755127l4.705811,-6.443939l-2.155396,-1.864166l-5.031006,-3.262787l-1.532166,-1.725372l-0.736877,-1.905396z" stroke="null" id="2414779"/>
	  </g>
	  <g stroke="null" id="1171000000" class="boundary Songpa-gu_2419954_AL6">
	   <path d="m722.291748,338.974426l10.524658,3.296021l1.930786,0.18689l13.531372,1.310303l18.297119,-1.266876l5.672058,-3.248779l7.599731,-4.352753l6.741882,-5.952942l5.369995,-4.758179l5.374573,-6.384155l4.418396,-5.24823l1.480896,-1.940338l9.857849,-12.916931l13.581848,4.475616l2.573975,1.099365l2.596619,1.873138l2.300659,1.404755l1.025085,0.567047l1.751831,0.616425l-3.882263,12.179504l-0.066772,0.480652l-0.523804,1.693085l-1.298401,4.234894l-3.001221,5.836609l4.944458,2.203156l0.823181,0.366913l3.646057,1.991943l6.85199,3.424072l2.945984,1.49173l4.797607,2.351227l6.192993,3.05069l19.516663,9.721558l2.920105,0.406891l0.033875,0.11908l0.421387,0.698975l0.101868,0.841034l-1.445862,1.195862l-2.504395,-0.024323l-5.386963,0.169098l-0.078491,0.217102l3.47467,2.476654l0.908813,0.696228l0.259583,1.044647l-0.597168,0.771667l-1.73999,0.620972l-1.341736,1.160583l-0.562561,1.586243l-1.203369,2.474091l-0.224915,1.471893l-0.434875,3.293121l0.419739,0.464569l0.192383,0.212982l0.080505,1.281158l1.742188,1.795258l-0.467407,0.402313l-0.372742,0.25l-0.198669,1.582733l0.711792,1.113861l1.408569,0.589325l4.103149,1.587952l0.701111,0.191589l1.515076,0.851105l0.822327,0.889771l0.205078,0.073395l1.309753,0.46817l0.856812,0.42749l1.341797,-0.30954l1.341797,0.348175l1.739868,-1.084991l2.120728,-1.624939l2.242188,-1.429535l1.653259,-1.665466l0.649292,-0.657715l0.81366,0.156799l0.669067,0.985931l0.248535,0.366119l0.467346,0.582275l0.952271,0.348175l0.649292,1.237946l0.908936,0.657715l1.038757,1.3927l1.644714,1.044525l0.822388,1.741058l1.177124,0.77179l0.943604,-1.081329l1.341736,-2.205139l1.134033,-0.504974l1.116638,0.969055l0.448059,1.812653l0.647034,1.77948l0.969421,1.276733l3.830444,2.208954l-2.077637,2.746826l-0.398193,0.969208l0.129883,1.663483l-1.341736,1.547333l-0.432861,0.851257l0.173279,1.818207l0.259583,1.779755l-0.086487,1.470001l-0.432922,1.470001l-0.043152,3.21106l-1.861084,2.669525l-1.082214,1.508789l-1.12616,0.898468l-0.423157,0.337433l-2.330139,1.454224l-2.813171,1.972961l-1.385193,0.92865l-2.943115,1.972931l-2.878113,1.934296l-1.147156,0.793213l-1.341736,1.044495l-1.428345,1.373474l-1.731262,2.766052l-1.860962,3.269012l-0.476379,1.611298l-0.216187,6.203583l-0.129761,3.617096l-6.037903,-0.193359l-0.086548,1.721619l-0.108093,0.502777l-0.950439,2.263641l-0.131348,0.659515l-0.081848,2.316315l-5.576843,-0.169464l-3.501221,-0.119507l-3.294128,-0.112457l-4.164429,-0.277832l-1.516479,-0.133362l-3.745544,-0.719482l-0.298279,5.241852l0.028625,0.357361l0.257019,0.663544l0.142761,0.638123l-0.000793,1.104492l-0.180359,0.850311l-0.434631,1.040863l-0.311646,0.476379l-0.778992,0.945679l0.672546,0.791412l0.901978,1.158325l0.639648,1.421783l-2.259766,0.655823l-1.573914,0.694855l-1.722778,0.346436l-2.041687,-0.466339l-1.463989,-0.733063l-3.081665,-0.849121l-1.787537,-0.678955l-1.154602,-1.081299l-1.168701,-0.909119l-0.71405,-0.193542l0.851563,2.841553l0.317139,1.452698l0,1.141235l-1.442444,0.288269l-3.743835,0.50293l0.075195,-1.762299l-0.587402,-1.99469l-1.879089,-3.674591l-3.406189,-5.773956l-4.345764,-7.558899l-2.357605,-3.820587l-0.902466,-1.096863l-2.377747,-3.586243l-4.382874,-6.019379l-1.023071,-2.042999l-1.08197,-1.692474l-1.616333,-2.528412l-4.933105,-6.299072l-4.697998,-6.194122l-4.345825,-3.989258l-4.134766,-2.375946l-2.442688,-1.403656l-7.517029,-3.779236l-7.986816,-3.149628l-2.239807,-0.811493l-6.45166,-2.337952l-7.282227,-2.414795l-3.923401,-1.390594l-2.888855,-1.023987l-3.821716,-0.885651l-2.520752,-0.584045l-9.043823,-1.99469l-0.759216,-0.226135l-2.764343,-0.823822l-3.288696,-2.309692l-2.231689,-3.359497l-0.939514,-3.464325l-0.971619,-7.937134l-3.652405,-29.836578l-0.426575,-3.485168z" stroke="null" id="2419954"/>
	  </g>
	  <g stroke="null" id="1147000000" class="boundary Yangcheon-gu_2414780_AL6">
	   <path d="m228.173981,305.018341l0.924637,-1.1203l-0.041351,-0.904053l3.458069,-1.171448l1.255447,-0.486847l1.929123,-0.21463l-0.123627,-1.061218l1.460144,-1.89798l0.22229,-0.922729l-0.973846,-1.334778l0.259598,-1.440979l0.688629,-1.42392l0.875,-0.650787l0.335434,-0.865479l0.528488,-0.513214l0.028641,-1.237518l0.77861,-0.646729l-0.04277,-0.987823l0.244873,-0.51413l0.234573,-0.49234l0.5065,0.465973l0.984131,-0.131897l1.148117,0.058655l1.60257,-0.392059l0.00766,0.71814l0.323135,1.444427l0.273529,0.888702l0.310623,0.377716l0.434677,0.804291l0.09964,0.588715l-1.376053,3.216705l0.109741,0.993683l1.074677,2.57312l-0.5448,0.005676l0.084534,1.784302l0.342087,0.60437l0.633759,-0.580719l4.503723,-0.211029l0.629532,-0.029572l0.41452,1.27655l0.330215,1.201691l0.697067,2.237427l2.582489,4.800751l0.048401,0.653473l0.089554,1.205505l-1.811539,0.272614l12.523849,23.338409l16.970459,-3.217285l6.100067,-0.855499l9.180908,-1.287445l3.941193,-0.585419l11.154022,-1.656891l-0.887329,-12.348785l-0.054413,-0.720978l-0.103912,-1.374878l0.567017,-6.920258l0.161774,-1.973175l0,-1.44455l-0.443573,-1.132813l-2.281525,-4.70163l-0.697083,-1.727692l0.126648,-1.246338l1.71109,-6.259308l1.932983,-7.05249l0.918976,-1.699249l1.084991,0.619934l1.016205,0.580597l1.340332,0.765686l7.478119,4.984741l1.90213,1.025574l2.407349,1.353485l4.816406,0.679932l3.055878,-0.282654l4.295349,-0.397278l4.612854,-1.222504l-0.887299,-0.957581l0.973846,-0.299713l0.977692,0.187836l2.768219,3.464447l4.36557,4.676819l1.728821,1.852112l2.285553,4.606384l4.884338,9.653015l2.195801,6.368774l-0.85141,4.726532l-0.709381,1.421875l-1.337341,2.680237l-0.534729,1.071503l-1.742737,2.903229l-1.9487,2.251587l-5.355164,2.20929l-4.245941,1.982605l-2.027985,2.067383l-0.76062,2.605896l-0.563995,4.260773l-0.026215,2.889954l-0.018555,2.036774l-0.134338,4.165527l-0.358643,4.165649l-2.208466,4.152161l-0.546234,0.715088l-3.002655,3.929962l-3.42215,4.758331l-3.435486,4.110687l-1.127533,0.987305l-0.633759,1.586182l-1.425903,4.560089l-2.568329,-0.515472l-0.536957,-0.107727l-2.059631,1.982513l-2.376526,-0.05661l-2.264587,-0.780212l-0.589966,-0.161133l-1.357513,-0.370941l-1.877289,-0.134521l-0.609772,0.675201l-0.150879,0.684357l-0.924408,-0.123657l-1.483765,0.010223l-1.088226,-1.25293l-0.686218,-2.598907l0.104279,-0.162262l1.34259,-1.909607l1.203979,-1.359589l-7.794983,3.455566l-3.984558,-7.331665l-3.825378,1.591919l-0.761841,0.560699l-0.761841,-1.361877l-1.568512,-1.121429l-2.17337,-0.56073l-2.487061,-0.500702l-0.985779,-0.160248l-1.843567,1.328735l-1.983215,-0.520264l-0.905853,-0.297974l-0.324982,0.010223l-0.417511,0.013184l-0.721527,0.585724l-1.045441,0.832764l-0.870392,0.213196l-1.125305,-0.466156l-0.625885,0.393219l-0.955292,1.47937l-0.680359,1.524628l-0.712646,0.395691l-1.141235,0.812531l-1.08905,1.932068l-0.261017,0.985504l-0.53775,0.160004l-1.187622,-0.059998l-1.232239,0.160217l-0.824585,0.557037l-0.649719,0.520691l-1.14267,0.059998l-1.187653,-0.139984l-0.829041,-0.480682l-0.447998,0.480682l-0.313843,0.720917l-0.58252,0.740906l-0.0224,0.701141l-0.716858,0.640656l-0.649902,0.540894l-1.70282,0.140228l-1.008331,0.921143l-0.31366,0.801117l-0.87381,0.841125l-1.322021,0.781097l-1.030487,-0.240234l-1.277191,-0.560883l-1.120316,-0.340424l-1.14267,0.019989l-0.717072,-0.740875l-0.604919,-0.6409l-0.24649,-0.721161l-1.501114,-0.680908l-1.097885,-0.720886l-1.097916,-0.6409l-0.582703,-0.821136l-0.089569,-0.841156l-1.209854,-0.921356l0.067169,-0.861145l-0.672073,-0.680939l0,-0.941162l0.694473,-1.161621l0.313644,-0.881165l-0.224091,-0.620941l-1.142685,-0.360474l-1.433929,-0.019989l-1.364761,-0.172485l-1.584412,-0.538025l-1.806091,0.085022l-1.013992,0.141602l-0.950638,-0.396606l-0.982315,0l-0.918991,0.849579l-0.601898,0.708221l-0.951035,0.96344l-0.384476,-0.503204l-0.390289,-0.665253l-0.346359,-0.580261l0.082306,-0.843445l0.09079,-0.897552l-0.086533,-0.735016l-0.216446,-0.386871l-0.220673,-0.765961l-0.125443,-0.858887l0.129883,-0.735077l0.514969,-0.45639l0.389496,-0.928497l-0.341888,-0.858948l0.17305,-0.541626l0.255371,-0.765991l0.00444,-1.091003l-0.13414,-0.649872l-0.342087,-0.588013l-0.004242,-0.804626l-0.302963,-0.657806l-0.644852,-0.201141l-0.605957,-0.618958l-0.302948,-0.464142l0.043167,-0.580292l-0.264053,-0.650085l-0.17305,-0.502808l0,-0.657806l0.432861,-0.541687l0.692459,-0.580292l0.177521,-0.588074l0.7314,-0.688507l0.523788,-0.626678l0.514984,-0.843323l0.476028,-0.851288l0.519394,-0.851044l0.264038,-0.858795l0.125473,-0.843353l0,-0.386871l0.259796,-0.618958l0.090973,-0.588104l-0.047806,-1.307739l0,-1.00589l-0.157944,-1.114105l0.114777,-0.70401l0.090973,-1.052277l-0.60614,-1.083191l-0.049622,-0.105011l-0.123428,-0.591522l0.519379,-0.619019l0.352798,-0.320984l0.425201,-0.29892l-0.063339,-0.546265l-0.026428,-0.228485l-0.054459,-0.408508l-0.053864,-0.403717l0.346329,-0.40625l0.771545,-0.482635l0.451218,-0.474884l0.414322,-0.289185l0.819122,-0.455566l0.804001,-0.85022l0.213409,-0.08844l0.533112,-0.220978l1.860153,-1.101654l-0.692474,-0.541504l-0.521606,-0.727509l0.002213,-0.781342l-0.216431,-1.083252l-0.175293,-0.959381l0.043182,-1.160583l0.216415,-0.967346l0.129913,-0.348083l-0.952271,-0.541748l-0.993195,-0.587921l-0.670883,-0.37149l-1.108002,-0.243713l-1.205399,-0.042511l-0.696899,-0.224396l-0.644852,-0.781403l-0.822357,-0.889832l-0.264038,-1.075592l-0.904648,-0.858704l-0.692474,-0.889862l-0.302994,-0.851196l-0.458252,-1.102905l-0.386871,-0.37674l-0.886124,-0.183929l-0.346313,-0.5802l-0.068573,-0.973572l-0.011917,-1.217499l-1.129776,-1.074524l-0.424164,-0.536346l0.064926,-0.522247l0.515579,-1.413055l0.55571,-1.585205l-0.580521,-2.69931l0.016129,-1.854218l0.178711,-0.849701l-0.708389,-0.324249l-0.437912,-1.697601z" stroke="null" id="2414780"/>
	  </g>
	  <g stroke="null" id="1156000000" class="boundary Yeongdeungpo-gu_2414781_AL6">
	   <path d="m341.935394,275.140411l2.412994,-0.005219l0.014954,-3.903015l2.414063,-3.48642l8.9328,4.225098l12.207977,6.114807l8.395233,6.484558l12.976898,10.023468l5.606079,4.239685l4.423218,0.645538l5.202484,0.572784l7.119843,2.06189l6.323578,2.185791l2.76944,0.580292l9.656738,2.023407l3.739502,-1.868591l-4.152344,-4.296082l12.77475,0.000671l2.490662,-0.135742l12.122467,4.71106l5.796265,2.252625l4.440582,5.569885l3.94339,3.925201l4.789337,3.820526l4.800446,3.549683l2.957642,2.323059l1.43396,2.162964l0.378784,0.85141l0.941559,2.115662l0.126892,3.285492l-2.149414,15.654358l-7.635437,2.753693l-6.453033,2.042847l-5.851532,1.5l-5.70993,1.463867l-4.929382,1.041504l-3.031036,0.436859l-1.136414,0.16391l-6.004852,-0.040009l-1.92691,-0.280243l-2.86792,4.766479l-1.075439,1.601959l-1.075531,1.401978l-0.835876,2.605652l-2.946777,8.355194l-1.616058,4.13504l-3.383057,9.498169l-1.174561,3.29776l-0.031647,2.520935l-0.059723,0.907623l-0.035278,0.536774l-0.918976,1.047852l-1.489227,0.623108l-8.587097,1.897736l-0.938934,0.120911l-2.654083,0.341522l-0.182129,0.023438l-0.18576,0.023834l-1.108978,0.396545l-0.855469,0.821503l-0.824005,1.500946l-0.921387,1.664276l-0.631134,1.139862l-2.477753,3.270813l-6.22876,8.495117l-6.430237,8.770081l-0.83548,-0.122223l-1.51828,-0.222443l-3.136749,-1.281921l-2.19577,-1.562103l-2.77832,-1.962677l-2.285553,-2.843872l-1.568298,-4.606293l-1.152344,-3.391632l-1.760498,-5.059814l-1.254852,-4.846619l-1.433899,-6.729309l-0.58255,-6.328461l0.89621,-6.048248l0.268829,-3.524994l-0.044769,-1.401855l-0.896179,-2.28302l-1.190887,-1.882324l-1.901062,-3.004486l-3.092194,-3.765045l-1.523529,-1.161713l-3.94339,-1.922424l-4.167664,-1.962738l-5.91507,-3.164459l-2.55423,-1.562042l-2.823303,-0.841248l0.358612,-4.16568l0.134338,-4.165527l0.018585,-2.036774l0.026215,-2.889923l0.563965,-4.260803l0.760651,-2.605896l2.027954,-2.067383l4.245941,-1.982605l5.355164,-2.20929l1.9487,-2.251587l1.742737,-2.903198l0.53476,-1.071533l1.337311,-2.680237l0.709381,-1.421875l0.85141,-4.726532l-2.19577,-6.368744l-4.884369,-9.653046l-2.285553,-4.606384l-1.728821,-1.852081l-4.36557,-4.676849l-2.768219,-3.464447l-0.880249,-0.787506l-1.460785,-2.882141l-0.286621,-0.02066l-3.024414,-4.496155l-0.021973,-2.803558z" stroke="null" id="2414781"/>
	  </g>
	  <text xml:space="preserve" y="251.9828" x="215.8918" transform="matrix(0.658626, 0, 0, 0.725, 69.0976, 79.5625)" text-anchor="start" stroke-width="0" stroke-opacity="null" stroke="null" fill-opacity="null" fill="#000000" font-weight="bold" font-size="24px" font-family="Oswald,sans-serif" id="svg_3"></text>
	  <text xml:space="preserve" y="251.9828" x="215.8918" transform="matrix(0.658626, 0, 0, 0.725, 126.098, 173.563)" text-anchor="start" stroke-width="0" stroke-opacity="null" stroke="null" fill-opacity="null" fill="#000000" font-weight="bold" font-size="24px" font-family="Oswald,sans-serif" id="svg_4"></text>
	  <text xml:space="preserve" y="330.6035" x="185.5254" transform="matrix(0.658626, 0, 0, 0.725, 130.098, 173.563)" text-anchor="start" stroke-width="0" stroke-opacity="null" stroke="null" fill-opacity="null" fill="#000000" font-weight="bold" font-size="24px" font-family="Oswald,sans-serif" id="svg_5"></text>
	  <text xml:space="preserve" y="240.9483" x="370.7597" transform="matrix(0.658626, 0, 0, 0.725, 134.098, 177.563)" text-anchor="start" stroke-width="0" stroke-opacity="null" stroke="null" fill-opacity="null" fill="#000000" font-weight="bold" font-size="24px" font-family="Oswald,sans-serif" id="svg_6"></text>
	  <text xml:space="preserve" y="300.2587" x="502.853" transform="matrix(0.658626, 0, 0, 0.725, 135.098, 174.563)" text-anchor="start" stroke-width="0" stroke-opacity="null" stroke="null" fill-opacity="null" fill="#000000" font-weight="bold" font-size="24px" font-family="Oswald,sans-serif" id="svg_7"></text>
	  <text xml:space="preserve" y="413.362" x="481.5966" transform="matrix(0.658626, 0, 0, 0.725, 135.098, 171.563)" text-anchor="start" stroke-width="0" stroke-opacity="null" stroke="null" fill-opacity="null" fill="#000000" font-weight="bold" font-size="24px" font-family="Oswald,sans-serif" id="svg_8"></text>
	  <text xml:space="preserve" y="435.4311" x="354.0582" transform="matrix(0.658626, 0, 0, 0.725, 128.098, 165.563)" text-anchor="start" stroke-width="0" stroke-opacity="null" stroke="null" fill-opacity="null" fill="#000000" font-weight="bold" font-size="24px" font-family="Oswald,sans-serif" id="svg_9"></text>
	  <text xml:space="preserve" y="525.0863" x="634.9462" transform="matrix(0.658626, 0, 0, 0.725, 151.098, 170.563)" text-anchor="start" stroke-width="0" stroke-opacity="null" stroke="null" fill-opacity="null" fill="#000000" font-weight="bold" font-size="24px" font-family="Oswald,sans-serif" id="svg_10"></text>
	  <text xml:space="preserve" y="371.9828" x="671.3857" transform="matrix(0.658626, 0, 0, 0.725, 149.098, 174.563)" text-anchor="start" stroke-width="0" stroke-opacity="null" stroke="null" fill-opacity="null" fill="#000000" font-weight="bold" font-size="24px" font-family="Oswald,sans-serif" id="svg_11"></text>
	  <text xml:space="preserve" y="341.638" x="817.1438" transform="matrix(0.658626, 0, 0, 0.725, 144.098, 168.563)" text-anchor="start" stroke-width="0" stroke-opacity="null" stroke="null" fill-opacity="null" fill="#000000" font-weight="bold" font-size="24px" font-family="Oswald,sans-serif" id="svg_12"></text>
	  <text xml:space="preserve" y="291.9827" x="959.8651" transform="matrix(0.658626, 0, 0, 0.725, 148.098, 170.563)" text-anchor="start" stroke-width="0" stroke-opacity="null" stroke="null" fill-opacity="null" fill="#000000" font-weight="bold" font-size="24px" font-family="Oswald,sans-serif" id="svg_13"></text>
	  <text xml:space="preserve" y="148.5344" x="1032.744" transform="matrix(0.658626, 0, 0, 0.725, 171.098, 172.563)" text-anchor="start" stroke-width="0" stroke-opacity="null" stroke="null" fill-opacity="null" fill="#000000" font-weight="bold" font-size="24px" font-family="Oswald,sans-serif" id="svg_14"></text>
  </g>
 </g>
</svg>