<svg width="1096" height="705" xmlns="http://www.w3.org/2000/svg" preserveAspectRatio="xMidYMid meet">
 <style>
  <![CDATA[
.map {
         stroke:            black;
         stroke-width:      2;
         fill:              #E1DDD7;
}
.boundary {
         stroke-linejoin:   round;
         stroke-linecap:    round;
         stroke:            black;
         stroke-width:      1;
         fill:              #F1fffe;
}#Map{
	transform:scaleX(.75);
}
]]>
 </style>

 <g>
  <title>background</title>
  <rect x="-1" y="-1" width="1098" height="707" id="canvas_background" fill="none"/>
 </g>
 <g>
  <title>Layer 1</title>
  <g stroke="null" id="Map"> 
   <g stroke="null" class="boundary Dongducheon_2409163_AL6" id="4125000000">
    <path stroke="null" d="m333.764649,291.672737l4.769467,-1.84231l-3.143515,-4.274172l0.237305,-2.039752l2.765882,-0.447741l3.951256,-8.327444l7.770816,-0.805817l2.634207,-11.461441l9.614737,-1.701314l3.160992,-11.013642l7.770794,-6.89476l10.273304,1.432698l0.526892,2.686242l16.068481,-0.358178l7.770816,3.133998l0.68239,9.012905l5.85342,3.97944l0,2.210729l-3.902308,2.652979l1.083975,3.537175l10.6228,3.242501l5.853333,7.516644l5.636603,10.316967l9.97233,-0.442149l3.902222,2.800309l3.685492,-0.736924l2.818249,0.736924l4.769467,11.938203l5.636518,1.326461l-8.454872,14.296378l-16.909617,2.063385l-6.503761,5.158484l-4.620357,0.97479l-1.66663,0.351656l-2.881874,3.592182l-5.85342,-4.200398l-4.552564,-1.031772l-5.203014,-3.610905l-8.671603,-0.147402l-1.804395,1.359389l-5.365561,-2.137071l-1.40922,0.68167l-3.604132,0.755357l-1.978181,-0.681656l-3.143494,1.897564l-2.953747,0.110537l-1.138178,-2.910875l-0.17712,-0.103057l-2.641129,-1.536583l-6.124375,-7.479808l-0.433589,-2.873966l-2.095093,-5.194187l-6.422487,0.110581l-3.170564,-1.271221l-4.064856,-1.363282l-2.438883,0.313135l-2.628566,-0.681612l-10.514392,-3.187247l-1.402191,-3.936198l-1.958055,-5.496399l-0.000002,0z" id="2409163"/>
   </g>
   <g stroke="null" class="boundary Gapyeong-gun_2409164_AL6" id="4182000000">
    <path stroke="null" d="m560.936848,394.389774l0.190643,-0.093702l0.246878,-0.166866l0.190835,-0.229281l-0.025489,-0.329505l0.051747,-0.226405l0.067642,-0.43583l0.223866,-0.417165l0.463181,-0.810538l0.148917,-0.242833l0.076082,-0.260496l0.092171,-0.284927l2.160471,-0.678823l1.625866,-2.873981l-1.734295,-3.021427l6.828922,-7.958764l-0.758729,-1.916012l1.409113,-6.779691l-1.951111,-6.263913l-2.167948,-0.810611l0.541998,-5.011067l0.867136,-3.463532l2.493109,-2.431905l0,-2.28443l0.173423,-0.097711l3.620477,-2.039389l0.241344,-0.18373l2.468496,-1.87964l-5.202949,-4.642648l0.545074,-1.145374l0.647222,-1.360188l2.926678,-2.210772l1.625951,-6.042767l2.059541,-1.621222l2.70984,-3.24253l1.517542,4.2005l2.493109,0.442163l7.479285,-0.073701l2.493109,0.515864l2.276272,1.694865l5.636603,-2.505504l2.276272,-1.768638l2.167948,0.442192l1.517542,-1.84231l-0.758729,-1.473848l0.108323,-4.053126l0.867223,-1.694894l-0.975545,-1.326475l0.433569,-2.431905l1.625866,-1.621192l3.251923,-3.168829l-1.625951,-3.095055l0.325139,-4.053097l1.517542,-2.431847l0.650406,-1.989684l-2.059519,-2.063428l2.818249,-3.095041l-2.70984,-4.126784l1.842703,-1.031714l0.975545,-1.768653l1.192404,-0.95794l5.094605,2.431818l4.44422,-2.431818l2.059434,-0.221103l4.552628,3.68465l4.552628,0.663209l5.311378,-3.316159l2.926656,-0.29479l0.758814,-2.431832l2.059541,-0.368462l3.035,-3.316173l5.094605,-3.537262l3.468655,-1.326432l1.477845,-2.045286l1.557261,-2.155184l-2.601517,-3.242501l-2.276272,0.29479l-3.035107,-2.505562l2.276293,-2.06337l-0.108344,-1.916012l-1.734359,-0.663238l0.108408,-3.316217l4.227383,-3.168742l0.650406,-4.495275l2.167948,-1.252716l-1.083975,-4.2005l2.276272,-1.326504l2.926656,0.221118l2.167948,-1.916026l5.961763,-3.021354l6.286924,-1.252832l2.493088,-3.758293l2.818269,-1.0317l2.493088,-2.579249l0.216837,-3.979382l1.192297,-3.38986l2.059519,-1.25273l-0.758707,-2.284488l4.986197,-3.979396l2.926678,-5.232214l-2.167948,-2.947711l0.867136,-1.916012l4.769467,-1.0317l5.820302,-4.229303l5.221922,-5.619878l0.353448,-0.543056l0.164984,-0.972379l0.364089,-0.278667l0.84184,-0.644485l0.201625,-0.15436l3.238656,0.977317l0.872842,1.412363l2.15575,0.509459l-0.557979,2.638933l-0.882349,3.814157l0.837097,3.783393l1.824863,1.517526l0.339304,1.63534l1.975725,2.383899l-1.855095,2.347934l2.880635,3.204125l0.188443,3.132371l3.355673,1.209881l3.513991,2.327439l3.333026,1.194484l3.732752,2.419762l2.888092,-0.153808l4.117223,0.112803l4.924174,1.194484l2.790046,-0.799702l5.633014,1.181673l1.191421,1.817371l2.201856,0.730548l2.695867,1.82244l1.266798,-1.212423l1.621314,-0.358832l1.6552,-0.699754l2.382842,0.351163l4.36989,-0.123087l2.891895,-0.661349l4.068275,-0.197297l3.140694,0.356246l2.967335,-0.799746l3.74023,1.49186l2.06234,0.528007l1.753267,0.910007l0.720142,-0.312729l1.22911,2.596636l-0.177205,1.725077l0.882349,3.504043l0.508946,1.091907l1.723036,1.468823l-0.475039,1.199612l1.85501,3.844878l-0.991548,0.479362l-1.478017,1.473935l-0.482581,3.252814l-0.388423,2.619687l2.82406,0.956067l2.876768,0.712609l1.832427,-0.356304l3.936322,1.530308l2.895656,1.197084l2.190617,0.148637l1.794631,-0.663877l1.881439,0.212722l2.473432,-0.443412l2.959709,-0.299932l1.934232,0.374243l2.107591,0.492145l0.056576,0.597278l2.744901,0.766367l1.214346,0.049008l2.032214,-0.1897l1.259342,0.112803l2.000123,0.585687l2.377308,1.344428l2.10381,1.268868l2.326353,0.451111l3.357533,0.097421l1.479939,0.214001l0.689932,0.416555l0.931276,1.271395l0.062195,1.928852l-0.510889,1.054838l-0.314777,1.271381l0.787978,1.066299l0.893588,0.926638l0.103409,0.962734l2.309666,0.408683l0.71822,0.003791l1.170675,0.178138l0.514672,0.831832l2.2717,1.395673l0.842631,0.189729l0.256449,0.595957l-0.246963,1.291861l1.532648,2.515875l0.224316,1.279137l0.857821,0.9971l0.092341,1.58668l-0.763471,1.425189l-1.016139,0.670282l-0.739051,0.182045l-0.918008,0.843293l-0.473201,1.966037l0.314777,0.656164l-0.32234,0.549853l0.271469,0.465273l1.858791,0.890703l0.311102,0.844585l-0.080825,0.738725l0.61244,1.190185l0.559902,0.275588l1.289467,3.452711l0.077236,1.161236l-0.392098,1.348263l0.345009,0.685694l-1.368626,1.314913l-0.120715,0.981805l-0.80116,1.077846l-0.192332,1.461066l-0.765395,0.730533l-1.470453,0.422961l-1.598645,3.301474l-0.987851,0.546004l-1.345957,2.88884l0.082941,1.912191l0.761635,1.699455l-0.162206,1.986604l-1.50436,2.542733l-0.648461,1.999386l-1.757028,1.371344l-3.487648,-0.235788l-2.586412,-0.610032l-2.318789,-0.376829l-3.664489,0.382348l-2.224867,-0.331045l-2.937125,0.135826l-4.264644,1.17884l-1.809502,0.392487l-2.428073,1.499471l-0.867223,1.271381l-0.94262,0.230705l-1.033103,1.13297l-1.183857,0.23069l-0.939459,1.815758l-0.972127,0.486117l-1.945492,2.7504l-0.064139,0.966394l1.42142,0.930459l-2.749281,0.554443l-1.341577,2.362605l-2.906979,-0.007713l-3.174602,0.292234l-2.967357,0.981733l-1.779611,1.066299l-0.595668,4.165378l-5.376629,-0.217922l-5.142762,1.222707l-3.461283,1.589266l-3.295594,1.814553l-2.672942,3.614464l-1.85877,3.665564l-0.482602,4.408821l2.903218,3.124629l5.05604,1.174033l2.284903,2.732461l0.806864,3.288677l-1.285685,1.773853l-4.705499,3.427103l-7.804638,8.407637l0.135734,1.740459l1.119719,1.794304l2.416856,2.183915l3.370779,2.119815l5.25961,4.770354l3.208594,2.670874l2.726013,3.378443l1.760809,3.424561l0.47882,2.955482l-0.965183,2.132685l-1.779611,2.304388l-4.385017,2.950326l-6.130614,3.309201l-10.930376,4.726735l-4.590937,2.155504l-3.017695,2.709628l-1.395076,4.075626l0.018887,4.478121l1.738162,2.752942l1.998286,1.971178l3.770355,-3.10669l3.129436,-1.432887l3.182251,-2.186486l1.696607,-1.325226l2.861748,-0.343522l2.816496,1.32524l2.194378,2.222364l3.185947,1.386755l3.751554,0.576754l3.623382,-1.776395l3.17864,-1.791167l1.813261,-2.276732l2.077552,-1.071455l3.163,-0.351453l2.869567,0.646214l1.121749,0.305016l-0.331847,1.558516l0.180987,0.651022l1.221654,0.367823l0.512727,0.613939l-0.180987,1.132999l-0.803105,0.813864l-0.623956,0.884297l-0.320482,1.016361l-0.405558,1.366071l-1.098824,0.369232l-0.833316,0.822856l-0.334647,1.257524l0.236686,0.926421l0.082941,1.266239l-0.414767,3.993602l-1.783393,0.835638l-0.199788,2.440286l-0.889805,2.51711l-0.863462,1.843066l-0.565522,0.720264l-0.588211,1.971149l-1.308354,1.750758l-0.96905,4.384607l0.705123,1.434049l-1.142387,1.358532l0.95386,1.625129l-0.731402,1.735332l-0.030146,2.927347l-0.925465,2.917223l1.102669,1.163531l1.779632,0.843278l0.490144,0.804873l0.154536,1.80713l-1.527029,0.999715l-2.152822,1.145752l-1.530811,0.984362l-1.636335,1.440542l-0.62966,2.893968l-2.790068,0.128185l-2.624186,0.420346l-1.851292,0.351177l-0.279032,3.532164l1.206526,2.394168l4.279386,2.050632l2.077552,1.468721l1.319593,0.197398l1.055687,0.507541l0.844575,1.266297l0.282792,1.758398l3.020066,0.599835l1.998307,0.738202l2.103895,1.125257l2.624186,1.058629l0.668673,3.952002l4.828755,2.397044l1.992838,3.334896l2.376091,1.198537l-0.459934,3.960194l-2.452685,0.208481l-4.368929,3.230721l0.459934,3.595479l-2.912619,3.491232l-0.076616,1.928024l2.376091,3.908164l-1.149779,3.074371l-5.058689,-0.93791l-1.916137,-1.250595l-13.106679,0.885793l-0.383231,-0.625298l-10.807312,-0.781633l-3.985611,0.573225l-1.302991,1.928024l-5.901833,4.220762l-5.212093,1.667499l-7.051527,2.761759l-1.992753,-0.573181l-4.292313,-0.938012l-1.45631,-1.09426l-4.138909,0l-4.21561,-0.781589l-5.518623,-1.25061l-1.686223,-1.563251l-2.069454,-8.23316l1.379693,-2.7097l1.379607,-1.198435l0.766463,-9.066924l-1.149694,-0.729473l-0.689847,-8.545845l-2.069454,-3.074342l-5.748536,-0.208437l-5.288689,-6.513574l0.306615,-1.250653l-1.916137,-2.449059l-1.762925,-0.208481l-2.452707,-4.012325l-5.058754,-2.970153l-1.609542,0.833706l-3.602466,-1.198522l-0.153297,-1.823791l-2.68262,-2.292724l0.645235,-0.502225l4.643367,-3.614362l-0.689762,-1.719572l-5.13537,-3.282867l-3.755678,-2.605424l-2.222773,-1.771645l-0.843165,3.647581l-2.376069,1.51112l-6.131768,1.094303l-4.292227,2.344855l-3.602444,0.416846l-2.912534,1.875922l-4.44563,4.741885l-10.347293,-0.416889l-7.051613,0.052131l-8.715445,4.085227l6.361682,-11.5681l2.146156,-9.014749l-3.985676,-3.126488l-0.459848,-3.439188l-5.901833,-3.33494l-1.073078,-2.657569l3.67906,-0.416788l1.45631,-1.354887l-2.146156,-0.677371l-5.978449,-0.260569l-1.992838,-0.833706l-2.682706,-4.325025l-3.985591,-2.761715l1.916137,-2.240695l-1.839541,-2.918094l1.278058,-4.653586l-0.541998,-3.684635l0.933305,-1.413888l-9.171319,-2.934014l-1.625972,-1.547535l0.216837,-3.537233l-1.40922,-3.242501l-1.485473,-0.729313l-0.465638,-0.228627l-0.026194,-0.618601l-0.189683,-0.17394l-0.098837,-0.624731l-0.444016,-0.056648l-1.136598,-0.539671l-0.28869,0.044099l-0.452199,-0.0546l-0.389663,-0.286728l0.010106,-0.187855l-0.561227,-0.301675l-1.178324,-1.61759l-0.288177,-0.073716l-0.497087,-0.37632l-0.133791,-0.277534l-0.34924,-0.320427l-0.278071,-0.453682l-0.111826,-0.356537l0.160775,-0.183628l-0.198122,-0.304057l-0.198912,-0.003849l-0.253458,-0.114967l-0.121762,-0.37128l-0.230725,-0.148884l0.101656,-0.334952l1.639839,-1.549583l0.360649,-0.053409l0.378745,-0.226332l0.394213,-0.094429l-0.179577,-0.137104l-0.352209,-0.044418l-0.359259,-0.348257l-0.676493,-0.292059l-0.423463,-0.046379l-0.207159,-0.295153l-0.243288,-0.123218l-0.197502,-0.430674l-1.081496,-0.652649l-21.816057,-11.476533l-2.276378,-1.768624l-7.611601,-1.830051l-1.276819,-0.30702l-2.059434,0.884268l-13.874638,0.663238l-3.513116,-3.353445l-3.660537,-1.287576l0,-0.00001zm213.607787,-38.503975l0.037688,0.02722l0.169663,0.176278l0,0.017619l0.025916,0.009601l0.089607,0.24828l0.181413,-0.025564l-0.08715,-0.249936l-0.02363,-0.032057l-0.044718,0.012768l-0.04006,-0.035238l0.037688,-0.022383l-0.146096,-0.129769l0.023545,-0.02722l-0.023545,-0.036909l0.021174,-0.185807l0.030659,-0.001583l0.018887,-0.028818l0.179042,-0.097784l-0.037688,-0.040003l0.042431,-0.001583l0.007029,-0.024054l-0.023545,-0.012855l-0.042431,0.012855l-0.042431,-0.030474l-0.221474,0.123348l-0.03771,0.001656l-0.023545,0.0208l0.007029,0.02722l-0.070634,0.265972l-0.007114,0.038419l0,0.000001z" id="2409164"/>
   </g>
   <g stroke="null" class="boundary Goyang_2409166_AL6" id="4128000000">
    <path stroke="null" d="m37.375828,466.503209l0.952983,-4.336078l0.394128,-1.793506l1.574118,-5.587923l0.311379,0.026044l3.440174,1.332445l3.894146,1.671435l1.702845,1.351473l2.83346,2.079624l1.579908,1.619725l0.508176,0.745421l0.783235,-0.104611l0.197929,-0.422903l0.791759,-0.42299l0.235639,-0.422903l1.432765,-0.820256l0.810647,0.038434l0.037688,0.313992l1.432765,-0.326833l-0.263927,-0.301167l-0.593895,0.044839l-0.556142,-0.275515l0.14146,-0.794677l0.706897,-0.121751l-0.084799,-0.487017l0.24504,0.057665l0.386479,0.096172l1.489341,-0.621608l0.113856,-0.300121l2.212838,-1.388033l0.574153,0.260728l0.657435,0.139355l1.696671,-0.381288l0.59383,0.096099l1.531687,-0.656817l2.073749,-0.871501l1.866334,-0.672897l2.096866,-0.011475l0.580135,0.12682l0.782359,-0.435729l1.069211,0.113457l1.258978,-0.722283l0.791759,-0.749706l2.196236,0.217864l0.876623,-0.5319l0.518453,0.057665l0.952,-0.531842l0.188549,-0.583174l0.527833,-0.076926l0.447008,-0.533672l1.202596,0.059495l0.141353,0.877906l0.970908,-0.230705l0.376993,-0.576696l1.404455,-0.083346l-0.037688,-0.455004l0.283349,-0.001743l3.892395,-0.02385l0.688073,0.378078l0.838849,-0.05768l0.791866,0.275559l1.120509,-0.021062l1.047418,-0.651821l0.622118,-0.954788l0.914333,0.11536l-0.009401,0.640796l1.184648,0.646083l1.247206,-0.107806l1.168838,-0.480597l0.735185,0.442178l0.273413,0.602362l1.723655,0.600547l1.655564,0.261353l0.810219,-0.724273l0.375754,-0.285058l0.39588,-0.062749l0.386308,-0.028382l0.469163,-0.217792l0.512193,-0.184819l0.321464,0.115055l0.16227,0.002803l0.184597,-0.02295l1.099785,-0.356566l0.198805,0.454321l0.027412,0.313905l0.672626,0.385093l0.882712,-0.436353l1.299914,0.648262l0.54751,0.280991l0.641005,-0.48067l2.290501,-0.320398l0.78238,-0.442163l1.008576,0.685708l0.131953,-0.570349l-0.197929,-0.262733l1.11051,-0.793224l-0.281062,-0.398689l0.103687,-0.557537l1.658982,0.224299l4.043768,1.710944l0.719095,0.498042l0.628784,-0.683834l0,-0.531929l-0.537234,-0.448511l0.141353,-0.506292l-0.169641,-0.589551l0.273328,-1.230391l0.282792,-0.551074l0.556142,-0.416526l-0.35082,-0.597583l1.519658,-1.126259l1.102776,-0.422975l0.622118,-0.999671l0.509031,-0.653636l-0.320502,-0.307616l1.593006,-1.313664l0.461877,0.205082l0.961401,0.134547l0.452455,-0.519031l-0.079842,-0.568576l1.163817,0.107138l0.867243,-0.301196l0.056576,-0.474206l-0.179149,-0.442105l1.244236,-0.762576l1.149951,-0.294805l0.226217,-0.858718l1.866334,-0.576769l1.055772,0.00642l1.611828,-0.954803l0.14364,-0.755909l1.072287,-0.237343l0.386479,-0.781822l1.729531,-1.561639l-1.060323,-2.37944l0.574837,-0.62752l-1.178067,-0.82072l0.030489,-0.424137l3.664575,-1.435066l2.412968,1.590036l0.108066,2.512433l2.097571,2.312943l0.207437,0.685694l0.867136,0.080121l0.58443,-0.211444l1.187725,0.515864l1.173495,-0.150656l1.475196,0.60563l0.075377,0.551117l0.74467,0.647173l1.498763,0.352499l1.065066,0.563928l0.734564,-0.16643l0.839576,-0.942181l0.414767,-0.044869l0.320482,-0.461395l4.380786,-0.015106l0.473565,-1.586971l0.63545,-0.852008l0.87267,0.438692l0.122573,0.900319l0.947343,0.618413l0.296873,-0.16017l0.739927,0.121736l0.292214,-0.336434l1.710836,-0.01284l0.127295,-0.435729l0.306273,-0.429396l1.159437,-0.605572l1.234729,-0.112149l1.296154,1.163124l0.381736,1.473848l0.347636,0.054833l0.840002,-1.868354l1.586681,0.209628l2.692705,-1.122802l1.260217,-1.848353l1.756066,-0.625167l1.904129,0.051202l2.050375,-1.0759l7.432131,-1.448938l2.092486,0.858718l0.30168,0.717707l4.425162,0.81828l2.059883,0.565889l1.131149,1.204783l0.324285,1.15008l3.295316,-1.323091l0.989689,0.544726l0.254526,0.954788l-0.136696,1.018946l0.575007,0.68886l0.984967,0.057694l0.452455,0.426142l1.390333,-0.147417l0.636241,-0.486988l1.009302,0.194145l0.795798,-0.178138l0.919076,0.374853l1.338394,-0.166576l0.69758,0.304391l0.442969,0.34284l0.881388,-0.227524l0.414767,0.352426l1.003854,-0.105715l0.999089,1.089438l0.886045,0.064042l0.194148,0.289968l1.285792,-0.873084l1.076582,-1.06627l1.015968,0.015324l0.754071,-0.224284l0.688095,-0.826676l2.479051,-0.128156l0.461857,0.17301l2.158548,-0.102548l0.961401,-0.627999l0.763471,-0.108983l0.829106,-0.52243l-1.668383,-7.56144l10.83953,-6.779749l8.983667,0.522052l2.186836,-1.050975l3.147104,0.08673l3.031753,3.07947l-2.222773,1.354843l0.153319,5.158731l-3.832379,0.573166l-4.647426,4.088917l2.127077,0.550914l-0.264697,2.957763l0.915103,0.835856l-0.273413,0.390933l0.141375,1.217565l0.603295,0.442192l0.242839,0.872445l-1.044085,0.735995l0.009486,1.326519l-0.527833,1.115002l-0.867223,0.288355l-0.34879,0.858704l-0.922943,0.182568l3.412164,1.525079l0.131269,1.432393l-0.235725,0.371687l0.716382,0.589565l-0.791759,0.967658l-0.94262,0.75617l0.293005,1.073082l-0.9811,0.368796l-0.311016,1.441835l0.235639,0.230705l0.009401,0.345977l-0.311016,0.288384l0.197951,0.87153l-0.650406,0.653665l-0.065976,0.365281l-0.490144,0.365208l0.056491,0.30121l-0.414681,0.320442l-0.169663,0.551117l-1.055772,0.544711l-0.286575,1.30354l-0.01502,1.131575l-0.886045,0.333166l-0.39588,0.672926l0.339304,0.384498l-0.763471,0.384498l0.065976,0.595913l-1.422381,1.165753l-0.943582,2.2627l0.047174,2.588937l0.282814,0.211459l-0.47741,1.50502l-0.888588,0.885997l-0.047965,1.684639l-1.264512,0.998771l-2.291206,0.720598l-0.816288,-0.200579l-0.884358,-0.927902l-1.360636,-0.097508l0.999111,0.429396l0.025126,1.422937l1.624455,0.845544l-0.686941,1.14857l1.742627,0.626532l0.113151,0.230676l1.065087,0.390875l0.781056,-0.025724l0.114475,-0.294674l1.149951,0l0.367592,0.160199l2.25606,-0.706581l2.059519,0.552657l1.354931,-0.589565l0.70461,-1.547535l6.232699,0.847505l3.52288,-1.10543l7.316672,1.068521l2.167948,-1.068521l1.35491,-3.758322l-1.029749,-2.505533l1.517542,-1.989727l0.921341,-2.210772l4.986197,-1.621236l2.655722,-3.574055l3.902244,1.031685l5.690807,-0.405327l2.926678,1.916055l4.064749,2.616042l6.759761,0.324392l3.908995,2.188578l3.142532,0.990041l1.019835,1.286908l1.191955,0.304217l0.39588,0.474162l0.414767,0.384512l0.226239,0.576798l-0.037688,0.627956l0.150754,0.589609l0.456238,0.5293l0.326121,0.116594l0.130115,0.308879l-0.610858,0.557523l0.490144,0.897167l-0.263927,0.692056l0.301701,0.730533l-0.245104,0.730591l0.35817,0.205024l0,0.34605l-0.282792,0.320398l0.037774,0.576798l-0.075462,0.17943l0.018887,0.34605l0.245018,0.730489l-0.659785,0.487061l-0.226239,0.346035l-0.414681,0.217908l-1.67789,0.38444l-0.584408,0.307616l-0.39588,0.29479l-0.716382,-0.102534l-0.188464,0.051231l-0.113151,0.371672l-0.527833,0.281964l-0.659807,0.1282l-0.094264,0.11536l0,0.307543l-0.622118,0.948484l-0.490144,0.44854l-0.320502,0.397309l-0.414767,0.346006l-0.82947,0.384571l-0.923712,1.307186l-0.075462,0.371716l-1.621314,0.025652l-0.590925,0.260205l-0.587229,-0.064129l-0.070719,0.2781l0.069758,0.309548l0.726745,1.651434l1.168838,0.871501l0.031108,0.489617l0.553322,0.471577l0.697495,0.499858l0.584408,0.442134l-0.018801,0.467873l-0.047174,0.249921l-0.112361,0.177804l0.249761,0.317217l0.301701,0.140982l0.226152,0.067295l0.047174,0.233857l-0.051833,0.17622l0.209275,0.639692l-0.257154,0.778176l-0.273413,0.371658l-0.075377,0.198691l-0.320502,0.243501l-0.273328,0.153808l-0.137657,0.239638l0.373297,0.676702l0,0.371643l0.442969,0.403787l0.58443,0.134562l0.34879,-0.140968l0.160241,0.410106l0.339304,0.358817l-0.056491,0.403773l-0.329989,0.570305l0.028288,0.262718l-0.263927,0.442163l-0.009401,0.243545l-0.073796,0.132761l0.01722,0.283751l-0.141353,0.269197l-0.037688,0.27553l-0.160262,0.173025l-0.226217,0.083259l-0.235639,0.166692l-0.273413,-0.025637l-0.188443,-0.057709l-0.131974,0.019231l-1.159437,0.672868l-0.179042,0.294746l-0.417138,0.288733l-0.487345,-0.009964l-0.207778,0.035224l-0.848357,0.378092l-0.34879,0.115403l-0.20733,0.17301l-0.772958,-0.0641l-0.575029,0.192256l-0.141353,-0.00642l-0.334647,0.317232l-0.301616,0.346021l-0.117808,0.237125l-0.216837,0.080107l-0.240275,0.256269l-0.41951,0.18267l-0.150776,0.217893l-0.176841,-0.109433l-0.2945,-0.140503l-0.372335,-0.019246l-0.274994,-0.063272l-0.474333,-0.029632l-0.358448,-0.115476l-0.258927,-0.172865l-0.472475,0.239158l-2.697812,0.73829l-1.602428,0.320383l-2.130239,-0.076853l-1.168752,0.685708l-2.036082,-0.07052l-2.59844,0.409888l1.145207,-0.278812l0.461857,-0.346021l0.198036,-0.288326l0.851155,-0.800646l0.468458,-0.416933l0.324007,-0.194726l0.19434,-0.202584l0.659892,-0.320398l-0.763557,-2.050675l-0.524243,-0.560704l-0.258031,-0.368448l-0.02831,-0.679288l-0.572465,-0.530854l-0.341846,-0.552061l-0.081081,-0.304275l-0.060357,-0.170018l-0.180025,-0.165109l-0.074501,-0.155304l-0.0992,-0.703603l-0.221217,-0.116623l-0.084864,-0.147388l-0.15648,-0.124612l-0.258287,-0.266262l0.066062,-0.179459l0.018801,-0.435758l0.012991,-0.271709l-0.151545,-0.112324l-0.002799,-0.192721l-0.122573,-0.422961l0.042431,-0.669614l0.108429,-0.330101l-0.216837,-0.337639l0.110779,-0.250227l-0.13238,-0.20729l0.059289,-0.198023l-0.25442,-0.153808l-0.442371,-0.474496l-0.142059,-0.268862l-0.103665,-0.140982l-0.099029,-0.221118l-0.139067,-0.198618l0.002371,-0.067295l0.037688,-0.140997l0.056576,-0.115345l0.028288,-0.115345l0.061255,-0.150641l-0.004765,-0.128098l-0.009401,-0.125004l-0.042346,-0.269095l-0.09435,-0.390991l-0.131868,-0.583087l-0.232905,-0.814605l-0.424274,-0.1057l-0.367485,-0.304406l-0.772979,-0.301167l-0.273306,-0.105773l-0.301701,-0.147402l-0.282728,-0.150583l-0.318559,-0.153082l-0.358192,-0.224284l-0.235639,-0.147344l-0.452455,0.076868l-1.18764,-0.064042l-0.320502,-0.166663l-0.207351,-0.089708l-0.226217,-0.24353l-0.848335,-0.320413l-0.358212,-0.435699l-0.33939,-0.166648l-0.904826,-0.307601l-0.113151,-0.084944l0.141268,-0.251694l0.037859,-0.147126l-0.10375,-0.183483l0.080825,-0.269647l-0.063177,-0.142071l-0.116761,-0.09838l-0.165518,-0.258782l-0.828743,0.244228l-0.697495,0.15375l-3.525315,0.82027l-0.772958,0.35889l-0.904846,0.499828l-1.564718,1.832753l-0.377078,0.679288l-0.527833,0.666448l-0.546741,0.538277l-0.961401,0.474206l-0.886045,0.192227l-0.867223,0.064114l-1.281925,-0.051289l-1.093354,0.038463l-1.244236,0.333224l-0.791845,0.384498l-1.376189,0.92276l-0.697495,0.346108l-2.035975,1.038076l-0.791845,0.358919l-0.545758,0.099948l-0.979775,0.076185l-1.29624,0.109608l-1.457549,0.149959l-2.27907,0.231881l-1.397533,0.351075l-0.397119,-0.252928l-0.853612,-0.102519l-0.472752,-0.226826l-1.144417,-0.624063l-0.682283,-0.469514l-0.86092,-0.345352l-0.296681,0.120545l-0.368126,-0.185938l-0.701256,-0.399444l-1.080642,-0.483313l-0.384193,-0.194479l0.540567,0.530244l0.433589,0.333282l0.462817,0.362696l0.581695,0.694002l0.70585,0.287484l0.511851,0.20835l0.694419,0.293657l0.805819,0.313731l1.263637,0.499146l-0.335266,0.819951l-0.222799,0.544755l-0.193208,0.472579l-0.094606,0.231416l-0.127402,0.311523l-0.1086,0.265449l-0.067109,0.164281l-0.056768,0.138716l-0.183529,0.448801l-0.086701,0.212243l-0.080825,0.197558l-0.151118,0.369508l-0.159472,0.390032l0.433589,0.384527l-0.056596,0.294761l0.244164,1.015083l-0.226239,0.294746l-0.130991,0.266626l-0.471343,-0.064114l-0.377954,0.246116l-0.414788,0.153779l-0.20733,0.281935l-0.490144,0.346035l-0.414788,0.140968l-0.338321,0.240974l-0.283775,0.233276l-0.272366,-0.008962l-0.293176,0.002556l0.018887,0.467757l0.000898,0.266611l0,0.192256l0.169641,0.140953l0.207437,0.166605l0.130991,0.335838l-0.017926,0.215322l0.149879,0.181987l0.094264,0.140968l0.527854,0.371658l0.39588,0.179416l0.226217,0.166677l0.113172,0.166605l0,0.23069l0.282707,0.24353l0.056596,0.26908l-0.263927,0.512683l-0.113065,0.320442l-0.018887,0.269153l0.151715,0.266596l0.037688,0.243516l-0.301616,0.217864l-0.811523,0.246072l-0.320502,0.217879l-0.113151,0.153764l-0.094179,0.23069l-0.301701,0.217864l-0.282728,0.205126l0.24504,0.115301l0.075377,0.217864l0.03865,0.420419l0.452455,0.256327l-0.000962,0.258884l-0.055614,0.381956l-0.697495,0.320413l-0.490144,0.051274l-0.264889,0.169147l-0.187567,0.535706l-0.415643,0.130756l0.010447,0.434276l0.008354,0.34756l-0.225277,0.17683l-1.188601,0.310143l-0.262966,0.253814l0,0.294775l0,0.307572l-0.113151,0.192213l-0.263927,0.358934l-0.282707,0.230661l0.130991,0.182016l0.131953,0.320398l-0.451494,0.29219l-0.245125,0.371658l0.074501,0.348664l-0.113065,0.320383l-0.245125,0.128185l-0.245018,0.435743l-0.094264,0.153822l-0.093324,0.266538l0.20639,0.284564l0.019763,0.215264l-0.000876,0.399924l-0.074501,0.369087l0.301616,0.205082l0.15084,0.230719l0.16868,0.246014l0.094286,0.358904l-0.187589,0.471606l0.282814,0.410164l-0.019763,0.399895l0.114027,0.471606l-0.03865,0.246087l-0.188549,0.230705l-0.094264,0.269167l0.056576,0.358788l-0.094264,0.153808l0.056576,0.269153l0.000983,0.36913l0.226132,0.281964l-0.000876,0.45114l-0.244164,0.292219l-0.415643,0.092279l-0.941724,0.048703l0.074501,0.194813l0.170603,0.202497l-0.151715,0.182001l-0.055614,0.112789l-0.094264,0.192242l0.338321,0.33578l-0.036727,0.228134l0.24504,0.269138l0.319627,0.463937l0.076339,0.305103l0,0.205053l0.169663,0.140968l0.149879,0.233247l-0.113151,0.153793l0.000962,0.369087l-0.094286,0.128171l0.03771,0.256385l-0.227114,0.425474l0.151715,0.471679l-0.018887,0.153793l0.018887,0.256298l0.413805,0.220421l0.07636,0.3179l-0.000983,0.258869l-0.338407,0.240916l-0.359067,0.092352l-0.489183,0.266553l-0.226239,0.269109l-0.302577,0.207668l-0.113151,0.217864l-0.414703,0.16659l-0.094264,0.166663l-0.169727,0.128156l0.114112,0.458838l0.432607,0.425517l0.07636,0.304972l-0.150776,0.346064l0,0.192227l0.150776,0.230734l0.187567,0.233217l-0.169663,0l-0.432586,0.112832l-0.58443,0.025637l-0.472326,0.130698l-0.169641,0.115331l-0.169641,0.064144l-0.094286,0.205024l-0.263906,0.205097l-0.301616,0.115331l-0.187589,-0.028194l-0.301594,-0.128214l-0.433654,0.051332l-0.321378,-0.08721l-0.35723,-0.092264l-0.095248,0.066642l-0.413805,0.01024l-0.302577,-0.0615l-0.226217,-0.153764l-0.54578,-0.015382l-0.359067,0.169147l-0.225341,0.151281l-1.18764,0.217835l-0.829448,-0.307616l-0.264889,-0.048689l-0.244164,0.035877l-0.415643,-0.035877l-0.188549,0.115331l-0.621135,0.010327l-0.095248,0.066627l-0.754071,-0.115403l-0.245104,0.153851l-0.257347,0.042879l-0.240275,-0.105076l-0.048158,-0.209541l-0.245018,-0.269167l-0.226239,-0.320354l-0.094264,-0.230734l-0.057452,-0.458824l-0.263051,-0.220406l0.320502,-0.525466l0.433569,-0.35889l0.198463,-0.442483l0.159728,-0.41625l-0.056491,-0.358817l-0.415728,-0.112847l-0.94166,0.112847l-0.263927,0.422888l-0.679656,0.733148l-0.527833,0.397251l-0.551292,0.228787l-0.495421,0.366182l-0.325865,0.2183l-0.804322,0.374926l-0.589686,0.41458l-0.343962,0.676063l-0.263927,0.384483l-0.490144,1.179102l-0.301616,0.246101l-0.829533,0.035877l-0.150776,0.179387l-0.527833,1.051004l-0.075462,0.563928l0.377078,0.307587l-0.377078,0.205009l0.188529,0.681888l-0.301616,0.625414l-0.527833,1.399581l-0.188549,0.307572l-1.658982,0.28195l-0.98031,0.35889l-1.809758,0.461395l-1.319593,0.179445l-2.639291,0.435758l-1.470453,0.266567l-2.413075,0.487003l-0.9426,0.282008l-2.262213,0.476748l-3.091768,0.589551l-1.168752,0.23069l-2.073749,0.128185l-1.583519,-0.897181l-1.508163,-0.999701l-4.547778,-2.31303l-0.542254,-0.275849l-2.337676,-0.948426l-3.280211,-1.050946l-1.613751,-0.626779l-0.912474,-0.398486l-1.234729,-0.895947l-0.347573,-0.185342l-1.264256,-0.782301l-0.290356,-1.180366l-0.897369,-0.390904l-1.394991,-1.025352l-1.319678,-0.692041l-0.829448,-0.76901l-4.353204,-2.246795l-2.848224,-1.469985l-4.901505,-3.973121l-1.658982,-1.973735l-1.093461,-1.179145l-0.490165,-0.486974l-1.432658,0.076911l-1.282011,0.461337l-6.433192,-4.192351l-16.731279,-7.170798l-15.273133,-6.539632l-3.902158,-1.760664l-2.978681,-0.435699l-5.01457,-2.076298l-3.789242,-2.550504l-1.300812,-1.320069l-3.46874,-2.018589l-1.404477,-2.467187l-1.951111,-0.845864l-0.999196,-0.634419l-5.759497,-0.504593l-29.424431,-11.814623l-10.242218,-4.554407l-1.36431,-0.652881l-2.224524,-1.576469l-2.488537,-3.306645l-1.408515,-2.708045l-0.401242,-1.175311l-0.244249,-1.278367l0.000004,0.000001z" id="2409166"/>
   </g>
   <g stroke="null" class="boundary Guri_2409168_AL6" id="4131000000">
    <path stroke="null" d="m415.657161,550.498793l0.150861,-0.820909l-0.075462,-0.666433l0.188529,-0.435743l0.641005,-0.743402l0,-0.615203l0.716382,-0.692085l-0.188549,-0.461395l1.395076,-1.435385l2.375279,-0.871573l0.716382,-0.538291l0.641005,-0.076882l0.380774,-0.422903l0.524051,-0.884341l0.33939,-0.974049l0.246001,-1.299908l0.134773,-0.712304l0.754071,-0.922775l1.047076,-1.300809l0.593126,-0.736997l0.867136,-0.52548l1.033103,-0.21724l0.791759,-0.461424l0.113151,-0.909949l-0.203655,-1.00034l0.113172,-0.422917l-0.622118,-0.230748l-0.471343,-0.192242l-0.795541,-0.947758l0.15084,-0.589522l0.720079,-0.705564l0.603317,-0.679259l1.542049,-0.934991l0.607077,-0.192852l0.128192,-0.24292l-0.15084,-0.461395l0,-0.538306l-0.094286,-0.384425l0.358192,-0.845922l0.018887,-0.653607l-0.279032,-0.410832l-1.059447,-0.422888l-0.009315,-0.415291l0.487153,-1.456549l0.035146,-0.999047l-0.512984,-1.461124l0.086701,-1.429575l0.064053,-1.056814l-0.678609,-0.589522l-0.18291,-0.653622l-0.684313,-0.166663l-1.244216,-0.102548l-1.579759,-0.474162l-1.106622,-0.531871l-1.753887,0.445068l-1.853599,-0.097203l-0.821628,-0.193651l-1.703444,-0.801445l-0.199959,-0.857876l1.450327,-1.581553l0.080655,-1.431202l2.322485,-1.243173l1.470453,-0.845878l1.813518,-1.448269l0.071703,-1.063742l0.565522,-1.461081l-0.452455,-0.640811l-0.373211,-2.089138l0.335523,-1.243202l-0.671921,-1.65569l0.622631,-0.209018l0.66393,-0.506597l1.02977,0.230283l0.799409,-0.138179l0.805904,-0.313571l0.775864,0.326382l2.266251,0.291173l1.219453,0.128984l0.969669,0.3396l3.582959,0.323594l1.207317,0.456645l0.472838,0.178922l1.422659,-0.313179l1.558222,0.442163l2.804724,-2.155504l2.77759,-0.5527l1.513846,-0.755546l1.628686,-0.390816l1.360549,0.195365l1.513761,0.99007l1.87785,0.299627l2.012003,2.370942l0.977211,1.511135l-0.478992,4.051427l-3.065916,2.761817l-2.318618,3.308867l0.440768,3.843033l2.950927,3.816902l0.574837,0.820764l0.191626,3.139517l0.747298,3.178619l1.571298,3.282852l0.862223,1.458989l2.376091,1.888951l2.835917,1.107318l4.277549,0.644907l1.835054,0.397266l3.334244,-0.026087l0.342381,0.273264l0.500677,0.410672l0.25865,0.977012l-0.389022,0.566107l-0.778855,0.551393l-1.005692,0.234655l-1.178495,0.404775l-1.369416,-0.127009l-0.740889,0.116681l-0.524243,0.183236l-0.556569,0.322998l-0.437628,0.278885l-0.348705,0.330827l-0.217607,0.51874l-0.066062,0.423004l0.031365,0.379806l0.11798,0.372427l0.204617,0.350407l0.356183,0.262007l0.896471,0.384164l1.091367,0.192808l1.65864,0.152849l5.058754,2.482932l-3.47453,1.545327l-3.853039,2.210162l-3.386077,1.942389l-2.563914,0.410106l-1.734359,1.537934l-1.326814,0.198793l-3.122235,0.46767l-2.262213,1.127871l-0.894121,-0.013799l-5.741763,-0.088764l-5.015189,1.116469l-3.505915,0.780442l-5.730953,1.84552l-3.345846,1.992167l-1.564269,1.80148l-0.533473,1.458452l-2.94926,-0.573442l0.451858,-1.079923l-0.56597,-1.074375l-1.59856,0.022906l-1.338394,0.294529l-0.555864,0.728979l-0.368831,0.48372l-0.416775,0.546629l-1.69291,0.576769l-0.829448,0.794575l-0.795541,0.012811l-1.155677,-1.152158l-0.056576,-0.949734l-0.267687,-0.542111l-0.195215,-0.140067l-0.869872,-0.624412l-0.301616,-0.563972l0.211111,-0.910588l0.882264,-1.998762l0.075377,-1.012439l0.678694,-1.678988l0.075377,-0.845878l0.490144,-1.281679l-0.128171,-0.551698l-0.607013,-0.332643l-0.901129,-0.115984l-0.512727,-0.332556l-0.509053,-0.371687l0.000002,0.000004z" id="2409168"/>
   </g>
   <g stroke="null" class="boundary Namyangju_2409175_AL6" id="4136000000">
    <path stroke="null" d="m398.368436,455.494912l0.843165,-1.563237l5.901833,-1.615382l1.916157,1.25061l8.507837,-4.429185l2.222751,0.729531l3.142532,-0.573254l1.533011,-2.396943l3.299632,-5.111001l3.035086,1.031714l1.951111,-3.09507l4.552543,-0.957999l0.541977,-2.579307l0.975566,-0.957999l0.433569,-5.3795l-1.192297,-1.031743l0,-4.642619l3.902222,-3.242501l0.108429,-2.210743l6.286902,-0.810611l1.625972,1.031714l4.335791,0.221016l0,-1.84231l3.686111,-3.936184l9.380422,0.228453l1.532926,1.146391l8.431221,0.521108l7.051527,-3.022269l2.452685,-4.481345l4.445523,-1.667484l3.832401,1.563222l6.285064,0.833735l3.525764,-1.77166l7.204846,0.729473l4.138994,-2.501176l0.459848,4.272894l9.504299,5.523503l3.945188,-1.123267l5.636603,-3.979425l1.210308,-1.704451l0.307235,-0.43262l3.251816,-0.515806l5.419786,-1.326519l4.877874,-1.031656l2.70984,-0.884326l3.685492,-0.442178l5.668843,-8.928731l3.660537,1.287576l3.513116,3.353445l13.874638,-0.663238l2.059434,-0.884268l1.276819,0.30702l7.611601,1.830051l2.276378,1.768624l21.816057,11.476533l1.081496,0.652649l0.197502,0.430674l0.243288,0.123218l0.207159,0.295153l0.423463,0.046379l0.676493,0.292059l0.359259,0.348257l0.352209,0.044418l0.179577,0.137104l-0.394213,0.094429l-0.378745,0.226332l-0.360649,0.053409l-1.639839,1.549583l-0.101656,0.334952l0.230725,0.148884l0.121762,0.37128l0.253458,0.114967l0.198912,0.003849l0.198122,0.304057l-0.160775,0.183628l0.111826,0.356537l0.278071,0.453682l0.34924,0.320427l0.133791,0.277534l0.497087,0.37632l0.288177,0.073716l1.178324,1.61759l0.561227,0.301675l-0.010106,0.187855l0.389663,0.286728l0.452199,0.0546l0.28869,-0.044099l1.136598,0.539671l0.444016,0.056648l0.098837,0.624731l0.189683,0.17394l0.026194,0.618601l0.465638,0.228627l1.485473,0.729313l1.40922,3.242501l-0.216837,3.537233l1.625972,1.547535l9.171319,2.934014l-0.933305,1.413888l0.541998,3.684635l-1.278058,4.653586l1.839541,2.918094l-1.916137,2.240695l3.985591,2.761715l2.682706,4.325025l1.992838,0.833706l5.978449,0.260569l2.146156,0.677371l-1.45631,1.354887l-3.67906,0.416788l1.073078,2.657569l5.901833,3.33494l0.459848,3.439188l3.985676,3.126488l-2.146156,9.014749l-6.361682,11.5681l-3.52585,4.16866l-9.427598,6.930434l-7.434759,9.692251l-4.292227,19.071671l-10.577292,15.788877l-9.2743,12.453923l-9.044365,8.493685l-1.762946,5.158774l-0.80116,7.534437l-0.578447,5.44055l-0.536528,4.950322l-6.821614,5.367183l-5.748536,-1.250639l-2.912597,-4.168646l-3.832401,-8.181043l-16.259318,-6.04281l-12.844867,-6.632288l-10.159363,-2.726375l-0.571141,-1.100012l-1.303611,-2.467753l-2.989855,-5.102373l-3.6246,-5.68424l-2.534559,-1.81095l-3.038355,-1.05157l-1.044171,-1.183401l-0.3624,-1.71154l-1.84313,-1.55227l-8.021219,-5.182683l-3.343987,-2.805291l-2.523854,-2.083923l-2.935801,-1.376965l-2.979728,-0.901147l-6.134054,-0.656614l-4.289769,-0.10297l-11.04654,7.765316l-5.058754,-2.482932l-1.65864,-0.152849l-1.091367,-0.192808l-0.896471,-0.384164l-0.356183,-0.262007l-0.204617,-0.350407l-0.11798,-0.372427l-0.031365,-0.379806l0.066062,-0.423004l0.217607,-0.51874l0.348705,-0.330827l0.437628,-0.278885l0.556569,-0.322998l0.524243,-0.183236l0.740889,-0.116681l1.369416,0.127009l1.178495,-0.404775l1.005692,-0.234655l0.778855,-0.551393l0.389022,-0.566107l-0.25865,-0.977012l-0.500677,-0.410672l-0.342381,-0.273264l-3.334244,0.026087l-1.835054,-0.397266l-4.277549,-0.644907l-2.835917,-1.107318l-2.376091,-1.888951l-0.862223,-1.458989l-1.571298,-3.282852l-0.747298,-3.178619l-0.191626,-3.139517l-0.574837,-0.820764l-2.950927,-3.816902l-0.440768,-3.843033l2.318618,-3.308867l3.065916,-2.761817l0.478992,-4.051427l-0.977211,-1.511135l-2.012003,-2.370942l-1.87785,-0.299627l-1.513761,-0.99007l-1.360549,-0.195365l-1.628686,0.390816l-1.513846,0.755546l-2.77759,0.5527l-2.804724,2.155504l-1.558222,-0.442163l-1.422659,0.313179l-0.472838,-0.178922l-1.207317,-0.456645l-3.582959,-0.323594l-0.969669,-0.3396l-1.219453,-0.128984l-2.266251,-0.291173l-0.775864,-0.326382l-0.805904,0.313571l-0.799409,0.138179l-1.02977,-0.230283l-0.66393,0.506597l-0.622631,0.209018l-1.137837,-0.958812l-2.371582,-0.833081l-2.450763,-0.281964l-1.851313,-0.115345l-1.281904,-0.256327l-1.357303,0.487003l-3.732666,-0.281964l-1.88522,-0.076882l-0.678694,-0.640811l0.263927,-2.435173l0.98407,-1.858375l0.754071,-1.179087l-1.285685,-1.217565l-1.206526,-1.845622l0.377078,-1.999372l1.206526,-1.127828l1.059468,-1.140683l0.094883,-0.387969l0.20295,-0.829537l0,-1.384213l0.678694,-0.92276l-0.147079,-1.191928l0.071681,-1.525195l-0.599514,-2.576068l-1.055687,-1.384184l-1.659004,-1.230405l0.373318,-1.012483l1.357281,-2.05069l2.035997,-1.640482l0.377078,-1.230391l-0.075377,-1.84555l-1.504467,0.089737l-1.281904,-0.717722l-2.488452,0.358817l-1.357303,-0.563899l-1.511988,-0.089752l-1.357303,-0.358832l-0.297833,-1.191913l-0.98031,-1.384198l-2.341458,-2.447897l-0.133448,-1.596877l-0.000003,-0.000003z" id="2409175"/>
   </g>
   <g stroke="null" class="boundary Paju_2409177_AL6" id="4148000000">
    <path stroke="null" d="m21.365417,393.880795l3.391525,-1.966559l1.541964,-1.647106l1.076946,-3.124295l-0.354239,-2.880474l-3.743478,-6.021952l-0.247048,-2.76202l0.333856,-1.402805l3.150972,-4.062074l4.237232,-3.920903l2.77274,-3.535926l2.950927,-5.226273l1.962798,-1.35387l2.620575,-1.769917l7.730051,-2.382112l6.914554,-2.125437l-1.472825,-2.858889l-0.336313,-4.360423l-1.749486,-3.651416l-1.519487,-4.997152l-0.87846,-4.460095l0.429786,-2.556895l-1.437145,-2.803011l-0.01863,-20.15999l1.968952,-3.863935l0.031536,-0.061921l2.59844,-5.099279l-0.21139,-0.900464l-0.665233,-2.832976l-7.883882,-2.540249l-1.53267,-4.051282l-2.264136,-1.466194l-0.463715,-1.832738l-1.966302,-3.277173l0.757832,-4.030758l-1.934147,-1.049696l-0.642138,-2.619106l0.54296,-1.358561l0.551805,-4.015593l-0.036449,-0.387984l0.100161,-0.147548l0.034783,-0.208539l-0.079073,-0.268456l-0.077578,-0.129681l-0.175367,-0.134911l-0.073433,-0.09347l-0.016516,-0.088096l-0.08935,-0.058406l-0.086188,-0.111423l0.01643,-0.10817l0.090931,-0.14884l-0.008183,-0.100152l-0.023801,-0.340574l-0.029249,-0.081574l-0.065998,-0.223471l0.007307,-0.207784l0.186947,-0.183991l0.02284,-0.129246l0.298112,-0.148927l0.037325,-0.14226l-0.157784,-0.204298l-0.077748,-0.207493l0.032946,-0.06885l0.227627,-0.043561l0.089094,-0.064695l0.040508,-0.089911l-0.111933,-0.262718l-0.013354,-0.209687l0.021174,-0.051274l0.053243,-0.226579l1.573414,-0.053569l2.316417,0.551422l0.507108,0.271869l0.830239,0.432475l0.074522,0.032493l0.036535,0.022122l0.07933,0.038405l0.035317,0.016443l0.081359,0.035834l0.033565,0.026581l0.05508,0.042719l0.028736,0.022282l0.049803,0.038623l0.009678,0.00751l0.019934,0.012651l0.058862,0.037344l0.027326,0.017343l0.070719,0.044854l0.062558,0.06256l0.687133,0.568896l1.38715,0.056663l0.710058,-0.480713l1.009558,-0.69101l1.110425,-0.368912l0.806438,-0.315285l1.099528,-0.439912l1.000586,-0.440202l1.592044,-0.2131l1.260752,0.399227l1.107604,0.412706l0.769176,0.286583l0.83261,0.310201l0.585925,0.218315l0.734906,0.594431l0.388231,0.313992l0.499994,0.205358l0.927067,0.254671l0.82665,0.342549l0.321549,0.54888l0.990052,0.32201l2.033176,0.121126l1.718378,0.270126l1.354931,0.082939l1.814052,-0.699769l1.931349,0.082649l5.727705,-0.890064l5.365305,-0.146124l6.199411,-3.278437l4.534874,-0.338395l2.300884,-3.885258l0.797999,-0.43737l2.663177,-1.459483l4.60508,-1.825098l2.598719,-1.59724l8.485083,-0.197529l3.487626,-1.591764l0.862671,-0.674059l3.392209,-2.650554l4.198304,-2.345436l7.83301,1.570035l2.247108,-3.473235l0.540139,-1.621962l1.7184,-3.01951l2.167928,-2.232648l2.758959,-2.797869l3.399173,0.06715l0.935848,2.517357l3.902393,0.845893l0.659807,1.666134l-0.471364,0.704969l-0.640899,1.230289l6.369415,8.513425l0.209894,1.214326l0.716361,0.141011l0.73529,-0.256327l0.904826,0.756112l-0.848357,0.961281l-3.035171,0.358846l1.187747,1.127886l1.583519,0.115316l0.037688,1.063757l2.2811,0.320398l0.509031,-0.435714l1.385163,0.588694l2.1024,1.474734l1.809843,2.127528l-0.716382,1.922446l1.357281,2.153209l1.621314,0.538233l6.635885,-1.640468l2.48843,-2.499244l-0.226217,-0.845849l1.432765,-0.038492l0.186071,0.624571l2.490909,-0.137511l0.188443,2.230018l1.131149,-1.166291l0.321293,-2.99518l0.791674,-6.078368l2.118744,-5.524244l2.980262,-2.485213l4.609995,-1.772778l3.958114,-0.474947l1.653106,0.823175l7.054775,6.094099l7.473858,6.157516l8.839855,2.953463l6.05857,0.268659l4.478127,-1.522232l0.921961,-3.671214l-2.370792,-3.850368l-1.712246,-8.327429l3.292774,-5.462018l5.795177,0l6.453766,3.223488l18.307513,7.521553l6.107155,1.241851l4.693021,-1.331414l10.009848,-3.939815l5.795177,-6.357529l8.034294,-5.193431l1.029493,-1.65171l1.204519,-0.033132l0,-1.409777l2.676979,0.076926l2.450763,-0.384556l0.9426,-0.845835l2.563829,1.230391l1.395076,-1.538006l2.563829,-0.410106l2.450742,0.435729l0.037688,0.99973l4.943252,3.619867l6.848835,5.372586l11.06359,1.611708l2.502488,4.835297l-4.082931,1.611751l0,5.19346l-3.951341,3.044449l-3.904958,-0.589943l-1.466779,1.471989l0.678694,1.819942l-1.545916,1.896867l-9.501307,0.487017l-2.359661,3.839939l0.700657,4.439484l-3.619601,0.871515l-6.593346,3.067457l-0.368917,3.085004l0.213312,0.870963l-3.090251,2.710717l-2.86694,0.903543l-1.131149,1.717379l-1.88522,-0.153735l-1.485645,0.690545l-1.229024,4.359115l0.678694,3.537349l-3.435281,6.381248l-4.138994,-1.66747l-0.962555,0.677806l-1.341577,0.939769l-3.006092,0.481919l-0.50042,1.030378l4.034367,3.409208l0.640899,1.461066l-0.397546,1.066749l-4.409587,2.893561l-0.056596,1.32004l-2.526226,2.230106l0.641005,0.871544l-0.499203,0.710764l1.366447,1.237348l-0.264013,1.589193l0.754156,0.41015l-2.337676,2.768324l-0.223247,1.585199l-0.116057,0.824337l1.696671,1.973735l0.113087,2.281293l-1.432765,0.845907l0.754071,1.640526l-0.904846,0.666448l-0.263906,2.409478l-1.131171,0.794589l1.369075,1.705512l-0.878909,0.345193l-0.150861,1.127842l1.659004,1.358503l-1.420908,3.076608l-1.896993,1.229708l-1.055772,2.896539l-1.470453,0.653694l0.018887,1.230376l-1.112263,1.03812l1.055687,1.358532l-3.619601,2.20441l0.049739,1.974011l-1.407019,0.896862l0.376993,2.025038l1.960597,1.871201l-1.335851,0.948499l-6.902354,1.409777l-1.093461,-1.345794l-0.622118,-1.345736l-10.459739,0.397454l-1.907098,2.012038l1.055687,0.589609l-0.075377,0.486988l0.490144,0.743344l-1.282011,5.485491l-7.766928,1.435415l-0.565629,1.025309l2.23745,2.338725l0.401841,2.070124l1.432765,0.153793l3.053972,1.794363l-0.188443,2.281293l-1.093461,0.897138l0.263927,1.35859l2.375365,1.461081l0.700657,1.953864l-6.286924,4.274215l-0.989689,7.221839l2.843289,0.212374l4.863815,-0.666404l3.883421,1.179087l1.659004,-0.051245l1.319593,0.64084l0.301701,0.666404l4.857064,2.209828l4.86373,-2.556895l5.43611,1.526241l-3.305251,7.095121l1.224623,1.003622l-2.676787,5.395536l-3.96822,8.92645l3.10775,2.058722l-0.678609,3.101563l-1.226567,1.547811l-3.147104,-0.08673l-2.186836,1.050975l-8.983667,-0.522052l-10.83953,6.779749l1.668383,7.56144l-0.829106,0.52243l-0.763471,0.108983l-0.961401,0.627999l-2.158548,0.102548l-0.461857,-0.17301l-2.479051,0.128156l-0.688095,0.826676l-0.754071,0.224284l-1.015968,-0.015324l-1.076582,1.06627l-1.285792,0.873084l-0.194148,-0.289968l-0.886045,-0.064042l-0.999089,-1.089438l-1.003854,0.105715l-0.414767,-0.352426l-0.881388,0.227524l-0.442969,-0.34284l-0.69758,-0.304391l-1.338394,0.166576l-0.919076,-0.374853l-0.795798,0.178138l-1.009302,-0.194145l-0.636241,0.486988l-1.390333,0.147417l-0.452455,-0.426142l-0.984967,-0.057694l-0.575007,-0.68886l0.136696,-1.018946l-0.254526,-0.954788l-0.989689,-0.544726l-3.295316,1.323091l-0.324285,-1.15008l-1.131149,-1.204783l-2.059883,-0.565889l-4.425162,-0.81828l-0.30168,-0.717707l-2.092486,-0.858718l-7.432131,1.448938l-2.050375,1.0759l-1.904129,-0.051202l-1.756066,0.625167l-1.260217,1.848353l-2.692705,1.122802l-1.586681,-0.209628l-0.840002,1.868354l-0.347636,-0.054833l-0.381736,-1.473848l-1.296154,-1.163124l-1.234729,0.112149l-1.159437,0.605572l-0.306273,0.429396l-0.127295,0.435729l-1.710836,0.01284l-0.292214,0.336434l-0.739927,-0.121736l-0.296873,0.16017l-0.947343,-0.618413l-0.122573,-0.900319l-0.87267,-0.438692l-0.63545,0.852008l-0.473565,1.586971l-4.380786,0.015106l-0.320482,0.461395l-0.414767,0.044869l-0.839576,0.942181l-0.734564,0.16643l-1.065066,-0.563928l-1.498763,-0.352499l-0.74467,-0.647173l-0.075377,-0.551117l-1.475196,-0.60563l-1.173495,0.150656l-1.187725,-0.515864l-0.58443,0.211444l-0.867136,-0.080121l-0.207437,-0.685694l-2.097571,-2.312943l-0.108066,-2.512433l-2.412968,-1.590036l-3.664575,1.435066l-0.030489,0.424137l1.178067,0.82072l-0.574837,0.62752l1.060323,2.37944l-1.729531,1.561639l-0.386479,0.781822l-1.072287,0.237343l-0.14364,0.755909l-1.611828,0.954803l-1.055772,-0.00642l-1.866334,0.576769l-0.226217,0.858718l-1.149951,0.294805l-1.244236,0.762576l0.179149,0.442105l-0.056576,0.474206l-0.867243,0.301196l-1.163817,-0.107138l0.079842,0.568576l-0.452455,0.519031l-0.961401,-0.134547l-0.461877,-0.205082l-1.593006,1.313664l0.320502,0.307616l-0.509031,0.653636l-0.622118,0.999671l-1.102776,0.422975l-1.519658,1.126259l0.35082,0.597583l-0.556142,0.416526l-0.282792,0.551074l-0.273328,1.230391l0.169641,0.589551l-0.141353,0.506292l0.537234,0.448511l0,0.531929l-0.628784,0.683834l-0.719095,-0.498042l-4.043768,-1.710944l-1.658982,-0.224299l-0.103687,0.557537l0.281062,0.398689l-1.11051,0.793224l0.197929,0.262733l-0.131953,0.570349l-1.008576,-0.685708l-0.78238,0.442163l-2.290501,0.320398l-0.641005,0.48067l-0.54751,-0.280991l-1.299914,-0.648262l-0.882712,0.436353l-0.672626,-0.385093l-0.027412,-0.313905l-0.198805,-0.454321l-1.099785,0.356566l-0.184597,0.02295l-0.16227,-0.002803l-0.321464,-0.115055l-0.512193,0.184819l-0.469163,0.217792l-0.386308,0.028382l-0.39588,0.062749l-0.375754,0.285058l-0.810219,0.724273l-1.655564,-0.261353l-1.723655,-0.600547l-0.273413,-0.602362l-0.735185,-0.442178l-1.168838,0.480597l-1.247206,0.107806l-1.184648,-0.646083l0.009401,-0.640796l-0.914333,-0.11536l-0.622118,0.954788l-1.047418,0.651821l-1.120509,0.021062l-0.791866,-0.275559l-0.838849,0.05768l-0.688073,-0.378078l-3.892395,0.02385l-0.283349,0.001743l0.037688,0.455004l-1.404455,0.083346l-0.376993,0.576696l-0.970908,0.230705l-0.141353,-0.877906l-1.202596,-0.059495l-0.447008,0.533672l-0.527833,0.076926l-0.188549,0.583174l-0.952,0.531842l-0.518453,-0.057665l-0.876623,0.5319l-2.196236,-0.217864l-0.791759,0.749706l-1.258978,0.722283l-1.069211,-0.113457l-0.782359,0.435729l-0.580135,-0.12682l-2.096866,0.011475l-1.866334,0.672897l-2.073749,0.871501l-1.531687,0.656817l-0.59383,-0.096099l-1.696671,0.381288l-0.657435,-0.139355l-0.574153,-0.260728l-2.212838,1.388033l-0.113856,0.300121l-1.489341,0.621608l-0.386479,-0.096172l-0.24504,-0.057665l0.084799,0.487017l-0.706897,0.121751l-0.14146,0.794677l0.556142,0.275515l0.593895,-0.044839l0.263927,0.301167l-1.432765,0.326833l-0.037688,-0.313992l-0.810647,-0.038434l-1.432765,0.820256l-0.235639,0.422903l-0.791759,0.42299l-0.197929,0.422903l-0.783235,0.104611l-0.508176,-0.745421l-1.579908,-1.619725l-2.83346,-2.079624l-1.702845,-1.351473l-3.894146,-1.671435l-3.440174,-1.332445l4.947803,-21.666898l-3.198147,-21.483851l-5.810026,-6.794143l-15.18265,-10.986059l-0.000015,-0.000002z" id="2409177"/>
   </g>
   <g stroke="null" class="boundary Pocheon_2409178_AL6" id="4165000000">
    <path stroke="null" d="m406.487338,239.461774l1.843836,-2.686315l17.122246,0l3.687778,2.149011l4.346431,4.477133l6.98053,-2.775848l4.478127,-3.850296l9.614759,-2.238516l1.975618,-3.313108l-5.795177,-6.715678l-0.263393,-5.193446l4.478127,-2.507146l-5.795198,-5.372499l-2.370792,-4.208547l-1.053657,-2.775747l1.712224,-1.701328l0.526786,-2.686257l-3.292689,-1.522203l-6.848835,1.701241l-2.765902,-1.522188l-3.81956,0.268615l-1.213299,-0.30933l-1.947757,-0.496517l1.975618,-3.581724l-3.556081,-3.313065l-0.395175,-2.148953l0.428398,-1.244422l1.020434,-2.964067l2.370728,-3.04442l4.873217,0.089505l3.029381,1.074477l2.897578,-0.984957l4.346345,-3.04442l3.161077,-0.895438l-0.263478,-2.596708l4.74152,-3.402599l4.214735,3.760777l-1.448831,4.298008l0.526872,3.31305l1.975618,1.253631l3.687863,-1.701343l2.502424,-3.313007l6.980616,1.701285l2.765902,-0.179096l2.107313,-1.88041l4.346431,-1.522159l6.321985,1.880381l4.083038,-0.26863l-0.526872,-6.536567l5.531784,-6.088884l-6.717159,-7.432049l-1.712224,-12.267244l1.843921,-6.3575l-10.800176,-3.581709l3.029381,-5.014306l-2.239117,-11.550975l3.556167,-2.238574l-2.370728,-12.088177l-1.185439,-6.626101l2.239117,-2.775819l3.469701,-9.154962l1.730685,-0.039668l3.670472,-2.559451l2.09255,-0.123043l1.824863,-0.521689l-1.114185,1.470072l-0.68239,1.46875l-0.131953,1.156094l0.158318,2.901608l-1.198985,1.602106l0.218675,1.076583l-1.100917,2.476149l0.611393,2.47596l2.103895,3.429717l0.132914,1.390822l0.44017,2.249032l2.043538,1.153508l1.319614,0.194769l1.244301,1.42009l3.234959,0.825383l2.020954,1.496973l1.538288,0.230676l2.888092,2.968308l2.473432,2.337694l1.968075,-0.102519l1.538353,0.620344l-0.135734,1.557151l3.16142,1.331632l2.518683,2.126265l1.626913,0.647245l0.827611,0.772845l0.367592,0.43445l0.314798,-1.950683l1.082115,-1.02143l0.616499,-1.286792l-1.438384,-2.10699l1.07263,-1.22657l1.769698,-0.502109l1.159865,-0.114386l2.013413,0.135884l1.076411,-0.493452l0.429893,0.640869l1.264961,-0.048761l1.500579,0.179474l0.586267,-1.170183l1.021843,-1.348234l0.967042,-0.20636l0.22062,-0.474249l-0.727728,-1.117529l1.280066,-0.314007l-0.712601,-0.471693l1.14055,-1.059908l2.260376,-1.435415l2.228306,-0.329433l1.355443,-0.486988l0.248821,-0.525509l0.595134,-0.161869l1.176915,-1.008256l1.596787,-0.328096l2.377223,-0.913856l0.107446,-0.243472l1.464834,-0.301196l0.578704,0.151251l1.163218,-0.281993l0.348705,-0.560021l-0.352486,-0.428088l0.35065,-0.728006l0.312939,-0.152544l0.311016,-0.711302l1.128159,-1.229737l-0.010191,-1.05799l1.298867,-0.78952l1.530811,0.083346l1.425201,-0.398558l0.952022,-0.633185l0.203548,-0.647231l0.82385,-1.22522l0.674891,-1.534157l-1.156168,-0.900754l-0.470744,-0.605195l0.595753,-1.112475l1.068869,-0.730504l1.52141,0.181972l0.955782,-0.542141l0.492003,-0.697169l1.174457,-0.029486l1.402619,0.483197l1.504382,0.305001l0.952,-0.522938l0.590049,-0.690792l0.754071,-0.107676l0.684313,0.663906l0.840878,-0.170439l0.260145,-0.251214l0.82479,-0.444749l1.741837,0.292248l1.163218,-0.342854l0.681492,0.486393l-0.128171,1.11949l0.440149,0.30182l1.905004,-0.014743l0.587229,1.100927l0.851155,0.83696l1.244216,0.677371l1.415801,0.386357l0.62652,-0.325947l1.031523,-0.04696l0.950163,0.201799l1.59292,0.107066l1.008598,0.280061l0.663567,0.695295l-0.340266,0.988778l-1.156617,0.329752l-0.300654,0.491113l-1.297907,0.334517l-1.861676,-0.096099l-1.045303,0.354344l0.016943,0.653012l-0.237476,0.501746l-1.389436,0.222367l-0.889805,0.580603l-0.574944,0.759351l0.045252,2.078854l0.212073,1.299603l-0.854916,2.754903l-1.687291,0.447276l-0.688095,0.872808l0.648483,2.125001l1.593967,2.139657l0.21673,0.923457l-0.072557,0.745872l-1.623152,1.3323l-0.490144,1.175267l-0.167804,1.432263l-2.428094,2.094164l-2.208522,1.710421l-1.975638,1.593043l-1.242378,1.457217l-0.081081,1.190635l0.122552,0.985582l1.483636,0.69345l0.135734,3.888512l-0.167718,1.238016l-0.527918,0.697256l1.966302,-0.011548l1.619371,-0.043576l1.180076,0.943313l0.716382,1.930159l-0.776633,1.132984l0.44111,0.474206l-0.19231,0.635683l0.737107,0.495994l0.167825,1.113724l1.892677,0.202482l1.051991,0.699798l1.002892,0.153808l1.61373,-1.450782l1.474235,0.648494l0.58443,1.535421l1.428984,-0.105148l6.807897,-1.303946l1.58493,0.488833l2.982378,-0.694641l1.085898,-1.948098l2.367822,2.799132l2.315007,6.510756l2.428094,3.337424l1.598645,2.865731l1.708016,1.012483l1.127368,0.397324l3.883507,1.102249l3.966383,0.348592l3.446156,1.717408l2.867368,1.919904l0.967127,-0.312743l0.870919,-1.363703l-0.580648,-3.23229l0.886131,-1.048375l0.278947,-2.960581l2.741119,-0.015411l1.319593,-0.604933l3.928759,-1.753256l5.278498,0.251171l3.989137,-4.255042l4.064493,-0.656178l2.03606,-0.480684l2.81265,-0.524187l2.541245,-0.932986l7.088255,-4.388355l7.374914,-0.041077l3.679873,1.11246l4.139892,0.738246l2.443178,0.927931l2.963576,0.046161l1.779632,1.922417l2.782589,6.864518l1.907782,2.224964l2.035547,0.08015l1.817748,-2.67423l5.105159,-1.712237l2.134042,-2.35312l2.654312,-1.655879l2.873072,-2.40438l2.232003,1.989132l1.274447,1.978819l3.159582,-0.194784l2.341372,2.03522l2.351393,5.884674l1.349824,1.927617l-1.334719,1.722477l1.568414,1.445713l0.120715,2.286478l-0.226239,1.958324l1.575978,2.947798l0.558065,3.547604l-2.382927,3.598907l2.269755,2.563271l-0.444892,4.357605l-0.912389,3.439914l-1.802279,0.979191l2.52332,3.958988l-0.631433,2.237702l-0.201625,0.15436l-0.84184,0.644485l-0.364089,0.278667l-0.164984,0.972379l-0.353448,0.543056l-5.221922,5.619878l-5.820302,4.229303l-4.769467,1.0317l-0.867136,1.916012l2.167948,2.947711l-2.926678,5.232214l-4.986197,3.979396l0.758707,2.284488l-2.059519,1.25273l-1.192297,3.38986l-0.216837,3.979382l-2.493088,2.579249l-2.818269,1.0317l-2.493088,3.758293l-6.286924,1.252832l-5.961763,3.021354l-2.167948,1.916026l-2.926656,-0.221118l-2.276272,1.326504l1.083975,4.2005l-2.167948,1.252716l-0.650406,4.495275l-4.227383,3.168742l-0.108408,3.316217l1.734359,0.663238l0.108344,1.916012l-2.276293,2.06337l3.035107,2.505562l2.276272,-0.29479l2.601517,3.242501l-1.557261,2.155184l-1.477845,2.045286l-3.468655,1.326432l-5.094605,3.537262l-3.035,3.316173l-2.059541,0.368462l-0.758814,2.431832l-2.926656,0.29479l-5.311378,3.316159l-4.552628,-0.663209l-4.552628,-3.68465l-2.059434,0.221103l-4.44422,2.431818l-5.094605,-2.431818l-1.192404,0.95794l-0.975545,1.768653l-1.842703,1.031714l2.70984,4.126784l-2.818249,3.095041l2.059519,2.063428l-0.650406,1.989684l-1.517542,2.431847l-0.325139,4.053097l1.625951,3.095055l-3.251923,3.168829l-1.625866,1.621192l-0.433569,2.431905l0.975545,1.326475l-0.867223,1.694894l-0.108323,4.053126l0.758729,1.473848l-1.517542,1.84231l-2.167948,-0.442192l-2.276272,1.768638l-5.636603,2.505504l-2.276272,-1.694865l-2.493109,-0.515864l-7.479285,0.073701l-2.493109,-0.442163l-1.517542,-4.2005l-2.70984,3.24253l-2.059541,1.621222l-1.625951,6.042767l-2.926678,2.210772l-0.647222,1.360188l-0.545074,1.145374l5.202949,4.642648l-2.468496,1.87964l-0.241344,0.18373l-3.620477,2.039389l-0.173423,0.097711l0,2.28443l-2.493109,2.431905l-0.867136,3.463532l-0.541998,5.011067l2.167948,0.810611l1.951111,6.263913l-1.409113,6.779691l0.758729,1.916012l-6.828922,7.958764l1.734295,3.021427l-1.625866,2.873981l-2.160471,0.678823l-0.092171,0.284927l-0.076082,0.260496l-0.148917,0.242833l-0.463181,0.810538l-0.223866,0.417165l-0.067642,0.43583l-0.051747,0.226405l0.025489,0.329505l-0.190835,0.229281l-0.246878,0.166866l-0.190643,0.093702l-5.668843,8.928731l-3.685492,0.442178l-2.70984,0.884326l-4.877874,1.031656l-5.419786,1.326519l-3.251816,0.515806l-0.307235,0.43262l-1.210308,1.704451l-5.636603,3.979425l-3.945188,1.123267l-9.504299,-5.523503l-0.459848,-4.272894l-4.138994,2.501176l-7.204846,-0.729473l-3.525764,1.77166l-6.285064,-0.833735l-3.832401,-1.563222l-4.445523,1.667484l-2.452685,4.481345l-7.051527,3.022269l-8.431221,-0.521108l-1.532926,-1.146391l-9.380422,-0.228453l-5.949029,-6.128756l-11.343755,0.10419l2.14607,-2.396986l-0.766463,-4.064442l-6.438383,-1.66747l-4.445523,1.250581l-0.613144,-2.918094l-3.525251,-2.396594l-0.920294,-0.625646l-5.378572,0.470124l1.571768,-2.542399l3.739695,-3.684577l2.167842,-0.221074l0.487772,-2.468697l1.409135,-0.147388l2.059541,-3.500426l0.596181,-2.984504l-0.70461,-2.763473l1.083975,-3.500397l1.083013,-0.89323l2.223029,-1.833435l-1.788499,-3.758307l0.812933,-4.937409l0.650406,-3.352966l-1.138178,-1.989756l-2.980881,-2.873966l0.758814,-1.179102l-1.35491,-1.142237l0.054204,-4.126813l-1.300812,-5.379529l-4.010631,-3.168771l-0.650321,-4.274215l2.881874,-3.592182l1.66663,-0.351656l4.620357,-0.97479l6.503761,-5.158484l16.909617,-2.063385l8.454872,-14.296378l-5.636518,-1.326461l-4.769467,-11.938203l-2.818249,-0.736924l-3.685492,0.736924l-3.902222,-2.800309l-9.97233,0.442149l-5.636603,-10.316967l-5.853333,-7.516644l-10.6228,-3.242501l-1.083975,-3.537175l3.902308,-2.652979l0,-2.210729l-5.85342,-3.97944l-0.68239,-9.012905l0.790264,-2.865382l-2.23901,-7.431947l-0.000008,0z" id="2409178"/>
   </g>
   <g stroke="null" class="boundary Uijeongbu_2409183_AL6" id="4115000000">
    <path stroke="null" d="m328.829922,424.487884l0.975566,-1.436998l0.921341,-0.221074l0,-0.736982l-1.409135,-0.257881l0.162634,-5.563825l-0.541998,-8.400956l6.124397,-2.02652l7.696037,-2.505577l7.696058,1.547593l6.286987,-1.289625l5.907559,1.252745l8.996849,4.126784l3.251816,-0.810596l5.636603,-0.110537l4.76938,-1.584356l3.143494,-0.147417l3.576999,-2.984591l2.655722,-0.331553l2.601517,-0.626387l3.306021,-2.579249l2.276272,0.257896l4.22749,-2.284488l5.636496,-0.736924l6.015967,-2.026549l5.378572,-0.470124l0.920294,0.625646l3.525251,2.396594l0.613144,2.918094l4.445523,-1.250581l6.438383,1.66747l0.766463,4.064442l-2.14607,2.396986l11.343755,-0.10419l5.949029,6.128756l-3.686111,3.936184l0,1.84231l-4.335791,-0.221016l-1.625972,-1.031714l-6.286902,0.810611l-0.108429,2.210743l-3.902222,3.242501l0,4.642619l1.192297,1.031743l-0.433569,5.3795l-0.975566,0.957999l-0.541977,2.579307l-4.552543,0.957999l-1.951111,3.09507l-3.035086,-1.031714l-3.299632,5.111001l-1.533011,2.396943l-3.142532,0.573254l-2.222751,-0.729531l-8.507837,4.429185l-1.916157,-1.25061l-5.901833,1.615382l-0.843165,1.563237l0.133448,1.596877l-1.432765,0.153764l-1.655114,0.39728l-1.210308,0.371701l-2.258538,0.448598l-1.398751,0.986802l-2.069988,-0.012753l-2.039756,-0.474264l-1.772069,0.333267l-2.961631,-0.279364l-0.130115,1.215575l-0.976527,0.691489l-0.999111,0.410091l-1.206526,1.140654l-3.008464,0.635015l-0.949116,0.479667l-1.659431,0.811293l-0.729116,0.450835l-0.165091,0.094182l-0.262239,0.146952l-0.372869,-0.513163l-0.194596,-0.362579l-0.086722,-0.306744l-0.084521,-0.260322l-0.016687,-0.555518l0.023203,-1.385128l-0.77033,-1.400409l-0.246792,-0.660245l-0.41951,-0.024911l-1.621913,1.202517l-1.250112,0.088314l-0.287728,-0.632996l-1.473273,-1.656794l-1.071753,0.253785l-2.41395,1.584095l-1.244216,0.365252l-0.424167,-0.012753l-2.134042,0.991973l-0.893588,-0.520367l-0.884186,-0.13202l-0.527833,-1.025265l-0.867223,-0.333267l-1.055687,-1.871172l-0.263927,-1.71748l-0.678694,-1.102205l-1.394991,-0.743359l-1.131149,0.563914l-1.168838,0.307616l-2.639206,-0.256284l-1.658982,-0.82027l-1.78305,-0.176264l-0.34221,0.24738l-0.602334,-0.080775l-0.690894,0.119194l-0.480146,-1.559736l2.836003,-1.693543l1.138628,-1.801335l-6.829007,-6.042767l1.734381,-0.958013l-1.734381,-4.495261l-0.21673,-2.284459l-3.685492,-5.305842l-1.625866,-0.147431l0.379364,-1.215938l-1.083975,-1.51067l-2.547314,-2.763444l-0.000002,-0.000001z" id="2409183"/>
   </g>
   <g stroke="null" class="boundary Yangju_2409185_AL6" id="4163000000">
    <path stroke="null" d="m240.598826,360.482083l0.565629,-1.025309l7.766928,-1.435415l1.282011,-5.485491l-0.490144,-0.743344l0.075377,-0.486988l-1.055687,-0.589609l1.907098,-2.012038l10.459739,-0.397454l0.622118,1.345736l1.093461,1.345794l6.902354,-1.409777l1.335851,-0.948499l-1.960597,-1.871201l-0.376993,-2.025038l1.407019,-0.896862l-0.049739,-1.974011l3.619601,-2.20441l-1.055687,-1.358532l1.112263,-1.03812l-0.018887,-1.230376l1.470453,-0.653694l1.055772,-2.896539l1.896993,-1.229708l1.420908,-3.076608l-1.659004,-1.358503l0.150861,-1.127842l0.878909,-0.345193l-1.369075,-1.705512l1.131171,-0.794589l0.263906,-2.409478l0.904846,-0.666448l-0.754071,-1.640526l1.432765,-0.845907l-0.113087,-2.281293l-1.696671,-1.973735l0.116057,-0.824337l0.223247,-1.585199l2.337676,-2.768324l-0.754156,-0.41015l0.264013,-1.589193l-1.366447,-1.237348l0.499203,-0.710764l-0.641005,-0.871544l2.526226,-2.230106l0.056596,-1.32004l4.409587,-2.893561l0.397546,-1.066749l-0.640899,-1.461066l-4.034367,-3.409208l0.50042,-1.030378l3.006092,-0.481919l1.341577,-0.939769l0.962555,-0.677806l4.138994,1.66747l3.435281,-6.381248l-0.678694,-3.537349l1.229024,-4.359115l1.485645,-0.690545l1.88522,0.153735l1.131149,-1.717379l2.86694,-0.903543l8.07241,3.339414l8.956255,0.626765l1.053678,2.775819l6.82388,0.07604l1.210308,0.013479l6.058676,4.92486l-0.237305,2.039752l3.143515,4.274172l-4.769467,1.84231l1.958055,5.496399l1.402191,3.936198l10.514392,3.187247l2.628566,0.681612l2.438883,-0.313135l4.064856,1.363282l3.170564,1.271221l6.422487,-0.110581l2.095093,5.194187l0.433589,2.873966l6.124375,7.479808l2.641129,1.536583l0.17712,0.103057l1.138178,2.910875l2.953747,-0.110537l3.143494,-1.897564l1.978181,0.681656l3.604132,-0.755357l1.40922,-0.68167l5.365561,2.137071l1.804395,-1.359389l8.671603,0.147402l5.203014,3.610905l4.552564,1.031772l5.85342,4.200398l0.650321,4.274215l4.010631,3.168771l1.300812,5.379529l-0.054204,4.126813l1.35491,1.142237l-0.758814,1.179102l2.980881,2.873966l1.138178,1.989756l-0.650406,3.352966l-0.812933,4.937409l1.788499,3.758307l-2.223029,1.833435l-1.083013,0.89323l-1.083975,3.500397l0.70461,2.763473l-0.596181,2.984504l-2.059541,3.500426l-1.409135,0.147388l-0.487772,2.468697l-2.167842,0.221074l-3.739695,3.684577l-1.571768,2.542399l-6.015967,2.026549l-5.636496,0.736924l-4.22749,2.284488l-2.276272,-0.257896l-3.306021,2.579249l-2.601517,0.626387l-2.655722,0.331553l-3.576999,2.984591l-3.143494,0.147417l-4.76938,1.584356l-5.636603,0.110537l-3.251816,0.810596l-8.996849,-4.126784l-5.907559,-1.252745l-6.286987,1.289625l-7.696058,-1.547593l-7.696037,2.505577l-6.124397,2.02652l0.541998,8.400956l-0.162634,5.563825l1.409135,0.257881l0,0.736982l-0.921341,0.221074l-0.975566,1.436998l2.547314,2.763444l1.083975,1.51067l-0.379364,1.215938l1.625866,0.147431l3.685492,5.305842l0.21673,2.284459l1.734381,4.495261l-1.734381,0.958013l6.829007,6.042767l-1.138628,1.801335l-2.836003,1.693543l0.480146,1.559736l-0.151737,0.347328l-0.453417,0.523606l-0.580648,0.988748l-0.527854,-0.025593l-0.716382,0.358788l-0.904826,-0.025579l-0.622203,0.422946l-0.791759,0.192271l-0.471257,0.499785l0.282814,0.358861l-0.791866,0.525466l-0.414681,0.66652l0.150776,0.499785l-0.754071,1.384184l0.282814,0.474249l-0.263927,0.563914l-0.094264,1.371315l0.433569,0.269153l0.297129,0.886171l-0.169663,1.294491l0.03771,0.44854l-0.452477,0.179401l-0.987851,0.074355l-1.330938,-0.305001l-1.319614,0l-0.509031,0.166576l-0.358192,0.615188l-0.490144,0.064071l-0.414681,0.192314l-0.641005,-0.384542l-0.358192,-0.064071l-1.413878,0.307616l-1.395055,-0.730577l-0.64092,0.243559l-1.112263,-0.615203l-0.546741,0.358817l-0.131953,0.551103l0.754071,0.371701l0.414767,0.692085l-0.377078,0.69207l-1.055687,0.538335l-0.561312,0.391092l-0.169641,0.307543l-0.452477,0.076897l-0.188529,0.1923l-0.320502,0.064071l-0.678609,0.08965l-0.15084,0.1923l-1.191955,-0.304217l-1.019835,-1.286908l-3.142532,-0.990041l-3.908995,-2.188578l-6.759761,-0.324392l-4.064749,-2.616042l-2.926678,-1.916055l-5.690807,0.405327l-3.902244,-1.031685l-2.655722,3.574055l-4.986197,1.621236l-0.921341,2.210772l-1.517542,1.989727l1.029749,2.505533l-1.35491,3.758322l-2.167948,1.068521l-7.316672,-1.068521l-3.52288,1.10543l-6.232699,-0.847505l-0.70461,1.547535l-1.354931,0.589565l-2.059519,-0.552657l-2.25606,0.706581l-0.367592,-0.160199l-1.149951,0l-0.114475,0.294674l-0.781056,0.025724l-1.065087,-0.390875l-0.113151,-0.230676l-1.742627,-0.626532l0.686941,-1.14857l-1.624455,-0.845544l-0.025126,-1.422937l-0.999111,-0.429396l1.360636,0.097508l0.884358,0.927902l0.816288,0.200579l2.291206,-0.720598l1.264512,-0.998771l0.047965,-1.684639l0.888588,-0.885997l0.47741,-1.50502l-0.282814,-0.211459l-0.047174,-2.588937l0.943582,-2.2627l1.422381,-1.165753l-0.065976,-0.595913l0.763471,-0.384498l-0.339304,-0.384498l0.39588,-0.672926l0.886045,-0.333166l0.01502,-1.131575l0.286575,-1.30354l1.055772,-0.544711l0.169663,-0.551117l0.414681,-0.320442l-0.056491,-0.30121l0.490144,-0.365208l0.065976,-0.365281l0.650406,-0.653665l-0.197951,-0.87153l0.311016,-0.288384l-0.009401,-0.345977l-0.235639,-0.230705l0.311016,-1.441835l0.9811,-0.368796l-0.293005,-1.073082l0.94262,-0.75617l0.791759,-0.967658l-0.716382,-0.589565l0.235725,-0.371687l-0.131269,-1.432393l-3.412164,-1.525079l0.922943,-0.182568l0.34879,-0.858704l0.867223,-0.288355l0.527833,-1.115002l-0.009486,-1.326519l1.044085,-0.735995l-0.242839,-0.872445l-0.603295,-0.442192l-0.141375,-1.217565l0.273413,-0.390933l-0.915103,-0.835856l0.264697,-2.957763l-2.127077,-0.550914l4.647426,-4.088917l3.832379,-0.573166l-0.153319,-5.158731l2.222773,-1.354843l-3.031753,-3.07947l1.226567,-1.547811l0.678609,-3.101563l-3.10775,-2.058722l3.96822,-8.92645l2.676787,-5.395536l-1.224623,-1.003622l3.305251,-7.095121l-5.43611,-1.526241l-4.86373,2.556895l-4.857064,-2.209828l-0.301701,-0.666404l-1.319593,-0.64084l-1.659004,0.051245l-3.883421,-1.179087l-4.863815,0.666404l-2.843289,-0.212374l0.989689,-7.221839l6.286924,-4.274215l-0.700657,-1.953864l-2.375365,-1.461081l-0.263927,-1.35859l1.093461,-0.897138l0.188443,-2.281293l-3.053972,-1.794363l-1.432765,-0.153793l-0.401841,-2.070124l-2.23745,-2.338725l0,0.000003z" id="2409185"/>
   </g>
   <g stroke="null" class="boundary Yangpyeong-gun_2409186_AL6" id="4183000000">
    <path stroke="null" d="m595.743784,585.090886l0.80116,-7.534437l1.762946,-5.158774l9.044365,-8.493685l9.2743,-12.453923l10.577292,-15.788877l4.292227,-19.071671l7.434759,-9.692251l9.427598,-6.930434l3.52585,-4.16866l8.715445,-4.085227l7.051613,-0.052131l10.347293,0.416889l4.44563,-4.741885l2.912534,-1.875922l3.602444,-0.416846l4.292227,-2.344855l6.131768,-1.094303l2.376069,-1.51112l0.843165,-3.647581l2.222773,1.771645l3.755678,2.605424l5.13537,3.282867l0.689762,1.719572l-4.643367,3.614362l-0.645235,0.502225l2.68262,2.292724l0.153297,1.823791l3.602466,1.198522l1.609542,-0.833706l5.058754,2.970153l2.452707,4.012325l1.762925,0.208481l1.916137,2.449059l-0.306615,1.250653l5.288689,6.513574l5.748536,0.208437l2.069454,3.074342l0.689847,8.545845l1.149694,0.729473l-0.766463,9.066924l-1.379607,1.198435l-1.379693,2.7097l2.069454,8.23316l1.686223,1.563251l5.518623,1.25061l4.21561,0.781589l4.138909,0l1.45631,1.09426l4.292313,0.938012l1.992753,0.573181l7.051527,-2.761759l5.212093,-1.667499l5.901833,-4.220762l1.302991,-1.928024l3.985611,-0.573225l10.807312,0.781633l0.383231,0.625298l13.106679,-0.885793l1.916137,1.250595l5.058689,0.93791l1.149779,-3.074371l-2.376091,-3.908164l0.076616,-1.928024l2.912619,-3.491232l-0.459934,-3.595479l4.368929,-3.230721l2.452685,-0.208481l0.459934,-3.960194l-2.376091,-1.198537l-1.992838,-3.334896l-4.828755,-2.397044l-0.668673,-3.952002l4.901505,-3.434801l1.813518,-0.026857l4.581023,0.857382l2.47341,-1.175282l2.739196,0.417833l2.746738,-0.38322l2.341372,-1.661035l-0.024507,-0.742023l-0.654187,-1.513648l0.58443,-1.107362l1.334698,-1.41489l1.225435,-0.392167l1.874239,-0.222222l1.439879,-0.326397l1.127368,-0.051216l0.705059,-0.825383l0.803083,-0.322998l2.940907,-0.558816l0.803105,-0.65108l1.21785,-0.16399l0.565542,-0.622945l0.931276,-0.189642l0.935058,-1.837895l0.82197,-0.96638l2.137824,0.569041l1.519466,0.110218l1.700367,0.079511l0.361973,1.379013l0.803105,0.856133l1.151873,0.403729l0.95482,0.383888l0.388423,0.574808l2.342334,-1.32524l0.343086,0.270446l1.006653,0.335156l1.031266,0.882438l0.4109,1.02143l0.02363,0.606255l0.267709,0.247946l0.83981,0.026915l1.580721,-0.02112l0.141439,0.573501l-0.614641,0.784407l-0.246878,0.771567l0.400538,0.427449l0.38086,-0.027613l1.096175,-1.486703l1.211291,-0.822187l1.501561,-0.282574l1.228213,0.348577l0.678609,0.52869l0.770159,1.162441l0.849297,0.506278l1.120702,0.178152l0.653205,-0.222048l0.608508,-0.197398l0.720592,-0.024664l0.446302,0.139079l0.047624,0.218518l-0.355371,0.634419l-0.261128,0.809028l0.099905,1.25825l0.397802,0.318205l0.520291,0.078146l1.871525,-0.301472l0.382249,0.026247l0.637223,0.246711l0.573106,0.348301l0.112617,0.63824l-0.33939,0.163729l-0.202159,0.277185l0.177226,0.294441l0.478372,0.263067l0.862052,0.16691l0.921769,0.120516l0.967575,-0.064405l1.182982,-0.262457l0.950612,0.056111l0.969498,-0.165021l0.926084,0.11947l0.229037,0.065088l0.147528,0.555547l-0.168701,0.532234l-0.081081,0.502748l-0.07636,0.186432l0.382184,0.812557l0.056148,0.196164l0.665426,0.976867l0.599962,1.004828l0.471343,1.17624l0.702687,0.772526l1.358264,0.770245l1.399286,0.411065l1.083975,0.023458l1.150037,-0.009964l1.175333,-0.102171l1.755212,-0.612036l1.413344,-0.575098l0.929865,-0.323289l0.807848,-0.002571l0.709246,0.273903l0.812591,0.781793l0.052281,0.442512l-0.172034,0.454655l0.263927,0.466551l0.942172,0.596262l0.165882,0.182335l0.510869,1.277786l0.31155,0.49059l1.049085,0.727279l1.310726,0.179765l0.736167,0.475499l0.944458,0.710982l0.34879,0.38704l0.622973,0.221757l0.46801,0.017648l3.332578,1.9032l1.877657,1.19967l0.497707,0.69207l3.415945,1.625085l2.345154,1.16892l1.417745,1.276465l2.397947,0.240959l2.073685,1.999416l3.038931,0.553645l1.191421,1.358561l1.010541,0.79976l1.809736,0.645894l0,0.943343l-2.367801,1.297032l-0.656025,1.55336l1.493037,0.5293l0.591972,-0.001278l0.211111,0.434479l1.873896,0.379371l0.767254,0.34727l3.18787,0.602406l0.81257,0.913842l1.257397,0.366559l1.353606,-0.44992l0.431646,-0.460087l0.855898,-0.20254l1.044427,0.232012l0.393957,-0.357583l0.829533,0.406271l4.456613,-1.012454l1.161275,-0.697227l3.544138,0.148637l1.387513,1.035607l3.11433,-0.727991l2.262213,1.030465l3.310422,0.061514l3.023848,0.902236l2.503557,-0.707467l2.307465,0.215351l1.606188,-1.307331l2.533682,-0.876628l1.794738,0.251229l4.328334,2.02498l1.99083,0.502458l2.118916,-0.481948l2.028518,1.625129l1.681566,0.72802l1.832427,1.886525l2.790046,0.1282l4.253042,1.414963l3.302795,0.29219l3.883507,1.030407l3.159582,-0.645953l2.533703,-1.291876l0.784282,-2.250601l1.508142,-1.332881l4.290731,1.537963l2.933344,1.132955l-0.007542,1.34835l2.435637,1.025279l0.935058,3.373287l3.250065,0.492174l2.247193,4.198655l1.515706,3.475864l3.709997,0.569056l1.621294,1.112446l4.230374,-0.205097l2.201962,0.476806l1.71169,-0.246087l3.544224,0.179474l4.147348,0.717693l3.438614,1.107362l2.616709,2.173675l1.676395,0.75832l2.033518,0.852095l-0.188443,2.788209l-1.998307,1.107289l0.467582,2.963152l-2.183054,1.158665l-1.72577,2.5546l-5.083624,0.363364l-3.660985,-0.149596l-2.013413,1.958295l-1.455327,0.066656l-2.330134,-0.722806l-2.609081,-0.240959l-3.755313,0.645909l-2.812735,0.343537l-1.441888,-0.687248l-1.698721,0.486596l-1.338564,-0.312075l-0.648568,0.799789l-3.189708,1.107304l1.31205,2.53255l-2.473325,1.076583l-4.826127,0.788111l-1.95077,0.431022l-0.88596,1.693891l1.58495,1.808597l-2.066121,0.589522l-1.945492,1.307287l-3.317985,1.989132l-1.462911,2.276194l-2.744794,2.035235l-2.579041,-0.358803l-1.628771,1.153421l-0.716382,1.440586l-2.495994,1.348321l-1.98318,1.425145l-3.144562,0.440914l-2.232067,1.425189l-2.118916,0.922818l-1.496904,-0.440072l-1.261094,-0.355593l-1.803518,0.089752l0.21735,1.944467l-0.489524,3.021645l0.237648,3.382437l1.87144,-0.466798l0.960098,0.119238l0.854296,0.370002l1.520982,-0.888074l2.722232,0.953859l5.074928,0.420361l0.746957,2.020346l1.829264,0.447058l1.883469,-0.172763l1.083355,0.798656l0.102255,0.973729l0.717344,1.450564l1.126235,2.049499l1.276733,1.438116l1.204432,1.168193l1.109784,1.636517l1.581169,0.46828l2.005849,0.584409l2.684522,0.953539l2.895676,0.717751l2.194293,0.056358l0.067921,3.742475l-3.386611,2.967378l1.014131,3.100197l0.291147,2.298984l1.085918,3.152866l0.263906,3.388683l-0.732278,3.833229l0.968451,2.012023l2.088085,1.720981l-0.211133,0.762227l0.527235,0.716124l0.610773,1.0603l0.526786,3.877749l-1.163133,0.104408l-0.230169,0.469485l-0.816116,0.556651l-1.843836,-0.104553l-0.900958,0.294238l-2.533789,1.404665l-1.334719,2.189043l-0.294052,2.353062l-0.965183,1.107391l-0.196092,2.450526l-0.965204,1.753256l-0.603295,2.517125l-0.776654,1.373929l-1.462891,1.625129l0.248801,2.794005l-2.262213,1.425218l-2.616622,1.009955l-0.331847,2.496629l0.015832,0.280134l0.055166,0.978595l0.094883,1.683898l0.618337,2.071156l-2.518576,1.086837l-0.935058,1.363689l-2.035997,0.830467l0.497707,1.886641l-1.560936,1.117573l2.134021,2.629957l-1.138691,1.753271l1.741923,1.958324l-4.298188,0.789506l-4.68285,0.722849l-2.775026,-0.466493l-2.216962,0.061485l-2.842861,1.578982l-6.700024,-1.51465l-4.828755,0.052073l-5.441921,-1.406916l-7.664758,-3.699727l-1.839541,0.364758l-4.215525,2.709657l-7.588057,1.198537l-4.828777,-1.61544l-2.146156,1.928082l-5.441985,-2.605482l-0.459848,-1.771674l1.226375,-1.094289l0.383231,-3.02224l2.299389,-1.56328l-1.303013,-1.875951l-0.38321,-5.367124l3.832379,-1.094318l6.055066,-3.595465l-1.072993,-4.585564l-2.989235,-0.990056l-1.992838,-3.334969l-3.525764,1.823805l-4.598842,0.468977l-2.069476,2.605496l-7.051613,2.032199l-1.149673,1.302697l-1.226311,0.469006l0.613144,-5.315109l-0.766463,-1.302712l1.609542,-1.615353l-0.306529,-1.354828l-6.821614,-0.729502l-10.194061,0.677385l-1.609628,-1.459004l-7.051527,-2.240636l-4.062292,4.377098l0,1.928024l-5.288689,2.865905l-2.68262,0.052102l-1.379693,-2.188549l-6.668296,-4.429156l-7.511376,0.208379l-4.828841,3.439217l-1.303013,-2.813861l-2.299368,-1.615368l-5.211986,-1.042216l-1.916242,-1.980097l-4.138909,-0.41686l-2.759301,-1.25061l-7.051549,0.208394l-1.609606,-1.719543l-3.525764,1.511149l0.613144,2.813876l-0.996376,2.344855l-1.762839,0l-1.609628,-2.396972l-8.826225,3.923823l-6.395417,-1.252745l-4.444199,-3.168771l-4.76938,0.44212l-3.035086,2.137086l-0.32516,2.063385l-1.300705,1.105401l-5.636603,0l-6.070192,-1.252789l-5.202927,-11.643413l-6.93733,-6.190198l-13.107982,-3.136685l-8.814474,5.028483l-7.703066,-0.651327l-3.257457,1.068187l-4.790447,6.253034l-5.058689,1.14642l-1.516047,-1.545777l-5.636603,-1.400147l-6.503739,-1.105415l-8.454765,-3.168786l-4.986219,-1.621207l-6.720556,-0.29479l-3.576999,-1.473819l-3.035086,0l-3.685492,-2.137129l-7.804445,5.23217l-4.552628,0.884341l-5.744947,4.200442l-0.541977,2.652965l-1.734381,0.884297l-2.059434,-2.358175l-7.696122,-3.53719l-4.44422,-4.568976l-1.734295,-6.042781l-8.671689,-1.252803l-0.21673,-4.937409l-1.794203,-1.88195l-1.999696,-2.097432l2.818334,0.294805l1.409135,-1.179073l9.647148,-0.589536l2.709947,-4.347902l0.325139,-3.758293l1.734381,-5.011125l-1.517542,-1.400133l-3.360331,-6.779691l-2.926678,-2.137129l1.842789,-3.09507l0.758729,-6.042781l-2.926678,-3.389889l-7.370877,-11.348652l-7.912875,-7.369242l-5.187844,-2.304853l-5.976954,-1.011277l-13.115802,0.294732l-12.573933,2.431876l-12.875271,3.248936l-0.000022,0.000001z" id="2409186"/>
   </g>
   <g stroke="null" class="boundary Yeoncheon-gun_2409188_AL6" id="4180000000">
    <path stroke="null" d="m147.081155,230.55624l6.605909,-0.271869l8.445985,-1.487793l5.669035,-3.106603l4.437533,-3.457969l-0.409148,-3.268211l0.891558,-2.998056l3.416736,-3.159257l3.660985,-3.791033l4.148566,-3.158879l3.416736,-3.370643l5.042623,0.392647l4.91661,-0.762561l-0.871966,-0.793674l-0.476449,-0.36043l-0.160262,-0.438939l0.55236,-0.860955l0.86389,-0.663267l0.744243,-0.395726l1.989761,-0.216891l0.951146,-0.282269l0.397717,-0.146139l-0.056063,-0.458824l-0.40105,-0.632502l2.274946,-9.432249l2.399806,-4.433238l0.441389,-4.286417l-0.236173,-0.366893l0.165882,-0.292524l-0.159728,-0.298015l0.147956,-0.526729l0.533558,-0.222977l0.672092,0.052204l0.331314,-0.078538l0.228076,0.058043l0.579665,0.27168l0.26726,0.097116l0.368574,-0.144831l0.225256,-0.236181l-0.074415,-0.352092l-0.174406,-0.18588l-0.052345,-0.35658l0.172013,-0.226231l0.789923,0.062807l0.462817,-0.134591l0.493413,-0.344742l0.024507,-0.272378l-0.067386,-0.418109l-0.04006,-0.844295l0.33798,-0.490503l0.059844,-0.248629l-0.025938,-0.255703l-0.261106,-0.344452l-0.319092,-0.276183l0.00141,-0.269807l0.370497,-0.272697l0.388765,-0.038085l0.748003,0.244765l0.351589,-0.063417l0.128192,-0.209875l-0.004743,-0.370118l-0.428398,-1.01058l-0.114562,-0.172691l-0.388765,-0.222324l0.293368,-0.403889l0.243438,-0.070041l0.180281,-0.233857l0.156908,-0.169205l0.242498,-0.006899l0.422223,0.198037l0.388146,-0.067455l0.234507,-0.224139l-0.02004,-0.234539l-0.381287,-0.233406l-0.607013,-0.086498l-0.287279,-0.195771l-0.117382,-0.291609l-0.319263,-0.074122l-0.40793,-0.009645l-0.393765,-0.543448l-0.037432,-0.611833l0.0992,-0.17073l-0.246001,-0.580952l0.18635,-0.164818l0.256171,0.011998l0.251642,-0.424573l0.197929,-0.386996l0.197416,-0.301341l0.198912,-0.051376l-0.070293,-0.191603l0.259974,-0.410614l0.203719,0.02831l0.151822,-0.121562l0.043137,-0.159589l-0.120437,-0.123014l-0.347317,-0.098873l-0.335074,-0.004779l-0.213484,-0.055937l0.037411,-0.50972l0.721574,-0.120807l0.268307,-0.303854l0.025574,-0.185618l-0.185196,-0.052974l-0.081637,-0.201712l0.085142,-0.323129l0.223866,-0.414493l-0.153938,-0.054266l0.147507,-0.263706l0.301017,-0.092962l0.270508,-0.176671l0.202416,-0.088953l0.292386,-0.114967l0.33798,-0.010778l0.704076,-0.534413l0.234486,-0.067165l0.207181,-0.130074l-0.032347,-0.171064l-0.120181,-0.196251l0.07354,-0.279887l0.376117,-0.161652l0.02942,-0.383859l-0.108836,-0.382116l0.163318,-0.594853l0.103238,-0.396844l-0.073818,-0.513119l0.293368,-0.203092l0.484076,-0.264505l0.670255,-0.100021l0.076959,-0.140793l0.009678,-0.28134l-0.278776,-0.179881l-0.133898,-0.272697l0.01863,-0.282937l0.037262,-0.22793l0.219637,-0.266466l0.44517,-0.081966l0.897796,-0.14839l0.1136,-0.049328l0.046127,-0.099207l-0.248117,-0.495616l-0.014849,-0.227538l0.098944,-0.323405l0.21235,-0.177382l0.034163,-0.222992l-0.083197,-0.2573l0.060806,-0.187637l0.185024,-0.139965l0.321636,-0.006899l0.356269,0.00995l0.172098,-0.079017l0.125543,-0.119165l-0.042881,-0.133966l-0.252582,-0.076592l-0.113408,-0.127052l-0.016707,-0.187855l0.184512,-0.147257l0.608657,-0.179735l0.735013,-0.152036l0.482688,-0.203266l0.628869,-0.423164l0.279738,-0.34589l0.164471,-0.28532l0.227371,-0.082358l0.289053,0.080237l7.534984,0.930647l6.64441,1.526473l2.073236,-1.963146l1.848066,-2.425775l1.956816,-3.589916l2.054883,-0.604948l1.86817,-3.188729l4.871379,-1.176502l6.995914,-1.554696l4.545258,-2.360731l5.793148,-3.332325l2.482833,-0.301138l2.337676,-4.85877l3.281877,0.0199l0.43594,-0.050955l2.516483,-0.016704l0.482153,-0.400941l1.750362,-0.22273l2.211876,0.245811l3.141122,0.314602l2.137098,1.130297l2.439418,-1.120885l1.643107,-0.56618l1.395503,-0.443776l1.125445,-1.109453l0.573704,-0.839211l1.058229,-1.547971l1.789375,-2.280058l0.371459,-0.382537l0.146268,-0.436164l0,-0.612051l-0.13503,-0.443761l-0.281404,-0.413229l-0.393872,-0.726844l-0.461407,-0.703894l-1.102947,-0.642699l-2.228306,-0.979394l-4.321668,-1.576121l-2.611003,-1.140014l-2.154767,-1.247748l-1.108993,-0.642147l-3.142191,-1.368569l-0.542874,-0.236471l2.497767,-3.452536l3.214235,-0.317232l3.601653,-1.984571l4.479281,-2.75942l0.635279,-3.358543l0.982147,-3.038189l1.660926,-4.105054l1.108502,-1.839231l-5.710336,-3.479597l11.35668,-7.06732l2.928259,-4.010887l2.929113,-3.800619l2.859291,-3.697098l2.0323,-1.340637l10.276125,-0.044839l4.92601,-4.821527l3.118112,-3.537335l3.123838,-1.877679l1.484939,-3.68786l4.637064,-2.112466l4.637064,-1.901123l2.870337,-2.079377l1.203728,-3.450241l2.849442,-1.841686l3.97463,-1.812534l4.167303,-5.336113l8.338174,0.097363l4.620635,0.301225l1.593198,-3.035952l8.731341,-1.187468l0.541977,-1.636633l2.195617,-0.572615l1.488998,-2.344434l3.496066,-1.851316l-0.791759,-2.233316l0.732364,-1.568713l15.425575,-1.083017l0.884785,-1.767389l1.65426,-0.168537l2.147288,-0.004793l1.358713,0.281006l1.099613,0.02982l1.169436,0.409583l0.071703,1.173974l-1.247997,1.42776l-1.312136,0.567749l-0.812505,1.156094l0.931276,1.286778l7.325902,1.031642l0.424082,1.048447l-3.242501,-0.521674l-2.286741,0.2538l-0.571226,0.463937l3.416031,1.008634l2.160386,1.189371l-0.452455,3.281022l-1.357303,3.075969l1.206526,1.230362l0.603232,3.178503l0.666046,2.600674l0.368554,0.862321l-0.488841,1.920747l-0.297663,0.330595l-0.149601,0.312656l-0.123449,0.257823l-0.028373,0.727497l0.235276,1.134814l2.262042,3.136859l0.292129,0.371629l0.69459,0.574212l0.357123,0.191472l0.340714,0.187681l0.716019,0.007292l0.787807,-0.106151l0.832632,-0.032856l0.402717,0.100152l1.860287,0.988167l0.314264,0.224096l0.049097,0.049734l0.958603,0.971347l0.928818,0.470066l0.407032,0.205997l0.426283,-0.197326l0.287921,-0.133226l0.487068,-0.137467l1.251073,-0.353283l0.528367,-0.136044l0.235981,0.012012l0.337724,0.017271l1.845608,0.311988l0.262516,0.044404l0.251258,0.042515l0.298005,0.227204l0.329904,0.24613l0.186691,0.018563l3.619857,-0.915062l1.111664,-1.814204l3.430005,-0.952058l0.655127,-0.043953l0.084265,-0.005636l0.586779,0.111786l0.13505,0.049197l1.792708,-0.569797l3.019083,-1.307302l0.761891,-0.949821l0.211838,-0.416134l0.152506,-0.299641l0.231516,-0.454916l0.381821,-0.131265l0.66331,0.059234l2.596326,0.672577l4.468299,1.891304l0.54234,0.25088l1.125338,1.106447l1.017293,1.241488l1.436183,2.535731l0.050444,0.200652l-0.867842,1.862166l-0.635557,0.575592l-0.571333,0.879112l-0.473992,1.375062l-0.030659,0.408668l0.430662,0.635625l0.604812,0.417165l0.281062,0.19214l0.108943,0.144221l0.153468,0.203078l0.096572,0.286714l-0.061938,0.162233l-0.305568,0.799513l-0.182824,0.478375l-0.204724,0.247917l-0.392355,0.475019l-0.172996,0.169757l-0.430577,0.422627l-0.007114,0.059539l-0.023993,0.201305l0.165967,0.173649l1.769335,1.322582l0.296681,0.181696l0.099285,0.06073l0.286938,0.125135l0.408358,0.178051l0.198207,0.086353l1.269169,0.336477l1.53064,0.405807l5.635556,3.156599l0.259248,4.293331l-1.518504,0.724229l-0.950163,1.015025l-0.429786,0.876672l-2.933365,2.168519l0.369536,0.876701l3.053972,0.851005l4.426465,4.434443l0.218675,1.266297l2.1944,2.558129l1.515599,0.861275l-3.469701,9.154962l-2.239117,2.775819l1.185439,6.626101l2.370728,12.088177l-3.556167,2.238574l2.239117,11.550975l-3.029381,5.014306l10.800176,3.581709l-1.843921,6.3575l1.712224,12.267244l6.717159,7.432049l-5.531784,6.088884l0.526872,6.536567l-4.083038,0.26863l-6.321985,-1.880381l-4.346431,1.522159l-2.107313,1.88041l-2.765902,0.179096l-6.980616,-1.701285l-2.502424,3.313007l-3.687863,1.701343l-1.975618,-1.253631l-0.526872,-3.31305l1.448831,-4.298008l-4.214735,-3.760777l-4.74152,3.402599l0.263478,2.596708l-3.161077,0.895438l-4.346345,3.04442l-2.897578,0.984957l-3.029381,-1.074477l-4.873217,-0.089505l-2.370728,3.04442l-1.020434,2.964067l-0.428398,1.244422l0.395175,2.148953l3.556081,3.313065l-1.975618,3.581724l1.947757,0.496517l1.213299,0.30933l3.81956,-0.268615l2.765902,1.522188l6.848835,-1.701241l3.292689,1.522203l-0.526786,2.686257l-1.712224,1.701328l1.053657,2.775747l2.370792,4.208547l5.795198,5.372499l-4.478127,2.507146l0.263393,5.193446l5.795177,6.715678l-1.975618,3.313108l-9.614759,2.238516l-4.478127,3.850296l-6.98053,2.775848l-4.346431,-4.477133l-3.687778,-2.149011l-17.122246,0l-1.843836,2.686315l2.23901,7.431947l-0.790264,2.865382l-7.770816,-3.133998l-16.068481,0.358178l-0.526892,-2.686242l-10.273304,-1.432698l-7.770794,6.89476l-3.160992,11.013642l-9.614737,1.701314l-2.634207,11.461441l-7.770816,0.805817l-3.951256,8.327444l-2.765882,0.447741l-6.058676,-4.92486l-1.210308,-0.013479l-6.82388,-0.07604l-1.053678,-2.775819l-8.956255,-0.626765l-8.07241,-3.339414l3.090251,-2.710717l-0.213312,-0.870963l0.368917,-3.085004l6.593346,-3.067457l3.619601,-0.871515l-0.700657,-4.439484l2.359661,-3.839939l9.501307,-0.487017l1.545916,-1.896867l-0.678694,-1.819942l1.466779,-1.471989l3.904958,0.589943l3.951341,-3.044449l0,-5.19346l4.082931,-1.611751l-2.502488,-4.835297l-11.06359,-1.611708l-6.848835,-5.372586l-4.943252,-3.619867l-0.037688,-0.99973l-2.450742,-0.435729l-2.563829,0.410106l-1.395076,1.538006l-2.563829,-1.230391l-0.9426,0.845835l-2.450763,0.384556l-2.676979,-0.076926l0,1.409777l-1.204519,0.033132l-1.029493,1.65171l-8.034294,5.193431l-5.795177,6.357529l-10.009848,3.939815l-4.693021,1.331414l-6.107155,-1.241851l-18.307513,-7.521553l-6.453766,-3.223488l-5.795177,0l-3.292774,5.462018l1.712246,8.327429l2.370792,3.850368l-0.921961,3.671214l-4.478127,1.522232l-6.05857,-0.268659l-8.839855,-2.953463l-7.473858,-6.157516l-7.054775,-6.094099l-1.653106,-0.823175l-3.958114,0.474947l-4.609995,1.772778l-2.980262,2.485213l-2.118744,5.524244l-0.791674,6.078368l-0.321293,2.99518l-1.131149,1.166291l-0.188443,-2.230018l-2.490909,0.137511l-0.186071,-0.624571l-1.432765,0.038492l0.226217,0.845849l-2.48843,2.499244l-6.635885,1.640468l-1.621314,-0.538233l-1.357281,-2.153209l0.716382,-1.922446l-1.809843,-2.127528l-2.1024,-1.474734l-1.385163,-0.588694l-0.509031,0.435714l-2.2811,-0.320398l-0.037688,-1.063757l-1.583519,-0.115316l-1.187747,-1.127886l3.035171,-0.358846l0.848357,-0.961281l-0.904826,-0.756112l-0.73529,0.256327l-0.716361,-0.141011l-0.209894,-1.214326l-6.369415,-8.513425l0.640899,-1.230289l0.471364,-0.704969l-0.659807,-1.666134l-3.902393,-0.845893l-0.935848,-2.517357l0,0.000003z" id="2409188"/>
   </g>
   <text fill="#000000" stroke-width="0" stroke-opacity="null" fill-opacity="null" x="147.248091" y="368.127216" id="svg_1" font-size="24" font-family="Oswald, sans-serif" text-anchor="start" xml:space="preserve" font-weight="bold" transform="matrix(0.7962373495101929,0,0,0.7511111909623467,18.644282519817352,79.03648700057285) " stroke="null"></text>
  <text fill="#000000" stroke-width="0" stroke-opacity="null" fill-opacity="null" x="161.063067" y="546.529564" id="svg_2" font-size="24" font-family="Oswald, sans-serif" text-anchor="start" xml:space="preserve" font-weight="bold" transform="matrix(0.7962373495101929,0,0,0.7511111909623467,18.644282519817352,79.03648700057285) " stroke="null"></text>
  <text fill="#000000" stroke-width="0" stroke-opacity="null" fill-opacity="null" x="360.752267" y="389.428989" id="svg_3" font-size="24" font-family="Oswald, sans-serif" text-anchor="start" xml:space="preserve" font-weight="bold" transform="matrix(0.7962373495101929,0,0,0.7511111909623467,18.644282519817352,79.03648700057285) " stroke="null"></text>
  <text fill="#000000" stroke-width="0" stroke-opacity="null" fill-opacity="null" x="421.0358" y="478.630163" id="svg_4" font-size="24" font-family="Oswald, sans-serif" text-anchor="start" xml:space="preserve" font-weight="bold" transform="matrix(0.7962373495101929,0,0,0.7511111909623467,18.644282519817352,79.03648700057285) " stroke="null"></text>
  <text fill="#000000" stroke-width="0" stroke-opacity="null" fill-opacity="null" x="609.421839" y="527.890513" id="svg_5" font-size="24" font-family="Oswald, sans-serif" text-anchor="start" xml:space="preserve" font-weight="bold" transform="matrix(0.7962373495101929,0,0,0.7511111909623467,18.644282519817352,79.03648700057285) " stroke="null"></text>
  <text fill="#000000" stroke-width="0" stroke-opacity="null" fill-opacity="null" x="506.437471" y="621.085769" id="svg_6" font-size="24" font-family="Oswald, sans-serif" text-anchor="start" xml:space="preserve" font-weight="bold" transform="matrix(0.7962373495101929,0,0,0.7511111909623467,18.644282519817352,79.03648700057285) " stroke="null"></text>
  <text fill="#000000" stroke-width="0" stroke-opacity="null" fill-opacity="null" x="979.914381" y="692.979252" id="svg_7" font-size="24" font-family="Oswald, sans-serif" text-anchor="start" xml:space="preserve" font-weight="bold" transform="matrix(0.7962373495101929,0,0,0.7511111909623467,18.644282519817352,79.03648700057285) " stroke="null"></text>
  <text fill="#000000" stroke-width="0" stroke-opacity="null" fill-opacity="null" x="826.693736" y="382.772185" id="svg_8" font-size="24" font-family="Oswald, sans-serif" text-anchor="start" xml:space="preserve" font-weight="bold" transform="matrix(0.7962373495101929,0,0,0.7511111909623467,18.644282519817352,79.03648700057285) " stroke="null"></text>
  <text fill="#000000" stroke-width="0" stroke-opacity="null" fill-opacity="null" x="633.28407" y="250.967465" id="svg_9" font-size="24" font-family="Oswald, sans-serif" text-anchor="start" xml:space="preserve" font-weight="bold" transform="matrix(0.7962373495101929,0,0,0.7511111909623467,18.644282519817352,79.03648700057285) " stroke="null"></text>
  <text fill="#000000" stroke-width="0" stroke-opacity="null" fill-opacity="null" x="434.850776" y="293.571011" id="svg_10" font-size="24" font-family="Oswald, sans-serif" text-anchor="start" xml:space="preserve" font-weight="bold" transform="matrix(0.7962373495101929,0,0,0.7511111909623467,18.644282519817352,79.03648700057285) " stroke="null"></text>
  <text fill="#000000" stroke-width="0" stroke-opacity="null" fill-opacity="null" x="403.453103" y="113.837302" id="svg_11" font-size="24" font-family="Oswald, sans-serif" text-anchor="start" xml:space="preserve" font-weight="bold" transform="matrix(0.7962373495101929,0,0,0.7511111909623467,18.644282519817352,79.03648700057285) " stroke="null"></text>
  </g>
  
 </g>
</svg>