<?xml version="1.0" encoding="utf-8"?>
<!-- Generator: Adobe Illustrator 16.0.0, SVG Export Plug-In . SVG Version: 6.00 Build 0)  -->
<!DOCTYPE svg PUBLIC "-//W3C//DTD SVG 1.1//EN" "http://www.w3.org/Graphics/SVG/1.1/DTD/svg11.dtd">
<svg version="1.1" id="Layer_1" xmlns="http://www.w3.org/2000/svg" xmlns:xlink="http://www.w3.org/1999/xlink" x="0px" y="0px"
	 width="350px" height="50px" viewBox="0 0 350 50" enable-background="new 0 0 350 50" xml:space="preserve">
<g>
	<path fill="#ADEBE8" d="M25.286,12.373c-6.673,0-12.099,5.426-12.099,12.095s5.426,12.094,12.099,12.094
		c6.672,0,12.099-5.425,12.099-12.094S31.958,12.373,25.286,12.373L25.286,12.373z M25.286,33.373c-4.912,0-8.909-3.995-8.909-8.905
		s3.997-8.905,8.909-8.905c4.912,0,8.908,3.995,8.908,8.905S30.197,33.373,25.286,33.373L25.286,33.373z M25.286,10.113
		c0.881,0,1.595-0.714,1.595-1.595V4c0-0.88-0.714-1.595-1.595-1.595C24.404,2.405,23.69,3.12,23.69,4v4.518
		C23.69,9.399,24.404,10.113,25.286,10.113L25.286,10.113z M25.286,38.954c-0.881,0-1.595,0.714-1.595,1.596v4.518
		c0,0.882,0.714,1.596,1.595,1.596c0.881,0,1.595-0.714,1.595-1.596V40.55C26.88,39.668,26.167,38.954,25.286,38.954L25.286,38.954z
		 M12.829,14.336c0.312,0.312,0.719,0.468,1.127,0.468c0.41,0,0.817-0.156,1.129-0.468c0.623-0.622,0.623-1.631,0-2.254
		l-3.198-3.196c-0.621-0.623-1.632-0.623-2.255,0s-0.623,1.632,0,2.256L12.829,14.336L12.829,14.336z M37.742,34.729
		c-0.623-0.621-1.634-0.621-2.255,0c-0.624,0.623-0.624,1.633,0,2.256l3.195,3.195c0.312,0.312,0.719,0.469,1.129,0.469
		c0.408,0,0.817-0.157,1.128-0.469c0.623-0.623,0.623-1.632,0-2.256L37.742,34.729L37.742,34.729z M10.858,24.534
		c0-0.881-0.714-1.595-1.595-1.595h-4.52c-0.881,0-1.595,0.714-1.595,1.595s0.714,1.595,1.595,1.595h4.52
		C10.144,26.129,10.858,25.415,10.858,24.534L10.858,24.534z M45.827,22.938h-4.521c-0.881,0-1.595,0.714-1.595,1.595
		s0.714,1.595,1.595,1.595h4.521c0.881,0,1.595-0.714,1.595-1.595S46.708,22.938,45.827,22.938L45.827,22.938z M12.829,34.731
		l-3.197,3.193c-0.623,0.624-0.623,1.633,0,2.256c0.312,0.312,0.719,0.469,1.127,0.469c0.409,0,0.817-0.157,1.128-0.467l3.198-3.195
		c0.623-0.623,0.623-1.633,0-2.256C14.461,34.108,13.452,34.108,12.829,34.731L12.829,34.731z M36.613,14.804
		c0.408,0,0.815-0.155,1.129-0.466l3.196-3.194c0.623-0.623,0.623-1.632,0-2.255c-0.623-0.624-1.633-0.624-2.256,0l-3.197,3.194
		c-0.623,0.623-0.623,1.632,0,2.255C35.796,14.649,36.206,14.804,36.613,14.804L36.613,14.804z"/>
	<path fill="#ADEBE8" d="M68.961,13.175c1.907,0,3.637,0.753,4.935,1.975c0.694-0.349,1.428-0.628,2.19-0.837
		C74.361,12.287,71.807,11,68.961,11c-5.188,0-9.407,4.269-9.407,9.516c0,0.184,0.005,0.367,0.016,0.552
		c-3.16,0.554-5.57,3.347-5.57,6.697c0,3.748,3.014,6.798,6.719,6.798h1.084c-0.066-0.443-0.1-0.897-0.1-1.36
		c0-0.274,0.014-0.545,0.04-0.815h-1.024c-2.519,0-4.568-2.072-4.568-4.622c0-2.538,2.033-4.605,4.542-4.621l1.376,0.028
		l-0.24-1.311c-0.082-0.45-0.123-0.902-0.123-1.346C61.705,16.467,64.959,13.175,68.961,13.175L68.961,13.175z M89.385,24.594
		c-0.299,0-0.598,0.018-0.894,0.054c-0.632-4.632-4.57-8.211-9.318-8.211c-5.188,0-9.407,4.269-9.407,9.516
		c0,0.183,0.005,0.368,0.016,0.553c-3.16,0.553-5.57,3.346-5.57,6.696c0,3.747,3.014,6.797,6.719,6.797h18.455
		c4.198,0,7.614-3.455,7.614-7.703C97,28.05,93.583,24.594,89.385,24.594L89.385,24.594z M89.385,37.825H70.931
		c-2.519,0-4.568-2.073-4.568-4.623c0-2.539,2.035-4.605,4.542-4.622l1.376,0.029l-0.241-1.311c-0.082-0.45-0.123-0.902-0.123-1.346
		c0-4.047,3.254-7.341,7.256-7.341c3.981,0,7.225,3.262,7.255,7.283v1.529l1.385-0.422c0.513-0.154,1.042-0.235,1.572-0.235
		c3.012,0,5.465,2.48,5.465,5.528C94.851,35.346,92.397,37.825,89.385,37.825L89.385,37.825z"/>
	<path fill="#ADEBE8" d="M106.667,22.605c0-0.662-0.525-1.198-1.173-1.198h-3.32c-0.648,0-1.173,0.536-1.173,1.198
		c0,0.661,0.525,1.197,1.173,1.197h3.32C106.142,23.802,106.667,23.266,106.667,22.605L106.667,22.605z M117.267,11.785
		c0.648,0,1.171-0.536,1.171-1.198v-3.39c0-0.662-0.523-1.198-1.171-1.198s-1.173,0.536-1.173,1.198v3.39
		C116.093,11.249,116.619,11.785,117.267,11.785L117.267,11.785z M108.114,14.954c0.228,0.233,0.529,0.351,0.828,0.351
		c0.301,0,0.6-0.118,0.83-0.351c0.458-0.468,0.458-1.227,0-1.693l-2.348-2.398c-0.458-0.466-1.2-0.466-1.658,0
		c-0.459,0.468-0.459,1.225,0,1.693L108.114,14.954L108.114,14.954z M108.114,30.258l-2.35,2.396c-0.458,0.469-0.458,1.226,0,1.693
		c0.229,0.233,0.529,0.351,0.83,0.351c0.299,0,0.6-0.117,0.828-0.351l2.35-2.396c0.458-0.468,0.458-1.225,0-1.692
		C109.314,29.789,108.571,29.789,108.114,30.258L108.114,30.258z M125.589,15.305c0.301,0,0.6-0.118,0.83-0.351l2.348-2.398
		c0.458-0.466,0.458-1.225,0-1.691c-0.458-0.468-1.2-0.468-1.657,0l-2.348,2.396c-0.459,0.468-0.459,1.225,0,1.693
		C124.99,15.187,125.291,15.305,125.589,15.305L125.589,15.305z M114.293,28.5c-2.117-1.107-3.573-3.354-3.573-5.944
		c0-3.685,2.938-6.683,6.546-6.683c1.807,0,3.445,0.751,4.63,1.964c0.641-0.481,1.328-0.901,2.053-1.257
		c-1.631-1.898-4.021-3.1-6.683-3.1c-4.901,0-8.889,4.071-8.889,9.076c0,3.255,1.688,6.114,4.216,7.716
		C113.088,29.613,113.66,29.021,114.293,28.5L114.293,28.5z M140.695,27.044c-0.326,0-0.651,0.02-0.976,0.059
		c-0.687-5.097-4.981-9.035-10.16-9.035c-5.656,0-10.258,4.698-10.258,10.471c0,0.201,0.007,0.404,0.018,0.607
		c-3.445,0.609-6.075,3.682-6.075,7.37c0,4.125,3.287,7.481,7.326,7.481h20.125c4.579,0,8.303-3.803,8.303-8.478
		C148.999,30.847,145.274,27.044,140.695,27.044L140.695,27.044z M140.695,41.604h-20.125c-2.747,0-4.981-2.28-4.981-5.087
		c0-2.793,2.218-5.068,4.953-5.086l1.5,0.032l-0.262-1.444c-0.089-0.493-0.135-0.991-0.135-1.479c0-4.454,3.55-8.079,7.914-8.079
		c4.353,0,7.897,3.607,7.914,8.048l-0.002,1.649l1.51-0.463c0.561-0.171,1.138-0.259,1.714-0.259c3.287,0,5.96,2.729,5.96,6.084
		C146.656,38.874,143.982,41.604,140.695,41.604L140.695,41.604z"/>
	<path fill="#ADEBE8" d="M178.504,21.411l-1.18,1.958c-0.701,1.161-4.192,7.081-4.192,9.549c0,2.966,2.409,5.38,5.372,5.38
		c2.961,0,5.369-2.414,5.369-5.38c0-2.469-3.492-8.389-4.191-9.549L178.504,21.411L178.504,21.411z M178.504,35.54
		c-1.443,0-2.618-1.176-2.618-2.621c0-0.883,1.213-3.516,2.618-6.072c1.402,2.557,2.615,5.188,2.615,6.072
		C181.119,34.364,179.945,35.54,178.504,35.54L178.504,35.54z M186.244,14.345c-0.383,0-0.766,0.023-1.145,0.067
		C184.291,8.538,179.246,4,173.163,4c-6.644,0-12.051,5.414-12.051,12.07c0,0.231,0.007,0.466,0.021,0.7
		c-4.047,0.701-7.136,4.244-7.136,8.496c0,4.387,3.289,8.01,7.524,8.547c0.42-0.842,0.901-1.737,1.438-2.685h-0.356
		c-3.226,0-5.852-2.63-5.852-5.862c0-3.221,2.606-5.843,5.818-5.863l1.763,0.038l-0.306-1.665c-0.107-0.57-0.161-1.145-0.161-1.706
		c0-5.134,4.171-9.313,9.297-9.313c5.126,0,9.294,4.179,9.294,9.324v1.855l1.773-0.534c0.658-0.198,1.336-0.297,2.014-0.297
		c3.859,0,7,3.146,7,7.013c0,3.666-2.822,6.678-6.406,6.98c0.164,0.682,0.248,1.291,0.248,1.821c0,0.313-0.02,0.623-0.051,0.93
		c5.01-0.406,8.963-4.611,8.963-9.731C195.998,18.728,191.623,14.345,186.244,14.345L186.244,14.345z M167.898,29.112l-1.179,1.959
		c-0.7,1.16-4.192,7.08-4.192,9.55c0,2.966,2.41,5.38,5.371,5.38c2.96,0,5.371-2.414,5.371-5.38c0-2.47-3.493-8.39-4.193-9.55
		L167.898,29.112L167.898,29.112z M167.898,43.241c-1.444,0-2.617-1.175-2.617-2.62c0-0.884,1.214-3.517,2.617-6.073
		c1.405,2.557,2.617,5.188,2.617,6.073C170.516,42.066,169.34,43.241,167.898,43.241L167.898,43.241z"/>
	<path fill="#ADEBE8" d="M242.488,32.36l-0.117-0.175c-0.051-0.935-0.412-1.789-0.99-2.46c1.752-1.328,2.785-3.367,2.785-5.559
		c0-3.872-3.211-7.021-7.158-7.021c-0.693,0-1.387,0.102-2.061,0.299l-1.822,0.538l0.002-1.934
		c-0.031-5.117-4.283-9.272-9.508-9.272c-5.242,0-9.508,4.184-9.508,9.325c0,0.563,0.055,1.138,0.164,1.711l0.313,1.667l-1.813-0.03
		c-3.281,0.021-5.945,2.646-5.945,5.869c0,3.237,2.686,5.87,5.984,5.87v2.777c-4.861,0-8.814-3.879-8.814-8.647
		c0-4.262,3.16-7.813,7.303-8.518c-0.016-0.233-0.021-0.467-0.021-0.698C211.281,9.43,216.816,4,223.619,4
		c6.227,0,11.391,4.548,12.221,10.436c0.389-0.044,0.777-0.068,1.168-0.068c5.508,0,9.99,4.396,9.99,9.799
		C246.998,27.477,245.311,30.541,242.488,32.36L242.488,32.36z M238.137,33.795l-4.986,0.004l2.496,4.235
		c0.391,0.662,0.16,1.513-0.518,1.896c-0.223,0.127-0.465,0.188-0.705,0.188c-0.49,0-0.967-0.25-1.227-0.693l-2.498-4.235
		l-2.49,4.239c-0.264,0.445-0.738,0.694-1.229,0.694c-0.24,0-0.482-0.059-0.705-0.186c-0.678-0.382-0.908-1.231-0.52-1.896
		l2.49-4.239l-4.986,0.004h-0.002c-0.781,0-1.414-0.621-1.414-1.387c-0.002-0.768,0.631-1.389,1.414-1.391l4.988-0.004l-2.498-4.233
		c-0.393-0.664-0.16-1.514,0.516-1.897c0.678-0.385,1.543-0.157,1.936,0.507l2.496,4.234l2.49-4.237
		c0.391-0.666,1.256-0.894,1.934-0.511c0.676,0.383,0.91,1.232,0.52,1.896l-2.49,4.239l4.986-0.004h0.002
		c0.779,0,1.414,0.621,1.416,1.387C239.553,33.172,238.918,33.793,238.137,33.795L238.137,33.795z M221.184,40.07l-5.631,5.522
		c-0.277,0.272-0.639,0.408-1,0.408c-0.363,0-0.725-0.136-1.002-0.408c-0.553-0.541-0.553-1.421,0-1.964l5.631-5.522
		c0.555-0.543,1.449-0.543,2.002,0C221.736,38.648,221.736,39.527,221.184,40.07L221.184,40.07z M221.184,45.593
		c-0.277,0.272-0.639,0.408-1.002,0.408c-0.361,0-0.725-0.136-1-0.408l-5.631-5.522c-0.553-0.543-0.553-1.422,0-1.964
		c0.553-0.543,1.449-0.543,2.002,0l5.631,5.522C221.736,44.172,221.736,45.052,221.184,45.593L221.184,45.593z"/>
	<path fill="#ADEBE8" d="M278.301,27.247c-0.209-0.385-0.604-0.623-1.035-0.623h-0.002l-7.109,0.009l4.17-6.527
		c0.357-0.557,0.201-1.303-0.344-1.666c-0.545-0.363-1.277-0.207-1.633,0.351l-5.363,8.392c-0.236,0.37-0.256,0.844-0.049,1.232
		c0.205,0.388,0.605,0.628,1.037,0.628h0.002l7.141-0.009L267.043,42c-0.35,0.562-0.186,1.306,0.363,1.661
		c0.195,0.128,0.416,0.188,0.633,0.188c0.389,0,0.771-0.197,0.996-0.559l9.229-14.817C278.494,28.102,278.508,27.633,278.301,27.247
		L278.301,27.247z M280.709,30.049l-1.01,1.708c-0.713,1.205-4.268,7.342-4.268,9.859c0,2.969,2.369,5.383,5.277,5.383
		c2.91,0,5.279-2.414,5.279-5.383c0-2.518-3.557-8.654-4.268-9.859L280.709,30.049L280.709,30.049z M280.709,44.591
		c-1.607,0-2.916-1.335-2.916-2.975c0-1.096,1.486-4.22,2.916-6.833c1.432,2.613,2.918,5.736,2.918,6.833
		C283.627,43.256,282.318,44.591,280.709,44.591L280.709,44.591z M284.639,12.033c-0.328,0-0.658,0.02-0.982,0.06
		c-0.693-5.129-5.018-9.092-10.232-9.092c-5.695,0-10.328,4.727-10.328,10.538c0,0.203,0.006,0.406,0.02,0.612
		c-3.471,0.611-6.117,3.705-6.117,7.417c0,3.709,2.648,6.795,6.117,7.408l1.367-2.289h-0.107c-2.768,0-5.018-2.297-5.018-5.119
		c0-2.813,2.236-5.104,4.988-5.119l1.518,0.063l-0.271-1.483c-0.09-0.499-0.135-0.999-0.135-1.49c0-4.483,3.572-8.129,7.967-8.129
		s7.969,3.646,7.969,8.14v1.618l1.52-0.466c0.564-0.173,1.145-0.26,1.727-0.26c3.307,0,6,2.747,6,6.122c0,3.375-2.693,6.123-6,6.123
		h-1.922l-1.398,2.408h3.32c4.611,0,8.361-3.827,8.361-8.531C293,15.86,289.25,12.033,284.639,12.033L284.639,12.033z"/>
	<path fill="#ADEBE8" d="M341.068,17.526c-0.57,0-1.035,0.467-1.035,1.04c0,0.575,0.465,1.04,1.035,1.04
		c1.027,0,1.861,0.838,1.861,1.869s-0.834,1.871-1.861,1.871H329.18c-0.572,0-1.035,0.465-1.035,1.038
		c0,0.575,0.463,1.04,1.035,1.04h11.998c0.037,0,0.072-0.007,0.107-0.011c2.066-0.114,3.713-1.833,3.713-3.938
		C344.998,19.298,343.234,17.526,341.068,17.526L341.068,17.526z M307.068,27.022c0-2.426,1.957-4.402,4.369-4.417
		c0.025,0.002,0.057,0.002,0.076,0.002c0.307,0,0.598-0.137,0.795-0.374c0.197-0.236,0.279-0.55,0.221-0.854
		c-0.08-0.429-0.119-0.861-0.119-1.285c0-3.869,3.133-7.015,6.98-7.015c3.844,0,6.973,3.137,6.98,6.999c0,0.009,0,0.018,0,0.025
		c0,0.33,0.154,0.637,0.418,0.833c0.262,0.198,0.602,0.257,0.914,0.162c0.494-0.149,1.002-0.224,1.512-0.224
		c0.557,0,1.186,0.08,1.764,0.221h3.684c-0.006-0.012-0.01-0.027-0.018-0.039c-1.006-1.788-3.99-2.261-5.43-2.261
		c-0.289,0-0.574,0.018-0.859,0.052C327.748,14.42,323.959,11,319.391,11c-4.99,0-9.049,4.081-9.049,9.094
		c0,0.174,0.006,0.353,0.016,0.529c-3.039,0.527-5.357,3.196-5.357,6.4c0,3.582,2.9,6.495,6.463,6.495h19.133
		c0.121-0.733,0.369-1.434,0.725-2.078h-19.857C309.039,31.439,307.068,29.458,307.068,27.022L307.068,27.022z M335.908,27.094
		c-0.01-0.002-0.02-0.004-0.029-0.004h-16.385c-0.57,0-1.033,0.465-1.033,1.04c0,0.573,0.463,1.04,1.033,1.04h16.383
		c0.012,0,0.023,0.002,0.035,0.002c1.432-0.043,2.818,0.532,3.799,1.58c0.697,0.743,1.064,1.713,1.031,2.733
		c-0.029,1.02-0.453,1.965-1.191,2.665c-1.139,1.075-2.938,1.021-4.006-0.121c-0.379-0.404-0.576-0.93-0.561-1.483
		c0.018-0.552,0.248-1.064,0.648-1.443c0.578-0.547,1.494-0.519,2.037,0.063c0.391,0.418,1.045,0.438,1.461,0.044
		c0.418-0.394,0.438-1.05,0.045-1.469c-1.326-1.417-3.551-1.484-4.959-0.151c-0.803,0.759-1.266,1.788-1.299,2.896
		c-0.033,1.106,0.365,2.162,1.119,2.969c0.965,1.027,2.268,1.548,3.572,1.548c1.205,0,2.412-0.443,3.357-1.338
		c2.357-2.229,2.469-5.967,0.252-8.335C339.844,27.861,337.912,27.051,335.908,27.094L335.908,27.094z"/>
</g>
</svg>
