<?xml version="1.0" encoding="utf-8"?>
<!-- Generator: Adobe Illustrator 16.0.0, SVG Export Plug-In . SVG Version: 6.00 Build 0)  -->
<!DOCTYPE svg PUBLIC "-//W3C//DTD SVG 1.1//EN" "http://www.w3.org/Graphics/SVG/1.1/DTD/svg11.dtd">
<svg version="1.1" id="Layer_1" xmlns="http://www.w3.org/2000/svg" xmlns:xlink="http://www.w3.org/1999/xlink" x="0px" y="0px"
	 width="80px" height="71px" viewBox="9 0 80 71" enable-background="new 9 0 80 71" xml:space="preserve">
<g>
	<path fill="#FFFFFF" d="M76.559,27.164c-1.076,0-2.156,0.182-3.146,0.497c0.004-0.16,0.04-0.334,0.04-0.497
		c0-4.61-3.741-8.355-8.354-8.355c-0.854,0-1.662,0.141-2.445,0.367C61.838,11.172,55.07,4.928,46.837,4.928
		c-8.624,0-15.642,6.886-15.883,15.465c-0.092,0-0.183-0.018-0.272-0.018c-7.484,0-13.563,6.08-13.563,13.563
		c0,7.482,6.079,13.562,13.563,13.562h45.876c5.635,0,10.19-4.553,10.19-10.178C86.749,31.718,82.193,27.164,76.559,27.164z"/>
</g>
<path fill="#FFFFFF" d="M61.046,57.032c0,2.723-2.218,4.938-4.938,4.938c-2.754,0-4.971-2.217-4.971-4.938
	c0-2.753,2.217-4.97,4.971-4.97C58.828,52.063,61.046,54.279,61.046,57.032z"/>
<path fill="#FFFFFF" d="M50.818,64.963c0,1.623-1.343,2.965-2.993,2.965c-1.621,0-2.964-1.342-2.964-2.965
	c0-1.648,1.343-2.99,2.964-2.99C49.476,61.973,50.818,63.313,50.818,64.963z"/>
<path fill="#5BB0FF" d="M25.38,65.152c-0.577,0.879-1.682,1.105-2.478,0.451l0,0c-0.783-0.625-0.984-1.859-0.407-2.766l9.383-11.332
	c0.575-0.877,1.667-1.104,2.462-0.447l0,0c0.797,0.625,0.985,1.858,0.423,2.767L25.38,65.152z"/>
<path fill="#5BB0FF" d="M36.523,65.152c-0.563,0.879-1.668,1.105-2.465,0.451l0,0c-0.798-0.625-0.984-1.859-0.421-2.766
	l9.383-11.332c0.572-0.877,1.673-1.104,2.462-0.447l0,0c0.799,0.625,0.985,1.858,0.425,2.767L36.523,65.152z"/>
<path fill="#5BB0FF" d="M65.967,65.277c-0.563,0.877-1.667,1.104-2.464,0.451l0,0c-0.798-0.625-0.983-1.861-0.421-2.736
	l9.396-11.358c0.562-0.879,1.666-1.104,2.463-0.452l0,0c0.798,0.625,0.984,1.861,0.424,2.768L65.967,65.277z"/>
</svg>
