<?xml version="1.0" encoding="utf-8"?>
<!-- Generator: Adobe Illustrator 16.0.0, SVG Export Plug-In . SVG Version: 6.00 Build 0)  -->
<!DOCTYPE svg PUBLIC "-//W3C//DTD SVG 1.1//EN" "http://www.w3.org/Graphics/SVG/1.1/DTD/svg11.dtd">
<svg version="1.1" id="Layer_1" xmlns="http://www.w3.org/2000/svg" xmlns:xlink="http://www.w3.org/1999/xlink" x="0px" y="0px"
	 width="98px" height="71px" viewBox="0 0 98 71" enable-background="new 0 0 98 71" xml:space="preserve">
<g>
	<path fill="#FFFFFF" d="M64.716,14.71c0,1.063-1.204,1.906-2.649,1.906h-51.01c-1.467,0-2.649-0.843-2.649-1.906l0,0
		c0-1.051,1.182-1.895,2.649-1.895h51.01C63.512,12.815,64.716,13.659,64.716,14.71L64.716,14.71z"/>
	<path fill="#FFFFFF" d="M90.127,27.783c0,1.051-1.182,1.895-2.651,1.895H38.852c-1.466,0-2.648-0.843-2.648-1.895l0,0
		c0-1.052,1.182-1.906,2.648-1.906h48.624C88.945,25.877,90.127,26.731,90.127,27.783L90.127,27.783z"/>
	<path fill="#FFFFFF" d="M73.252,40.855c0,1.055-1.182,1.896-2.647,1.896H21.99c-1.467,0-2.66-0.842-2.66-1.896l0,0
		c0-1.074,1.193-1.916,2.66-1.916h48.614C72.07,38.939,73.252,39.781,73.252,40.855L73.252,40.855z"/>
	<path fill="#FFFFFF" d="M86.094,53.92c0,1.051-1.184,1.895-2.651,1.895H34.817c-1.466,0-2.659-0.844-2.659-1.895l0,0
		c0-1.053,1.192-1.918,2.659-1.918h48.625C84.91,52.002,86.094,52.867,86.094,53.92L86.094,53.92z"/>
</g>
</svg>
