<?xml version="1.0" encoding="utf-8"?>
<!-- Generator: Adobe Illustrator 16.0.0, SVG Export Plug-In . SVG Version: 6.00 Build 0)  -->
<!DOCTYPE svg PUBLIC "-//W3C//DTD SVG 1.1//EN" "http://www.w3.org/Graphics/SVG/1.1/DTD/svg11.dtd">
<svg version="1.1" id="Layer_1" xmlns="http://www.w3.org/2000/svg" xmlns:xlink="http://www.w3.org/1999/xlink" x="0px" y="0px"
	 width="80px" height="71px" viewBox="9 0 80 71" enable-background="new 9 0 80 71" xml:space="preserve">
<g>
	<g>
		<g>
			<g>
				<g>
					<path fill="#FFFFFF" d="M74.175,28.138c-1.137,0-2.225,0.183-3.221,0.515c0.01-0.162,0.019-0.337,0.019-0.515
						c0-4.7-3.814-8.515-8.533-8.515c-0.855,0-1.695,0.125-2.483,0.365C59.109,11.81,52.202,5.429,43.793,5.429
						c-8.818,0-15.992,7.028-16.235,15.798c-0.092,0-0.185-0.004-0.275-0.004c-7.656,0-13.857,6.191-13.857,13.846
						c0,7.656,6.202,13.844,13.858,13.844h46.893c5.742,0,10.38-4.625,10.38-10.372C84.555,32.796,79.917,28.138,74.175,28.138z"/>
				</g>
			</g>
		</g>
	</g>
</g>
<path fill="#5BB0FF" d="M25.786,66.578c-0.651,0.908-1.916,1.124-2.828,0.479l0,0c-0.909-0.656-1.124-1.924-0.469-2.834
	l6.697-11.576c0.643-0.91,1.91-1.139,2.819-0.48l0,0c0.909,0.652,1.125,1.896,0.478,2.816L25.786,66.578z"/>
<path fill="#5BB0FF" d="M42.843,66.264c-0.658,0.908-1.91,1.113-2.827,0.455l0,0c-0.912-0.629-1.131-1.896-0.471-2.805l6.699-11.605
	c0.636-0.912,1.902-1.111,2.813-0.451l0,0c0.908,0.625,1.139,1.895,0.48,2.805L42.843,66.264z"/>
<path fill="#5BB0FF" d="M59.896,66.264c-0.66,0.908-1.896,1.113-2.834,0.455l0,0c-0.912-0.629-1.109-1.896-0.449-2.805l6.677-11.605
	c0.658-0.912,1.925-1.111,2.834-0.451l0,0c0.909,0.625,1.117,1.895,0.479,2.805L59.896,66.264z"/>
</svg>
