<?xml version="1.0" encoding="utf-8"?>
<!-- Generator: Adobe Illustrator 16.0.0, SVG Export Plug-In . SVG Version: 6.00 Build 0)  -->
<!DOCTYPE svg PUBLIC "-//W3C//DTD SVG 1.1//EN" "http://www.w3.org/Graphics/SVG/1.1/DTD/svg11.dtd">
<svg version="1.1" id="Layer_1" xmlns="http://www.w3.org/2000/svg" xmlns:xlink="http://www.w3.org/1999/xlink" x="0px" y="0px"
	 width="98px" height="71px" viewBox="0 0 98 71" enable-background="new 0 0 98 71" xml:space="preserve">
<g>
	<g>
		<path fill="#FFFFFF" d="M64.351,41.147c-1.1,0-2.183,0.183-3.159,0.515c0.006-0.153,0.014-0.338,0.014-0.515
			c0-4.605-3.738-8.34-8.34-8.34c-0.856,0-1.67,0.109-2.439,0.348c-0.833-8.007-7.604-14.264-15.85-14.264
			c-8.642,0-15.677,6.904-15.912,15.492c-0.097,0-0.189-0.004-0.27-0.004c-7.508,0-13.585,6.081-13.585,13.561
			c0,7.503,6.077,13.582,13.585,13.582h45.956c5.612,0,10.19-4.551,10.19-10.188C74.541,45.724,69.963,41.147,64.351,41.147z"/>
		<path fill="#FFFFFF" d="M84.166,33.153c-1.132,0-2.185,0.181-3.163,0.517c0.006-0.181,0.016-0.34,0.016-0.517
			c0-4.605-3.739-8.353-8.368-8.353c-0.829,0-1.646,0.134-2.412,0.372c-0.843-8.03-6.272-12.651-14.532-12.651
			c-7.135,0-10.037,6.37-8.575,7.582c3.249,2.401,5.685,5.862,6.742,9.979c0.053,0.196,0.524,0.057,0.689,0.052l0.264-0.006
			c4.853,0,8.823,3.593,10.014,8.327c0.052,0.199,0.711,0.004,0.916-0.005c0.243-0.004,0.511-0.032,0.752-0.032
			c6.847,0,11.967,5.926,11.967,12.773c0,0.127-0.009,0.231-0.034,0.338l5.724,1.996c5.607,0,10.163-4.551,10.163-10.188
			C94.353,37.73,89.773,33.153,84.166,33.153z"/>
	</g>
</g>
</svg>
