<?xml version="1.0" encoding="utf-8"?>
<!-- Generator: Adobe Illustrator 16.0.0, SVG Export Plug-In . SVG Version: 6.00 Build 0)  -->
<!DOCTYPE svg PUBLIC "-//W3C//DTD SVG 1.1//EN" "http://www.w3.org/Graphics/SVG/1.1/DTD/svg11.dtd">
<svg version="1.1" id="Layer_1" xmlns="http://www.w3.org/2000/svg" xmlns:xlink="http://www.w3.org/1999/xlink" x="0px" y="0px"
	 width="98px" height="71px" viewBox="0 0 98 71" enable-background="new 0 0 98 71" xml:space="preserve">
<g>
	<g>
		<g>
			<path fill="none" d="M5.328,0v55h23.816c-3.113-6.682-3.001-14.548,0.509-21.168c0.891-1.685,1.995-3.293,3.316-4.768
				c8.755-9.806,23.833-10.659,33.629-1.884c8.035,7.169,10.037,18.546,5.729,27.82H95.73V0H5.328z"/>
			<path fill="#FFDE17" d="M66.6,27.18c-9.797-8.775-24.875-7.922-33.629,1.884c-1.321,1.475-2.425,3.083-3.316,4.768
				C26.144,40.453,26.032,48.32,29.145,55h43.184C76.636,45.727,74.634,34.349,66.6,27.18z"/>
		</g>
		<g>
			<g>
				<path fill="#FFDE17" d="M50.736,13c-1.022,0-1.849-0.827-1.849-1.83V4.325c0-1.022,0.827-1.849,1.849-1.849
					c1.003,0,1.83,0.827,1.83,1.849v6.845C52.566,12.173,51.74,13,50.736,13z"/>
			</g>
			<g>
				<path fill="#FFDE17" d="M26.845,22.887c-0.482,0-0.946-0.171-1.302-0.537l-4.846-4.838c-0.71-0.72-0.71-1.876,0.01-2.586
					c0.711-0.719,1.885-0.719,2.595,0l4.846,4.838c0.711,0.719,0.711,1.876,0,2.586C27.783,22.716,27.319,22.887,26.845,22.887z"/>
			</g>
			<g>
				<path fill="#FFDE17" d="M16.95,46.777h-6.846c-1.015,0-1.83-0.821-1.83-1.836c0-1.008,0.815-1.83,1.83-1.83h6.846
					c1.022,0,1.839,0.822,1.839,1.83C18.789,45.956,17.972,46.777,16.95,46.777z"/>
			</g>
			<g>
				<path fill="#FFDE17" d="M91.339,46.777h-6.825c-1.015,0-1.859-0.821-1.859-1.836c0-1.008,0.846-1.83,1.859-1.83h6.825
					c1.03,0,1.841,0.822,1.841,1.83C93.18,45.956,92.369,46.777,91.339,46.777z"/>
			</g>
			<g>
				<path fill="#FFDE17" d="M74.627,22.887c-0.482,0-0.949-0.171-1.313-0.537c-0.713-0.71-0.713-1.867-0.002-2.586l4.826-4.838
					c0.73-0.72,1.877-0.719,2.588,0c0.748,0.71,0.748,1.867,0,2.586L75.92,22.35C75.555,22.716,75.072,22.887,74.627,22.887z"/>
			</g>
		</g>
	</g>
</g>
<path fill="#FFFFFF" d="M77.332,66.577c0,1.37-1.13,2.5-2.49,2.5h-48.02c-1.375,0-2.49-1.13-2.49-2.5l0,0c0-1.37,1.115-2.5,2.49-2.5
	h48.02C76.202,64.077,77.332,65.207,77.332,66.577L77.332,66.577z"/>
<path fill="#FFFFFF" d="M85.832,59.803c0,1.369-1.451,2.5-3.193,2.5H21.026c-1.764,0-3.194-1.131-3.194-2.5l0,0
	c0-1.371,1.431-2.5,3.194-2.5h61.611C84.381,57.303,85.832,58.432,85.832,59.803L85.832,59.803z"/>
</svg>
