<?xml version="1.0" encoding="utf-8"?>
<!-- Generator: Adobe Illustrator 16.0.0, SVG Export Plug-In . SVG Version: 6.00 Build 0)  -->
<!DOCTYPE svg PUBLIC "-//W3C//DTD SVG 1.1//EN" "http://www.w3.org/Graphics/SVG/1.1/DTD/svg11.dtd">
<svg version="1.1" id="Layer_1" xmlns="http://www.w3.org/2000/svg" xmlns:xlink="http://www.w3.org/1999/xlink" x="0px" y="0px"
	 width="98px" height="71px" viewBox="0 0 98 71" enable-background="new 0 0 98 71" xml:space="preserve">
<g>
	<path fill="#FFDE16" d="M70.412,32.051c7.795,5.156,18.299,3.012,23.461-4.786c0.494-0.749,0.918-1.533,1.287-2.337
		c-5.389,3.109-12.271,3.12-17.801-0.538c-7.049-4.655-9.479-13.682-6.076-21.127c-1.344,0.772-2.596,1.741-3.703,2.886
		c-0.707,0.739-1.371,1.552-1.953,2.445C60.471,16.383,62.607,26.887,70.412,32.051z"/>
	<path fill="#FFFFFF" d="M72.271,44.239c-1.25,0-2.451,0.199-3.574,0.563c0.01-0.185,0.031-0.374,0.031-0.563
		c0-5.226-4.234-9.455-9.445-9.455c-0.957,0-1.891,0.145-2.758,0.415c-0.932-9.072-8.593-16.132-17.91-16.132
		c-9.778,0-17.73,7.785-17.997,17.496c-0.103,0-0.203-0.012-0.305-0.012c-8.477,0-15.352,6.877-15.352,15.358
		c0,8.478,6.875,15.353,15.352,15.353h51.958c6.355,0,11.512-5.162,11.512-11.512C83.783,49.39,78.627,44.239,72.271,44.239z"/>
</g>
</svg>
