<?xml version="1.0" encoding="utf-8"?>
<!-- Generator: Adobe Illustrator 16.0.0, SVG Export Plug-In . SVG Version: 6.00 Build 0)  -->
<!DOCTYPE svg PUBLIC "-//W3C//DTD SVG 1.1//EN" "http://www.w3.org/Graphics/SVG/1.1/DTD/svg11.dtd">
<svg version="1.1" id="Layer_1" xmlns="http://www.w3.org/2000/svg" xmlns:xlink="http://www.w3.org/1999/xlink" x="0px" y="0px"
	 width="80px" height="71px" viewBox="9 0 80 71" enable-background="new 9 0 80 71" xml:space="preserve">
<path fill="#FFFFFF" d="M82.35,36.563l-9.969,10.441h3.006c5.727,0,10.357-4.658,10.357-10.387c0-5.724-4.631-10.371-10.357-10.371
	c-1.143,0-2.211,0.181-3.24,0.519c0.006-0.176,0.045-0.342,0.045-0.519c0-4.705-3.813-8.501-8.53-8.501
	c-0.865,0-1.681,0.125-2.476,0.354C60.334,9.937,53.439,3.573,45.043,3.573c-8.803,0-15.97,7.018-16.211,15.773
	c-0.097,0-0.188-0.018-0.279-0.018c-7.637,0-13.839,6.206-13.839,13.837c0,7.633,6.202,13.838,13.839,13.838h23.65l8.441-10.44
	H82.35L82.35,36.563z"/>
<polygon fill="#FFDE16" points="61.813,38.939 76.926,38.939 65.369,51.004 75.021,50.947 47.687,66.572 59.352,54.813 
	48.945,54.813 "/>
<path fill="#FFFFFF" d="M21.602,63.686c-0.648,0.916-1.908,1.117-2.81,0.484l0,0c-0.914-0.66-1.129-1.908-0.48-2.824l10.726-11.563
	c0.646-0.914,1.906-1.115,2.808-0.482l0,0c0.914,0.66,1.132,1.938,0.482,2.824L21.602,63.686z"/>
<path fill="#FFFFFF" d="M36.604,63.686c-0.649,0.916-1.91,1.117-2.824,0.484l0,0c-0.901-0.66-1.116-1.908-0.466-2.824l10.711-11.563
	c0.646-0.914,1.907-1.115,2.822-0.482l0,0c0.9,0.66,1.117,1.938,0.468,2.824L36.604,63.686z"/>
</svg>
