<?xml version="1.0" encoding="utf-8"?>
<!-- Generator: Adobe Illustrator 16.0.0, SVG Export Plug-In . SVG Version: 6.00 Build 0)  -->
<!DOCTYPE svg PUBLIC "-//W3C//DTD SVG 1.1//EN" "http://www.w3.org/Graphics/SVG/1.1/DTD/svg11.dtd">
<svg version="1.1" id="Layer_1" xmlns="http://www.w3.org/2000/svg" xmlns:xlink="http://www.w3.org/1999/xlink" x="0px" y="0px"
	 width="80px" height="71px" viewBox="9 0 80 71" enable-background="new 9 0 80 71" xml:space="preserve">
<g>
	<path fill="#FFFFFF" d="M73.705,26.682c-1.094,0-2.191,0.185-3.197,0.504c0.004-0.163,0.041-0.34,0.041-0.504
		c0-4.685-3.801-8.488-8.486-8.488c-0.86,0-1.688,0.143-2.477,0.372c-0.836-8.13-7.71-14.473-16.059-14.473
		c-8.777,0-15.906,6.995-16.151,15.711c-0.094,0-0.186-0.019-0.277-0.019c-7.602,0-13.779,6.176-13.779,13.777
		s6.177,13.776,13.779,13.776h46.606c5.725,0,10.352-4.625,10.352-10.338C84.057,31.308,79.43,26.682,73.705,26.682z"/>
</g>
<path fill="#FFFFFF" d="M39.463,55.348c0,2.982-2.405,5.373-5.372,5.373c-2.967,0-5.373-2.391-5.373-5.373
	c0-2.951,2.406-5.371,5.373-5.371C37.059,49.977,39.463,52.396,39.463,55.348z"/>
<path fill="#FFFFFF" d="M54.061,55.348c0,2.982-2.404,5.373-5.372,5.373c-2.967,0-5.373-2.391-5.373-5.373
	c0-2.951,2.405-5.371,5.373-5.371C51.654,49.977,54.061,52.396,54.061,55.348z"/>
<path fill="#FFFFFF" d="M68.643,55.348c0,2.982-2.391,5.373-5.344,5.373c-2.98,0-5.383-2.391-5.383-5.373
	c0-2.951,2.402-5.371,5.383-5.371C66.252,49.977,68.643,52.396,68.643,55.348z"/>
<path fill="#FFFFFF" d="M44.212,65.082c0,1.648-1.364,3.012-3.025,3.012c-1.678,0-3.026-1.363-3.026-3.012
	c0-1.678,1.348-3.041,3.026-3.041C42.848,62.041,44.212,63.404,44.212,65.082z"/>
<path fill="#FFFFFF" d="M58.545,65.082c0,1.648-1.355,3.012-3.018,3.012c-1.68,0-3.025-1.363-3.025-3.012
	c0-1.678,1.348-3.041,3.025-3.041C57.189,62.041,58.545,63.404,58.545,65.082z"/>
</svg>
