<?xml version="1.0" encoding="utf-8"?>
<!-- Generator: Adobe Illustrator 16.0.0, SVG Export Plug-In . SVG Version: 6.00 Build 0)  -->
<!DOCTYPE svg PUBLIC "-//W3C//DTD SVG 1.1//EN" "http://www.w3.org/Graphics/SVG/1.1/DTD/svg11.dtd">
<svg version="1.1" id="Layer_1" xmlns="http://www.w3.org/2000/svg" xmlns:xlink="http://www.w3.org/1999/xlink" x="0px" y="0px"
	 width="98px" height="71px" viewBox="0 0 98 71" enable-background="new 0 0 98 71" xml:space="preserve">
<g>
	<g>
		<g>
			<g>
				<g>
					<path fill="#FFDE17" d="M62.711,53.49c-4.412,0-8.648-1.615-11.945-4.576c-6.166-5.494-7.774-14.45-3.91-21.743
						c0.684-1.284,1.52-2.482,2.5-3.58c3.397-3.806,8.266-5.985,13.362-5.985c4.411,0,8.677,1.629,11.962,4.562
						c3.572,3.207,5.702,7.593,5.954,12.381c0.255,4.773-1.354,9.371-4.532,12.945c-0.754,0.826-1.55,1.594-2.433,2.258
						C70.563,52.174,66.684,53.49,62.711,53.49z"/>
				</g>
				<g>
					<g>
						<path fill="#FFDE17" d="M62.714,14.094c-0.791,0-1.442-0.654-1.442-1.458V7.592c0-0.802,0.651-1.456,1.442-1.456
							c0.819,0,1.472,0.654,1.472,1.456v5.042C64.186,13.439,63.533,14.094,62.714,14.094z"/>
					</g>
					<g>
						<path fill="#FFDE17" d="M47.102,21.387c-0.367,0-0.746-0.144-1.023-0.421l-3.57-3.57c-0.57-0.569-0.57-1.492,0-2.062
							c0.567-0.566,1.488-0.566,2.057,0l3.572,3.572c0.567,0.568,0.567,1.49,0,2.06C47.846,21.244,47.481,21.387,47.102,21.387z"/>
					</g>
					<g>
						<path fill="#FFFFFF" d="M37.811,36.998H32.77c-0.805,0-1.459-0.637-1.459-1.442c0-0.819,0.654-1.458,1.459-1.458h5.041
							c0.804,0,1.459,0.639,1.459,1.458C39.27,36.361,38.616,36.998,37.811,36.998z"/>
					</g>
					<g>
						<path fill="#FFFFFF" d="M41.55,58.191c-0.381,0-0.76-0.158-1.036-0.422c-0.569-0.582-0.569-1.49,0-2.074l3.57-3.572
							c0.567-0.549,1.49-0.549,2.059,0c0.565,0.584,0.565,1.492,0,2.074l-3.572,3.572C42.296,58.033,41.915,58.191,41.55,58.191z"/>
					</g>
					<g>
						<path fill="#FFFFFF" d="M62.714,66.957c-0.791,0-1.442-0.652-1.442-1.443v-5.055c0-0.82,0.651-1.473,1.442-1.473
							c0.819,0,1.47,0.652,1.47,1.473l0.002,5.025C64.186,66.305,63.533,66.957,62.714,66.957z"/>
					</g>
					<g>
						<path fill="#FFDE17" d="M81.896,56.184c-0.365,0-0.73-0.131-1.021-0.424l-3.572-3.572c-0.553-0.551-0.553-1.487,0-2.041
							c0.582-0.584,1.49-0.584,2.074,0l3.57,3.57c0.553,0.555,0.553,1.492,0,2.043C82.658,56.053,82.29,56.184,81.896,56.184z"/>
					</g>
					<g>
						<path fill="#FFDE17" d="M90.689,36.998h-5.056c-0.817,0-1.472-0.637-1.472-1.442c0-0.819,0.654-1.458,1.472-1.458h5.056
							c0.791,0,1.444,0.639,1.444,1.458C92.135,36.361,91.48,36.998,90.689,36.998z"/>
					</g>
					<g>
						<path fill="#FFDE17" d="M78.326,21.389c-0.364,0-0.73-0.146-1.023-0.423c-0.553-0.568-0.553-1.492,0-2.059l3.574-3.573
							c0.58-0.566,1.49-0.566,2.072,0c0.551,0.569,0.551,1.493,0,2.062l-3.572,3.57C79.086,21.244,78.721,21.389,78.326,21.389z"/>
					</g>
				</g>
			</g>
			<g>
				<path fill="#FFFFFF" d="M68.289,46.693c-1.121,0-2.188,0.18-3.193,0.49c0.004-0.172,0.043-0.314,0.043-0.49
					c0-4.641-3.758-8.396-8.396-8.396c-0.854,0-1.67,0.125-2.442,0.361c-0.836-8.047-7.648-14.328-15.922-14.328
					c-8.675,0-15.733,6.915-15.974,15.547c-0.092-0.002-0.182-0.019-0.272-0.019c-7.533,0-13.637,6.117-13.637,13.638
					c0,7.549,6.104,13.64,13.637,13.64H68.26c5.653,0,10.235-4.584,10.235-10.236C78.496,51.277,73.915,46.693,68.289,46.693z"/>
			</g>
		</g>
	</g>
</g>
</svg>
