<?xml version="1.0" encoding="utf-8"?>
<!-- Generator: Adobe Illustrator 16.0.0, SVG Export Plug-In . SVG Version: 6.00 Build 0)  -->
<!DOCTYPE svg PUBLIC "-//W3C//DTD SVG 1.1//EN" "http://www.w3.org/Graphics/SVG/1.1/DTD/svg11.dtd">
<svg version="1.1" id="Layer_1" xmlns="http://www.w3.org/2000/svg" xmlns:xlink="http://www.w3.org/1999/xlink" x="0px" y="0px"
	 width="80px" height="71px" viewBox="0 0 80 71" enable-background="new 0 0 80 71" xml:space="preserve">
<g>
	<g>
		<path fill="#FFDD0F" d="M54.063,48.341c-0.762,0.873-1.59,1.638-2.473,2.291c-6.848,5.306-16.686,5.129-23.353-0.838
			c-6.386-5.713-7.815-14.916-3.993-22.161c0.69-1.296,1.542-2.529,2.558-3.652c6.728-7.54,18.269-8.181,25.809-1.45
			C60.151,29.261,60.796,40.824,54.063,48.341z"/>
		<g>
			<g>
				<path fill="#FFDD0F" d="M40.427,11.649c-0.77,0-1.4-0.633-1.4-1.404v-5.26c-0.002-0.771,0.631-1.402,1.4-1.402
					c0.771,0,1.403,0.632,1.403,1.403v5.26C41.828,11.017,41.196,11.649,40.427,11.649z"/>
			</g>
			<g>
				<path fill="#FFDD0F" d="M22.105,19.253c-0.371,0-0.726-0.147-1.006-0.412l-3.714-3.729c-0.546-0.546-0.546-1.437,0-1.981
					c0.545-0.561,1.452-0.56,1.997,0.001l3.713,3.714c0.546,0.546,0.546,1.437,0,1.997C22.817,19.105,22.459,19.253,22.105,19.253z"
					/>
			</g>
			<g>
				<path fill="#FFDD0F" d="M14.502,37.573H9.254c-0.786,0-1.417-0.632-1.417-1.402c0-0.785,0.632-1.418,1.417-1.418h5.247
					c0.784,0,1.418,0.633,1.418,1.418C15.919,36.941,15.286,37.573,14.502,37.573z"/>
			</g>
			<g>
				<path fill="#FFDD0F" d="M71.597,37.573h-5.262c-0.77,0-1.402-0.634-1.402-1.402c0-0.785,0.635-1.418,1.402-1.418h5.262
					c0.771,0,1.403,0.633,1.403,1.418C73,36.941,72.367,37.573,71.597,37.573z"/>
			</g>
			<g>
				<path fill="#FFDD0F" d="M58.763,19.253c-0.369,0-0.74-0.147-1.006-0.412c-0.563-0.561-0.563-1.451,0-1.997l3.729-3.714
					c0.53-0.562,1.421-0.562,1.983-0.001c0.558,0.546,0.558,1.436,0,1.981L59.74,18.84C59.474,19.105,59.101,19.253,58.763,19.253z"
					/>
			</g>
			<g>
				<path fill="#FFDD0F" d="M40.427,60.513c0.771,0,1.401,0.636,1.401,1.402v5.264c0,0.771-0.633,1.404-1.401,1.404
					c-0.77,0-1.402-0.636-1.402-1.404v-5.264C39.022,61.148,39.655,60.513,40.427,60.513z"/>
			</g>
			<g>
				<path fill="#FFDD0F" d="M58.763,52.908c0.34,0,0.711,0.134,0.978,0.425l3.729,3.703c0.559,0.563,0.559,1.452,0,2.01
					c-0.563,0.531-1.453,0.533-2.016,0l-3.697-3.728c-0.563-0.563-0.563-1.452,0.002-1.985
					C58.022,53.042,58.392,52.908,58.763,52.908z"/>
			</g>
			<g>
				<path fill="#FFDD0F" d="M22.091,52.908c0.368,0,0.726,0.134,1.003,0.425c0.547,0.533,0.547,1.424,0,1.985l-3.712,3.728
					c-0.546,0.533-1.451,0.531-1.997,0c-0.546-0.558-0.546-1.444,0-2.01l3.714-3.703C21.378,53.042,21.734,52.908,22.091,52.908z"/>
			</g>
		</g>
	</g>
</g>
<g>
	<g>
		<g>
			<g>
				<path fill="#FFDD0F" d="M40.427,11.649c-0.77,0-1.4-0.633-1.4-1.404v-5.26c-0.002-0.771,0.631-1.402,1.4-1.402
					c0.771,0,1.403,0.632,1.403,1.403v5.26C41.828,11.017,41.196,11.649,40.427,11.649z"/>
			</g>
			<g>
				<path fill="#FFDD0F" d="M22.105,19.253c-0.371,0-0.726-0.147-1.006-0.412l-3.714-3.729c-0.546-0.546-0.546-1.437,0-1.981
					c0.545-0.561,1.452-0.56,1.997,0.001l3.713,3.714c0.546,0.546,0.546,1.437,0,1.997C22.817,19.105,22.459,19.253,22.105,19.253z"
					/>
			</g>
			<g>
				<path fill="#FFDD0F" d="M14.502,37.573H9.254c-0.786,0-1.417-0.632-1.417-1.402c0-0.785,0.632-1.418,1.417-1.418h5.247
					c0.784,0,1.418,0.633,1.418,1.418C15.919,36.941,15.286,37.573,14.502,37.573z"/>
			</g>
			<g>
				<path fill="#FFDD0F" d="M71.597,37.573h-5.262c-0.77,0-1.402-0.634-1.402-1.402c0-0.785,0.635-1.418,1.402-1.418h5.262
					c0.771,0,1.403,0.633,1.403,1.418C73,36.941,72.367,37.573,71.597,37.573z"/>
			</g>
			<g>
				<path fill="#FFDD0F" d="M58.763,19.253c-0.369,0-0.74-0.147-1.006-0.412c-0.563-0.561-0.563-1.451,0-1.997l3.729-3.714
					c0.53-0.562,1.421-0.562,1.983-0.001c0.558,0.546,0.558,1.436,0,1.981L59.74,18.84C59.474,19.105,59.101,19.253,58.763,19.253z"
					/>
			</g>
		</g>
	</g>
</g>
</svg>
